<svg width="18" height="18" viewBox="0 0 18 18" fill="none" xmlns="http://www.w3.org/2000/svg">
<g clip-path="url(#clip0_918_52196)">
<path d="M9 1.5C6.105 1.5 3.75 3.855 3.75 6.75C3.75 10.6875 9 16.5 9 16.5C9 16.5 14.25 10.6875 14.25 6.75C14.25 3.855 11.895 1.5 9 1.5ZM9.66 11.8125H8.3475V10.5H9.66V11.8125ZM9.66 9.66H8.3475C8.3475 7.53 10.3125 7.695 10.3125 6.375C10.3125 5.655 9.72 5.0625 9 5.0625C8.28 5.0625 7.6875 5.655 7.6875 6.375H6.375C6.375 4.9275 7.5525 3.75 9 3.75C10.4475 3.75 11.625 4.9275 11.625 6.375C11.625 8.0175 9.66 8.1825 9.66 9.66Z" fill="#EA7C69"/>
</g>
<defs>
<clipPath id="clip0_918_52196">
<rect width="18" height="18" fill="white"/>
</clipPath>
</defs>
</svg>
