<svg width="19" height="21" viewBox="0 0 19 21" fill="none" xmlns="http://www.w3.org/2000/svg">
<path d="M17.3516 1.92188L15.8516 0.421875L14.3516 1.92188L12.8516 0.421875L11.3516 1.92188L9.85156 0.421875L8.35156 1.92188L6.85156 0.421875L5.35156 1.92188L3.85156 0.421875V14.4219H0.851562V17.4219C0.851562 19.0819 2.19156 20.4219 3.85156 20.4219H15.8516C17.5116 20.4219 18.8516 19.0819 18.8516 17.4219V0.421875L17.3516 1.92188ZM12.8516 18.4219H3.85156C3.30156 18.4219 2.85156 17.9719 2.85156 17.4219V16.4219H12.8516V18.4219ZM16.8516 17.4219C16.8516 17.9719 16.4016 18.4219 15.8516 18.4219C15.3016 18.4219 14.8516 17.9719 14.8516 17.4219V14.4219H5.85156V3.42188H16.8516V17.4219Z" fill="#EA7C69"/>
<path d="M12.8516 5.42188H6.85156V7.42188H12.8516V5.42188Z" fill="#EA7C69"/>
<path d="M15.8516 5.42188H13.8516V7.42188H15.8516V5.42188Z" fill="#EA7C69"/>
<path d="M12.8516 8.42188H6.85156V10.4219H12.8516V8.42188Z" fill="#EA7C69"/>
<path d="M15.8516 8.42188H13.8516V10.4219H15.8516V8.42188Z" fill="#EA7C69"/>
</svg>
