<svg width="200" height="200" viewBox="0 0 200 200" fill="none" xmlns="http://www.w3.org/2000/svg">
<path d="M177.569 136.379H105.27C103.977 136.379 102.926 135.327 102.926 134.034V28.7247C102.926 27.4319 103.977 26.3799 105.27 26.3799H177.569C178.861 26.3799 179.913 27.4315 179.913 28.7247V134.034C179.913 135.327 178.861 136.379 177.569 136.379ZM105.27 26.4799C104.033 26.4799 103.026 27.4871 103.026 28.7247V134.034C103.026 135.272 104.033 136.279 105.27 136.279H177.569C178.807 136.279 179.813 135.271 179.813 134.034V28.7247C179.813 27.4871 178.806 26.4799 177.569 26.4799H105.27Z" fill="#E0E0E0"/>
<path d="M94.1983 136.379H21.8995C20.6067 136.379 19.5547 135.327 19.5547 134.034V28.7247C19.5547 27.4319 20.6063 26.3799 21.8995 26.3799H94.1983C95.4911 26.3799 96.5431 27.4315 96.5431 28.7247V134.034C96.5431 135.327 95.4911 136.379 94.1983 136.379ZM21.8995 26.4799C20.6619 26.4799 19.6547 27.4871 19.6547 28.7247V134.034C19.6547 135.272 20.6619 136.279 21.8995 136.279H94.1983C95.4363 136.279 96.4431 135.271 96.4431 134.034V28.7247C96.4431 27.4871 95.4359 26.4799 94.1983 26.4799H21.8995Z" fill="#E0E0E0"/>
<path d="M200 160.807H0V160.907H200V160.807Z" fill="#E0E0E0"/>
<path d="M60.7103 43.108C60.1163 44.0128 59.7167 45.0064 59.5039 46.0316L57.8711 46.1852V49.3468L59.5039 49.5008C59.7167 50.5256 60.1163 51.5192 60.7103 52.4244L59.6675 53.6836L61.9031 55.9192L63.1623 54.8768C64.0671 55.4708 65.0611 55.8704 66.0859 56.0832L66.2395 57.716H69.4011L69.5551 56.0836C70.5803 55.8708 71.5735 55.4712 72.4787 54.8772L73.7383 55.9196L75.9739 53.684L74.9311 52.4244C75.5251 51.5196 75.9247 50.526 76.1375 49.5008L77.7699 49.3472V46.1856L76.1371 46.0316C75.9243 45.0068 75.5247 44.0132 74.9307 43.1084L75.9731 41.8488L73.7375 39.6132L72.4783 40.656C71.5735 40.062 70.5795 39.662 69.5547 39.4492L69.4007 37.8164H66.2391L66.0855 39.4488C65.0607 39.6616 64.0667 40.0612 63.1619 40.6552L61.9027 39.6128L59.6671 41.8484L60.7103 43.108ZM70.8471 44.7396C72.5183 46.4108 72.5187 49.1208 70.8471 50.7924C69.1755 52.464 66.4655 52.4636 64.7943 50.7924C63.1227 49.1208 63.1227 46.4112 64.7943 44.7396C66.4659 43.068 69.1755 43.068 70.8471 44.7396Z" fill="#EBEBEB"/>
<path d="M34.6105 85.3217L14.9145 87.7813C12.5309 88.0789 10.7185 85.6845 11.6525 83.4713L19.3705 65.1841L27.0885 46.8969C28.0225 44.6837 31.0021 44.3117 32.4521 46.2273L44.4301 62.0545L56.4081 77.8821C57.8581 79.7977 56.6901 82.5641 54.3065 82.8617L34.6105 85.3217Z" fill="#E0E0E0"/>
<path d="M34.2474 82.4232L15.8818 84.7164C15.071 84.8176 14.455 84.0032 14.7726 83.2508L21.9694 66.1988L29.0758 49.3604C29.4334 48.5128 30.5742 48.3704 31.129 49.104L42.1586 63.678L53.3702 78.4928C53.8442 79.1188 53.4622 80.0236 52.683 80.1208L34.2474 82.4232Z" fill="#F5F5F5"/>
<path d="M29.0234 61.6647L33.4454 61.1123L34.0654 72.0695L31.1174 72.4375L29.0234 61.6647ZM31.629 77.7935C31.1402 77.4283 30.859 76.9447 30.7838 76.3419C30.7086 75.7399 30.8598 75.2095 31.2374 74.7523C31.6146 74.2943 32.1366 74.0243 32.8022 73.9411C33.4678 73.8579 34.0398 73.9919 34.5182 74.3427C34.9966 74.6931 35.2734 75.1699 35.3482 75.7715C35.4234 76.3747 35.2694 76.9127 34.8862 77.3863C34.5026 77.8615 33.9862 78.1395 33.3366 78.2203C32.6866 78.3015 32.1174 78.1591 31.629 77.7935Z" fill="#E0E0E0"/>
<path d="M181.468 54.1162H166.328V59.3074H181.468V54.1162Z" fill="#F5F5F5"/>
<path d="M165.062 54.3587V65.3355C165.062 65.6407 165.309 65.8879 165.615 65.8879H181.771C182.076 65.8879 182.323 65.6407 182.323 65.3355V55.4391C182.323 55.1339 182.076 54.8867 181.771 54.8867H171.945C171.747 54.8867 171.563 54.7799 171.465 54.6071L171.156 54.0631C171.077 53.9231 170.926 53.8359 170.761 53.8359H165.6C165.303 53.8359 165.062 54.0699 165.062 54.3587Z" fill="#E0E0E0"/>
<path d="M49.9379 142.828L49.2227 142.895V144.28L49.9379 144.347C50.0311 144.796 50.2063 145.231 50.4663 145.628L50.0095 146.179L50.9887 147.158L51.5403 146.701C51.9367 146.961 52.3719 147.136 52.8207 147.23L52.8879 147.944H54.2727L54.3399 147.23C54.7887 147.136 55.2239 146.961 55.6203 146.701L56.1719 147.158L57.1507 146.179L56.6943 145.628C56.9543 145.231 57.1295 144.796 57.2227 144.347L57.9379 144.28V142.895L57.2227 142.828C57.1299 142.379 56.9547 141.944 56.6947 141.548L57.1511 140.996L56.1719 140.017L55.6207 140.474C55.2243 140.214 54.7891 140.038 54.3403 139.946L54.2731 139.23H52.8883L52.8211 139.946C52.3723 140.038 51.9371 140.214 51.5407 140.474L50.9891 140.017L50.0099 140.996L50.4667 141.548C50.2063 141.944 50.0311 142.379 49.9379 142.828ZM54.9059 142.262C55.6379 142.994 55.6379 144.181 54.9059 144.913C54.1739 145.645 52.9871 145.645 52.2551 144.913C51.5231 144.181 51.5231 142.994 52.2551 142.262C52.9871 141.53 54.1739 141.53 54.9059 142.262Z" fill="#EBEBEB"/>
<path d="M49.1643 34.4235L48.3555 34.4995V36.0655L49.1643 36.1415C49.2695 36.6495 49.4675 37.1415 49.7619 37.5895L49.2455 38.2135L50.3527 39.3211L50.9767 38.8043C51.4251 39.0987 51.9171 39.2967 52.4247 39.4019L52.5007 40.2103H54.0671L54.1431 39.4015C54.6507 39.2959 55.1431 39.0979 55.5915 38.8039L56.2155 39.3207L57.3227 38.2131L56.8063 37.5891C57.1003 37.1407 57.2983 36.6483 57.4039 36.1411L58.2127 36.0651V34.4987L57.4043 34.4227C57.2991 33.9151 57.1011 33.4227 56.8067 32.9747L57.3231 32.3507L56.2159 31.2431L55.5919 31.7595C55.1435 31.4655 54.6515 31.2675 54.1435 31.1619L54.0675 30.3535H52.5011L52.4251 31.1623C51.9175 31.2675 51.4251 31.4655 50.9771 31.7599L50.3531 31.2431L49.2455 32.3507L49.7623 32.9747C49.4675 33.4235 49.2695 33.9159 49.1643 34.4235ZM54.7831 33.7835C55.6111 34.6115 55.6111 35.9535 54.7831 36.7819C53.9555 37.6095 52.6131 37.6099 51.7851 36.7819C50.9571 35.9539 50.9571 34.6115 51.7851 33.7835C52.6131 32.9555 53.9551 32.9555 54.7831 33.7835Z" fill="#EBEBEB"/>
<path d="M149.812 34.4534C149.383 35.1066 149.094 35.8242 148.941 36.5642L147.762 36.675V38.9578L148.941 39.069C149.094 39.809 149.383 40.5266 149.812 41.1798L149.059 42.089L150.673 43.7034L151.582 42.9506C152.236 43.3794 152.953 43.6678 153.693 43.8218L153.804 45.0006H156.087L156.198 43.8218C156.938 43.6682 157.655 43.3798 158.309 42.9506L159.218 43.7034L160.832 42.089L160.079 41.1798C160.508 40.5266 160.797 39.809 160.95 39.069L162.129 38.9578V36.675L160.95 36.5638C160.797 35.8238 160.508 35.1062 160.079 34.453L160.832 33.5434L159.218 31.929L158.309 32.6818C157.655 32.253 156.937 31.9642 156.198 31.8106L156.087 30.6318H153.804L153.693 31.8106C152.953 31.9642 152.235 32.2526 151.582 32.6818L150.673 31.929L149.059 33.5434L149.812 34.4534ZM157.131 35.6314C158.338 36.8382 158.339 38.795 157.131 40.0018C155.924 41.209 153.968 41.2086 152.761 40.0018C151.554 38.795 151.554 36.8382 152.761 35.6314C153.968 34.4246 155.924 34.4246 157.131 35.6314Z" fill="#F0F0F0"/>
<path d="M177.359 92.679C176.93 93.3322 176.641 94.0498 176.487 94.7898L175.309 94.901V97.1838L176.488 97.295C176.641 98.035 176.929 98.7526 177.359 99.4058L176.606 100.315L178.22 101.929L179.129 101.177C179.783 101.605 180.5 101.894 181.24 102.048L181.351 103.227L183.634 103.226L183.745 102.048C184.485 101.894 185.203 101.606 185.856 101.177L186.765 101.929L188.379 100.315L187.626 99.4054C188.055 98.7522 188.344 98.0346 188.497 97.2946L189.676 97.1834L189.676 94.9006L188.497 94.7894C188.344 94.0494 188.055 93.3318 187.626 92.6786L188.379 91.769L186.765 90.1546L185.855 90.9074C185.202 90.4786 184.485 90.1898 183.745 90.0362L183.634 88.8574H181.351L181.24 90.0362C180.5 90.1898 179.782 90.4782 179.129 90.9074L178.22 90.1546L176.606 91.769L177.359 92.679ZM184.679 93.857C185.885 95.0638 185.885 97.021 184.679 98.2278C183.471 99.4346 181.515 99.4346 180.308 98.2278C179.101 97.021 179.101 95.0642 180.308 93.857C181.515 92.6502 183.472 92.6502 184.679 93.857Z" fill="#F5F5F5"/>
<path d="M102.183 181.911C148.326 181.911 185.733 180.813 185.733 179.458C185.733 178.103 148.326 177.005 102.183 177.005C56.0394 177.005 18.6328 178.103 18.6328 179.458C18.6328 180.813 56.0394 181.911 102.183 181.911Z" fill="#F5F5F5"/>
<path d="M170.235 88.7422C174.52 88.7422 177.994 85.2685 177.994 80.9834C177.994 76.6983 174.52 73.2246 170.235 73.2246C165.95 73.2246 162.477 76.6983 162.477 80.9834C162.477 85.2685 165.95 88.7422 170.235 88.7422Z" fill="#EA7C69"/>
<path d="M169.068 86.9502L167.398 88.0474L168.294 90.4026L170.118 88.7246L169.068 86.9502Z" fill="#EA7C69"/>
<path d="M173.586 80.86L173.403 94.3207H171.282L171.099 80.86H173.586ZM172.342 99.7342C171.891 99.7342 171.504 99.5726 171.181 99.2495C170.858 98.9264 170.696 98.5393 170.696 98.0882C170.696 97.6371 170.858 97.2499 171.181 96.9268C171.504 96.6037 171.891 96.4422 172.342 96.4422C172.794 96.4422 173.181 96.6037 173.504 96.9268C173.827 97.2499 173.988 97.6371 173.988 98.0882C173.988 98.3869 173.912 98.6612 173.76 98.9112C173.614 99.1611 173.415 99.3623 173.165 99.5147C172.922 99.661 172.647 99.7342 172.342 99.7342Z" fill="white"/>
<path d="M174.723 73.4551C176.979 74.5831 178.591 76.9095 178.855 79.4183" stroke="#EA7C69" stroke-width="0.5" stroke-miterlimit="10" stroke-linecap="round" stroke-linejoin="round"/>
<path d="M178.938 80.5732C179.006 80.9516 178.995 81.3444 178.906 81.7188" stroke="#EA7C69" stroke-width="0.5" stroke-miterlimit="10" stroke-linecap="round" stroke-linejoin="round"/>
<path d="M115.192 158.839V160.447C115.192 160.648 115.03 160.807 114.829 160.807H69.4291C67.7503 160.807 66.6059 159.111 67.2323 157.557L81.6195 121.926L104.869 122.084L104.076 126.707L98.9471 156.631C98.7803 157.595 99.5235 158.481 100.505 158.481H114.83C115.029 158.48 115.192 158.639 115.192 158.839Z" fill="#263238"/>
<g opacity="0.6">
<path d="M115.192 158.839V160.447C115.192 160.648 115.03 160.807 114.829 160.807H69.4291C67.7503 160.807 66.6059 159.111 67.2323 157.557L76.1528 135.469L81.6195 121.926L104.869 122.084L104.076 126.707L101.846 139.721L98.9471 156.63C98.7803 157.595 99.5235 158.48 100.505 158.48H114.83C115.029 158.48 115.192 158.639 115.192 158.839Z" fill="white"/>
</g>
<g opacity="0.4">
<path d="M100.506 158.48H70.9671C70.2279 158.48 69.7263 157.729 70.0103 157.046L82.6235 126.707H104.077L98.9487 156.63C98.7815 157.595 99.5247 158.48 100.506 158.48Z" fill="white"/>
</g>
<g opacity="0.2">
<path d="M104.868 122.085L104.075 126.708L101.845 139.721L76.1523 135.469L81.6191 121.926L104.868 122.085Z" fill="black"/>
</g>
<path d="M150.078 55.6611H147.797H44.7235H42.4419C40.9207 55.6611 39.6875 56.8943 39.6875 58.4155V131.284C39.6875 132.805 40.9207 134.038 42.4419 134.038H44.7235H147.797H150.078C151.599 134.038 152.833 132.805 152.833 131.284V58.4155C152.833 56.8943 151.599 55.6611 150.078 55.6611Z" fill="#263238"/>
<g opacity="0.8">
<path d="M150.078 55.6611H147.797H44.7235H42.4419C40.9207 55.6611 39.6875 56.8943 39.6875 58.4155V131.284C39.6875 132.805 40.9207 134.038 42.4419 134.038H44.7235H147.797H150.078C151.599 134.038 152.833 132.805 152.833 131.284V58.4155C152.833 56.8943 151.599 55.6611 150.078 55.6611Z" fill="white"/>
</g>
<g opacity="0.2">
<path d="M44.7242 134.037H42.4426C40.9234 134.037 39.6914 132.805 39.6914 131.285V58.4171C39.6914 56.8931 40.9234 55.6611 42.4426 55.6611H44.7242C43.205 55.6611 41.973 56.8931 41.973 58.4171V131.285C41.973 132.805 43.205 134.037 44.7242 134.037Z" fill="black"/>
</g>
<path d="M150.351 58.0283H44.4531V128.294H150.351V58.0283Z" fill="#EA7C69"/>
<g opacity="0.4">
<path d="M150.351 58.0283H44.4531V128.294H150.351V58.0283Z" fill="white"/>
</g>
<path d="M150.39 58.0283H44.3672V128.378H150.39V58.0283Z" fill="#EA7C69"/>
<g opacity="0.5">
<path d="M150.39 58.0283H44.3672V128.378H150.39V58.0283Z" fill="white"/>
</g>
<path d="M150.391 58.0283H44.3672V64.8511H150.391V58.0283Z" fill="#EA7C69"/>
<g opacity="0.3">
<path d="M147.18 62.6393C147.843 62.6393 148.38 62.102 148.38 61.4393C148.38 60.7765 147.843 60.2393 147.18 60.2393C146.518 60.2393 145.98 60.7765 145.98 61.4393C145.98 62.102 146.518 62.6393 147.18 62.6393Z" fill="white"/>
</g>
<g opacity="0.3">
<path d="M143.77 62.6393C144.433 62.6393 144.97 62.102 144.97 61.4393C144.97 60.7765 144.433 60.2393 143.77 60.2393C143.108 60.2393 142.57 60.7765 142.57 61.4393C142.57 62.102 143.108 62.6393 143.77 62.6393Z" fill="white"/>
</g>
<g opacity="0.3">
<path d="M140.36 62.6393C141.023 62.6393 141.56 62.102 141.56 61.4393C141.56 60.7765 141.023 60.2393 140.36 60.2393C139.697 60.2393 139.16 60.7765 139.16 61.4393C139.16 62.102 139.697 62.6393 140.36 62.6393Z" fill="white"/>
</g>
<g opacity="0.1">
<path d="M150.392 64.8506H148.887V128.363H150.392V64.8506Z" fill="black"/>
</g>
<path d="M150.392 64.8506H148.887V79.2494H150.392V64.8506Z" fill="white"/>
<path d="M141.331 72.1416H129.957V76.0416H141.331V72.1416Z" fill="white"/>
<path d="M129.004 72.3244V80.5712C129.004 80.8004 129.19 80.986 129.419 80.986H141.557C141.786 80.986 141.972 80.8004 141.972 80.5712V73.136C141.972 72.9068 141.786 72.7212 141.557 72.7212H134.175C134.026 72.7212 133.888 72.6408 133.814 72.5112L133.582 72.1024C133.523 71.9972 133.409 71.9316 133.286 71.9316H129.408C129.184 71.9316 129.004 72.1072 129.004 72.3244Z" fill="#EA7C69"/>
<path d="M141.331 88.0635H129.957V91.9635H141.331V88.0635Z" fill="white"/>
<path d="M129.004 88.2463V96.4931C129.004 96.7223 129.19 96.9079 129.419 96.9079H141.557C141.786 96.9079 141.972 96.7223 141.972 96.4931V89.0583C141.972 88.8291 141.786 88.6431 141.557 88.6431H134.175C134.026 88.6431 133.888 88.5627 133.814 88.4331L133.582 88.0243C133.523 87.9191 133.409 87.8535 133.286 87.8535H129.408C129.184 87.8535 129.004 88.0291 129.004 88.2463Z" fill="#EA7C69"/>
<path d="M141.331 102.519H129.957V106.418H141.331V102.519Z" fill="white"/>
<path d="M129.004 102.701V110.948C129.004 111.177 129.19 111.363 129.419 111.363H141.557C141.786 111.363 141.972 111.177 141.972 110.948V103.513C141.972 103.284 141.786 103.098 141.557 103.098H134.175C134.026 103.098 133.888 103.018 133.814 102.888L133.582 102.479C133.523 102.374 133.409 102.309 133.286 102.309H129.408C129.184 102.309 129.004 102.484 129.004 102.701Z" fill="#EA7C69"/>
<path d="M61.0072 72.1416H49.6328V76.0416H61.0072V72.1416Z" fill="white"/>
<path d="M48.6797 72.3244V80.5712C48.6797 80.8004 48.8653 80.986 49.0945 80.986H61.2325C61.4617 80.986 61.6473 80.8004 61.6473 80.5712V73.136C61.6473 72.9068 61.4617 72.7212 61.2325 72.7212H53.8505C53.7013 72.7212 53.5633 72.6408 53.4897 72.5112L53.2577 72.1024C53.1981 71.9972 53.0841 71.9316 52.9605 71.9316H49.0829C48.8601 71.9316 48.6797 72.1072 48.6797 72.3244Z" fill="#EA7C69"/>
<path d="M61.0072 89.0449H49.6328V92.9449H61.0072V89.0449Z" fill="white"/>
<path d="M48.6797 89.2274V97.4746C48.6797 97.7038 48.8653 97.8894 49.0945 97.8894H61.2325C61.4617 97.8894 61.6473 97.7038 61.6473 97.4746V90.0394C61.6473 89.8102 61.4617 89.6246 61.2325 89.6246H53.8505C53.7013 89.6246 53.5633 89.5442 53.4897 89.4146L53.2577 89.0058C53.1981 88.9006 53.0841 88.835 52.9605 88.835H49.0829C48.8601 88.835 48.6797 89.0106 48.6797 89.2274Z" fill="#EA7C69"/>
<path d="M61.0072 104.501H49.6328V108.401H61.0072V104.501Z" fill="white"/>
<path d="M48.6797 104.684V112.931C48.6797 113.159 48.8653 113.345 49.0945 113.345H61.2325C61.4617 113.345 61.6473 113.159 61.6473 112.931V105.495C61.6473 105.266 61.4617 105.081 61.2325 105.081H53.8505C53.7013 105.081 53.5633 105 53.4897 104.871L53.2577 104.462C53.1981 104.357 53.0841 104.291 52.9605 104.291H49.0829C48.8601 104.291 48.6797 104.467 48.6797 104.684Z" fill="#EA7C69"/>
<path d="M120.152 71.7588H73.6875V88.1H120.152V71.7588Z" fill="white"/>
<path d="M69.7969 72.5231V107.08C69.7969 108.04 70.5553 108.818 71.4917 108.818H121.076C122.012 108.818 122.77 108.04 122.77 107.08V75.9251C122.77 74.9651 122.012 74.1867 121.076 74.1867H90.9205C90.3105 74.1867 89.7473 73.8503 89.4465 73.3063L88.4985 71.5935C88.2545 71.1519 87.7897 70.8779 87.2845 70.8779H71.4433C70.5341 70.8779 69.7969 71.6143 69.7969 72.5231Z" fill="#EA7C69"/>
<path d="M68.0203 85.8335C67.9099 85.8335 67.8203 85.7439 67.8203 85.6335V75.1551C67.8203 75.0447 67.9099 74.9551 68.0203 74.9551C68.1307 74.9551 68.2203 75.0447 68.2203 75.1551V85.6335C68.2203 85.7439 68.1311 85.8335 68.0203 85.8335Z" fill="#EA7C69"/>
<path d="M68.0203 73.9788C67.9099 73.9788 67.8203 73.8892 67.8203 73.7788V72.4764C67.8203 72.366 67.9099 72.2764 68.0203 72.2764C68.1307 72.2764 68.2203 72.366 68.2203 72.4764V73.7788C68.2203 73.8896 68.1311 73.9788 68.0203 73.9788Z" fill="#EA7C69"/>
<path d="M104.871 99.5886H89.9258V94.8846C89.9258 90.7062 93.2778 87.3066 97.3986 87.3066C101.519 87.3066 104.871 90.7062 104.871 94.8846V99.5886ZM91.5902 97.901H103.207V94.8846C103.207 91.6366 100.601 88.9942 97.3986 88.9942C94.1958 88.9942 91.5902 91.6366 91.5902 94.8846V97.901Z" fill="#E0E0E0"/>
<path d="M105.237 113.566H89.553C88.4322 113.566 87.5234 112.658 87.5234 111.536V99.6628C87.5234 98.5416 88.4322 97.6328 89.553 97.6328H105.237C106.359 97.6328 107.267 98.5416 107.267 99.6628V111.536C107.267 112.658 106.358 113.566 105.237 113.566Z" fill="#EA7C69"/>
<g opacity="0.3">
<path d="M105.237 111.713H89.553C88.4322 111.713 87.5234 110.805 87.5234 109.684V99.6628C87.5234 98.5416 88.4322 97.6328 89.553 97.6328H105.237C106.359 97.6328 107.267 98.5416 107.267 99.6628V109.684C107.267 110.805 106.358 111.713 105.237 111.713Z" fill="black"/>
</g>
<path d="M97.3124 105.809C98.6067 105.809 99.656 104.745 99.656 103.433C99.656 102.121 98.6067 101.057 97.3124 101.057C96.018 101.057 94.9688 102.121 94.9688 103.433C94.9688 104.745 96.018 105.809 97.3124 105.809Z" fill="#263238"/>
<path d="M96.842 104.147L95.8984 108.289H99.1124L97.8456 104.123L96.842 104.147Z" fill="#263238"/>
<path d="M115.079 96.0432C112.924 96.0432 110.967 94.5452 110.45 92.3284C110.157 91.0744 110.364 89.7796 111.031 88.6832C111.699 87.5868 112.748 86.8196 113.985 86.5228L119.127 85.2896C120.363 84.9928 121.64 85.2028 122.721 85.8796C123.802 86.5564 124.559 87.6204 124.851 88.8744C125.455 91.4632 123.869 94.0676 121.316 94.68L116.175 95.9132C115.808 96.0012 115.441 96.0432 115.079 96.0432ZM120.222 87.1288C120.008 87.1288 119.791 87.1536 119.574 87.2056L114.432 88.4388C112.921 88.8012 111.982 90.3428 112.339 91.8752C112.697 93.4072 114.217 94.36 115.728 93.9972L120.87 92.764C122.381 92.4016 123.32 90.8604 122.963 89.328C122.656 88.0152 121.497 87.1288 120.222 87.1288Z" fill="#E0E0E0"/>
<path d="M102.18 93.8663C101.703 93.8663 101.286 93.5087 101.22 93.0155C101.147 92.4767 101.519 91.9803 102.05 91.9067L113.484 90.3211C114.016 90.2503 114.504 90.6247 114.577 91.1631C114.65 91.7019 114.278 92.1983 113.747 92.2719L102.313 93.8575C102.269 93.8631 102.224 93.8663 102.18 93.8663Z" fill="#E0E0E0"/>
<g opacity="0.3">
<path d="M102.381 91.8596L104.135 91.618L104.002 91.3408L102.27 91.6792L102.381 91.8596Z" fill="black"/>
</g>
<g opacity="0.3">
<path d="M103.098 93.7494L104.753 93.5166L104.8 93.8442L103.146 94.0378L103.098 93.7494Z" fill="black"/>
</g>
<g opacity="0.3">
<path d="M110.547 92.723L112.532 92.4434L112.678 92.723L110.685 93.0762L110.547 92.723Z" fill="black"/>
</g>
<g opacity="0.3">
<path d="M110.336 90.7264L112.37 90.4716L112.443 90.2168L110.376 90.4308L110.336 90.7264Z" fill="black"/>
</g>
<path d="M135.25 90.9892C133.098 91.1016 131.067 89.7076 130.438 87.5204C130.083 86.2832 130.224 84.9796 130.835 83.8496C131.446 82.7196 132.455 81.8992 133.675 81.5384L138.748 80.0387C139.968 79.6779 141.254 79.8212 142.368 80.4408C143.482 81.0608 144.292 82.0836 144.647 83.3207C145.381 85.8748 143.929 88.558 141.41 89.3028L136.338 90.8024C135.976 90.9096 135.611 90.9704 135.25 90.9892ZM139.934 81.8188C139.721 81.83 139.505 81.866 139.291 81.9296L134.218 83.4292C132.727 83.8696 131.868 85.458 132.302 86.97C132.737 88.4816 134.303 89.354 135.794 88.9124L140.867 87.4128C142.358 86.9724 143.217 85.384 142.782 83.872C142.41 82.5772 141.208 81.7524 139.934 81.8188Z" fill="#E0E0E0"/>
<path d="M122.258 89.4866C121.781 89.5118 121.347 89.1762 121.255 88.6866C121.155 88.1522 121.501 87.637 122.029 87.5362L133.367 85.3574C133.894 85.259 134.402 85.6074 134.501 86.141C134.601 86.6754 134.255 87.1906 133.728 87.2914L122.39 89.4702C122.346 89.479 122.302 89.4842 122.258 89.4866Z" fill="#E0E0E0"/>
<g opacity="0.3">
<path d="M121.948 87.5778L124.048 87.1538L123.873 86.8682L121.82 87.4318L121.948 87.5778Z" fill="black"/>
</g>
<g opacity="0.3">
<path d="M122.895 89.3723L124.811 89.0059L124.833 89.3211L122.895 89.6915V89.3723Z" fill="black"/>
</g>
<g opacity="0.3">
<path d="M130.555 87.9092L132.523 87.5264L132.683 87.798L130.71 88.2548L130.555 87.9092Z" fill="black"/>
</g>
<g opacity="0.3">
<path d="M130.242 85.9264L132.261 85.566L132.321 85.3076L130.268 85.6284L130.242 85.9264Z" fill="black"/>
</g>
<path d="M142.688 84.8206C142.211 84.8454 141.777 84.5102 141.685 84.0206C141.585 83.4862 141.931 82.971 142.458 82.8702L153.797 80.6914C154.324 80.593 154.831 80.9414 154.931 81.4754C155.031 82.0098 154.685 82.525 154.158 82.6258L142.82 84.8046C142.776 84.813 142.731 84.8182 142.688 84.8206Z" fill="#E0E0E0"/>
<g opacity="0.3">
<path d="M142.378 82.9117L144.477 82.4878L144.303 82.2021L142.25 82.7661L142.378 82.9117Z" fill="black"/>
</g>
<g opacity="0.3">
<path d="M143.324 84.7062L145.241 84.3398L145.262 84.655L143.324 85.025V84.7062Z" fill="black"/>
</g>
<path d="M78.5083 95.7883L73.3663 94.5551C70.8135 93.9427 69.2275 91.3383 69.8315 88.7495C70.1239 87.4955 70.8807 86.4319 71.9619 85.7547C73.0431 85.0775 74.3203 84.8679 75.5567 85.1647L80.6987 86.3979C81.9355 86.6947 82.9843 87.4619 83.6519 88.5583C84.3195 89.6547 84.5263 90.9495 84.2335 92.2035C83.7167 94.4203 81.7587 95.9183 79.6035 95.9183C79.2419 95.9183 78.8751 95.8763 78.5083 95.7883ZM71.7207 89.2027C71.3631 90.7351 72.3019 92.2767 73.8131 92.6387L78.9551 93.8719C80.4663 94.2351 81.9863 93.2819 82.3439 91.7499C82.7015 90.2175 81.7627 88.6759 80.2515 88.3135L75.1095 87.0803C74.8923 87.0279 74.6751 87.0035 74.4611 87.0035C73.1859 87.0039 72.0271 87.8903 71.7207 89.2027Z" fill="#E0E0E0"/>
<path d="M92.5036 93.7413C92.9812 93.7413 93.3976 93.3837 93.464 92.8905C93.5367 92.3517 93.1648 91.8553 92.6336 91.7817L81.2 90.1961C80.668 90.1253 80.1792 90.4997 80.1068 91.0381C80.034 91.5769 80.406 92.0733 80.9372 92.1469L92.3708 93.7325C92.4152 93.7381 92.4596 93.7413 92.5036 93.7413Z" fill="#E0E0E0"/>
<g opacity="0.3">
<path d="M92.463 91.7569L90.6406 91.5057L90.8082 91.2305L92.5958 91.5797L92.463 91.7569Z" fill="black"/>
</g>
<g opacity="0.3">
<path d="M91.7422 93.6453L90.0866 93.4229L90.043 93.7513L91.6958 93.9477L91.7422 93.6453Z" fill="black"/>
</g>
<g opacity="0.3">
<path d="M84.1351 92.598L82.1499 92.3184L82.0039 92.598L83.9975 92.9512L84.1351 92.598Z" fill="black"/>
</g>
<g opacity="0.3">
<path d="M84.3494 90.6014L82.3154 90.3466L82.2422 90.0918L84.309 90.3058L84.3494 90.6014Z" fill="black"/>
</g>
<path d="M58.2028 91.1627L53.1296 89.6631C50.6116 88.9183 49.1596 86.2351 49.8936 83.6811C50.2492 82.4439 51.0588 81.4211 52.1728 80.8011C53.2868 80.1815 54.5728 80.0383 55.7928 80.3991L60.866 81.8987C62.086 82.2595 63.0944 83.0803 63.7056 84.2099C64.3168 85.3395 64.4576 86.6431 64.102 87.8807C63.4736 90.0679 61.4424 91.4619 59.29 91.3495C58.9288 91.3307 58.5644 91.2695 58.2028 91.1627ZM51.7576 84.2323C51.3232 85.7439 52.1824 87.3323 53.6732 87.7731L58.7464 89.2727C60.2372 89.7143 61.8036 88.8415 62.238 87.3303C62.6724 85.8187 61.8132 84.2303 60.3224 83.7895L55.2496 82.2899C55.0352 82.2267 54.8196 82.1907 54.606 82.1795C53.332 82.1123 52.1296 82.9375 51.7576 84.2323Z" fill="#E0E0E0"/>
<path d="M72.2799 89.847C72.7571 89.8722 73.1911 89.5366 73.2823 89.047C73.3819 88.5126 73.0359 87.9974 72.5091 87.8966L61.1711 85.7178C60.6435 85.6194 60.1363 85.9678 60.0367 86.5018C59.9367 87.0362 60.2831 87.5514 60.8099 87.6522L72.1483 89.831C72.1919 89.8394 72.2359 89.8446 72.2799 89.847Z" fill="#E0E0E0"/>
<g opacity="0.3">
<path d="M72.4312 87.8795L70.332 87.4555L70.5064 87.1699L72.5592 87.7339L72.4312 87.8795Z" fill="black"/>
</g>
<g opacity="0.3">
<path d="M71.6419 89.7326L69.7251 89.3662L69.7031 89.6814L71.6419 90.051V89.7326Z" fill="black"/>
</g>
<g opacity="0.3">
<path d="M63.9839 88.2691L62.0151 87.8867L61.8555 88.1583L63.8283 88.6151L63.9839 88.2691Z" fill="black"/>
</g>
<g opacity="0.3">
<path d="M64.2975 86.2864L62.2787 85.9264L62.2188 85.668L64.2719 85.9892L64.2975 86.2864Z" fill="black"/>
</g>
<path d="M52.3554 84.4741C52.827 84.5533 53.2953 84.2697 53.4405 83.7941C53.5993 83.2745 53.3129 82.7233 52.8005 82.5621L41.7777 79.0981C41.2645 78.9397 40.7217 79.2277 40.5633 79.7469C40.4045 80.2665 40.6909 80.8177 41.2033 80.9789L52.2261 84.4429C52.2685 84.4561 52.3122 84.4665 52.3554 84.4741Z" fill="#E0E0E0"/>
<g opacity="0.3">
<path d="M52.8747 82.6127L50.8359 81.9511L51.0415 81.6875L53.0183 82.4827L52.8747 82.6127Z" fill="black"/>
</g>
<g opacity="0.3">
<path d="M51.7329 84.2871L49.8693 83.7031L49.8125 84.0139L51.6973 84.6039L51.7329 84.2871Z" fill="black"/>
</g>
<path d="M112.745 124.139H80.6194C78.6526 124.139 77.0586 122.545 77.0586 120.578C77.0586 118.612 78.6526 117.018 80.6194 117.018H112.745C114.712 117.018 116.306 118.612 116.306 120.578C116.306 122.544 114.712 124.139 112.745 124.139Z" fill="#EA7C69"/>
<g opacity="0.3">
<path d="M112.745 124.139H80.6194C78.6526 124.139 77.0586 122.545 77.0586 120.578C77.0586 118.612 78.6526 117.018 80.6194 117.018H112.745C114.712 117.018 116.306 118.612 116.306 120.578C116.306 122.544 114.712 124.139 112.745 124.139Z" fill="black"/>
</g>
<path d="M113.652 124.139H81.576C79.6096 124.139 78.0156 122.545 78.0156 120.578C78.0156 118.612 79.6096 117.018 81.576 117.018H113.652C115.618 117.018 117.212 118.612 117.212 120.578C117.212 122.544 115.618 124.139 113.652 124.139Z" fill="#EA7C69"/>
<path d="M85.8383 119.764C85.9903 119.849 86.1095 119.969 86.1963 120.123C86.2827 120.278 86.3259 120.458 86.3259 120.663C86.3259 120.869 86.2827 121.049 86.1963 121.203C86.1095 121.358 85.9903 121.478 85.8383 121.563C85.6863 121.648 85.5175 121.691 85.3319 121.691C85.0771 121.691 84.8771 121.61 84.7311 121.449V122.38H84.1523V119.665H84.7051V119.895C84.8483 119.722 85.0575 119.636 85.3319 119.636C85.5179 119.636 85.6863 119.679 85.8383 119.764ZM85.5975 121.066C85.6927 120.966 85.7403 120.831 85.7403 120.663C85.7403 120.495 85.6927 120.361 85.5975 120.261C85.5023 120.161 85.3807 120.111 85.2319 120.111C85.0835 120.111 84.9619 120.161 84.8667 120.261C84.7715 120.361 84.7239 120.495 84.7239 120.663C84.7239 120.831 84.7715 120.966 84.8667 121.066C84.9619 121.166 85.0835 121.216 85.2319 121.216C85.3803 121.216 85.5023 121.166 85.5975 121.066Z" fill="white"/>
<path d="M88.1937 119.856C88.3593 120.003 88.4425 120.225 88.4425 120.522V121.661H87.9009V121.412C87.7921 121.598 87.5893 121.69 87.2925 121.69C87.1393 121.69 87.0061 121.664 86.8937 121.613C86.7813 121.561 86.6953 121.489 86.6357 121.397C86.5765 121.306 86.5469 121.202 86.5469 121.086C86.5469 120.901 86.6165 120.755 86.7565 120.648C86.8961 120.542 87.1117 120.489 87.4037 120.489H87.8637C87.8637 120.363 87.8253 120.265 87.7485 120.197C87.6721 120.129 87.5569 120.095 87.4037 120.095C87.2973 120.095 87.1929 120.112 87.0905 120.145C86.9877 120.179 86.9005 120.224 86.8289 120.281L86.6209 119.877C86.7297 119.8 86.8601 119.741 87.0125 119.699C87.1645 119.657 87.3209 119.636 87.4817 119.636C87.7909 119.635 88.0281 119.709 88.1937 119.856ZM87.7005 121.232C87.7769 121.186 87.8313 121.119 87.8637 121.03V120.826H87.4669C87.2297 120.826 87.1109 120.903 87.1109 121.059C87.1109 121.134 87.1401 121.192 87.1981 121.235C87.2565 121.279 87.3361 121.3 87.4373 121.3C87.5357 121.301 87.6237 121.278 87.7005 121.232Z" fill="white"/>
<path d="M90.9094 119.665L90.0082 121.783C89.9166 122.013 89.8038 122.175 89.669 122.269C89.5342 122.363 89.3714 122.41 89.1814 122.41C89.0774 122.41 88.9746 122.394 88.8734 122.362C88.7722 122.329 88.6894 122.285 88.625 122.228L88.8366 121.817C88.881 121.856 88.9322 121.887 88.9906 121.909C89.0486 121.931 89.1062 121.943 89.163 121.943C89.2422 121.943 89.3062 121.923 89.3558 121.885C89.4054 121.846 89.4498 121.783 89.4894 121.693L89.497 121.675L88.6326 119.665H89.2298L89.7898 121.019L90.3534 119.665H90.9094Z" fill="white"/>
<path d="M92.8329 119.71H93.3445V120.155H92.8477V121.66H92.2689V120.155H91.9609V119.71H92.2689V119.62C92.2689 119.393 92.3361 119.212 92.4709 119.079C92.6057 118.946 92.7957 118.879 93.0401 118.879C93.1265 118.879 93.2089 118.888 93.2869 118.907C93.3649 118.925 93.4297 118.952 93.4817 118.986L93.3297 119.405C93.2629 119.358 93.1853 119.335 93.0961 119.335C92.9205 119.335 92.8329 119.431 92.8329 119.624V119.71Z" fill="white"/>
<path d="M93.9894 121.559C93.8226 121.471 93.6918 121.349 93.5978 121.193C93.5038 121.037 93.457 120.861 93.457 120.663C93.457 120.465 93.5038 120.288 93.5978 120.133C93.6918 119.977 93.8222 119.855 93.9894 119.767C94.1562 119.679 94.345 119.636 94.555 119.636C94.765 119.636 94.953 119.679 95.1186 119.767C95.2842 119.855 95.4142 119.977 95.5082 120.133C95.6022 120.289 95.6494 120.465 95.6494 120.663C95.6494 120.861 95.6022 121.038 95.5082 121.193C95.4142 121.349 95.2842 121.471 95.1186 121.559C94.953 121.647 94.765 121.69 94.555 121.69C94.345 121.69 94.1562 121.646 93.9894 121.559ZM94.9202 121.065C95.0154 120.965 95.063 120.831 95.063 120.663C95.063 120.494 95.0154 120.36 94.9202 120.26C94.825 120.16 94.7034 120.11 94.555 120.11C94.4066 120.11 94.2842 120.16 94.1878 120.26C94.0914 120.36 94.043 120.494 94.043 120.663C94.043 120.831 94.0914 120.965 94.1878 121.065C94.2842 121.165 94.4066 121.215 94.555 121.215C94.703 121.215 94.825 121.165 94.9202 121.065Z" fill="white"/>
<path d="M96.8684 119.71C96.9856 119.661 97.1212 119.636 97.2744 119.636V120.17C97.21 120.165 97.1668 120.162 97.1444 120.162C96.9788 120.162 96.8488 120.209 96.7548 120.301C96.6608 120.394 96.614 120.533 96.614 120.719V121.661H96.0352V119.665H96.588V119.929C96.6576 119.833 96.7508 119.759 96.8684 119.71Z" fill="white"/>
<path d="M100.693 119.665V121.661H100.144V121.423C100.068 121.51 99.9763 121.576 99.8699 121.621C99.7635 121.667 99.6487 121.69 99.5251 121.69C99.2631 121.69 99.0555 121.615 98.9019 121.464C98.7483 121.313 98.6719 121.089 98.6719 120.793V119.665H99.2507V120.707C99.2507 121.029 99.3855 121.189 99.6551 121.189C99.7935 121.189 99.9047 121.145 99.9887 121.054C100.073 120.964 100.115 120.829 100.115 120.651V119.665H100.693V119.665Z" fill="white"/>
<path d="M103.046 119.858C103.198 120.007 103.274 120.227 103.274 120.519V121.661H102.695V120.607C102.695 120.449 102.661 120.331 102.592 120.253C102.522 120.175 102.422 120.136 102.291 120.136C102.145 120.136 102.029 120.181 101.942 120.271C101.856 120.362 101.813 120.496 101.813 120.674V121.661H101.234V119.665H101.787V119.899C101.863 119.815 101.959 119.75 102.073 119.704C102.186 119.659 102.311 119.636 102.447 119.636C102.694 119.636 102.894 119.71 103.046 119.858Z" fill="white"/>
<path d="M103.797 118.909H104.376V121.661H103.797V118.909Z" fill="white"/>
<path d="M105.295 121.559C105.127 121.471 104.997 121.349 104.903 121.193C104.809 121.037 104.762 120.861 104.762 120.663C104.762 120.465 104.809 120.288 104.903 120.133C104.997 119.977 105.127 119.855 105.295 119.767C105.461 119.679 105.65 119.636 105.86 119.636C106.07 119.636 106.258 119.679 106.423 119.767C106.589 119.855 106.719 119.977 106.813 120.133C106.907 120.289 106.954 120.465 106.954 120.663C106.954 120.861 106.907 121.038 106.813 121.193C106.719 121.349 106.589 121.471 106.423 121.559C106.258 121.647 106.07 121.69 105.86 121.69C105.65 121.69 105.461 121.646 105.295 121.559ZM106.225 121.065C106.321 120.965 106.368 120.831 106.368 120.663C106.368 120.494 106.321 120.36 106.225 120.26C106.131 120.16 106.009 120.11 105.861 120.11C105.712 120.11 105.589 120.16 105.493 120.26C105.397 120.36 105.349 120.494 105.349 120.663C105.349 120.831 105.397 120.965 105.493 121.065C105.589 121.165 105.712 121.215 105.861 121.215C106.009 121.215 106.13 121.165 106.225 121.065Z" fill="white"/>
<path d="M107.731 121.559C107.561 121.471 107.429 121.349 107.334 121.193C107.239 121.037 107.191 120.861 107.191 120.663C107.191 120.465 107.239 120.288 107.334 120.133C107.429 119.977 107.561 119.855 107.731 119.767C107.9 119.679 108.091 119.636 108.304 119.636C108.514 119.636 108.697 119.679 108.855 119.767C109.012 119.855 109.126 119.981 109.197 120.144L108.749 120.385C108.645 120.202 108.495 120.11 108.3 120.11C108.149 120.11 108.025 120.16 107.925 120.259C107.826 120.357 107.777 120.492 107.777 120.663C107.777 120.834 107.826 120.969 107.925 121.067C108.024 121.166 108.149 121.216 108.3 121.216C108.498 121.216 108.647 121.124 108.749 120.941L109.197 121.186C109.126 121.344 109.011 121.467 108.855 121.557C108.698 121.646 108.514 121.69 108.304 121.69C108.091 121.69 107.9 121.646 107.731 121.559Z" fill="white"/>
<path d="M110.376 120.878L110.098 121.153V121.661H109.52V118.909H110.098V120.467L110.944 119.666H111.634L110.803 120.512L111.708 121.661H111.007L110.376 120.878Z" fill="white"/>
<path d="M46.125 157.809C46.125 157.809 48.7762 153.408 51.1518 154.89C53.5274 156.372 53.0774 160.383 50.687 160.888C48.2966 161.392 46.5182 160.3 46.5182 160.3L46.125 157.809Z" fill="#EA7C69"/>
<path opacity="0.4" d="M46.125 157.809C46.125 157.809 48.7762 153.408 51.1518 154.89C53.5274 156.372 53.0774 160.383 50.687 160.888C48.2966 161.392 46.5182 160.3 46.5182 160.3L46.125 157.809Z" fill="white"/>
<path d="M44.4261 169.941C44.4261 169.941 51.4909 156.191 43.7837 154.849C36.0765 153.506 36.7305 166.127 39.3653 169.253C42.0005 172.379 44.4261 169.941 44.4261 169.941Z" fill="#EA7C69"/>
<path opacity="0.5" d="M44.4261 169.941C44.4261 169.941 51.4909 156.191 43.7837 154.849C36.0765 153.506 36.7305 166.127 39.3653 169.253C42.0005 172.379 44.4261 169.941 44.4261 169.941Z" fill="white"/>
<path d="M39.9238 155.675C39.9238 155.675 40.8326 143.787 35.465 143.698C30.097 143.608 26.575 154.775 38.2022 158.275C38.2018 158.275 39.8742 156.832 39.9238 155.675Z" fill="#EA7C69"/>
<path opacity="0.4" d="M39.9238 155.675C39.9238 155.675 40.8326 143.787 35.465 143.698C30.097 143.608 26.575 154.775 38.2022 158.275C38.2018 158.275 39.8742 156.832 39.9238 155.675Z" fill="white"/>
<path d="M33.125 143.805C33.2594 143.982 33.3758 144.173 33.4718 144.375" stroke="#EA7C69" stroke-width="0.5" stroke-miterlimit="10" stroke-linecap="round" stroke-linejoin="round"/>
<path d="M30.9141 145.104C31.2661 145.493 31.6625 145.842 32.0933 146.142" stroke="#EA7C69" stroke-width="0.5" stroke-miterlimit="10" stroke-linecap="round" stroke-linejoin="round"/>
<path d="M30.207 147.159C30.5238 147.336 30.8406 147.512 31.1574 147.689" stroke="#EA7C69" stroke-width="0.5" stroke-miterlimit="10" stroke-linecap="round" stroke-linejoin="round"/>
<path d="M32.2461 152.018C32.5629 152.194 32.8797 152.371 33.1969 152.547" stroke="#EA7C69" stroke-width="0.5" stroke-miterlimit="10" stroke-linecap="round" stroke-linejoin="round"/>
<path d="M30.5234 153.34C30.8742 153.386 31.2426 153.272 31.507 153.037" stroke="#EA7C69" stroke-width="0.5" stroke-miterlimit="10" stroke-linecap="round" stroke-linejoin="round"/>
<path d="M31.7812 155.236C31.9932 155.033 32.176 154.8 32.3228 154.547" stroke="#EA7C69" stroke-width="0.5" stroke-miterlimit="10" stroke-linecap="round" stroke-linejoin="round"/>
<path d="M33.4766 156.651C33.5938 156.376 33.7022 156.097 33.8018 155.815" stroke="#EA7C69" stroke-width="0.5" stroke-miterlimit="10" stroke-linecap="round" stroke-linejoin="round"/>
<path d="M34.5938 157.372C34.7986 157.085 34.9698 156.775 35.103 156.448" stroke="#EA7C69" stroke-width="0.5" stroke-miterlimit="10" stroke-linecap="round" stroke-linejoin="round"/>
<path d="M37.1641 158.486C36.9721 158.183 36.9065 157.803 36.9865 157.454" stroke="#EA7C69" stroke-width="0.5" stroke-miterlimit="10" stroke-linecap="round" stroke-linejoin="round"/>
<path d="M40.8386 154.271C40.4194 154.474 39.9574 154.587 39.4922 154.6" stroke="#EA7C69" stroke-width="0.5" stroke-miterlimit="10" stroke-linecap="round" stroke-linejoin="round"/>
<path d="M40.324 152.636C39.9876 152.759 39.6188 152.794 39.2656 152.736" stroke="#EA7C69" stroke-width="0.5" stroke-miterlimit="10" stroke-linecap="round" stroke-linejoin="round"/>
<path d="M40.2107 150.777C39.9307 150.711 39.6511 150.645 39.3711 150.579" stroke="#EA7C69" stroke-width="0.5" stroke-miterlimit="10" stroke-linecap="round" stroke-linejoin="round"/>
<path d="M37.7576 150.422C37.478 150.356 37.198 150.29 36.918 150.225" stroke="#EA7C69" stroke-width="0.5" stroke-miterlimit="10" stroke-linecap="round" stroke-linejoin="round"/>
<path d="M37.2135 148.201C36.9771 148.364 36.7403 148.528 36.5039 148.692" stroke="#EA7C69" stroke-width="0.5" stroke-miterlimit="10" stroke-linecap="round" stroke-linejoin="round"/>
<path d="M37.4841 143.904C37.3165 144.138 37.1485 144.371 36.9805 144.605" stroke="#EA7C69" stroke-width="0.5" stroke-miterlimit="10" stroke-linecap="round" stroke-linejoin="round"/>
<path d="M39.9165 148.903C39.6657 148.943 39.4149 148.983 39.1641 149.022" stroke="#EA7C69" stroke-width="0.5" stroke-miterlimit="10" stroke-linecap="round" stroke-linejoin="round"/>
<path d="M39.541 147.457C39.3018 147.495 39.063 147.532 38.8242 147.57" stroke="#EA7C69" stroke-width="0.5" stroke-miterlimit="10" stroke-linecap="round" stroke-linejoin="round"/>
<path d="M38.7386 145.833C38.3946 146.024 38.051 146.215 37.707 146.406" stroke="#EA7C69" stroke-width="0.5" stroke-miterlimit="10" stroke-linecap="round" stroke-linejoin="round"/>
<path d="M35.1992 143.588C35.2628 143.921 35.3024 144.259 35.3168 144.597" stroke="#EA7C69" stroke-width="0.5" stroke-miterlimit="10" stroke-linecap="round" stroke-linejoin="round"/>
<path d="M33.7031 146.414C33.9791 146.62 34.2275 146.863 34.4387 147.135" stroke="#EA7C69" stroke-width="0.5" stroke-miterlimit="10" stroke-linecap="round" stroke-linejoin="round"/>
<path d="M33.4492 148.837C33.7516 148.897 34.0608 148.924 34.3692 148.914" stroke="#EA7C69" stroke-width="0.5" stroke-miterlimit="10" stroke-linecap="round" stroke-linejoin="round"/>
<path d="M34.0156 150.935C34.0404 150.981 34.1116 150.947 34.1488 150.91C34.3384 150.719 34.5284 150.529 34.718 150.338" stroke="#EA7C69" stroke-width="0.5" stroke-miterlimit="10" stroke-linecap="round" stroke-linejoin="round"/>
<path d="M34.8516 153.03C35.0792 152.829 35.2876 152.606 35.4732 152.365" stroke="#EA7C69" stroke-width="0.5" stroke-miterlimit="10" stroke-linecap="round" stroke-linejoin="round"/>
<path d="M37.4922 152.468C37.7198 152.266 37.9282 152.043 38.1138 151.803" stroke="#EA7C69" stroke-width="0.5" stroke-miterlimit="10" stroke-linecap="round" stroke-linejoin="round"/>
<path d="M36.293 154.936C36.4014 154.672 36.5606 154.428 36.7598 154.224" stroke="#EA7C69" stroke-width="0.5" stroke-miterlimit="10" stroke-linecap="round" stroke-linejoin="round"/>
<path d="M34.0898 154.971C34.1982 154.707 34.3574 154.463 34.5566 154.259" stroke="#EA7C69" stroke-width="0.5" stroke-miterlimit="10" stroke-linecap="round" stroke-linejoin="round"/>
<path d="M38.1032 156.316C38.1708 155.991 38.1468 155.646 38.0352 155.333" stroke="#EA7C69" stroke-width="0.5" stroke-miterlimit="10" stroke-linecap="round" stroke-linejoin="round"/>
<path d="M36.3466 146.032C36.2114 146.309 36.0766 146.586 35.9414 146.862" stroke="#EA7C69" stroke-width="0.5" stroke-miterlimit="10" stroke-linecap="round" stroke-linejoin="round"/>
<path d="M30.7617 149.102C30.9697 149.368 31.2285 149.593 31.5205 149.763" stroke="#EA7C69" stroke-width="0.5" stroke-miterlimit="10" stroke-linecap="round" stroke-linejoin="round"/>
<path d="M30.0117 151.763C30.2893 151.748 30.5673 151.732 30.8449 151.717" stroke="#EA7C69" stroke-width="0.5" stroke-miterlimit="10" stroke-linecap="round" stroke-linejoin="round"/>
<path d="M43.0586 154.059C43.2682 154.423 43.3898 154.837 43.4098 155.257" stroke="#EA7C69" stroke-width="0.5" stroke-miterlimit="10" stroke-linecap="round" stroke-linejoin="round"/>
<path d="M45.5611 154.55C45.6443 155.029 45.5103 155.541 45.2031 155.919" stroke="#EA7C69" stroke-width="0.5" stroke-miterlimit="10" stroke-linecap="round" stroke-linejoin="round"/>
<path d="M40.4609 155.174C40.6209 155.416 40.8145 155.635 41.0345 155.825" stroke="#EA7C69" stroke-width="0.5" stroke-miterlimit="10" stroke-linecap="round" stroke-linejoin="round"/>
<path d="M37.1836 159.93C37.626 159.998 38.0664 160.082 38.5024 160.182" stroke="#EA7C69" stroke-width="0.5" stroke-miterlimit="10" stroke-linecap="round" stroke-linejoin="round"/>
<path d="M36.7891 162.497C37.1567 162.842 37.7427 162.929 38.1947 162.706" stroke="#EA7C69" stroke-width="0.5" stroke-miterlimit="10" stroke-linecap="round" stroke-linejoin="round"/>
<path d="M37.3672 165.571C37.6916 165.406 38.026 165.261 38.368 165.136" stroke="#EA7C69" stroke-width="0.5" stroke-miterlimit="10" stroke-linecap="round" stroke-linejoin="round"/>
<path d="M37.9023 168.222C38.2063 168.006 38.5107 167.789 38.8147 167.573" stroke="#EA7C69" stroke-width="0.5" stroke-miterlimit="10" stroke-linecap="round" stroke-linejoin="round"/>
<path d="M46.4368 167.426C45.8772 167.379 45.3244 167.251 44.8008 167.048" stroke="#EA7C69" stroke-width="0.5" stroke-miterlimit="10" stroke-linecap="round" stroke-linejoin="round"/>
<path d="M46.7715 166.038C46.4683 165.956 46.1679 165.864 45.8711 165.763" stroke="#EA7C69" stroke-width="0.5" stroke-miterlimit="10" stroke-linecap="round" stroke-linejoin="round"/>
<path d="M47.593 163.759C47.1262 163.75 46.659 163.741 46.1914 163.731" stroke="#EA7C69" stroke-width="0.5" stroke-miterlimit="10" stroke-linecap="round" stroke-linejoin="round"/>
<path d="M47.9642 161.973C47.5758 161.921 47.193 161.828 46.8242 161.695" stroke="#EA7C69" stroke-width="0.5" stroke-miterlimit="10" stroke-linecap="round" stroke-linejoin="round"/>
<path d="M46.8906 155.149C47.1634 155.473 47.393 155.833 47.571 156.217" stroke="#EA7C69" stroke-width="0.5" stroke-miterlimit="10" stroke-linecap="round" stroke-linejoin="round"/>
<path d="M49.0664 154.511C49.1744 154.837 49.2824 155.164 49.3904 155.491" stroke="#EA7C69" stroke-width="0.5" stroke-miterlimit="10" stroke-linecap="round" stroke-linejoin="round"/>
<path d="M52.2499 154.571C52.0143 154.97 51.815 155.39 51.6562 155.826" stroke="#EA7C69" stroke-width="0.5" stroke-miterlimit="10" stroke-linecap="round" stroke-linejoin="round"/>
<path d="M53.2047 156.821C52.9883 157.138 52.6215 157.348 52.2383 157.373" stroke="#EA7C69" stroke-width="0.5" stroke-miterlimit="10" stroke-linecap="round" stroke-linejoin="round"/>
<path d="M52.734 160.83C52.1904 160.693 51.6876 160.399 51.3008 159.992" stroke="#EA7C69" stroke-width="0.5" stroke-miterlimit="10" stroke-linecap="round" stroke-linejoin="round"/>
<path d="M49.6379 161.768C49.5687 161.387 49.5191 161.002 49.4883 160.616" stroke="#EA7C69" stroke-width="0.5" stroke-miterlimit="10" stroke-linecap="round" stroke-linejoin="round"/>
<path d="M48.8967 158.064C48.9183 158.296 48.9147 158.531 48.8867 158.762" stroke="#EA7C69" stroke-width="0.5" stroke-miterlimit="10" stroke-linecap="round" stroke-linejoin="round"/>
<path d="M50.7752 157.18C50.8592 157.536 50.7676 157.929 50.5352 158.212" stroke="#EA7C69" stroke-width="0.5" stroke-miterlimit="10" stroke-linecap="round" stroke-linejoin="round"/>
<path d="M47.0912 158.542C46.7972 158.486 46.4984 158.454 46.1992 158.447" stroke="#EA7C69" stroke-width="0.5" stroke-miterlimit="10" stroke-linecap="round" stroke-linejoin="round"/>
<path d="M44.5859 160.529C44.6283 160.233 44.6459 159.933 44.6387 159.634" stroke="#EA7C69" stroke-width="0.5" stroke-miterlimit="10" stroke-linecap="round" stroke-linejoin="round"/>
<path d="M42.4492 156.857C42.728 157.127 42.9736 157.43 43.1788 157.759" stroke="#EA7C69" stroke-width="0.5" stroke-miterlimit="10" stroke-linecap="round" stroke-linejoin="round"/>
<path d="M43.5915 159.062C43.3267 159.422 42.9147 159.67 42.4727 159.736" stroke="#EA7C69" stroke-width="0.5" stroke-miterlimit="10" stroke-linecap="round" stroke-linejoin="round"/>
<path d="M42.3008 161.32C42.4356 161.61 42.6068 161.882 42.8096 162.129" stroke="#EA7C69" stroke-width="0.5" stroke-miterlimit="10" stroke-linecap="round" stroke-linejoin="round"/>
<path d="M43.5381 164.13C42.9853 164.371 42.3597 164.616 41.7969 164.397" stroke="#EA7C69" stroke-width="0.5" stroke-miterlimit="10" stroke-linecap="round" stroke-linejoin="round"/>
<path d="M41.9766 166.325C42.0938 166.173 42.2286 166.035 42.3774 165.915" stroke="#EA7C69" stroke-width="0.5" stroke-miterlimit="10" stroke-linecap="round" stroke-linejoin="round"/>
<path d="M44.2109 165.826C44.3281 165.674 44.4629 165.536 44.6117 165.416" stroke="#EA7C69" stroke-width="0.5" stroke-miterlimit="10" stroke-linecap="round" stroke-linejoin="round"/>
<path d="M41.8242 168.246C41.9942 167.957 42.2014 167.69 42.439 167.454" stroke="#EA7C69" stroke-width="0.5" stroke-miterlimit="10" stroke-linecap="round" stroke-linejoin="round"/>
<path d="M39.3281 158.478C39.6129 158.693 39.8737 158.94 40.1029 159.214" stroke="#EA7C69" stroke-width="0.5" stroke-miterlimit="10" stroke-linecap="round" stroke-linejoin="round"/>
<path d="M39.1797 161.905C39.3401 161.92 39.5009 161.936 39.6613 161.951" stroke="#EA7C69" stroke-width="0.5" stroke-miterlimit="10" stroke-linecap="round" stroke-linejoin="round"/>
<path d="M39.1953 164.118C39.3985 164.155 39.6021 164.192 39.8053 164.228" stroke="#EA7C69" stroke-width="0.5" stroke-miterlimit="10" stroke-linecap="round" stroke-linejoin="round"/>
<path d="M45.2147 162.411C45.0779 162.566 44.9415 162.721 44.8047 162.876" stroke="#EA7C69" stroke-width="0.5" stroke-miterlimit="10" stroke-linecap="round" stroke-linejoin="round"/>
<path d="M39.5195 166.592C39.7751 166.517 40.0303 166.441 40.2859 166.366" stroke="#EA7C69" stroke-width="0.5" stroke-miterlimit="10" stroke-linecap="round" stroke-linejoin="round"/>
<path d="M48.5759 168.733H35.3047L37.1963 178.533H46.6523L48.5759 168.733Z" fill="#263238"/>
<path d="M49.1466 168.733H34.543V171.089H49.1466V168.733Z" fill="#263238"/>
<path d="M35.7578 171.09L36.0266 172.482L47.975 171.786L48.1118 171.09H35.7578Z" fill="black"/>
<path d="M171.043 129.767C171.043 129.767 170.085 148.974 165.949 152.281H170.373C170.373 152.281 174.319 145.737 174.613 129.767H171.043Z" fill="#263238"/>
<path opacity="0.6" d="M171.043 129.767C171.043 129.767 170.085 148.974 165.949 152.281H170.373C170.373 152.281 174.319 145.737 174.613 129.767H171.043Z" fill="white"/>
<path d="M153.207 150.689H172.557C173.549 150.689 174.354 151.494 174.354 152.486V153.872H151.41V152.486C151.41 151.493 152.214 150.689 153.207 150.689Z" fill="#EA7C69"/>
<path opacity="0.3" d="M153.207 150.689H172.557C173.549 150.689 174.354 151.494 174.354 152.486V153.872H151.41V152.486C151.41 151.493 152.214 150.689 153.207 150.689Z" fill="black"/>
<path d="M173.556 172.65L164.712 171.879V160.263H161.602V171.875L152.726 172.65C151.944 172.727 151.348 173.385 151.348 174.17V175.348H162.853H163.429H174.935V174.17C174.934 173.385 174.338 172.727 173.556 172.65Z" fill="#263238"/>
<path d="M152.178 178.843C153.301 178.843 154.211 177.932 154.211 176.81C154.211 175.687 153.301 174.776 152.178 174.776C151.055 174.776 150.145 175.687 150.145 176.81C150.145 177.932 151.055 178.843 152.178 178.843Z" fill="#263238"/>
<path d="M174.103 178.842C175.226 178.842 176.136 177.932 176.136 176.809C176.136 175.686 175.226 174.776 174.103 174.776C172.98 174.776 172.07 175.686 172.07 176.809C172.07 177.932 172.98 178.842 174.103 178.842Z" fill="#263238"/>
<path d="M163.761 162.632H162.552C161.732 162.632 161.066 161.967 161.066 161.147V152.745H165.247V161.147C165.247 161.967 164.582 162.632 163.761 162.632Z" fill="#263238"/>
<path opacity="0.6" d="M163.761 162.632H162.552C161.732 162.632 161.066 161.967 161.066 161.147V152.745H165.247V161.147C165.247 161.967 164.582 162.632 163.761 162.632Z" fill="white"/>
<path d="M151.258 152.28H174.502C174.902 152.28 175.226 152.604 175.226 153.003V153.149C175.226 153.548 174.902 153.872 174.502 153.872H151.258C150.859 153.872 150.535 153.548 150.535 153.149V153.003C150.536 152.604 150.859 152.28 151.258 152.28Z" fill="#263238"/>
<path opacity="0.6" d="M151.258 152.28H174.502C174.902 152.28 175.226 152.604 175.226 153.003V153.149C175.226 153.548 174.902 153.872 174.502 153.872H151.258C150.859 153.872 150.535 153.548 150.535 153.149V153.003C150.536 152.604 150.859 152.28 151.258 152.28Z" fill="white"/>
<path d="M176.674 133.972H169.587C167.511 133.972 166.011 132.106 166.237 129.805L166.54 126.733C166.767 124.432 168.633 122.566 170.709 122.566H177.797C179.873 122.566 181.372 124.432 181.146 126.733L180.843 129.805C180.617 132.106 178.75 133.972 176.674 133.972Z" fill="#EA7C69"/>
<path opacity="0.3" d="M176.674 133.972H169.587C167.511 133.972 166.011 132.106 166.237 129.805L166.54 126.733C166.767 124.432 168.633 122.566 170.709 122.566H177.797C179.873 122.566 181.372 124.432 181.146 126.733L180.843 129.805C180.617 132.106 178.75 133.972 176.674 133.972Z" fill="black"/>
<path opacity="0.2" d="M175.165 122.566L172.884 133.972H170.73L172.453 122.566H175.165Z" fill="black"/>
<path opacity="0.2" d="M174.443 133.972L174.344 135.346H170.594L170.728 133.972H174.443Z" fill="black"/>
<path d="M138.143 169.252L135.821 176.81L132.379 176.512L133.707 168.02L138.143 169.252Z" fill="#FFCD99"/>
<path d="M135.223 175.79C134.765 176.215 134.175 176.232 133.726 175.882L133.633 175.246C133.552 174.698 133.228 174.35 132.64 174.424C132.351 174.46 131.956 174.78 131.717 175.304C131.289 176.242 130.623 176.648 130.623 176.648C130.623 176.648 127.996 177.955 127.052 178.243C126.49 178.416 125.738 178.676 125.335 179.278C125.22 179.45 125.116 179.653 125.026 179.894C124.952 180.092 124.953 180.538 124.953 180.548L131.612 180.545C131.612 180.545 132.291 180.149 132.579 180.159C133.093 180.177 133.323 180.625 133.323 180.625L135.744 180.642C135.744 180.642 135.79 180.268 135.857 179.724H135.858C135.888 179.479 135.922 179.199 135.958 178.904C136.114 177.638 136.36 176.043 136.401 175.684C136.473 175.057 135.223 175.79 135.223 175.79Z" fill="#263238"/>
<path d="M129.207 177.291C129.237 177.264 129.283 177.262 129.318 177.283C129.476 177.382 129.609 177.522 129.699 177.697C129.746 177.79 129.601 177.877 129.553 177.784C129.474 177.629 129.358 177.505 129.219 177.418C129.173 177.389 129.166 177.328 129.206 177.292C129.206 177.291 129.207 177.291 129.207 177.291Z" fill="#EA7C69"/>
<path d="M129.719 177.015C129.749 176.988 129.795 176.985 129.83 177.007C129.988 177.106 130.121 177.246 130.211 177.421C130.258 177.513 130.113 177.601 130.065 177.508C129.986 177.352 129.87 177.229 129.731 177.141C129.685 177.112 129.677 177.052 129.718 177.016C129.718 177.015 129.719 177.015 129.719 177.015Z" fill="#EA7C69"/>
<path d="M130.25 176.757C130.28 176.73 130.326 176.727 130.361 176.749C130.519 176.848 130.652 176.988 130.742 177.163C130.789 177.255 130.644 177.343 130.596 177.25C130.517 177.094 130.401 176.971 130.262 176.884C130.216 176.854 130.209 176.794 130.249 176.758C130.249 176.758 130.25 176.757 130.25 176.757Z" fill="#EA7C69"/>
<path opacity="0.2" d="M125.159 179.608C125.112 179.704 125.067 179.804 125.026 179.915C124.952 180.113 124.953 180.559 124.953 180.569L131.612 180.566C131.612 180.566 132.291 180.17 132.579 180.18C133.093 180.198 133.323 180.646 133.323 180.646L135.744 180.663C135.744 180.663 135.79 180.289 135.857 179.745H135.858C135.863 179.702 135.869 179.654 135.874 179.608H125.159Z" fill="white"/>
<path d="M130.311 176.834C130.332 176.603 130.352 176.371 130.331 176.14C130.31 175.909 130.247 175.677 130.113 175.488C130.051 175.4 129.959 175.316 129.851 175.323C129.738 175.33 129.656 175.435 129.616 175.541C129.541 175.746 129.573 175.979 129.668 176.175C129.764 176.371 130.143 176.696 130.311 176.834Z" stroke="#EA7C69" stroke-width="0.25" stroke-miterlimit="10"/>
<path d="M130.34 176.834C130.431 176.621 130.523 176.406 130.649 176.212C130.776 176.018 130.941 175.844 131.149 175.74C131.245 175.691 131.365 175.66 131.457 175.717C131.553 175.776 131.577 175.908 131.562 176.02C131.532 176.236 131.394 176.428 131.217 176.555C131.041 176.683 130.554 176.792 130.34 176.834Z" stroke="#EA7C69" stroke-width="0.25" stroke-miterlimit="10"/>
<path d="M125.407 168.169L120.87 174.645L117.688 173.301L121.567 165.631L125.407 168.169Z" fill="#FFCD99"/>
<path d="M119.617 178.267L117.319 177.505C117.319 177.505 117.237 177.009 116.755 176.833C116.483 176.735 115.715 176.902 115.715 176.902L109.379 174.855C109.382 174.845 109.518 174.42 109.649 174.255C109.809 174.053 109.971 173.892 110.133 173.763C110.703 173.315 111.498 173.299 112.086 173.308C113.072 173.323 115.974 172.89 115.974 172.89C115.974 172.89 116.733 172.709 117.43 171.948C117.819 171.523 118.293 171.341 118.578 171.395C119.161 171.505 119.362 171.937 119.271 172.483L119.163 173.117C119.482 173.588 120.049 173.754 120.615 173.491C120.615 173.491 122.03 173.178 121.769 173.753C121.619 174.081 120.894 175.524 120.356 176.681C120.23 176.95 120.112 177.205 120.008 177.429H120.007C119.776 177.926 119.617 178.267 119.617 178.267Z" fill="#263238"/>
<path d="M114.431 173.066C114.468 173.05 114.512 173.061 114.539 173.092C114.659 173.236 114.742 173.41 114.773 173.604C114.79 173.706 114.625 173.745 114.608 173.642C114.581 173.469 114.508 173.316 114.403 173.19C114.368 173.148 114.38 173.088 114.429 173.066C114.43 173.066 114.43 173.066 114.431 173.066Z" fill="#EA7C69"/>
<path d="M115.005 172.961C115.042 172.944 115.086 172.956 115.113 172.987C115.233 173.131 115.316 173.305 115.347 173.499C115.364 173.601 115.199 173.64 115.182 173.537C115.155 173.364 115.082 173.211 114.977 173.085C114.942 173.043 114.954 172.983 115.003 172.961C115.004 172.961 115.004 172.961 115.005 172.961Z" fill="#EA7C69"/>
<path d="M115.587 172.879C115.624 172.862 115.668 172.874 115.695 172.905C115.815 173.049 115.898 173.223 115.929 173.417C115.946 173.519 115.781 173.558 115.765 173.455C115.737 173.282 115.664 173.129 115.559 173.003C115.524 172.961 115.536 172.901 115.585 172.879C115.586 172.879 115.586 172.879 115.587 172.879Z" fill="#EA7C69"/>
<path opacity="0.2" d="M109.871 174.004C109.796 174.08 109.723 174.162 109.649 174.255C109.518 174.42 109.382 174.845 109.379 174.855L115.715 176.902C115.715 176.902 116.483 176.735 116.755 176.833C117.237 177.009 117.319 177.506 117.319 177.506L119.617 178.267C119.617 178.267 119.776 177.926 120.007 177.429H120.008C120.026 177.39 120.047 177.345 120.066 177.304L109.871 174.004Z" fill="white"/>
<path d="M115.622 172.972C115.712 172.758 115.803 172.543 115.854 172.317C115.906 172.091 115.916 171.851 115.847 171.63C115.815 171.527 115.754 171.419 115.649 171.392C115.54 171.364 115.428 171.438 115.358 171.527C115.223 171.699 115.182 171.931 115.213 172.147C115.243 172.362 115.504 172.789 115.622 172.972Z" stroke="#EA7C69" stroke-width="0.25" stroke-miterlimit="10"/>
<path d="M115.648 172.979C115.801 172.804 115.954 172.628 116.134 172.483C116.315 172.338 116.526 172.222 116.755 172.188C116.862 172.171 116.986 172.179 117.056 172.261C117.129 172.348 117.111 172.48 117.062 172.582C116.967 172.778 116.777 172.918 116.57 172.985C116.362 173.052 115.865 173.006 115.648 172.979Z" stroke="#EA7C69" stroke-width="0.25" stroke-miterlimit="10"/>
<path d="M153.574 140.308C153.574 140.308 133.673 143.524 130.528 146.164C127.113 149.031 116.871 169.756 116.871 169.756L123.421 172.627C123.421 172.627 132.567 156.079 134.183 154.958C135.799 153.837 156.169 149.182 156.169 149.182L153.574 140.308Z" fill="#263238"/>
<path opacity="0.4" d="M153.486 140.635L152.355 142.404L140.438 142.936C143.187 142.218 147.61 141.39 152.577 140.451L153.486 140.635Z" fill="black"/>
<path opacity="0.4" d="M134.545 144.516C134.545 144.516 133.941 145.883 133.546 147.765C133.295 148.966 131.651 158.457 131.733 158.33C131.816 158.203 135.135 154.22 135.135 154.22L137.072 143.744L134.545 144.516Z" fill="black"/>
<path d="M129.453 172.528L132.959 156.468L135.187 146.26C135.57 144.508 137.053 143.211 138.842 143.066L152.479 142.487L153.964 138.25L170.282 140.477C170.282 140.477 170.05 147.614 168.057 150.232C166.497 152.281 144.739 152.546 143.125 153.076L137.43 173.328L129.453 172.528Z" fill="#263238"/>
<path d="M151.134 111.967C150.123 111.476 149.106 111.003 148.138 110.46C150.593 108.888 154.446 107.061 156.615 105.837L155.804 103.73C153.706 104.29 151.658 104.934 149.62 105.706C148.052 106.308 146.495 106.932 145.002 107.803C144.182 108.305 143.344 108.865 142.984 109.895C142.452 111.519 143.623 112.496 144.766 113.347C147.958 115.645 151.48 117.251 155.098 118.717L156.803 114.49C154.924 113.682 152.992 112.832 151.134 111.967Z" fill="#FFCD99"/>
<path d="M154.957 104.638L155.549 102.094C155.614 101.813 155.779 101.565 156.013 101.396L158.923 99.292C158.923 99.292 159.194 99.656 158.923 100.046L159.645 99.76C159.645 99.76 159.885 100.228 159.404 100.592C158.923 100.956 158.173 101.788 158.173 101.788L159.825 101.008C159.825 101.008 160.245 101.164 159.825 101.684C159.404 102.204 158.083 102.906 158.083 102.906C158.083 102.906 157.859 105.595 157.378 106.063C156.898 106.531 155.271 106.39 155.271 106.39L154.957 104.638Z" fill="#FFCD99"/>
<path opacity="0.2" d="M149.376 111.069L147.363 115.035L147.865 115.328L149.758 111.294L149.376 111.069Z" fill="black"/>
<path d="M183.746 111.228C183.614 109.496 181.978 108.798 180.748 108.089C177.983 106.663 175.144 105.582 172.201 104.637C172.201 104.637 171.263 106.69 171.263 106.69C173.02 107.823 176.005 109.542 178.202 111.009C175.498 112.383 172.165 113.768 169.758 114.88L171.527 119.08C174.385 117.906 177.133 116.607 179.823 115.081C180.733 114.559 181.627 114.02 182.567 113.317C182.624 113.276 182.778 113.158 182.832 113.119C183.407 112.736 183.806 111.88 183.746 111.228Z" fill="#FFCD99"/>
<path opacity="0.2" d="M178.208 111.01L179.965 110.555L177.688 110.668L178.208 111.01Z" fill="black"/>
<path d="M152.062 140.004L153.9 128.591L155.493 113.932L161.138 113.879L165.484 113.771L170.153 114.018L172.882 121.432C172.882 121.432 171.338 131.797 171.292 132.336C171.234 132.995 170.537 144.315 170.537 144.315C162.812 144.823 151.852 140.564 152.062 140.004Z" fill="#EA7C69"/>
<path d="M154.658 121.641C153.286 120.876 149.766 118.384 148.364 117.602C147.074 116.884 147.074 116.884 147.074 116.884L149.98 110.694C149.98 110.694 153.456 112.081 156.69 113.616C156.69 113.616 156.954 113.485 157.117 113.494C157.28 113.504 157.845 114.386 157.845 114.386L154.658 121.641Z" fill="#EA7C69"/>
<path opacity="0.2" d="M172.883 121.432L170.643 118.874C170.643 118.874 170.365 121.576 172.655 122.962L172.883 121.432Z" fill="black"/>
<path d="M172.885 121.433L180.002 117.773L176.843 111.606C176.905 111.579 173.515 112.435 170.157 114.019C167.967 115.051 169.977 120.505 172.885 121.433Z" fill="#EA7C69"/>
<path opacity="0.2" d="M157.734 132.336C159.742 135.421 162.762 137.835 166.213 139.112" stroke="black" stroke-width="0.5" stroke-miterlimit="10" stroke-linecap="round" stroke-linejoin="round"/>
<path opacity="0.2" d="M154.659 121.641L155.001 116.519L153.582 120.987L154.659 121.641Z" fill="black"/>
<path d="M166.269 113.763C166.269 113.763 165.977 111.672 167.202 108.045C167.202 108.041 167.012 107.947 167.012 107.942C167.181 107.435 167.358 106.967 167.523 106.562C167.527 106.551 167.527 106.547 167.527 106.547L162.368 109.433C162.435 110.613 161.915 112.864 161.622 113.811C161.622 113.811 160.53 115.895 162.835 116.071C164.52 116.2 166.269 113.763 166.269 113.763Z" fill="#FFCD99"/>
<path opacity="0.2" d="M162.208 111.081L165.128 110.555C164.827 111.443 163.985 112.474 161.969 112.473C161.969 112.473 162.213 111.475 162.208 111.081Z" fill="black"/>
<path d="M159.275 100.601C158.633 101.738 158.312 104.285 160.186 103.833C162.06 103.38 160.378 98.6478 159.275 100.601Z" fill="#263238"/>
<path d="M167.674 104.109C167.197 107.279 166.991 109.077 165.235 110.555C162.593 112.78 158.87 111.016 158.389 107.757C157.957 104.824 158.811 100.132 162.047 99.1702C165.234 98.2218 168.151 100.938 167.674 104.109Z" fill="#FFCD99"/>
<path d="M168.669 99.9478C168.386 98.1526 166.199 96.983 164.891 97.7722C164.695 97.8898 166.042 98.4902 165.889 98.4186L165.757 101.016C165.95 100.991 166.302 101.245 166.443 101.849C166.443 101.849 165.676 105.183 166.936 106.72C170.524 105.434 170.968 100.896 168.669 99.9478Z" fill="#263238"/>
<path d="M168.698 106.876C168.371 107.674 167.704 108.243 167.043 108.501C166.051 108.89 165.438 108.023 165.617 107.027C165.778 106.13 166.489 104.847 167.532 104.885C168.56 104.922 169.072 105.963 168.698 106.876Z" fill="#FFCD99"/>
<path d="M163.03 104.626C163.001 104.952 162.805 105.2 162.591 105.179C162.378 105.158 162.229 104.876 162.257 104.55C162.286 104.224 162.483 103.977 162.696 103.997C162.909 104.018 163.059 104.299 163.03 104.626Z" fill="#263238"/>
<path d="M159.827 104.407C159.798 104.733 159.602 104.981 159.388 104.96C159.175 104.939 159.026 104.657 159.054 104.331C159.083 104.005 159.28 103.757 159.493 103.779C159.706 103.799 159.856 104.081 159.827 104.407Z" fill="#263238"/>
<path d="M160.882 104.317C160.882 104.317 159.706 105.847 159.316 106.478C159.734 106.928 160.533 106.808 160.533 106.808L160.882 104.317Z" fill="#EAAB69"/>
<path d="M162.684 102.7C162.737 102.696 162.791 102.721 162.823 102.769C163.203 103.34 163.768 103.345 163.774 103.346C163.858 103.345 163.928 103.414 163.929 103.498C163.93 103.583 163.862 103.652 163.778 103.652C163.748 103.652 163.04 103.646 162.569 102.936C162.522 102.866 162.541 102.771 162.611 102.724C162.633 102.709 162.658 102.701 162.684 102.7Z" fill="#263238"/>
<path d="M159.768 102.201C159.797 102.204 159.826 102.216 159.85 102.236C159.915 102.29 159.924 102.387 159.871 102.452C159.333 103.104 158.633 103.023 158.601 103.024C158.517 103.013 158.457 102.937 158.466 102.853C158.475 102.769 158.55 102.709 158.634 102.718C158.662 102.723 159.202 102.778 159.634 102.255C159.668 102.214 159.719 102.196 159.768 102.201Z" fill="#263238"/>
<path d="M157.071 99.0344C157.226 98.218 158.107 97.5752 158.91 97.7904C158.651 97.2584 158.884 96.5416 159.405 96.2628C159.927 95.984 160.652 96.1884 160.951 96.6988C160.98 96.2032 161.511 95.838 162.006 95.8768C162.501 95.9156 162.927 96.2721 163.178 96.7005C163.332 96.9633 163.443 97.2681 163.689 97.4469C164.076 97.7269 164.606 97.5824 165.081 97.5464C165.881 97.486 166.7 97.7896 167.267 98.3568C167.833 98.9236 168.136 99.7436 168.075 100.543C168.517 100.663 168.735 101.018 169.023 101.375L166.579 101.766C165.893 100.487 164.044 101.476 163.119 101.828C162.454 102.081 161.797 102.1 161.292 102.081C160.787 102.062 160.557 101.692 160.551 101.186C159.775 101.486 158.867 101.506 158.138 101.107C157.409 100.709 156.917 99.8504 157.071 99.0344Z" fill="#263238"/>
<path d="M168.523 100.017C169.021 99.6759 169.596 99.4695 170.042 99.4619" stroke="#263238" stroke-width="0.5" stroke-miterlimit="10" stroke-linecap="round" stroke-linejoin="round"/>
<path d="M168.582 99.9827C168.931 99.4643 169.079 98.8147 168.99 98.1963" stroke="#263238" stroke-width="0.5" stroke-miterlimit="10" stroke-linecap="round" stroke-linejoin="round"/>
<path d="M160.83 108.86C160.712 108.479 160.726 108.047 160.97 107.732C161.215 107.417 161.621 107.242 162.02 107.253C162.419 107.264 162.804 107.453 163.08 107.74C163.218 107.883 163.336 108.067 163.326 108.265C163.315 108.493 163.134 108.686 162.926 108.778C162.717 108.871 162.482 108.882 162.254 108.889C162.025 108.897 161.792 108.903 161.578 108.985C161.476 109.025 161.378 109.082 161.269 109.089C161.269 109.089 160.91 109.116 160.83 108.86Z" fill="#263238"/>
<path d="M162.749 107.475C162.654 107.496 161.161 107.816 161.09 107.79C161.028 107.768 161.038 107.673 161.043 107.641C161.083 107.598 161.121 107.555 161.166 107.519C161.177 107.51 161.191 107.5 161.205 107.49C161.437 107.319 161.73 107.227 162.019 107.235C162.28 107.242 162.527 107.338 162.749 107.475Z" fill="white"/>
<path d="M161.724 108.492C162.283 108.226 163.268 108.441 163.28 108.444C163.212 108.591 163.078 108.711 162.926 108.778C162.718 108.87 162.483 108.882 162.254 108.889C162.026 108.896 161.792 108.902 161.579 108.985C161.477 109.025 161.379 109.082 161.27 109.089C161.27 109.089 161.183 109.095 161.086 109.071C161.158 108.932 161.332 108.678 161.724 108.492Z" fill="#EA7C69"/>
<path opacity="0.2" d="M168.047 105.931C167.936 105.729 167.68 105.636 167.453 105.671C167.225 105.707 167.026 105.849 166.873 106.023C166.691 106.23 166.563 106.486 166.508 106.757" stroke="black" stroke-width="0.5" stroke-miterlimit="10" stroke-linecap="round" stroke-linejoin="round"/>
<path d="M172.332 104.925L171.362 101.697C171.306 101.51 171.187 101.347 171.023 101.234L168.365 99.3926C168.365 99.3926 168.095 99.769 168.365 100.173L167.644 99.8766C167.644 99.8766 167.404 100.361 167.885 100.737C168.365 101.114 169.116 101.975 169.116 101.975L167.464 101.168C167.464 101.168 167.044 101.329 167.464 101.867C167.885 102.406 169.206 103.132 169.206 103.132C169.206 103.132 169.505 105.646 169.986 106.13C170.466 106.614 172.018 106.736 172.018 106.736L172.332 104.925Z" fill="#FFCD99"/>
<path d="M142.951 128.293C143.018 129.132 142.484 129.813 141.758 129.813H118.741C118.011 129.813 117.366 129.132 117.299 128.293L115.932 111.353C115.917 111.179 115.928 111.013 115.961 110.859C116.091 110.263 116.547 109.833 117.125 109.833H140.142C140.872 109.833 141.517 110.515 141.584 111.354L142.951 128.293Z" fill="#263238"/>
<path opacity="0.7" d="M142.951 128.293C143.018 129.132 142.484 129.813 141.758 129.813H118.741C118.011 129.813 117.366 129.132 117.299 128.293L115.932 111.353C115.917 111.179 115.928 111.013 115.961 110.859C116.091 110.263 116.547 109.833 117.125 109.833H140.142C140.872 109.833 141.517 110.515 141.584 111.354L142.951 128.293Z" fill="white"/>
<path d="M141.677 129.813H118.741C118.011 129.813 117.366 129.132 117.299 128.293L115.932 111.353C115.917 111.179 115.928 111.013 115.961 110.859H138.897C139.623 110.859 140.269 111.541 140.339 112.38L141.706 129.319C141.722 129.494 141.71 129.66 141.677 129.813Z" fill="#263238"/>
<path opacity="0.5" d="M141.677 129.813H118.741C118.011 129.813 117.366 129.132 117.299 128.293L115.932 111.353C115.917 111.179 115.928 111.013 115.961 110.859H138.897C139.623 110.859 140.269 111.541 140.339 112.38L141.706 129.319C141.722 129.494 141.71 129.66 141.677 129.813Z" fill="white"/>
<path d="M126.242 125.863L130.869 125.884L129.974 134.219L134.519 134.289V135.271L122.277 135.3V134.332L125.228 134.275L126.242 125.863Z" fill="#263238"/>
<path opacity="0.3" d="M130.871 125.884C130.858 126.009 131.896 129.813 131.896 129.813H130.449L130.871 125.884Z" fill="black"/>
<path opacity="0.3" d="M125.766 129.814L126.242 125.863L125.047 129.814H125.766Z" fill="black"/>
<path d="M114.774 135.724H113.184V179.472H114.774V135.724Z" fill="#263238"/>
<path opacity="0.3" d="M114.774 135.724H113.184V179.472H114.774V135.724Z" fill="white"/>
<path d="M103.341 135.724H101.75V179.472H103.341V135.724Z" fill="#263238"/>
<path opacity="0.3" d="M103.341 135.724H101.75V179.472H103.341V135.724Z" fill="white"/>
<path opacity="0.2" d="M101.75 138.49V141.314L103.341 140.604V138.25L101.75 138.49Z" fill="black"/>
<path opacity="0.2" d="M113.184 138.49V141.314L114.774 140.604V138.25L113.184 138.49Z" fill="black"/>
<path d="M148.665 135.724H147.074V179.472H148.665V135.724Z" fill="#263238"/>
<path opacity="0.3" d="M148.665 135.724H147.074V179.472H148.665V135.724Z" fill="white"/>
<path opacity="0.2" d="M147.074 138.49V141.314L148.665 140.604V138.25L147.074 138.49Z" fill="black"/>
<path d="M163.267 135.724H161.676V179.472H163.267V135.724Z" fill="#263238"/>
<path opacity="0.3" d="M163.267 135.724H161.676V179.472H163.267V135.724Z" fill="white"/>
<path opacity="0.2" d="M161.676 138.46V141.284L163.266 140.574V138.22L161.676 138.46Z" fill="black"/>
<path d="M165.247 135.252H99.6875V138.49H165.247V135.252Z" fill="#263238"/>
<path opacity="0.3" d="M165.246 135.252H149.867V138.49H165.246V135.252Z" fill="black"/>
<path opacity="0.6" d="M126.242 125.863L130.869 125.884L129.974 134.219L134.519 134.289V135.271L122.277 135.3V134.332L125.228 134.275L126.242 125.863Z" fill="white"/>
</svg>
