<svg width="22" height="22" viewBox="0 0 22 22" fill="none" xmlns="http://www.w3.org/2000/svg">
<path d="M10.0742 13.1667H7.90755C7.90755 7.78249 12.2734 3.41666 17.6576 3.41666V5.58332C13.4651 5.58332 10.0742 8.97416 10.0742 13.1667ZM17.6576 9.91666V7.74999C14.6676 7.74999 12.2409 10.1767 12.2409 13.1667H14.4076C14.4076 11.3683 15.8592 9.91666 17.6576 9.91666ZM5.74088 2.33332C5.74088 1.13082 4.77672 0.166656 3.57422 0.166656C2.37172 0.166656 1.40755 1.13082 1.40755 2.33332C1.40755 3.53582 2.37172 4.49999 3.57422 4.49999C4.77672 4.49999 5.74088 3.53582 5.74088 2.33332ZM10.5617 2.87499H8.39505C8.13505 4.41332 6.81339 5.58332 5.19922 5.58332H1.94922C1.05005 5.58332 0.324219 6.30916 0.324219 7.20832V9.91666H6.82422V7.46832C8.83922 6.82916 10.3451 5.05249 10.5617 2.87499ZM18.7409 16.4167C19.9434 16.4167 20.9076 15.4525 20.9076 14.25C20.9076 13.0475 19.9434 12.0833 18.7409 12.0833C17.5384 12.0833 16.5742 13.0475 16.5742 14.25C16.5742 15.4525 17.5384 16.4167 18.7409 16.4167ZM20.3659 17.5H17.1159C15.5017 17.5 14.1801 16.33 13.9201 14.7917H11.7534C11.9701 16.9692 13.4759 18.7458 15.4909 19.385V21.8333H21.9909V19.125C21.9909 18.2258 21.2651 17.5 20.3659 17.5Z" fill="#FFA899"/>
</svg>
