<svg width="18" height="19" viewBox="0 0 18 19" fill="none" xmlns="http://www.w3.org/2000/svg">
<path d="M2.90763 11.2719C3.01263 11.0919 3.09138 10.8969 3.14388 10.6869C3.19638 10.4769 3.22263 10.2219 3.22263 9.92187C3.22263 9.39687 3.07263 8.83062 2.77263 8.22312C2.47263 7.61562 2.32263 7.09437 2.32263 6.65937C2.32263 6.49437 2.33763 6.30313 2.36763 6.08563C2.39763 5.86813 2.48763 5.64687 2.63763 5.42187H3.76263C3.64263 5.63187 3.56013 5.84937 3.51513 6.07437C3.47013 6.29937 3.44763 6.49437 3.44763 6.65937C3.44763 7.16937 3.59763 7.70937 3.89763 8.27937C4.19763 8.84937 4.34763 9.39687 4.34763 9.92187C4.34763 10.2219 4.32138 10.4769 4.26888 10.6869C4.21638 10.8969 4.13763 11.0919 4.03263 11.2719H2.90763ZM8.75763 11.2719C8.86263 11.0919 8.94138 10.8969 8.99388 10.6869C9.04638 10.4769 9.07263 10.2219 9.07263 9.92187C9.07263 9.39687 8.92263 8.83062 8.62263 8.22312C8.32263 7.61562 8.17263 7.09437 8.17263 6.65937C8.17263 6.49437 8.18763 6.30313 8.21763 6.08563C8.24763 5.86813 8.33763 5.64687 8.48763 5.42187H9.61263C9.49263 5.63187 9.41013 5.84937 9.36513 6.07437C9.32013 6.29937 9.29763 6.49437 9.29763 6.65937C9.29763 7.16937 9.44763 7.70937 9.74763 8.27937C10.0476 8.84937 10.1976 9.39687 10.1976 9.92187C10.1976 10.2219 10.1714 10.4769 10.1189 10.6869C10.0664 10.8969 9.98763 11.0919 9.88263 11.2719H8.75763ZM5.83263 11.2719C5.93763 11.0919 6.01638 10.8969 6.06888 10.6869C6.12138 10.4769 6.14763 10.2219 6.14763 9.92187C6.14763 9.39687 5.99763 8.83062 5.69763 8.22312C5.39763 7.61562 5.24763 7.09437 5.24763 6.65937C5.24763 6.49437 5.26263 6.30313 5.29263 6.08563C5.32263 5.86813 5.41263 5.64687 5.56263 5.42187H6.68763C6.56763 5.63187 6.48513 5.84937 6.44013 6.07437C6.39513 6.29937 6.37263 6.49437 6.37263 6.65937C6.37263 7.16937 6.52263 7.70937 6.82263 8.27937C7.12263 8.84937 7.27263 9.39687 7.27263 9.92187C7.27263 10.2219 7.24638 10.4769 7.19388 10.6869C7.14138 10.8969 7.06263 11.0919 6.95763 11.2719H5.83263ZM6.93513 18.9219C5.43513 18.9219 4.10013 18.4081 2.93013 17.3806C1.76013 16.3531 1.07013 15.0969 0.860134 13.6119C0.830134 13.4019 0.878884 13.2219 1.00638 13.0719C1.13388 12.9219 1.31013 12.8469 1.53513 12.8469H11.6601L12.6726 3.10438C12.7476 2.48938 13.0176 1.97188 13.4826 1.55188C13.9476 1.13188 14.4951 0.921875 15.1251 0.921875C15.8151 0.921875 16.4001 1.16187 16.8801 1.64187C17.3601 2.12187 17.6001 2.70687 17.6001 3.39687C17.6001 3.53187 17.5926 3.70813 17.5776 3.92563C17.5626 4.14312 17.5401 4.33437 17.5101 4.49937L16.1826 4.31937L16.2164 3.93687C16.2389 3.68187 16.2501 3.50187 16.2501 3.39687C16.2501 3.08187 16.1414 2.81562 15.9239 2.59812C15.7064 2.38062 15.4401 2.27187 15.1251 2.27187C14.8251 2.27187 14.5701 2.36938 14.3601 2.56437C14.1501 2.75937 14.0301 2.99937 14.0001 3.28437L12.9651 13.2969C12.8001 14.8869 12.1439 16.2219 10.9964 17.3019C9.84888 18.3819 8.49513 18.9219 6.93513 18.9219ZM6.93513 17.5719C7.91013 17.5719 8.80263 17.2794 9.61263 16.6944C10.4226 16.1094 11.0226 15.2769 11.4126 14.1969H2.39013C2.78013 15.2769 3.39138 16.1094 4.22388 16.6944C5.05638 17.2794 5.96013 17.5719 6.93513 17.5719Z" fill="#EA7C69"/>
</svg>
