<svg width="15" height="21" viewBox="0 0 15 21" fill="none" xmlns="http://www.w3.org/2000/svg">
<path d="M13.1562 6.46582C13.1562 3.15582 10.4662 0.46582 7.15625 0.46582C3.84625 0.46582 1.15625 3.15582 1.15625 6.46582C1.15625 10.9658 7.15625 17.4658 7.15625 17.4658C7.15625 17.4658 13.1562 10.9658 13.1562 6.46582ZM5.15625 6.46582C5.15625 5.36582 6.05625 4.46582 7.15625 4.46582C8.25625 4.46582 9.15625 5.36582 9.15625 6.46582C9.15625 7.56582 8.26625 8.46582 7.15625 8.46582C6.05625 8.46582 5.15625 7.56582 5.15625 6.46582ZM0.15625 18.4658V20.4658H14.1562V18.4658H0.15625Z" fill="#EA7C69"/>
</svg>
