<svg width="20" height="16" viewBox="0 0 20 16" fill="none" xmlns="http://www.w3.org/2000/svg">
<path d="M2.35156 6.53711C1.52156 6.53711 0.851562 7.20711 0.851562 8.03711C0.851562 8.86711 1.52156 9.53711 2.35156 9.53711C3.18156 9.53711 3.85156 8.86711 3.85156 8.03711C3.85156 7.20711 3.18156 6.53711 2.35156 6.53711ZM2.35156 0.537109C1.52156 0.537109 0.851562 1.20711 0.851562 2.03711C0.851562 2.86711 1.52156 3.53711 2.35156 3.53711C3.18156 3.53711 3.85156 2.86711 3.85156 2.03711C3.85156 1.20711 3.18156 0.537109 2.35156 0.537109ZM2.35156 12.5371C1.52156 12.5371 0.851562 13.2171 0.851562 14.0371C0.851562 14.8571 1.53156 15.5371 2.35156 15.5371C3.17156 15.5371 3.85156 14.8571 3.85156 14.0371C3.85156 13.2171 3.18156 12.5371 2.35156 12.5371ZM5.35156 15.0371H19.3516V13.0371H5.35156V15.0371ZM5.35156 9.03711H19.3516V7.03711H5.35156V9.03711ZM5.35156 1.03711V3.03711H19.3516V1.03711H5.35156Z" fill="#EA7C69"/>
</svg>
