<svg width="88" height="56" viewBox="0 0 88 56" fill="none" xmlns="http://www.w3.org/2000/svg">
<g clip-path="url(#clip0_2790_8946)">
<path d="M36.5025 51.6685L0 30.4825L24.2636 15.779L50.3635 3L88 21.994L59.8432 36.032L36.5025 51.6685Z" fill="#584967"/>
<path d="M57.0898 38.653L59.6905 37.7495L62.2911 35.7305L62.1739 34.7185L59.8431 36.032L57.3344 37.53L57.0898 38.653Z" fill="#362C4F"/>
<path d="M62.1157 36.1175L87.9418 23.393L87.9999 21.994L62.1739 34.7185L62.1157 36.1175Z" fill="#9C8BAF"/>
<path d="M57.3921 38.8615L36.5606 53L36.5024 51.6685L57.3344 37.53L57.3921 38.8615Z" fill="#9C8BAF"/>
<path d="M57.3921 38.8615C57.3921 40.3095 62.1158 37.5655 62.1158 36.1175L62.166 34.909C62.166 36.5515 57.334 39.1725 57.334 37.53L57.3916 38.8615H57.3921Z" fill="#9C8BAF"/>
<path d="M36.5606 53L36.5025 51.6685L0 30.4825L0.0581455 31.814L36.5606 53Z" fill="#362C4F"/>
<path d="M84.4755 21.883L60.7383 33.712L26.5845 16.693L50.3223 4.86401L84.4755 21.883Z" fill="#ECE0CB"/>
<path d="M62.2312 32.3275C62.0537 32.416 61.766 32.416 61.5881 32.3275L29.3635 16.2695C29.1861 16.181 29.1861 16.0375 29.3635 15.949C29.541 15.8605 29.8287 15.8605 30.0066 15.949L62.2316 32.007C62.4091 32.0955 62.4091 32.239 62.2316 32.3275H62.2312Z" fill="#A48A7B"/>
<path d="M81.697 22.627C81.5196 22.7155 81.2318 22.7155 81.0539 22.627L48.8294 6.569C48.6519 6.4805 48.6519 6.337 48.8294 6.2485C49.0068 6.16 49.2945 6.16 49.4724 6.2485L81.6975 22.3065C81.8749 22.395 81.8749 22.5385 81.6975 22.627H81.697Z" fill="#A48A7B"/>
<path d="M51.6148 6.51551L29.8987 17.337C29.7213 17.4255 29.4335 17.4255 29.2556 17.337C29.0782 17.2485 29.0782 17.105 29.2556 17.0165L50.9717 6.19501C51.1491 6.10651 51.4369 6.10651 51.6148 6.19501C51.7922 6.28351 51.7922 6.42701 51.6148 6.51551Z" fill="#A48A7B"/>
<path d="M81.8043 21.5595L60.0882 32.381C59.9107 32.4695 59.623 32.4695 59.4451 32.381C59.2677 32.2925 59.2677 32.149 59.4451 32.0605L81.1612 21.239C81.3386 21.1505 81.6263 21.1505 81.8043 21.239C81.9817 21.3275 81.9817 21.471 81.8043 21.5595Z" fill="#A48A7B"/>
<path d="M34.0578 17.4865C33.8804 17.575 33.5926 17.575 33.4147 17.4865L31.729 16.6465L33.2781 15.8655C33.2781 15.8655 33.2791 15.865 33.28 15.8645C33.457 15.7765 33.7432 15.776 33.9211 15.8635C34.0996 15.9515 34.1015 16.095 33.9251 16.184L33.0117 16.6445L34.0583 17.166C34.2357 17.2545 34.2357 17.398 34.0583 17.4865H34.0578Z" fill="#A48A7B"/>
<path d="M77.7802 22.711C77.6033 22.799 77.317 22.7995 77.1391 22.712C76.9607 22.624 76.9587 22.4805 77.1351 22.3915L78.0486 21.931L77.002 21.4095C76.8245 21.321 76.8245 21.1775 77.002 21.089C77.1794 21.0005 77.4671 21.0005 77.645 21.089L79.3308 21.929L77.7817 22.71C77.7817 22.71 77.7807 22.7105 77.7797 22.711H77.7802Z" fill="#A48A7B"/>
<path d="M51.9156 8.58799C51.7382 8.67649 51.4504 8.67649 51.2725 8.58799L50.2259 8.06649L49.3015 8.52199C49.1231 8.60999 48.8348 8.60899 48.6584 8.51999C48.4825 8.43149 48.4835 8.28849 48.6604 8.20049C48.6604 8.20049 48.6614 8.19999 48.6624 8.19949L50.2294 7.42749L51.9151 8.26749C52.0925 8.35599 52.0925 8.49949 51.9151 8.58799H51.9156Z" fill="#A48A7B"/>
<path d="M62.3997 30.3755C62.3997 30.3755 62.3987 30.376 62.3977 30.3765L60.8308 31.1485L59.145 30.3085C58.9676 30.22 58.9676 30.0765 59.145 29.988C59.3224 29.8995 59.6102 29.8995 59.7881 29.988L60.8347 30.5095L61.7586 30.0545C61.937 29.9665 62.2252 29.9675 62.4017 30.0565C62.5776 30.145 62.5766 30.288 62.3997 30.376V30.3755Z" fill="#A48A7B"/>
<path d="M55.9772 12.124L41.752 19.2125C41.5746 19.301 41.2868 19.301 41.1089 19.2125C40.9315 19.124 40.9315 18.9805 41.1089 18.892L55.3342 11.8035C55.5116 11.715 55.7993 11.715 55.9772 11.8035C56.1547 11.892 56.1547 12.0355 55.9772 12.124Z" fill="#A48A7B"/>
<path d="M57.8557 13.06L43.6304 20.1485C43.453 20.237 43.1652 20.237 42.9873 20.1485C42.8099 20.06 42.8099 19.9165 42.9873 19.828L57.2126 12.7395C57.39 12.651 57.6778 12.651 57.8557 12.7395C58.0331 12.828 58.0331 12.9715 57.8557 13.06Z" fill="#A48A7B"/>
<path d="M54.6806 16.514L45.5091 21.0845C45.3316 21.173 45.0439 21.173 44.866 21.0845C44.6886 20.996 44.6886 20.8525 44.866 20.764L54.0376 16.1935C54.215 16.105 54.5027 16.105 54.6806 16.1935C54.8581 16.282 54.8581 16.4255 54.6806 16.514Z" fill="#A48A7B"/>
<path d="M61.6123 14.932L47.387 22.0205C47.2096 22.109 46.9218 22.109 46.7439 22.0205C46.5665 21.932 46.5665 21.7885 46.7439 21.7L60.9692 14.6115C61.1466 14.523 61.4343 14.523 61.6123 14.6115C61.7897 14.7 61.7897 14.8435 61.6123 14.932Z" fill="#A48A7B"/>
<path d="M63.4909 15.868L49.2656 22.9565C49.0882 23.045 48.8005 23.045 48.6226 22.9565C48.4451 22.868 48.4451 22.7245 48.6226 22.636L62.8478 15.547C63.0253 15.4585 63.313 15.4585 63.4909 15.547C63.6683 15.6355 63.6683 15.779 63.4909 15.8675V15.868Z" fill="#A48A7B"/>
<path d="M59.1763 19.89L51.1443 23.8925C50.9669 23.981 50.6791 23.981 50.5012 23.8925C50.3238 23.804 50.3238 23.6605 50.5012 23.572L58.5333 19.5695C58.7107 19.481 58.9984 19.481 59.1763 19.5695C59.3538 19.658 59.3538 19.8015 59.1763 19.89Z" fill="#A48A7B"/>
<path d="M67.2475 17.74L53.0222 24.8285C52.8448 24.917 52.5571 24.917 52.3792 24.8285C52.2017 24.74 52.2017 24.5965 52.3792 24.508L66.6044 17.4195C66.7818 17.331 67.0696 17.331 67.2475 17.4195C67.4249 17.508 67.4249 17.6515 67.2475 17.74Z" fill="#A48A7B"/>
<path d="M69.1262 18.676L54.9009 25.7645C54.7235 25.853 54.4357 25.853 54.2578 25.7645C54.0804 25.676 54.0804 25.5325 54.2578 25.444L68.4831 18.3555C68.6605 18.267 68.9483 18.267 69.1262 18.3555C69.3036 18.444 69.3036 18.5875 69.1262 18.676Z" fill="#A48A7B"/>
<path d="M66.5477 21.833L56.7793 26.701C56.6018 26.7895 56.3141 26.7895 56.1362 26.701C55.9583 26.6125 55.9588 26.469 56.1362 26.3805L65.9046 21.5125C66.082 21.424 66.3698 21.424 66.5477 21.5125C66.7251 21.601 66.7251 21.7445 66.5477 21.833Z" fill="#A48A7B"/>
<path d="M72.8828 20.548L58.6575 27.6365C58.4801 27.725 58.1923 27.725 58.0144 27.6365C57.837 27.548 57.837 27.4045 58.0144 27.316L72.2397 20.2275C72.4171 20.139 72.7049 20.139 72.8828 20.2275C73.0602 20.316 73.0602 20.4595 72.8828 20.548Z" fill="#A48A7B"/>
<path d="M74.7612 21.484L60.5359 28.5725C60.3585 28.661 60.0707 28.661 59.8928 28.5725C59.7154 28.484 59.7154 28.3405 59.8928 28.252L74.1181 21.1635C74.2955 21.075 74.5833 21.075 74.7612 21.1635C74.9386 21.252 74.9386 21.3955 74.7612 21.484Z" fill="#A48A7B"/>
<path d="M42.4334 17.068L38.6162 15.727L41.3574 17.604L40.9778 17.7935L37.2425 15.2385C37.0358 15.4005 36.9588 15.566 37.0119 15.7355C37.0646 15.905 37.2684 16.0775 37.6227 16.2545C37.7663 16.326 37.8926 16.38 38.0024 16.4155C38.1122 16.451 38.2071 16.4765 38.2872 16.491C38.3672 16.506 38.4328 16.512 38.4835 16.51C38.5342 16.508 38.5699 16.506 38.5913 16.504C38.3632 16.6175 38.1217 16.68 37.8667 16.6915C37.6113 16.703 37.3593 16.647 37.1103 16.523C36.9036 16.42 36.757 16.2965 36.6705 16.1525C36.584 16.0085 36.5493 15.863 36.5662 15.7155C36.5831 15.568 36.6442 15.4275 36.75 15.2925C36.8554 15.158 36.997 15.0465 37.1739 14.9585C37.2415 14.925 37.3141 14.895 37.3926 14.8685C37.4706 14.842 37.5561 14.823 37.6491 14.81L41.9603 16.3275L39.0227 14.1255L39.7443 13.766L44.7582 15.911L44.0366 16.2705L40.4664 14.7435L43.1122 16.731L42.4349 17.0685L42.4334 17.068Z" fill="#79665B"/>
<path d="M44.845 13.5C45.1402 13.647 45.2659 13.8305 45.2217 14.0505C45.1775 14.2705 44.9633 14.499 44.5791 14.7365C44.765 14.812 44.933 14.8655 45.0826 14.896C45.2326 14.9265 45.3698 14.9415 45.494 14.94C45.6183 14.939 45.7336 14.9235 45.8389 14.8945C45.9448 14.865 46.0417 14.8285 46.1302 14.784C46.3324 14.683 46.4696 14.562 46.5417 14.421C46.6132 14.28 46.5794 14.1205 46.4403 13.9415L46.643 13.8405C46.7444 13.9455 46.817 14.0575 46.8617 14.1765C46.9059 14.2955 46.9164 14.414 46.8935 14.533C46.8702 14.652 46.8145 14.765 46.726 14.872C46.6376 14.979 46.5128 15.073 46.3523 15.153C46.2047 15.2265 46.0367 15.285 45.8489 15.328C45.661 15.371 45.4563 15.39 45.2346 15.385C45.013 15.38 44.7769 15.347 44.5254 15.287C44.2745 15.227 44.0136 15.1295 43.7437 14.995C43.5663 14.9065 43.3943 14.801 43.2279 14.678C43.0609 14.555 42.9366 14.4255 42.8541 14.29C42.7721 14.1545 42.7488 14.019 42.7846 13.883C42.8203 13.7475 42.952 13.623 43.1802 13.509C43.2855 13.4565 43.3998 13.411 43.5221 13.3735C43.6443 13.3355 43.7765 13.312 43.9177 13.3025C44.0588 13.293 44.2069 13.3025 44.361 13.331C44.515 13.3595 44.6765 13.4155 44.8455 13.5H44.845ZM44.3257 14.6165C44.5791 14.444 44.7108 14.273 44.7213 14.104C44.7317 13.935 44.6164 13.79 44.3764 13.6705C44.2158 13.5905 44.0732 13.547 43.949 13.5395C43.8242 13.532 43.7114 13.5535 43.6105 13.604C43.5007 13.659 43.447 13.7275 43.449 13.8105C43.451 13.8935 43.4913 13.982 43.5693 14.0755C43.6473 14.169 43.7537 14.263 43.8888 14.358C44.024 14.453 44.1696 14.539 44.3257 14.6165Z" fill="#79665B"/>
<path d="M45.035 12.6165L45.5161 12.856C45.4654 12.7675 45.438 12.69 45.4336 12.6225C45.4291 12.5555 45.444 12.4965 45.4778 12.446C45.5116 12.3955 45.5538 12.3525 45.6045 12.3165C45.6552 12.281 45.7079 12.2495 45.763 12.222C45.9529 12.1275 46.1417 12.069 46.3296 12.047C46.5174 12.025 46.6969 12.027 46.8678 12.0535C47.0388 12.08 47.2003 12.1215 47.3519 12.178C47.5039 12.235 47.6411 12.2935 47.7634 12.3545C47.8394 12.3925 47.9209 12.435 48.0069 12.4825C48.0933 12.53 48.1818 12.5785 48.2727 12.6275C48.3637 12.677 48.4541 12.7265 48.5451 12.7755C48.636 12.825 48.721 12.8695 48.8015 12.9095C48.8353 12.9265 48.885 12.949 48.9501 12.977C49.0157 13.0055 49.0863 13.03 49.1623 13.051C49.2384 13.072 49.3174 13.084 49.3999 13.087C49.4819 13.09 49.5594 13.074 49.631 13.038C49.7284 12.9895 49.7607 12.9185 49.7289 12.825C49.6971 12.7315 49.5867 12.612 49.3964 12.467L49.6305 12.35C49.8501 12.5055 50.0007 12.64 50.0832 12.752C50.1657 12.8645 50.207 12.961 50.207 13.0405C50.207 13.1205 50.1786 13.186 50.1215 13.2375C50.0643 13.289 50.0022 13.3315 49.9346 13.3655C49.7994 13.433 49.6593 13.4765 49.5137 13.4965C49.3681 13.5165 49.2215 13.519 49.0739 13.5045C48.9258 13.49 48.7792 13.4595 48.6335 13.4145C48.4879 13.3695 48.3518 13.315 48.2255 13.252C48.1878 13.233 48.1177 13.1975 48.0168 13.145C47.9154 13.0925 47.8066 13.036 47.6908 12.976C47.575 12.916 47.4652 12.8595 47.3618 12.8055C47.2584 12.752 47.1854 12.7145 47.1431 12.6935C47.0085 12.6265 46.8857 12.5755 46.7759 12.542C46.6665 12.5085 46.5671 12.4885 46.4787 12.482C46.3902 12.4755 46.3107 12.4795 46.2416 12.493C46.1716 12.5065 46.1094 12.527 46.0548 12.5545C45.9236 12.62 45.8639 12.702 45.8744 12.802C45.8848 12.902 45.9852 13.0285 46.175 13.182L48.2007 14.1915L47.5675 14.507L44.4023 12.9295L45.0355 12.614L45.035 12.6165Z" fill="#79665B"/>
<path d="M49.4981 10.3925L51.6505 11.465C51.7012 11.49 51.7613 11.518 51.8309 11.5485C51.9005 11.579 51.9745 11.604 52.0525 11.624C52.1306 11.644 52.2096 11.654 52.2896 11.654C52.3696 11.654 52.4481 11.635 52.5242 11.5975C52.558 11.5805 52.5903 11.56 52.6221 11.536C52.6539 11.512 52.6782 11.4915 52.6946 11.4745C52.72 11.483 52.7423 11.491 52.7612 11.498C52.7801 11.5055 52.8 11.5145 52.8214 11.525C52.9481 11.588 52.9983 11.6615 52.9729 11.746C52.9476 11.83 52.8735 11.903 52.7513 11.9635C52.6206 12.029 52.4566 12.065 52.2608 12.0725C52.0645 12.08 51.8398 12.0395 51.5864 11.951C51.7131 12.094 51.7578 12.222 51.7221 12.3345C51.6863 12.447 51.5963 12.539 51.4532 12.6105C51.3309 12.6715 51.1978 12.721 51.0546 12.7585C50.911 12.7965 50.7599 12.816 50.6019 12.817C50.4439 12.818 50.2794 12.799 50.1084 12.76C49.9374 12.7215 49.7615 12.6565 49.5796 12.566L47.3577 11.4585L47.9908 11.143L50.1432 12.2155C50.3499 12.3185 50.5323 12.374 50.6908 12.381C50.8489 12.3885 50.9831 12.3645 51.0929 12.31C51.152 12.2805 51.1948 12.2435 51.2226 12.198C51.2499 12.153 51.2574 12.104 51.245 12.0515C51.2325 11.999 51.1987 11.9445 51.1436 11.8875C51.0884 11.8305 51.0064 11.775 50.8966 11.72L48.8645 10.7075L49.4976 10.392L49.4981 10.3925Z" fill="#79665B"/>
<path fill-rule="evenodd" clip-rule="evenodd" d="M38.366 26.011V28.342L37.3303 27.328L38.366 26.011Z" fill="#8FB7E1"/>
<path fill-rule="evenodd" clip-rule="evenodd" d="M33.3417 34.768C32.0277 35.8 29.5165 36.048 27.7324 35.3215C25.9483 34.5955 25.5666 33.1705 26.8806 32.1385C28.1946 31.1065 30.7063 30.8585 32.4904 31.585C34.2745 32.311 34.6557 33.7365 33.3417 34.768ZM35.7977 28.9035C31.4801 27.1465 25.4031 27.7465 22.224 30.243C19.0449 32.74 19.9673 36.1885 24.2844 37.9455C28.6021 39.7025 34.6791 39.1025 37.8582 36.606C41.0378 34.109 40.1149 30.6605 35.7977 28.9035Z" fill="#8FB7E1"/>
<path fill-rule="evenodd" clip-rule="evenodd" d="M22.1758 28.7815L21.5213 29.2955L20.4121 30.167L19.7571 30.681L21.162 31.939L22.3518 31.0045L23.5415 30.07L24.7313 29.1355L22.1758 28.7815Z" fill="#BE6CA6"/>
<path fill-rule="evenodd" clip-rule="evenodd" d="M40.3252 36.1675L39.6702 36.682L38.561 37.553L37.906 38.067L35.3511 37.7135L36.5408 36.779L37.7306 35.844L38.9203 34.9095L40.3252 36.1675Z" fill="#8FB7E1"/>
<path fill-rule="evenodd" clip-rule="evenodd" d="M38.3661 28.8445L37.4765 28.483L35.9702 27.8695L35.0806 27.508L32.8418 28.335L34.4574 28.9925L36.0731 29.65L37.6887 30.308L38.3661 28.8445Z" fill="#BE6CA6"/>
<path fill-rule="evenodd" clip-rule="evenodd" d="M25.001 39.3415L24.1115 38.979L22.6051 38.3665L21.7161 38.0045L22.3929 36.541L24.0086 37.199L25.6247 37.856L27.2404 38.514L25.001 39.3415Z" fill="#8FB7E1"/>
<path fill-rule="evenodd" clip-rule="evenodd" d="M30.366 26.903L29.2746 27.0105L27.4249 27.1935L26.3331 27.301L25.7427 28.775L27.7266 28.5795L29.711 28.384L31.6949 28.188L30.366 26.903Z" fill="#BE6CA6"/>
<path fill-rule="evenodd" clip-rule="evenodd" d="M33.7493 39.5475L32.6574 39.6555L30.8077 39.8385L29.7159 39.946L28.3875 38.661L30.3714 38.465L32.3553 38.2695L34.3392 38.0735L33.7493 39.5475Z" fill="#8FB7E1"/>
<path fill-rule="evenodd" clip-rule="evenodd" d="M41.4886 33.469V30.635L38.3 30.876L38.6012 32.002L38.9019 33.1275L39.2035 34.253L41.4886 33.469Z" fill="#8FB7E1"/>
<path fill-rule="evenodd" clip-rule="evenodd" d="M19.2055 35.6685L19.0395 35.049L18.7588 33.999L18.5933 33.38L19.0395 32.2155L20.8788 32.5955L21.18 33.7215L21.4817 34.847L21.7823 35.9725L19.2055 35.6685Z" fill="#8FB7E1"/>
<path fill-rule="evenodd" clip-rule="evenodd" d="M19.7571 27.8475V30.5465L20.8445 30.3205L21.3842 28.5795L19.7571 27.8475Z" fill="#8FB7E1"/>
<path fill-rule="evenodd" clip-rule="evenodd" d="M39.6501 31.2665V34.1L41.4884 33.469V30.635L39.6501 31.2665Z" fill="#8FB7E1"/>
<path fill-rule="evenodd" clip-rule="evenodd" d="M33.3417 31.934C32.0277 32.966 29.5165 33.214 27.7324 32.4875C25.9483 31.7615 25.5666 30.3365 26.8806 29.304C28.1946 28.272 30.7063 28.024 32.4904 28.7505C34.2745 29.4765 34.6557 30.902 33.3417 31.934ZM35.7977 26.0695C31.4801 24.3125 25.4031 24.9125 22.224 27.4095C19.0449 29.9065 19.9673 33.355 24.2844 35.112C28.6021 36.8695 34.6791 36.2695 37.8582 33.7725C41.0378 31.2755 40.1149 27.827 35.7977 26.07V26.0695Z" fill="#B8D9F2"/>
<path fill-rule="evenodd" clip-rule="evenodd" d="M22.1758 25.948L21.5213 26.462L20.4121 27.3335L19.7571 27.8475L21.162 29.1055L22.3518 28.171L23.5415 27.2365L24.7313 26.302L22.1758 25.948Z" fill="#DEA4C8"/>
<path fill-rule="evenodd" clip-rule="evenodd" d="M40.3252 33.334L39.6702 33.848L38.561 34.7195L37.906 35.2335L35.3511 34.8795L36.5408 33.945L37.7306 33.0105L38.9203 32.0765L40.3252 33.334Z" fill="#B8D9F2"/>
<path fill-rule="evenodd" clip-rule="evenodd" d="M38.3661 26.011L37.4765 25.649L35.9702 25.036L35.0806 24.674L32.8418 25.5015L34.4574 26.159L36.0731 26.8165L37.6887 27.474L38.3661 26.011Z" fill="#B8D9F2"/>
<path fill-rule="evenodd" clip-rule="evenodd" d="M25.001 36.5075L24.1115 36.146L22.6051 35.5325L21.7161 35.1705L22.3929 33.7075L24.0086 34.365L25.6247 35.023L27.2404 35.68L25.001 36.5075Z" fill="#B8D9F2"/>
<path fill-rule="evenodd" clip-rule="evenodd" d="M30.366 24.0695L29.2746 24.177L27.4249 24.3595L26.3331 24.4675L25.7427 25.942L27.7266 25.746L29.711 25.55L31.6949 25.3545L30.366 24.0695Z" fill="#B8D9F2"/>
<path fill-rule="evenodd" clip-rule="evenodd" d="M33.7493 36.714L32.6574 36.822L30.8077 37.0045L29.7159 37.1125L28.3875 35.8275L30.3714 35.6315L32.3553 35.4355L34.3392 35.24L33.7493 36.714Z" fill="#B8D9F2"/>
<path fill-rule="evenodd" clip-rule="evenodd" d="M41.4886 30.635L41.3236 30.0155L41.0423 28.9665L40.8768 28.347L38.3 28.0425L38.6012 29.168L38.9019 30.294L39.2035 31.42L41.4886 30.635Z" fill="#B8D9F2"/>
<path fill-rule="evenodd" clip-rule="evenodd" d="M19.2055 32.835L19.0395 32.2155L18.7588 31.166L18.5933 30.5465L20.8788 29.762L21.18 30.888L21.4817 32.0135L21.7823 33.139L19.2055 32.835Z" fill="#B8D9F2"/>
<path fill-rule="evenodd" clip-rule="evenodd" d="M29.7158 37.1125V39.946L33.7492 39.5475V36.714L29.7158 37.1125Z" fill="#8FB7E1"/>
<path fill-rule="evenodd" clip-rule="evenodd" d="M37.906 35.2335V38.067L40.3253 36.1675V33.334L37.906 35.2335Z" fill="#8FB7E1"/>
<path fill-rule="evenodd" clip-rule="evenodd" d="M25.001 36.5075V39.3415L21.7161 38.0045V35.1705L25.001 36.5075Z" fill="#8FB7E1"/>
<path fill-rule="evenodd" clip-rule="evenodd" d="M19.2055 32.835V35.6685L18.5933 33.38V30.5465L19.2055 32.835Z" fill="#8FB7E1"/>
<path fill-rule="evenodd" clip-rule="evenodd" d="M26.802 38.676V35.842L25.001 36.5075V39.3415L26.802 38.676Z" fill="#8FB7E1"/>
<path fill-rule="evenodd" clip-rule="evenodd" d="M21.2782 33.0795V35.9135L19.2053 35.6685V32.835L21.2782 33.0795Z" fill="#8FB7E1"/>
<path fill-rule="evenodd" clip-rule="evenodd" d="M28.6475 36.0785V38.9125L29.7159 39.946V37.1125L28.6475 36.0785Z" fill="#8FB7E1"/>
<path fill-rule="evenodd" clip-rule="evenodd" d="M33.7493 36.714L34.2239 35.528V38.362L33.7493 39.5475V36.714Z" fill="#8FB7E1"/>
<path fill-rule="evenodd" clip-rule="evenodd" d="M35.8513 34.9495V37.783L37.9058 38.067V35.2335L35.8513 34.9495Z" fill="#8FB7E1"/>
<path fill-rule="evenodd" clip-rule="evenodd" d="M29.9072 23.975V25.3485L29.2969 24.7515L29.9072 23.975Z" fill="#A1C6E9"/>
<path fill-rule="evenodd" clip-rule="evenodd" d="M26.9463 29.1355C26.172 29.7435 24.692 29.89 23.6404 29.462C22.5888 29.034 22.3642 28.194 23.1385 27.586C23.9128 26.978 25.3927 26.8315 26.4443 27.26C27.4959 27.688 27.7206 28.5275 26.9463 29.1355ZM28.3934 25.6795C25.849 24.644 22.2678 24.9975 20.3942 26.4695C18.5206 27.941 19.0643 29.9735 21.6088 31.0085C24.1533 32.0445 27.7345 31.6905 29.6085 30.219C31.4821 28.7475 30.9384 26.7155 28.3939 25.6795H28.3934Z" fill="#A1C6E9"/>
<path fill-rule="evenodd" clip-rule="evenodd" d="M20.3657 25.608L19.9801 25.911L19.3261 26.4245L18.9404 26.7275L19.7679 27.4685L20.4696 26.918L21.1708 26.3675L21.8716 25.8165L20.3657 25.608Z" fill="#E03554"/>
<path fill-rule="evenodd" clip-rule="evenodd" d="M31.0615 29.9605L30.6759 30.264L30.0218 30.777L29.6362 31.0805L28.1299 30.8715L28.8311 30.3215L29.5323 29.77L30.2336 29.2195L31.0615 29.9605Z" fill="#A1C6E9"/>
<path fill-rule="evenodd" clip-rule="evenodd" d="M29.9073 25.645L29.3835 25.432L28.4954 25.0705L27.9716 24.8575L26.6516 25.345L27.6038 25.7325L28.556 26.1195L29.5082 26.5075L29.9073 25.645Z" fill="#E03554"/>
<path fill-rule="evenodd" clip-rule="evenodd" d="M22.0307 31.831L21.5064 31.6175L20.6188 31.2565L20.095 31.043L20.4935 30.181L21.4462 30.568L22.3979 30.956L23.3506 31.3435L22.0307 31.831Z" fill="#A1C6E9"/>
<path fill-rule="evenodd" clip-rule="evenodd" d="M25.1924 24.5005L24.5488 24.564L23.4595 24.6715L22.8159 24.735L22.468 25.604L23.6369 25.489L24.8063 25.3735L25.9751 25.258L25.1924 24.5005Z" fill="#A1C6E9"/>
<path fill-rule="evenodd" clip-rule="evenodd" d="M27.1863 31.953L26.5428 32.0165L25.4529 32.124L24.8098 32.1875L24.0266 31.43L25.196 31.315L26.3649 31.1995L27.5342 31.084L27.1863 31.953Z" fill="#A1C6E9"/>
<path fill-rule="evenodd" clip-rule="evenodd" d="M31.7475 28.37V26.7005L29.8679 26.842L30.0458 27.5055L30.2233 28.169L30.4007 28.8325L31.7475 28.37Z" fill="#A1C6E9"/>
<path fill-rule="evenodd" clip-rule="evenodd" d="M18.615 29.6665L18.5175 29.3015L18.3521 28.6825L18.2542 28.318L18.5175 27.632L19.6009 27.8555L19.7784 28.519L19.9563 29.1825L20.1337 29.846L18.615 29.6665Z" fill="#A1C6E9"/>
<path fill-rule="evenodd" clip-rule="evenodd" d="M18.9404 25.0575V26.648L19.581 26.515L19.8991 25.489L18.9404 25.0575Z" fill="#A1C6E9"/>
<path fill-rule="evenodd" clip-rule="evenodd" d="M30.6641 27.072V28.742L31.7475 28.37V26.7005L30.6641 27.072Z" fill="#A1C6E9"/>
<path fill-rule="evenodd" clip-rule="evenodd" d="M26.9463 27.466C26.172 28.074 24.692 28.2205 23.6404 27.7925C22.5888 27.3645 22.3642 26.5245 23.1385 25.9165C23.9128 25.3085 25.3927 25.1625 26.4443 25.5905C27.4959 26.0185 27.7206 26.858 26.9463 27.4665V27.466ZM28.3934 24.01C25.849 22.9745 22.2678 23.328 20.3942 24.7995C18.5206 26.271 19.0643 28.3035 21.6088 29.3385C24.1533 30.374 27.7345 30.0205 29.6085 28.549C31.4821 27.0775 30.9384 25.0455 28.3939 24.01H28.3934Z" fill="#C9E3F6"/>
<path fill-rule="evenodd" clip-rule="evenodd" d="M20.3657 23.938L19.9801 24.241L19.3261 24.7545L18.9404 25.0575L19.7679 25.799L20.4696 25.2485L21.1708 24.6975L21.8716 24.1465L20.3657 23.938Z" fill="#C9E3F6"/>
<path fill-rule="evenodd" clip-rule="evenodd" d="M31.0615 28.291L30.6759 28.594L30.0218 29.1075L29.6362 29.4105L28.1299 29.2015L28.8311 28.651L29.5323 28.1L30.2336 27.5495L31.0615 28.291Z" fill="#C9E3F6"/>
<path fill-rule="evenodd" clip-rule="evenodd" d="M29.9073 23.975L29.3835 23.762L28.4954 23.4005L27.9716 23.1875L26.6516 23.675L27.6038 24.0625L28.556 24.45L29.5082 24.8375L29.9073 23.975Z" fill="#C9E3F6"/>
<path fill-rule="evenodd" clip-rule="evenodd" d="M22.0307 30.161L21.5064 29.9475L20.6188 29.5865L20.095 29.373L20.4935 28.511L21.4462 28.8985L22.3979 29.286L23.3506 29.6735L22.0307 30.161Z" fill="#C9E3F6"/>
<path fill-rule="evenodd" clip-rule="evenodd" d="M25.1924 22.831L24.5488 22.894L23.4595 23.002L22.8159 23.0655L22.468 23.9345L23.6369 23.819L24.8063 23.7035L25.9751 23.588L25.1924 22.831Z" fill="#C9E3F6"/>
<path fill-rule="evenodd" clip-rule="evenodd" d="M27.1863 30.283L26.5428 30.3465L25.4529 30.454L24.8098 30.5175L24.0266 29.76L25.196 29.645L26.3649 29.529L27.5342 29.414L27.1863 30.283Z" fill="#C9E3F6"/>
<path fill-rule="evenodd" clip-rule="evenodd" d="M31.7475 26.7005L31.6501 26.3355L31.4846 25.7165L31.3867 25.352L29.8679 25.1725L30.0458 25.8355L30.2233 26.499L30.4007 27.1625L31.7475 26.7005Z" fill="#C9E3F6"/>
<path fill-rule="evenodd" clip-rule="evenodd" d="M18.615 27.9965L18.5175 27.632L18.3521 27.013L18.2542 26.648L19.6009 26.186L19.7784 26.849L19.9563 27.513L20.1337 28.176L18.615 27.9965Z" fill="#C9E3F6"/>
<path fill-rule="evenodd" clip-rule="evenodd" d="M24.8098 30.5175V32.1875L27.1863 31.953V30.283L24.8098 30.5175Z" fill="#A1C6E9"/>
<path fill-rule="evenodd" clip-rule="evenodd" d="M29.6362 29.4105V31.0805L31.0615 29.9605V28.291L29.6362 29.4105Z" fill="#A1C6E9"/>
<path fill-rule="evenodd" clip-rule="evenodd" d="M22.0307 30.161V31.831L20.095 31.043V29.373L22.0307 30.161Z" fill="#A1C6E9"/>
<path fill-rule="evenodd" clip-rule="evenodd" d="M18.615 27.9965V29.6665L18.2542 28.318V26.648L18.615 27.9965Z" fill="#A1C6E9"/>
<path fill-rule="evenodd" clip-rule="evenodd" d="M23.0918 31.439V29.769L22.0308 30.161V31.831L23.0918 31.439Z" fill="#A1C6E9"/>
<path fill-rule="evenodd" clip-rule="evenodd" d="M19.837 28.141V29.811L18.615 29.6665V27.9965L19.837 28.141Z" fill="#A1C6E9"/>
<path fill-rule="evenodd" clip-rule="evenodd" d="M24.1802 29.908V31.578L24.8098 32.1875V30.5175L24.1802 29.908Z" fill="#A1C6E9"/>
<path fill-rule="evenodd" clip-rule="evenodd" d="M27.1863 30.283L27.4661 29.584V31.254L27.1863 31.953V30.283Z" fill="#A1C6E9"/>
<path fill-rule="evenodd" clip-rule="evenodd" d="M28.4253 29.2425V30.9125L29.6364 31.0805V29.4105L28.4253 29.2425Z" fill="#A1C6E9"/>
</g>
<defs>
<clipPath id="clip0_2790_8946">
<rect width="88" height="50" fill="white" transform="translate(0 3)"/>
</clipPath>
</defs>
</svg>
