<svg width="56" height="56" viewBox="0 0 56 56" fill="none" xmlns="http://www.w3.org/2000/svg">
<g clip-path="url(#clip0_2790_14165)">
<path fill-rule="evenodd" clip-rule="evenodd" d="M25.5578 0.272494C25.6755 -0.0831064 24.4476 -0.0523064 23.619 0.222094L23.5978 0.236094L11.6071 7.17169C11.4527 7.26297 11.3127 7.36993 11.1856 7.49425L11.1839 7.49649C10.8282 7.84705 10.6202 8.32921 10.6085 8.83993L10.6107 8.84777L10.6001 29.1399C10.6001 29.4765 10.9174 30.5472 11.175 30.6866L11.4705 30.7813L11.4733 30.7824L11.698 30.1121L11.7276 30.027L11.8558 29.6434L14.1498 28.3117L14.1509 28.3089L23.6514 22.8181C24.272 22.4631 24.6489 21.7955 24.6472 21.0799L24.6378 2.99633L25.4725 0.522254L25.5573 0.271374L25.5578 0.272494Z" fill="#A1C6E9"/>
<path fill-rule="evenodd" clip-rule="evenodd" d="M24.7081 0.11457L11.9724 7.47969C11.3551 7.83753 10.9749 8.49889 10.9749 9.21513L10.9854 30.2342C10.9854 30.8849 11.6869 31.2914 12.2479 30.9661L24.983 23.6004C25.6002 23.2431 25.9805 22.5812 25.9805 21.8655L25.9699 0.84649C25.9699 0.19577 25.2685 -0.21079 24.7081 0.11457Z" fill="#C9E3F6"/>
<path fill-rule="evenodd" clip-rule="evenodd" d="M11.8285 30.8003C11.5575 30.8003 11.2647 30.5836 11.2647 30.2342L11.2542 9.21513C11.2542 8.60137 11.5826 8.02961 12.1123 7.72273L24.8474 0.357611C24.9355 0.306651 25.0292 0.280891 25.1273 0.280891C25.3983 0.280891 25.6911 0.497051 25.6911 0.847051L25.7017 21.8661C25.7017 22.4787 25.3732 23.0511 24.8441 23.3591L12.1084 30.7242C12.0203 30.7751 11.9266 30.8009 11.8285 30.8009V30.8003Z" fill="#A1C6E9"/>
<path fill-rule="evenodd" clip-rule="evenodd" d="M12.0002 28.6146L11.9913 22.6305L11.9802 14.4444L11.9489 9.28793L18.7065 5.37801V24.7366L12.0002 28.6152V28.6146ZM25.5327 0.849287C25.5299 0.600087 25.3164 0.488647 25.1708 0.488647C25.1112 0.488647 25.051 0.500407 24.9913 0.534567L18.7065 4.16953L12.2166 7.92545C11.9885 8.05985 11.795 8.25193 11.6607 8.48377C11.5268 8.71561 11.4583 8.97881 11.4583 9.24481L11.47 30.3333C11.4672 30.5791 11.6835 30.6939 11.8291 30.6939C11.8915 30.6939 11.9512 30.6766 12.0058 30.6424L15.7652 28.4696L18.7065 26.7694L24.5463 23.3943L24.7855 23.2538C25.0136 23.1222 25.2043 22.9273 25.3387 22.6954C25.4697 22.4636 25.5411 22.2004 25.5439 21.9372L25.5327 0.848727V0.849287Z" fill="#A1C6E9"/>
<path fill-rule="evenodd" clip-rule="evenodd" d="M18.7065 5.37745L11.9489 9.28737L11.9802 14.4438L11.9913 22.6299L12.0002 28.2002L18.7065 24.3217V26.7689L15.7652 28.469L12.0058 30.6418C11.9517 30.676 11.8921 30.6934 11.8291 30.6934C11.6835 30.6934 11.4672 30.5786 11.47 30.3327L11.4583 9.24425C11.4583 8.97825 11.5268 8.71505 11.6607 8.48321C11.7945 8.25137 11.9885 8.05929 12.2166 7.92489L18.7065 4.16897V5.37689V5.37745Z" fill="#A1C6E9"/>
<path fill-rule="evenodd" clip-rule="evenodd" d="M25.2022 1.62209L11.9993 9.25937L12.0455 28.7642L25.249 21.1269L25.2022 1.62209Z" fill="white"/>
<path fill-rule="evenodd" clip-rule="evenodd" d="M13.9569 9.42345V9.59593L12.98 10.1621V9.98905L13.9569 9.42345Z" fill="#A1C6E9"/>
<path fill-rule="evenodd" clip-rule="evenodd" d="M13.9569 9.91233V10.0865L12.98 10.6527V10.4779L13.9569 9.91233Z" fill="#A1C6E9"/>
<path fill-rule="evenodd" clip-rule="evenodd" d="M13.9569 10.4012V10.5759L12.98 11.1415V10.9668L13.9569 10.4012Z" fill="#A1C6E9"/>
<path fill-rule="evenodd" clip-rule="evenodd" d="M23.9842 16.7718L22.491 16.1093L21.7761 16.1351L23.2694 16.797L23.9842 16.7718Z" fill="#8FB7E1"/>
<path fill-rule="evenodd" clip-rule="evenodd" d="M21.0155 21.8863L19.5217 21.2243L19.979 21.7804L21.4722 22.4423L21.0155 21.8863Z" fill="#8FB7E1"/>
<path fill-rule="evenodd" clip-rule="evenodd" d="M23.5907 14.595L22.0975 13.9331L21.3369 14.5026L22.8296 15.1646L23.5907 14.595Z" fill="#8FB7E1"/>
<path fill-rule="evenodd" clip-rule="evenodd" d="M19.5179 22.6406L18.0247 21.9787L18.1111 22.9318L19.6043 23.5943L19.5179 22.6406Z" fill="#8FB7E1"/>
<path fill-rule="evenodd" clip-rule="evenodd" d="M17.9431 23.3904L16.4504 22.7285L16.9244 22.9435L18.4171 23.606L17.9431 23.3904Z" fill="#289DD4"/>
<path fill-rule="evenodd" clip-rule="evenodd" d="M22.3361 13.4756L20.8428 12.8137L20.2395 13.7741L21.7328 14.436L22.3361 13.4756Z" fill="#8FB7E1"/>
<path fill-rule="evenodd" clip-rule="evenodd" d="M18.2504 22.2967L16.7571 21.6343L16.4504 22.7285L17.9431 23.3904L18.2504 22.2967Z" fill="#8FB7E1"/>
<path fill-rule="evenodd" clip-rule="evenodd" d="M21.7328 14.436L20.2396 13.7741L19.7422 13.7786L21.2354 14.441L21.7328 14.436Z" fill="#8FB7E1"/>
<path fill-rule="evenodd" clip-rule="evenodd" d="M17.9237 21.9165L16.4304 21.2546L16.7572 21.6342L18.2504 22.2967L17.9237 21.9165Z" fill="#8FB7E1"/>
<path fill-rule="evenodd" clip-rule="evenodd" d="M20.5561 13.7136L19.0628 13.0517L18.7795 14.1454L20.2728 14.8073L20.5561 13.7136Z" fill="#8FB7E1"/>
<path fill-rule="evenodd" clip-rule="evenodd" d="M21.149 13.4874L19.6557 12.8255L19.063 13.0517L20.5563 13.7136L21.149 13.4874Z" fill="#8FB7E1"/>
<path fill-rule="evenodd" clip-rule="evenodd" d="M17.5528 20.9454L16.0601 20.2835L15.4412 21.226L16.9344 21.8879L17.5528 20.9454Z" fill="#8FB7E1"/>
<path fill-rule="evenodd" clip-rule="evenodd" d="M16.9344 21.8879L15.4412 21.226L15.6698 21.8246L17.1625 22.486L16.9344 21.8879Z" fill="#8FB7E1"/>
<path fill-rule="evenodd" clip-rule="evenodd" d="M20.2729 14.8073L18.7796 14.1454L18.2449 14.5329L19.7376 15.1954L20.2729 14.8073Z" fill="#8FB7E1"/>
<path fill-rule="evenodd" clip-rule="evenodd" d="M17.4837 20.2846L15.991 19.6222L16.0601 20.2835L17.5528 20.9454L17.4837 20.2846Z" fill="#8FB7E1"/>
<path fill-rule="evenodd" clip-rule="evenodd" d="M18.8399 16.1793L17.3466 15.5174L16.9189 16.1838L18.4122 16.8463L18.8399 16.1793Z" fill="#8FB7E1"/>
<path fill-rule="evenodd" clip-rule="evenodd" d="M17.819 18.1841L16.3257 17.5222L16.1194 18.2888L17.6126 18.9507L17.819 18.1841Z" fill="#8FB7E1"/>
<path fill-rule="evenodd" clip-rule="evenodd" d="M22.098 9.44305L20.6048 8.78057L20.0349 8.85449L21.5282 9.51585L22.098 9.44305Z" fill="#8FB7E1"/>
<path fill-rule="evenodd" clip-rule="evenodd" d="M19.4514 14.2025L17.9587 13.5406L18.2833 14.021L19.7765 14.683L19.4514 14.2025Z" fill="#8FB7E1"/>
<path fill-rule="evenodd" clip-rule="evenodd" d="M19.281 14.6387L17.7882 13.9774L17.2351 14.5822L18.7284 15.2441L19.281 14.6387Z" fill="#8FB7E1"/>
<path fill-rule="evenodd" clip-rule="evenodd" d="M18.7284 15.2441L17.2351 14.5822L17.3466 15.5174L18.8399 16.1793L18.7284 15.2441Z" fill="#8FB7E1"/>
<path fill-rule="evenodd" clip-rule="evenodd" d="M16.848 19.4883L15.3547 18.8264L15.2761 19.6474L16.7688 20.3098L16.848 19.4883Z" fill="#8FB7E1"/>
<path fill-rule="evenodd" clip-rule="evenodd" d="M17.6125 18.9507L16.1192 18.2888L15.3547 18.8264L16.848 19.4883L17.6125 18.9507Z" fill="#8FB7E1"/>
<path fill-rule="evenodd" clip-rule="evenodd" d="M18.4123 16.8463L16.919 16.1838L16.2136 16.1731L17.7069 16.8351L18.4123 16.8463Z" fill="#8FB7E1"/>
<path fill-rule="evenodd" clip-rule="evenodd" d="M16.9347 21.8879L17.1627 22.486L17.9238 21.9165L18.2506 22.2967L17.9434 23.3904L18.4173 23.606L19.0206 22.645L19.518 22.6406L19.6045 23.5942L20.1972 23.3674L20.4805 22.2738L21.0158 21.8862L21.4724 22.4423L22.025 21.8375L21.9135 20.9023L22.3412 20.2354L23.0465 20.2466L23.4112 19.4228L22.9339 18.8975L23.1413 18.1303L23.9053 17.5933L23.9844 16.7718L23.2696 16.797L23.1999 16.1356L23.8188 15.1937L23.5908 14.595L22.8296 15.1646L22.5023 14.7849L22.8101 13.6912L22.3362 13.4756L21.7328 14.436L21.2354 14.441L21.149 13.4874L20.5563 13.7136L20.273 14.8073L19.7377 15.1954L19.281 14.6387L18.7285 15.2441L18.84 16.1793L18.4123 16.8462L17.7069 16.835L17.3423 17.6588L17.819 18.1841L17.6127 18.9507L16.8482 19.4883L16.769 20.3098L17.4839 20.2846L17.553 20.9454L16.9347 21.8879Z" fill="#B8D9F2"/>
<path fill-rule="evenodd" clip-rule="evenodd" d="M17.3421 17.6588L15.8489 16.9969L16.3256 17.5222L17.8189 18.1841L17.3421 17.6588Z" fill="#8FB7E1"/>
<path fill-rule="evenodd" clip-rule="evenodd" d="M17.7068 16.8351L16.2136 16.1731L15.8489 16.9969L17.3421 17.6588L17.7068 16.8351Z" fill="#8FB7E1"/>
<path fill-rule="evenodd" clip-rule="evenodd" d="M21.4294 7.68297L19.9362 7.02105L19.3657 7.58105L20.859 8.24297L21.4294 7.68297Z" fill="#8FB7E1"/>
<path fill-rule="evenodd" clip-rule="evenodd" d="M18.0669 14.5441L16.5737 13.8827L16.5408 14.6852L18.034 15.3477L18.0669 14.5441Z" fill="#8FB7E1"/>
<path fill-rule="evenodd" clip-rule="evenodd" d="M17.6639 14.3615L16.1707 13.6996L16.5738 13.8827L18.0671 14.5441L17.6639 14.3615Z" fill="#E94850"/>
<path fill-rule="evenodd" clip-rule="evenodd" d="M19.9316 7.30721L18.4383 6.64529L18.0859 7.47633L19.5792 8.13825L19.9316 7.30721Z" fill="#8FB7E1"/>
<path fill-rule="evenodd" clip-rule="evenodd" d="M20.4893 7.25737L18.9961 6.59545L18.4385 6.64529L19.9317 7.30721L20.4893 7.25737Z" fill="#8FB7E1"/>
<path fill-rule="evenodd" clip-rule="evenodd" d="M17.1385 13.6475L15.6453 12.9856L15.2661 13.8055L16.7594 14.4674L17.1385 13.6475Z" fill="#8FB7E1"/>
<path fill-rule="evenodd" clip-rule="evenodd" d="M16.7594 14.4674L15.2661 13.8055L15.6001 14.2596L17.0934 14.9215L16.7594 14.4674Z" fill="#8FB7E1"/>
<path fill-rule="evenodd" clip-rule="evenodd" d="M19.5792 8.13825L18.0859 7.47633L17.5774 7.74065L19.0707 8.40257L19.5792 8.13825Z" fill="#8FB7E1"/>
<path fill-rule="evenodd" clip-rule="evenodd" d="M16.9947 13.0886L15.5015 12.4267L15.6453 12.9856L17.1386 13.6475L16.9947 13.0886Z" fill="#8FB7E1"/>
<path fill-rule="evenodd" clip-rule="evenodd" d="M18.1784 9.24201L16.6852 8.58009L16.2659 9.18993L17.7586 9.85185L18.1784 9.24201Z" fill="#8FB7E1"/>
<path fill-rule="evenodd" clip-rule="evenodd" d="M17.1909 11.1331L15.6982 10.4712L15.5276 11.1931L17.0209 11.855L17.1909 11.1331Z" fill="#8FB7E1"/>
<path fill-rule="evenodd" clip-rule="evenodd" d="M18.7456 7.92209L17.2523 7.26017L16.6858 7.79329L18.1785 8.45577L18.7456 7.92209Z" fill="#8FB7E1"/>
<path fill-rule="evenodd" clip-rule="evenodd" d="M18.1786 8.45577L16.6859 7.79329L16.6853 8.58009L18.1786 9.24201V8.45577Z" fill="#8FB7E1"/>
<path fill-rule="evenodd" clip-rule="evenodd" d="M17.0209 11.855L15.5277 11.1931L14.9478 11.7161L16.441 12.3786L17.0209 11.855Z" fill="#8FB7E1"/>
<path fill-rule="evenodd" clip-rule="evenodd" d="M16.4411 12.3786L14.9479 11.7161L14.9312 12.5001L16.425 13.162L16.4411 12.3786Z" fill="#8FB7E1"/>
<path fill-rule="evenodd" clip-rule="evenodd" d="M17.7588 9.85185L16.2661 9.18993L15.7068 9.21625L17.2 9.87817L17.7588 9.85185Z" fill="#8FB7E1"/>
<path fill-rule="evenodd" clip-rule="evenodd" d="M17.2 9.87817L15.7068 9.21625L15.3455 10.0305L16.8387 10.6924L17.2 9.87817Z" fill="#8FB7E1"/>
<path fill-rule="evenodd" clip-rule="evenodd" d="M16.4248 13.162L16.9947 13.0887L17.1385 13.6475L16.7594 14.4674L17.0934 14.9215L17.6638 14.3615L18.0669 14.5441L18.034 15.3477L18.59 15.2979L18.9429 14.4668L19.4515 14.2025L19.7766 14.683L20.3436 14.1493L20.3442 13.363L20.7635 12.7532L21.3228 12.7263L21.6836 11.9127L21.3312 11.4725L21.5018 10.7501L22.0817 10.227L22.0979 9.44305L21.528 9.51585L21.3841 8.95753L21.7633 8.13713L21.4293 7.68297L20.8589 8.24297L20.4557 8.06041L20.4892 7.25737L19.9316 7.30721L19.5792 8.13825L19.0706 8.40257L18.7456 7.92209L18.1785 8.45577V9.24201L17.7586 9.85185L17.1999 9.87817L16.8385 10.6924L17.191 11.1331L17.0209 11.855L16.441 12.3786L16.4248 13.162Z" fill="#B8D9F2"/>
<path fill-rule="evenodd" clip-rule="evenodd" d="M16.8387 10.6924L15.3455 10.0305L15.6984 10.4712L17.1911 11.1331L16.8387 10.6924Z" fill="#8FB7E1"/>
<path fill-rule="evenodd" clip-rule="evenodd" d="M19.2279 12.3338C19.6004 12.1333 19.9149 11.5739 19.9305 11.0839C19.9461 10.5944 19.6573 10.3598 19.2842 10.5603C18.9118 10.7607 18.5973 11.3202 18.5817 11.8096C18.566 12.2996 18.8554 12.5343 19.2279 12.3338Z" fill="#8FB7E1"/>
<path fill-rule="evenodd" clip-rule="evenodd" d="M20.3532 19.7745C20.8673 19.4889 21.295 18.7055 21.3078 18.0239C21.3206 17.3424 20.9141 17.0215 20.4 17.3066C19.8859 17.5922 19.4582 18.3762 19.4454 19.0571C19.432 19.7387 19.8391 20.0595 20.3532 19.7745Z" fill="#8FB7E1"/>
<path d="M21.0762 29.164L21.005 29.2654C21.005 29.2654 20.9927 29.2116 21.0762 29.164Z" fill="#FBBF9C"/>
<path d="M24.75 33.4458C24.75 33.4458 24.547 34.0948 24.6189 34.7556C24.639 34.9426 25.1225 35.1896 25.3014 35.2641C25.486 35.3402 25.7565 35.4791 25.9594 35.6309C26.3581 35.9294 26.8382 36.4149 27.0278 36.4961C27.3138 36.6193 27.9094 36.6697 28.0794 36.4653C28.3733 36.1136 28.1854 35.6331 27.8681 35.3856C27.5508 35.1375 26.6403 34.3882 26.376 33.6742C25.9176 33.7806 25.2613 33.7314 24.75 33.4452V33.4458Z" fill="#141034"/>
<path d="M21.0847 34.5523C21.0847 34.5523 20.7981 35.6236 20.87 36.2844C20.8901 36.4714 21.3138 36.7559 21.5017 36.9094C21.6568 37.0359 21.988 37.5142 22.1541 37.7062C22.4658 38.0663 22.6816 38.138 22.8712 38.2198C23.1573 38.343 24.1286 38.3413 24.2992 38.1374C24.5931 37.7858 23.9585 37.0342 23.6413 36.7862C23.4232 36.6159 22.9989 36.2284 22.7614 35.6051C22.6526 35.3206 22.637 34.6834 22.5539 34.4599C22.0956 34.5663 21.5965 34.839 21.0852 34.5529L21.0847 34.5523Z" fill="#141034"/>
<path d="M21.7635 22.3063C21.5756 23.2627 20.791 35.1325 20.791 35.1325C20.791 35.1325 22.2547 35.9674 22.9211 35.2652C22.8575 32.9944 23.9181 27.5982 24.5922 25.4445C24.8125 26.037 24.7701 29.0923 24.5822 30.9353C24.5097 31.6454 24.4628 33.1674 24.5688 33.7577C24.6128 34.0041 25.9232 34.573 26.6163 33.9598C26.3693 33.0157 26.628 29.8483 26.957 28.4192C27.286 26.9895 27.3797 23.9168 26.8739 21.5564C25.4041 21.3722 26.8739 24.796 22.0612 21.8767C21.9057 21.7821 21.798 22.1276 21.7629 22.3074L21.7635 22.3063Z" fill="#F3C7DB"/>
<path d="M24.1038 22.8931L26.221 21.8711C25.8591 22.4289 25.7939 23.461 24.1038 22.8931Z" fill="#C79FA2"/>
<path d="M26.8743 21.5553L26.2202 21.8711C26.3585 21.6578 26.5408 21.5139 26.8743 21.5553Z" fill="#C79FA2"/>
<path d="M22.1732 18.5666C22.2958 17.4443 22.138 16.6923 22.946 15.4059C23.6993 14.2075 25.1742 13.6666 26.2069 13.6061C26.6362 13.5809 26.9998 13.9186 27.0143 14.3503C27.0483 15.3656 27.1453 15.374 27.2039 15.5017C27.273 15.6529 27.9131 16.7012 27.3589 18.0687C27.0271 18.8886 27.012 21.3548 26.9607 22.0671C26.9607 22.0671 27.2356 22.4485 25.7742 23.1978C24.9539 23.6183 23.6491 23.5769 23.2081 23.4576C22.7664 23.3378 21.91 23.0443 21.7639 22.3063C21.5458 21.2064 22.0482 19.7179 22.1737 18.566L22.1732 18.5666Z" fill="#F3C7DB"/>
<path d="M21.0909 25.1494C21.189 24.1106 22.2028 18.3224 22.2028 18.3224C23.5879 18.9742 24.233 17.9954 24.301 17.2914C24.3691 16.5875 23.1585 15.1114 23.1585 15.1114L23.4903 14.7642C24.1271 15.2122 24.5598 15.9435 24.8971 16.3383C25.2345 16.7331 26.4361 17.073 26.7266 16.06C27.0171 15.047 26.1389 13.8346 26.1389 13.8346L26.5526 13.6694C27.2937 14.0194 27.5067 15.5616 27.5781 16.7975C27.6305 17.7036 27.4665 19.7364 27.3751 20.7573L27.6606 29.0817L25.5149 29.8231C23.3581 30.4369 20.7034 29.4222 20.7034 29.4222C20.7034 29.4222 20.7909 28.3229 21.0909 25.1499V25.1494Z" fill="#F69382"/>
<path d="M26.2298 18.9715C26.701 18.6982 27.0824 18.0934 27.0824 17.6207V17.2915L25.3767 18.2804V18.6097C25.3767 19.0829 25.7587 19.2447 26.2293 18.9715H26.2298Z" fill="#E96C65"/>
<path d="M26.7884 13.8934C26.7399 14.5329 26.3602 15.2172 26.0189 15.7828C25.1217 15.6926 24.3533 14.935 24.0405 14.5822C24.8033 14.1185 25.8087 13.7937 26.7884 13.8934Z" fill="#D9A4C1"/>
<path d="M24.0413 14.5822C24.2989 14.8723 25.0528 15.7156 26.0196 15.7828C25.8685 15.0251 26.0776 15.01 26.1986 14.7334C26.2773 14.5525 25.863 14.2193 25.4743 13.9897C25.0868 13.7618 24.6507 13.577 24.5392 13.5714C24.4723 13.8525 24.4054 14.0552 24.0413 14.5816V14.5822Z" fill="#DB937C"/>
<path d="M24.0413 14.5822C24.4048 14.0558 24.4723 13.853 24.5392 13.5719C24.5771 13.5736 24.6524 13.5966 24.7494 13.6335L24.7745 13.7086C24.7745 13.7086 24.3134 14.6583 26.0196 15.7828C25.0528 15.7156 24.2989 14.8723 24.0413 14.5822Z" fill="#FABDAB"/>
<path d="M24.4444 13.885L24.4182 13.9611C24.392 14.0379 24.3557 14.1107 24.3111 14.1784L24.1823 14.4668C24.4533 14.772 24.9975 15.3919 25.7932 15.5476C25.8746 15.5639 25.9315 15.6383 25.9293 15.7218L25.9265 15.8523L25.8908 15.8489C24.9579 15.7554 24.2687 14.954 23.9682 14.6152L23.9197 14.5514L24.4449 13.8855L24.4444 13.885Z" fill="white"/>
<path d="M26.4233 13.8878L26.5521 13.862C26.6993 14.6135 26.6207 15.1646 26.14 15.7699L26.1177 15.7979L26.0296 15.6691C25.9872 15.607 25.99 15.5246 26.0352 15.4642C26.4188 14.9462 26.5538 14.553 26.4233 13.8878Z" fill="white"/>
<path d="M26.9224 12.1434C26.8282 11.8354 26.657 11.5565 26.4189 11.3403C26.0799 11.0318 25.5351 10.7098 24.9045 10.9842C23.84 11.4473 24.024 13.0131 24.8414 14.091C25.1682 14.4192 25.9143 14.7603 26.2539 14.8655C26.5934 14.9708 26.8198 14.6538 26.8365 14.4545C26.8533 14.2551 27.0501 13.3502 27.0629 12.9123C27.0696 12.6849 26.9949 12.3819 26.9219 12.1439L26.9224 12.1434Z" fill="#FABDAB"/>
<path d="M25.0427 13.4213L25.0444 13.4224C25.0444 13.4588 25.0427 13.4213 25.0427 13.4213Z" fill="#371518"/>
<path d="M24.0033 12.0196C24.0112 11.8992 24.0173 11.6651 24.1823 11.3739C24.4277 11.8763 25.2429 12.3254 25.2429 12.3254C25.3405 12.5079 25.4369 12.7773 25.4381 12.8831C25.4392 12.9587 25.3946 13.0237 25.3199 13.0164C25.2964 13.0142 25.2708 13.0108 25.2451 13.0063C25.2875 13.2488 25.2752 13.2247 25.2686 13.5361L25.045 13.4219C25.045 13.4011 25.045 13.3575 25.0433 13.2695C25.041 13.1407 24.9808 13.059 24.924 13.0103C24.8766 12.9694 24.8147 12.9498 24.7522 12.952C24.7405 12.952 24.7293 12.9526 24.7188 12.9531C24.5855 12.9576 24.4701 13.0483 24.436 13.1777C24.4182 13.2466 24.4115 13.3239 24.436 13.4073C24.1584 12.9571 24.0914 12.7807 24.0675 12.5992C24.0675 12.5992 24.0675 12.5987 24.0675 12.5981C24.0223 12.4189 23.995 12.14 24.0028 12.0191L24.0033 12.0196Z" fill="#261F38"/>
<path d="M24.992 12.4956C24.6953 12.3226 24.6998 11.9502 24.7661 11.6444C26.4612 12.3909 27.1711 11.393 27.1711 11.393L27.0322 12.5852C27.0322 12.5852 26.3787 12.9963 25.4035 12.8344C25.2813 12.7051 25.1431 12.5835 24.992 12.4956Z" fill="#FCE2ED"/>
<path d="M23.9192 11.1707C24.2259 11.3762 24.5075 11.5302 24.7667 11.6444C24.7004 11.9507 24.6954 12.3231 24.9926 12.4956C25.1437 12.5835 25.2825 12.705 25.4041 12.8344C24.9898 12.7655 24.5175 12.5942 24.0118 12.2431L23.9192 11.1707Z" fill="#FCE2ED"/>
<path d="M24.064 10.3458C24.0953 10.3458 24.1265 10.3469 24.1577 10.3486C24.2631 10.3547 24.364 10.3166 24.4382 10.241C24.7226 9.95097 25.1642 9.76449 25.6616 9.76449C26.2225 9.76449 26.7138 10.0014 26.987 10.3564C27.0584 10.4494 27.1654 10.5037 27.2825 10.5031H27.2881C27.9193 10.5031 28.4306 10.8498 28.4306 11.2776C28.4306 11.7054 27.9187 12.0521 27.2881 12.0521C27.2084 12.0521 27.1309 12.0465 27.0556 12.0358C26.8141 12.0017 26.5705 12.028 26.343 12.117C26.1372 12.1977 25.9064 12.243 25.6616 12.243C25.3566 12.243 25.0727 12.1725 24.833 12.0515C24.6233 11.9451 24.3936 11.8796 24.1588 11.8925C24.1276 11.8942 24.0958 11.8953 24.064 11.8953C23.4328 11.8953 22.9343 11.5346 22.9343 11.1068C22.9343 10.679 23.4334 10.3463 24.064 10.3463V10.3458Z" fill="#FCE2ED"/>
<path d="M24.0642 11.3907C24.0959 11.3907 24.1277 11.3896 24.159 11.3879C24.3937 11.3751 24.6234 11.4406 24.8331 11.547C25.0729 11.6679 25.3567 11.7385 25.6617 11.7385C25.9065 11.7385 26.1373 11.6931 26.3431 11.6125C26.57 11.5235 26.8143 11.4971 27.0557 11.5313C27.131 11.5419 27.2085 11.5475 27.2882 11.5475C27.7823 11.5475 28.2116 11.3269 28.3711 11.0295C28.4151 11.1119 28.4408 11.2166 28.4408 11.3095C28.4408 11.7374 27.9194 12.0751 27.2882 12.0751C27.2085 12.0751 27.131 12.0695 27.0557 12.0588C26.8143 12.0247 26.5706 12.051 26.3431 12.14C26.1373 12.2207 25.9065 12.266 25.6617 12.266C25.3567 12.266 25.0729 12.1955 24.8331 12.0745C24.6234 11.9681 24.3937 11.9026 24.159 11.9155C24.1277 11.9171 24.0959 11.9183 24.0642 11.9183C23.433 11.9183 22.9216 11.5716 22.9216 11.1438C22.9216 11.0508 22.9428 10.9551 22.9869 10.8727C23.1463 11.1707 23.5701 11.3907 24.0642 11.3907Z" fill="#D9A6C2"/>
<path d="M36.5874 24.3256L36.5612 33.6138L24.634 40.5746L24.6602 31.2864L36.5874 24.3256Z" fill="#362C4F"/>
<path d="M36.5873 24.3256V25.1236L24.6602 32.0844V31.2864L36.5873 24.3256Z" fill="#1B1828"/>
<path d="M24.6601 31.2864L24.6339 40.5746L5.74341 29.6215L5.76962 20.3328L24.6601 31.2864Z" fill="#584967"/>
<path d="M24.6601 31.2864V32.0844L5.76733 21.1448L5.76956 20.3328L24.6601 31.2864Z" fill="#2F2649"/>
<path d="M24.3166 39.9759V40.7739L5.42334 29.8343L5.42557 29.0223L24.3166 39.9759Z" fill="#584967"/>
<path d="M5.76958 28.823L5.42554 29.0223L24.3166 39.9759L24.6601 39.7766L5.76958 28.823Z" fill="#9C8BAF"/>
<path d="M24.3167 39.9759V40.7739L24.6601 40.5746V39.7766L24.3167 39.9759Z" fill="#362C4F"/>
<path d="M36.5872 24.3256L24.66 31.2864L5.76953 20.3328L11.0316 17.2618L24.6255 25.1443L31.2905 21.2546L36.5872 24.3256Z" fill="#9C8BAF"/>
<path d="M34.9173 24.3441L29.8008 27.3233L25.675 24.9315L30.7916 21.9518L34.9173 24.3441Z" fill="#766984"/>
<path d="M25.3308 25.1309V25.8214L28.8621 27.8687L29.4565 27.5226L25.3308 25.1309Z" fill="#584967"/>
<path d="M20.2144 28.1101L20.8082 28.4545L25.3309 25.8214V25.1309L20.2144 28.1101Z" fill="#362C4F"/>
<path d="M28.8621 27.8687L25.3308 25.8214L20.8081 28.4545L24.34 30.5024L28.8621 27.8687Z" fill="#766984"/>
<path d="M25.675 24.9315L27.03 25.7172L30.7916 23.5237V21.9518L25.675 24.9315Z" fill="#362C4F"/>
<path d="M30.7915 21.9518V23.5237L33.5622 25.1298L34.9172 24.3441L30.7915 21.9518Z" fill="#584967"/>
<path d="M30.5156 25.6058C30.7085 25.7178 30.7085 25.8992 30.5156 26.0112C30.3226 26.1232 30.0093 26.1232 29.8163 26.0112C29.6234 25.8992 29.6234 25.7178 29.8163 25.6058C30.0093 25.4938 30.3226 25.4938 30.5156 25.6058Z" fill="#362C4F"/>
<path d="M30.3303 18.9535C30.7301 19.8501 31.3457 21.231 31.3457 21.231C31.5186 21.4433 31.8074 22.0313 31.8743 22.1976C31.9412 22.3639 32.1459 22.9379 32.234 23.2314C32.3132 23.4946 32.2552 23.5679 32.2552 23.5679C32.3293 23.7062 32.3182 23.923 32.2468 23.9336C32.1269 23.9515 32.0717 23.8798 32.0717 23.8798C32.0717 24.0322 31.9167 24.0075 31.8392 23.9224C31.7617 23.8373 31.7299 23.5898 31.7299 23.5898C31.7054 23.937 31.5219 23.7174 31.5219 23.7174C31.2894 23.2291 30.6337 21.9546 30.6197 21.6426C30.6097 21.427 29.6227 20.5092 28.8928 19.8215C29.4638 19.4945 30.042 19.1361 30.3303 18.9546V18.9535Z" fill="#FABDAB"/>
<path d="M27.5781 16.797C27.5223 15.8332 27.379 14.6846 26.9675 14.0591C27.1878 14.0798 27.4136 14.1263 27.6484 14.2182C28.3253 14.4836 28.4519 15.9385 28.4519 15.9385C28.6844 16.2784 29.2872 17.5216 29.2872 17.5216C29.6329 17.8061 30.113 18.5783 30.3171 19.1114C29.9669 19.1568 29.523 19.3315 29.155 19.8523C29.0703 19.7683 28.9888 19.6888 28.9136 19.6166C28.279 19.0078 28.0794 18.2003 28.0794 18.2003C27.9734 18.0581 27.7827 17.7803 27.5848 17.488C27.5898 17.222 27.5887 16.984 27.5781 16.7964V16.797Z" fill="#F3C7DB"/>
<path d="M30.6192 21.6421C30.6192 21.6421 30.7776 21.8756 31.0001 21.9501C31.0001 21.9501 30.9967 22.1909 31.261 22.29C31.5253 22.3891 31.4868 22.2402 31.4512 22.0246C31.4155 21.809 31.4478 21.7804 31.3982 21.6102C31.3491 21.4405 31.3207 21.3554 31.1724 21.2596L30.6187 21.6421H30.6192Z" fill="#FABDAB"/>
<path d="M28.5439 19.5214C28.8239 18.7301 29.8164 18.4467 30.1666 18.4014C30.1671 18.4031 30.4325 18.5072 30.5993 19.0443C30.3796 19.3444 29.6023 19.8529 28.8975 20.0506C28.7101 19.9078 28.6449 19.7661 28.5439 19.5219V19.5214Z" fill="#D9A4C1"/>
<path d="M22.3612 16.5926C22.4365 15.7475 22.9188 15.2391 23.158 15.1103L23.763 16.2168C24.1266 16.9739 24.2749 17.777 24.1026 18.5991C23.913 19.5029 23.6197 20.3474 23.6197 20.3474C23.6197 20.3474 24.1054 20.5171 24.6195 20.9522L24.2604 21.996C23.4145 21.7569 22.8341 21.7183 22.4287 21.1678C22.0233 20.6173 22.2698 17.6219 22.3618 16.5926H22.3612Z" fill="#F3C7DB"/>
<path d="M26.7038 21.8448C26.9067 21.7367 27.5675 21.6611 27.7994 21.6298C28.0041 21.6023 28.3805 21.5284 28.4201 21.6141C28.4602 21.6998 28.4697 21.8639 28.2466 21.9277C28.0242 21.9915 27.6416 21.9876 27.6416 21.9876L27.635 22.0761C27.7459 22.2799 28.579 22.7257 28.8628 22.8422C29.1461 22.9587 29.0808 23.0953 28.9766 23.1395C28.8723 23.1838 28.2087 22.9307 28.2087 22.9307C28.2087 22.9307 28.3214 23.0197 28.7479 23.2314C29.1745 23.4431 29.0892 23.629 28.9687 23.6318C28.8483 23.6346 28.4898 23.4543 28.4898 23.4543C28.4898 23.4543 28.6102 23.5287 28.7067 23.5999C28.8031 23.671 28.826 23.8429 28.6838 23.8552C28.5416 23.8675 28.2511 23.6749 28.2511 23.6749C28.3649 23.7975 28.3866 24.0367 28.1156 23.8647C27.8446 23.6928 26.4289 22.7134 26.4289 22.7134C26.4289 22.7134 25.2579 22.453 24.2793 22.2133C24.5403 21.7199 24.7276 21.1784 24.8129 20.9102C25.6488 21.3459 26.7026 21.8454 26.7026 21.8454L26.7038 21.8448Z" fill="#FABDAB"/>
<path d="M24.1104 20.3502C24.3825 20.3149 24.5542 20.4135 24.7193 20.5596C24.8135 20.6425 24.847 20.7752 24.8062 20.8939C24.6953 21.2171 24.4923 21.7731 24.3022 22.1864C24.2375 22.3281 24.0858 22.411 23.933 22.3852C23.6866 22.3438 23.5193 22.271 23.3916 22.1377C23.3124 22.0543 23.2795 21.9344 23.3007 21.8213C23.3838 21.3744 23.7529 20.7103 23.9509 20.4465C23.9899 20.3944 24.0462 20.3586 24.1104 20.3502Z" fill="#D9A4C1"/>
<path d="M30.1348 23.713L30.8613 23.289L30.8624 23.0482L30.1353 23.4722L30.1348 23.713Z" fill="#1D182A"/>
<path d="M32.3533 26.6972L33.0804 26.2727L33.0865 24.054L32.3594 24.4779L32.3533 26.6972Z" fill="#362C4F"/>
<path d="M32.3596 24.4779L33.0867 24.0534C32.9902 23.886 32.9378 23.7947 32.8436 23.6312L32.1165 24.0557C32.2107 24.2192 32.2631 24.3105 32.3596 24.4779Z" fill="#584967"/>
<path d="M32.117 24.0557L32.8436 23.6312L30.5847 22.3219L29.8582 22.7459L32.117 24.0557Z" fill="#9C8BAF"/>
<path d="M29.8581 22.7458C29.7678 22.8002 29.7148 22.8276 29.6223 22.8808L29.6206 23.415L30.1342 23.713V23.4722L31.6692 24.362L31.6637 26.2974L32.3529 26.6972L32.359 24.4779C32.2625 24.3105 32.2101 24.2192 32.1159 24.0557L29.857 22.7458H29.8581Z" fill="#584967"/>
<path d="M27.0705 27.8609C26.5609 28.1482 25.7462 28.1398 25.2511 27.8424C24.7559 27.5451 24.7671 27.0713 25.2767 26.784C25.7864 26.4967 26.601 26.5051 27.0962 26.8025C27.5913 27.0998 27.5802 27.5736 27.0705 27.8609Z" fill="#F69382"/>
<path d="M27.9292 26.8803C27.9398 26.901 27.9504 26.9223 27.961 26.943C28.1501 27.3171 27.9861 27.7371 27.4726 28.0266L27.4497 27.9443C27.9538 27.6604 28.1155 27.2477 27.9292 26.8803Z" fill="#F69382"/>
<path d="M24.3885 26.933C24.3991 26.9123 24.4103 26.891 24.4209 26.8703C24.2374 27.2275 24.3835 27.6307 24.8619 27.918C25.5662 28.3408 26.7249 28.3526 27.4492 27.9443L27.4721 28.0267C26.7344 28.4427 25.5545 28.4304 24.8374 27.9998C24.35 27.7069 24.2017 27.2964 24.388 26.9324L24.3885 26.933Z" fill="#F69382"/>
<path d="M27.4495 27.9443L27.0703 27.8609C27.58 27.5736 27.5917 27.0998 27.096 26.8025C26.6008 26.5051 25.7861 26.4967 25.2765 26.784C24.7668 27.0713 24.7551 27.545 25.2508 27.8424C25.746 28.1398 26.5607 28.1482 27.0703 27.8609L27.4495 27.9443C26.7246 28.3526 25.5664 28.3408 24.8622 27.918C24.1579 27.4952 24.1741 26.8215 24.899 26.4127C25.6239 26.0045 26.782 26.0162 27.4863 26.439C28.1905 26.8618 28.1744 27.5355 27.4495 27.9443Z" fill="white"/>
<path d="M27.0705 27.582C26.5609 27.8693 25.7462 27.8609 25.2511 27.5635C24.7559 27.2662 24.7671 26.7924 25.2767 26.5051C25.7864 26.2178 26.601 26.2262 27.0962 26.5236C27.5913 26.821 27.5802 27.2947 27.0705 27.582Z" fill="#F69382"/>
<path d="M27.9292 26.6014C27.9398 26.6222 27.9504 26.6434 27.961 26.6642C28.1501 27.0382 27.9861 27.4582 27.4726 27.7478L27.4497 27.6654C27.9538 27.3815 28.1155 26.9682 27.9292 26.6014Z" fill="#F69382"/>
<path d="M24.3885 26.6547C24.3991 26.6339 24.4103 26.6127 24.4209 26.5919C24.2374 26.9492 24.3835 27.3524 24.8619 27.6397C25.5662 28.0625 26.7249 28.0742 27.4492 27.666L27.4721 27.7483C26.7344 28.1644 25.5545 28.1521 24.8374 27.7214C24.35 27.4286 24.2017 27.0181 24.388 26.6541L24.3885 26.6547Z" fill="#F69382"/>
<path d="M27.4495 27.666L27.0703 27.5826C27.58 27.2953 27.5917 26.8215 27.096 26.5242C26.6008 26.2268 25.7861 26.2184 25.2765 26.5057C24.7668 26.793 24.7551 27.2667 25.2508 27.5641C25.746 27.8614 26.5607 27.8699 27.0703 27.5826L27.4495 27.666C26.7246 28.0742 25.5664 28.0625 24.8622 27.6397C24.1579 27.2169 24.1741 26.5432 24.899 26.1344C25.6239 25.7262 26.782 25.7379 27.4863 26.1607C28.1905 26.5835 28.1744 27.2572 27.4495 27.666Z" fill="white"/>
<path d="M27.0705 27.3037C26.5609 27.591 25.7462 27.5826 25.2511 27.2852C24.7559 26.9878 24.7671 26.5141 25.2767 26.2268C25.7864 25.9395 26.601 25.9479 27.0962 26.2453C27.5913 26.5426 27.5802 27.0164 27.0705 27.3037Z" fill="#F69382"/>
<path d="M27.9292 26.3231C27.9398 26.3439 27.9504 26.3651 27.961 26.3859C28.1501 26.7599 27.9861 27.1799 27.4726 27.4695L27.4497 27.3871C27.9538 27.1032 28.1155 26.6905 27.9292 26.3231Z" fill="#F69382"/>
<path d="M24.3885 26.3758C24.3991 26.355 24.4103 26.3338 24.4209 26.313C24.2374 26.6703 24.3835 27.0735 24.8619 27.3608C25.5662 27.7836 26.7249 27.7954 27.4492 27.3871L27.4721 27.4694C26.7344 27.8855 25.5545 27.8732 24.8374 27.4426C24.35 27.1497 24.2017 26.7392 24.388 26.3752L24.3885 26.3758Z" fill="#F69382"/>
<path d="M27.4495 27.3871L27.0703 27.3037C27.58 27.0164 27.5917 26.5427 27.096 26.2453C26.6008 25.9479 25.7861 25.9395 25.2765 26.2268C24.7668 26.5141 24.7551 26.9879 25.2508 27.2852C25.746 27.5826 26.5607 27.591 27.0703 27.3037L27.4495 27.3871C26.7246 27.7954 25.5664 27.7836 24.8622 27.3608C24.1579 26.938 24.1741 26.2643 24.899 25.8555C25.6239 25.4473 26.782 25.4591 27.4863 25.8819C28.1905 26.3047 28.1744 26.9783 27.4495 27.3871Z" fill="white"/>
<path d="M27.0705 27.0254C26.5609 27.3126 25.7462 27.3042 25.2511 27.0069C24.7559 26.7095 24.7671 26.2358 25.2767 25.9485C25.7864 25.6612 26.601 25.6696 27.0962 25.967C27.5913 26.2643 27.5802 26.7381 27.0705 27.0254Z" fill="#F69382"/>
<path d="M27.9292 26.0448C27.9398 26.0655 27.9504 26.0868 27.961 26.1075C28.1501 26.4816 27.9861 26.9016 27.4726 27.1911L27.4497 27.1088C27.9538 26.8249 28.1155 26.4116 27.9292 26.0448Z" fill="#F69382"/>
<path d="M24.3885 26.0974C24.3991 26.0767 24.4103 26.0554 24.4209 26.0347C24.2374 26.392 24.3835 26.7952 24.8619 27.0825C25.5662 27.5053 26.7249 27.517 27.4492 27.1088L27.4721 27.1911C26.7344 27.6072 25.5545 27.5949 24.8374 27.1642C24.35 26.8714 24.2017 26.4609 24.388 26.0969L24.3885 26.0974Z" fill="#F69382"/>
<path d="M27.4495 27.1088L27.0703 27.0254C27.58 26.7381 27.5917 26.2643 27.096 25.967C26.6008 25.6696 25.7861 25.6612 25.2765 25.9485C24.7668 26.2358 24.7551 26.7095 25.2508 27.0069C25.746 27.3043 26.5607 27.3127 27.0703 27.0254L27.4495 27.1088C26.7246 27.5171 25.5664 27.5053 24.8622 27.0825C24.1579 26.6597 24.1741 25.986 24.899 25.5772C25.6239 25.169 26.782 25.1807 27.4863 25.6035C28.1905 26.0263 28.1744 26.7 27.4495 27.1088Z" fill="white"/>
<path d="M27.0705 26.7465C26.5609 27.0338 25.7462 27.0254 25.2511 26.728C24.7559 26.4307 24.7671 25.9569 25.2767 25.6696C25.7864 25.3823 26.601 25.3907 27.0962 25.6881C27.5913 25.9855 27.5802 26.4592 27.0705 26.7465Z" fill="#F69382"/>
<path d="M27.9292 25.7659C27.9398 25.7867 27.9504 25.8079 27.961 25.8286C28.1501 26.2027 27.9861 26.6227 27.4726 26.9123L27.4497 26.8299C27.9538 26.546 28.1155 26.1333 27.9292 25.7659Z" fill="#F69382"/>
<path d="M24.3885 25.8186C24.3991 25.7979 24.4103 25.7766 24.4209 25.7559C24.2374 26.1131 24.3835 26.5163 24.8619 26.8036C25.5662 27.2264 26.7249 27.2382 27.4492 26.8299L27.4721 26.9123C26.7344 27.3283 25.5545 27.316 24.8374 26.8854C24.35 26.5925 24.2017 26.182 24.388 25.8186H24.3885Z" fill="#F69382"/>
<path d="M27.4495 26.8299L27.0703 26.7465C27.58 26.4592 27.5917 25.9855 27.096 25.6881C26.6008 25.3907 25.7861 25.3823 25.2765 25.6696C24.7668 25.9569 24.7551 26.4307 25.2508 26.728C25.746 27.0254 26.5607 27.0338 27.0703 26.7465L27.4495 26.8299C26.7246 27.2382 25.5664 27.2264 24.8622 26.8036C24.1579 26.3808 24.1741 25.7071 24.899 25.2983C25.6239 24.8901 26.782 24.9019 27.4863 25.3247C28.1905 25.7475 28.1744 26.4211 27.4495 26.8299Z" fill="white"/>
<path d="M27.0705 26.4682C26.5609 26.7555 25.7462 26.7471 25.2511 26.4497C24.7559 26.1523 24.7671 25.6786 25.2767 25.3913C25.7864 25.104 26.601 25.1124 27.0962 25.4098C27.5913 25.7071 27.5802 26.1809 27.0705 26.4682Z" fill="#F69382"/>
<path d="M27.9292 25.4876C27.9398 25.5083 27.9504 25.5296 27.961 25.5503C28.1501 25.9244 27.9861 26.3444 27.4726 26.6339L27.4497 26.5516C27.9538 26.2677 28.1155 25.8544 27.9292 25.4876Z" fill="#F69382"/>
<path d="M24.3885 25.5403C24.3991 25.5195 24.4103 25.4983 24.4209 25.4775C24.2374 25.8348 24.3835 26.238 24.8619 26.5253C25.5662 26.9481 26.7249 26.9599 27.4492 26.5516L27.4721 26.6339C26.7344 27.05 25.5545 27.0377 24.8374 26.6071C24.35 26.3142 24.2017 25.9037 24.388 25.5397L24.3885 25.5403Z" fill="#F69382"/>
<path d="M27.4495 26.5516L27.0703 26.4682C27.58 26.1809 27.5917 25.7071 27.096 25.4098C26.6008 25.1124 25.7861 25.104 25.2765 25.3913C24.7668 25.6786 24.7551 26.1523 25.2508 26.4497C25.746 26.7471 26.5607 26.7555 27.0703 26.4682L27.4495 26.5516C26.7246 26.9599 25.5664 26.9481 24.8622 26.5253C24.1579 26.1025 24.1741 25.4288 24.899 25.02C25.6239 24.6118 26.782 24.6235 27.4863 25.0463C28.1905 25.4691 28.1744 26.1428 27.4495 26.5516Z" fill="white"/>
<path d="M25.177 29.3869C24.6673 29.6742 23.8527 29.6658 23.3575 29.3684C22.8624 29.0711 22.8735 28.5973 23.3832 28.31C23.8928 28.0227 24.7075 28.0311 25.2026 28.3285C25.6978 28.6259 25.6866 29.0996 25.177 29.3869Z" fill="#F69382"/>
<path d="M26.0357 28.4063C26.0463 28.4271 26.0569 28.4483 26.0675 28.469C26.2565 28.8431 26.0926 29.2631 25.579 29.5526L25.5562 29.4703C26.0602 29.1864 26.2219 28.7737 26.0357 28.4063Z" fill="#F69382"/>
<path d="M22.495 28.459C22.5056 28.4383 22.5167 28.417 22.5273 28.3963C22.3439 28.7535 22.4899 29.1567 22.9684 29.444C23.6726 29.8668 24.8313 29.8786 25.5557 29.4703L25.5785 29.5526C24.8408 29.9687 23.6609 29.9564 22.9438 29.5258C22.4565 29.2329 22.3082 28.8224 22.4944 28.4584L22.495 28.459Z" fill="#F69382"/>
<path d="M25.5559 29.4709L25.1767 29.3875C25.6864 29.1002 25.6981 28.6264 25.2024 28.3291C24.7072 28.0317 23.8926 28.0233 23.3829 28.3106C22.8733 28.5979 22.8616 29.0716 23.3573 29.369C23.8524 29.6663 24.6671 29.6747 25.1767 29.3875L25.5559 29.4709C24.831 29.8791 23.6729 29.8674 22.9686 29.4446C22.2644 29.0218 22.2806 28.3481 23.0054 27.9393C23.7303 27.5311 24.8885 27.5428 25.5927 27.9656C26.297 28.3884 26.2808 29.0621 25.5559 29.4709Z" fill="white"/>
<path d="M25.177 29.1086C24.6673 29.3958 23.8527 29.3875 23.3575 29.0901C22.8624 28.7927 22.8735 28.319 23.3832 28.0317C23.8928 27.7444 24.7075 27.7528 25.2026 28.0502C25.6978 28.3475 25.6866 28.8213 25.177 29.1086Z" fill="#F69382"/>
<path d="M26.0357 28.128C26.0463 28.1487 26.0569 28.17 26.0675 28.1907C26.2565 28.5648 26.0926 28.9848 25.579 29.2743L25.5562 29.192C26.0602 28.9081 26.2219 28.4954 26.0357 28.128Z" fill="#F69382"/>
<path d="M22.495 28.1807C22.5056 28.1599 22.5167 28.1387 22.5273 28.1179C22.3439 28.4752 22.4899 28.8784 22.9684 29.1657C23.6726 29.5885 24.8313 29.6003 25.5557 29.192L25.5785 29.2743C24.8408 29.6904 23.6609 29.6781 22.9438 29.2475C22.4565 28.9546 22.3082 28.5441 22.4944 28.1807H22.495Z" fill="#F69382"/>
<path d="M25.5559 29.192L25.1767 29.1086C25.6864 28.8213 25.6981 28.3475 25.2024 28.0502C24.7072 27.7528 23.8926 27.7444 23.3829 28.0317C22.8733 28.319 22.8616 28.7927 23.3573 29.0901C23.8524 29.3875 24.6671 29.3958 25.1767 29.1086L25.5559 29.192C24.831 29.6003 23.6729 29.5885 22.9686 29.1657C22.2644 28.7429 22.2806 28.0692 23.0054 27.6604C23.7303 27.2522 24.8885 27.2639 25.5927 27.6867C26.297 28.1095 26.2808 28.7832 25.5559 29.192Z" fill="white"/>
<path d="M25.177 28.8297C24.6673 29.117 23.8527 29.1086 23.3575 28.8112C22.8624 28.5138 22.8735 28.0401 23.3832 27.7528C23.8928 27.4655 24.7075 27.4739 25.2026 27.7713C25.6978 28.0687 25.6866 28.5424 25.177 28.8297Z" fill="#F69382"/>
<path d="M26.0357 27.8491C26.0463 27.8698 26.0569 27.8911 26.0675 27.9119C26.2565 28.2859 26.0926 28.7059 25.579 28.9955L25.5562 28.9131C26.0602 28.6292 26.2219 28.2165 26.0357 27.8491Z" fill="#F69382"/>
<path d="M22.495 27.9023C22.5056 27.8816 22.5167 27.8603 22.5273 27.8396C22.3439 28.1969 22.4899 28.6001 22.9684 28.8874C23.6726 29.3102 24.8313 29.3219 25.5557 28.9137L25.5785 28.996C24.8408 29.4121 23.6609 29.3998 22.9438 28.9691C22.4565 28.6763 22.3082 28.2658 22.4944 27.9018L22.495 27.9023Z" fill="#F69382"/>
<path d="M25.5559 28.9137L25.1767 28.8303C25.6864 28.543 25.6981 28.0692 25.2024 27.7719C24.7072 27.4745 23.8926 27.4661 23.3829 27.7534C22.8733 28.0407 22.8616 28.5144 23.3573 28.8118C23.8524 29.1091 24.6671 29.1175 25.1767 28.8303L25.5559 28.9137C24.831 29.3219 23.6729 29.3102 22.9686 28.8874C22.2644 28.4646 22.2806 27.7909 23.0054 27.3821C23.7303 26.9739 24.8885 26.9856 25.5927 27.4084C26.297 27.8312 26.2808 28.5049 25.5559 28.9137Z" fill="white"/>
<path d="M11.0712 17.6342C11.1933 17.7467 11.2547 17.8823 11.2547 18.0379C11.2547 18.1315 11.1916 18.225 11.0673 18.295C11.0673 18.2104 11.0439 18.1119 10.9993 18.0178C11.181 17.9153 11.2061 17.7535 11.0712 17.6347V17.6342Z" fill="#FFDA92"/>
<path d="M11.074 17.6359C11.0529 17.6168 11.0317 17.5978 11.011 17.5787C11.1242 17.6801 11.1019 17.8173 10.9475 17.9041C10.7713 18.0032 10.4902 18.0004 10.3191 17.8979C10.1713 17.8095 10.154 17.6751 10.2655 17.5765C10.2639 17.5782 10.2611 17.5804 10.2594 17.5821C10.2583 17.5832 10.2572 17.5843 10.256 17.5849C10.2544 17.5866 10.2516 17.5888 10.2499 17.5905C10.2482 17.5922 10.2454 17.5944 10.2438 17.5961C10.2427 17.5967 10.2415 17.5978 10.2404 17.5989C10.2388 17.6006 10.236 17.6028 10.2343 17.6045C10.2326 17.6062 10.2298 17.6084 10.2282 17.6101C10.227 17.6112 10.2259 17.6123 10.2248 17.6129C10.2231 17.6146 10.2204 17.6168 10.2187 17.6185C10.217 17.6202 10.2142 17.6224 10.2126 17.6241C10.2114 17.6247 10.2103 17.6258 10.2092 17.6269C10.2075 17.6286 10.2047 17.6308 10.2031 17.6325C10.0732 17.7479 10.0932 17.9047 10.2661 18.0088C10.4663 18.1292 10.7952 18.1326 11.001 18.0161C11.1817 17.9142 11.2073 17.754 11.0752 17.6353L11.074 17.6359Z" fill="#FFDA92"/>
<path d="M11.0674 18.2944C10.8226 18.4322 10.4311 18.4283 10.193 18.2855C10.0759 18.2149 10.018 18.1242 10.018 18.034L10.0129 19.7118C10.0129 19.8025 10.0709 19.8932 10.188 19.9632C10.4261 20.106 10.8176 20.1099 11.0623 19.9722C11.1867 19.9022 11.2497 19.8087 11.2497 19.7151L11.2542 18.0374C11.2542 18.1309 11.1912 18.2244 11.0668 18.2944H11.0674Z" fill="#FFDA92"/>
<path d="M10.193 18.5957C10.0759 18.5257 10.018 18.4344 10.018 18.3443L10.0129 19.2576C10.0129 19.3483 10.0709 19.4391 10.188 19.5091C10.3101 19.5824 10.4718 19.6177 10.6336 19.6177V18.7043C10.473 18.7038 10.3129 18.6674 10.1925 18.5951L10.193 18.5957Z" fill="white"/>
<path d="M10.0179 18.034C10.0212 17.8727 10.0842 17.7372 10.2036 17.6314C10.0709 17.7473 10.0898 17.9052 10.2638 18.0099C10.464 18.1303 10.793 18.1331 10.9987 18.0172C11.0433 18.1113 11.0667 18.2104 11.0667 18.2944C10.822 18.4322 10.4305 18.4283 10.1924 18.2855C10.0753 18.2155 10.0173 18.1242 10.0173 18.034H10.0179Z" fill="#FFDA92"/>
<path d="M11.0116 17.5804C11.0027 17.5726 10.9252 17.4964 10.9224 17.3318C10.9224 17.3749 10.8934 17.4175 10.8365 17.4499C10.7239 17.5132 10.5443 17.5115 10.435 17.446C10.3815 17.4135 10.3548 17.3721 10.3548 17.3307C10.3548 17.3581 10.3508 17.3855 10.3464 17.4124C10.3313 17.4875 10.2979 17.5474 10.2644 17.5782C10.217 17.6202 10.1936 17.6689 10.1936 17.7182C10.1936 17.7831 10.2354 17.8487 10.3196 17.8991C10.4908 18.0015 10.7718 18.0043 10.948 17.9052C11.0373 17.8548 11.0824 17.7876 11.0824 17.7204C11.0824 17.6717 11.059 17.623 11.0122 17.5804H11.0116Z" fill="#FFDA92"/>
<path d="M10.8382 16.8519C10.7255 16.9151 10.546 16.9135 10.4367 16.8479C10.3832 16.8155 10.3564 16.774 10.3564 16.7326L10.3547 17.3307C10.3547 17.3721 10.3815 17.4141 10.435 17.446C10.5443 17.5115 10.7239 17.5132 10.8365 17.4499C10.8939 17.4175 10.9224 17.3749 10.9224 17.3318L10.924 16.7337C10.924 16.7768 10.8951 16.8194 10.8382 16.8519Z" fill="#FFDA92"/>
<path d="M10.8566 16.8547C10.7339 16.9241 10.5376 16.9219 10.4183 16.8502C10.3598 16.8149 10.3302 16.7695 10.3308 16.7242L10.3291 16.9056C10.3291 16.951 10.3581 16.9963 10.4166 17.0316C10.536 17.1033 10.7322 17.1055 10.8549 17.0361C10.9174 17.0008 10.9486 16.9543 10.9486 16.9073L10.9503 16.7259C10.9503 16.7729 10.9185 16.8194 10.8566 16.8547Z" fill="#362C4F"/>
<path d="M10.8566 16.8547C10.7339 16.9241 10.5376 16.9219 10.4183 16.8502C10.299 16.7785 10.3017 16.6643 10.4244 16.5954C10.5471 16.5259 10.7434 16.5282 10.8627 16.5999C10.982 16.6715 10.9792 16.7858 10.8566 16.8547Z" fill="#9C8BAF"/>
<path d="M13.2766 22.4855C12.9053 22.6949 12.312 22.6887 11.9512 22.472C11.5904 22.2553 11.5988 21.9103 11.9702 21.7009C12.3415 21.4915 12.9348 21.4976 13.2956 21.7143C13.6564 21.9311 13.648 22.276 13.2766 22.4855Z" fill="#E1A736"/>
<path d="M14.0455 21.0541C13.8743 21.4461 13.7031 21.8375 13.5319 22.2295C13.6094 22.052 13.5314 21.856 13.2955 21.7143C12.9347 21.4976 12.3414 21.4915 11.9701 21.7009C11.7214 21.8409 11.6355 22.0419 11.7141 22.2245C11.5452 21.8319 11.3762 21.4388 11.2073 21.0463C11.0846 20.7612 11.219 20.4476 11.6071 20.2286C12.187 19.9022 13.1132 19.9111 13.6769 20.2499C14.0449 20.4706 14.167 20.7774 14.046 21.0546L14.0455 21.0541Z" fill="#FFDA92"/>
<path d="M13.7417 20.2399C13.1434 19.8809 12.1598 19.8708 11.5442 20.2174L11.6072 20.2286C12.1871 19.9022 13.1133 19.9111 13.677 20.2499C14.2402 20.5882 14.2274 21.1274 13.6475 21.4539L13.7105 21.5189C14.3261 21.1722 14.34 20.5999 13.7417 20.2404V20.2399Z" fill="white"/>
<path d="M12.811 21.1095C12.811 21.4976 12.4976 21.8123 12.1112 21.8123C11.7248 21.8123 11.4114 21.4976 11.4114 21.1095C11.4114 20.7215 11.7248 20.4067 12.1112 20.4067C12.4976 20.4067 12.811 20.7215 12.811 21.1095Z" fill="#ED1B2E"/>
<path d="M13.6435 21.548C13.6435 21.9361 13.3301 22.2508 12.9437 22.2508C12.5573 22.2508 12.2439 21.9361 12.2439 21.548C12.2439 21.1599 12.5573 20.8452 12.9437 20.8452C13.3301 20.8452 13.6435 21.1599 13.6435 21.548Z" fill="#ED1B2E"/>
<path d="M13.6435 20.6055C13.6435 20.9936 13.3301 21.3083 12.9437 21.3083C12.5573 21.3083 12.2439 20.9936 12.2439 20.6055C12.2439 20.2175 12.5573 19.9027 12.9437 19.9027C13.3301 19.9027 13.6435 20.2175 13.6435 20.6055Z" fill="#ED1B2E"/>
<path d="M11.6506 22.3091C11.4739 21.9019 11.2971 21.4948 11.1204 21.0877C11.185 21.2367 11.3155 21.3778 11.5124 21.4959C12.1107 21.8549 13.0943 21.865 13.7099 21.5183L13.3223 22.5868C12.9253 22.8108 12.2902 22.8041 11.9038 22.5723C11.7767 22.4961 11.6925 22.4048 11.6506 22.3085V22.3091Z" fill="#FFDA92"/>
<path d="M14.1325 21.0961C13.9535 21.5021 13.7745 21.9081 13.5949 22.3147C13.5509 22.4149 13.46 22.5095 13.3223 22.5874L13.7098 21.5189C13.9222 21.3991 14.0633 21.2523 14.1319 21.0967L14.1325 21.0961Z" fill="#FFDA92"/>
<path d="M13.6475 21.4534C13.0682 21.7798 12.1414 21.7709 11.5777 21.4326C11.0139 21.0944 11.0273 20.5551 11.6072 20.2286L11.5442 20.2174C10.9286 20.5641 10.9147 21.1364 11.513 21.4959C12.1113 21.8549 13.0949 21.865 13.7105 21.5183L13.6475 21.4534Z" fill="white"/>
<path d="M9.54077 18.2854C9.68798 18.421 9.76214 18.5845 9.76214 18.7721C9.76214 18.8847 9.68631 18.9972 9.53631 19.0818C9.53631 18.9799 9.50788 18.8611 9.45435 18.7474C9.67348 18.6237 9.70359 18.4294 9.54077 18.2854Z" fill="#ED1B2E"/>
<path d="M9.54425 18.2877C9.51916 18.2647 9.49351 18.2418 9.46786 18.2194C9.60391 18.342 9.57771 18.5067 9.39147 18.6119C9.17958 18.7312 8.84055 18.7279 8.63424 18.6041C8.45637 18.4971 8.43573 18.3359 8.56956 18.2166C8.56733 18.2188 8.56398 18.2216 8.56175 18.2233C8.56064 18.2244 8.55896 18.2255 8.55785 18.2267C8.55562 18.2289 8.55227 18.2317 8.55004 18.2334C8.54781 18.2356 8.54447 18.2384 8.54224 18.2401C8.54112 18.2412 8.53945 18.2423 8.53833 18.2435C8.5361 18.2457 8.53276 18.2485 8.53053 18.2502C8.5283 18.2524 8.52495 18.2552 8.52272 18.2569C8.52161 18.258 8.51993 18.2591 8.51882 18.2603C8.51659 18.2625 8.51324 18.2647 8.51101 18.267C8.50878 18.2692 8.50543 18.272 8.5032 18.2737C8.50209 18.2748 8.50042 18.2759 8.4993 18.2771C8.49707 18.2793 8.49373 18.2821 8.4915 18.2838C8.33481 18.4232 8.35879 18.6119 8.56733 18.7368C8.80877 18.8819 9.20523 18.8858 9.45336 18.7458C9.67138 18.6231 9.70205 18.4299 9.54258 18.2866L9.54425 18.2877Z" fill="#ED1B2E"/>
<path d="M9.53633 19.0818C9.24136 19.2481 8.76907 19.2431 8.48246 19.0711C8.34139 18.9866 8.27113 18.8768 8.27169 18.7676L8.26611 20.7903C8.26611 20.8995 8.33581 21.0087 8.47689 21.0939C8.76405 21.2663 9.23579 21.2708 9.53076 21.1045C9.68075 21.0199 9.75603 20.9074 9.75659 20.7948L9.76216 18.7721C9.76216 18.8847 9.68633 18.9972 9.53633 19.0818Z" fill="#ED1B2E"/>
<path d="M8.48246 19.4446C8.34139 19.3601 8.27113 19.2503 8.27169 19.1411L8.26611 20.2421C8.26611 20.3513 8.33581 20.4605 8.47689 20.5456C8.62354 20.6335 8.8187 20.6766 9.01442 20.6766V19.5762C8.82093 19.5757 8.628 19.532 8.48302 19.4446H8.48246Z" fill="white"/>
<path d="M8.27173 18.7676C8.27619 18.5727 8.35147 18.4098 8.49589 18.2821C8.33586 18.4215 8.35928 18.6125 8.56838 18.7379C8.80982 18.883 9.20627 18.8869 9.45441 18.7469C9.50794 18.8606 9.53638 18.9799 9.53638 19.0812C9.2414 19.2475 8.76911 19.2431 8.48251 19.0706C8.34143 18.986 8.27117 18.8762 8.27173 18.767V18.7676Z" fill="#ED1B2E"/>
<path d="M9.46882 18.2205C9.45823 18.211 9.36511 18.1191 9.36176 17.9209C9.36176 17.973 9.32719 18.0245 9.25805 18.0631C9.12255 18.1393 8.90564 18.1371 8.77405 18.0581C8.70937 18.0195 8.67702 17.9691 8.67702 17.9187C8.67702 17.9517 8.67201 17.9847 8.66699 18.0172C8.64859 18.1074 8.60844 18.1796 8.56829 18.2171C8.51142 18.2681 8.48298 18.3269 8.48242 18.3857C8.48242 18.4641 8.53261 18.5425 8.63409 18.6035C8.8404 18.7273 9.17943 18.7307 9.39132 18.6114C9.49893 18.5509 9.55358 18.4697 9.55358 18.3885C9.55358 18.3297 9.5257 18.2709 9.46882 18.2199V18.2205Z" fill="#ED1B2E"/>
<path d="M9.25977 17.3424C9.12427 17.4186 8.90736 17.4163 8.77577 17.3374C8.71109 17.2987 8.67874 17.2483 8.67874 17.1979L8.67651 17.9186C8.67651 17.969 8.7083 18.0189 8.77354 18.0581C8.90513 18.137 9.12204 18.1393 9.25754 18.0631C9.32668 18.0245 9.36125 17.9724 9.36125 17.9209L9.36348 17.2002C9.36348 17.2522 9.32891 17.3038 9.25977 17.3424Z" fill="#ED1B2E"/>
<path d="M9.28205 17.3463C9.13428 17.4298 8.8973 17.4275 8.75344 17.3407C8.68262 17.2982 8.64749 17.2433 8.64749 17.1884L8.64526 17.4068C8.64526 17.4617 8.68039 17.5166 8.75121 17.5591C8.89507 17.6454 9.13149 17.6476 9.27982 17.5647C9.35509 17.5222 9.39301 17.4662 9.39301 17.4096L9.39524 17.1912C9.39524 17.2478 9.35732 17.3043 9.28205 17.3463Z" fill="#362C4F"/>
<path d="M9.28208 17.3463C9.13432 17.4298 8.89734 17.4275 8.75348 17.3407C8.60962 17.2545 8.61296 17.1167 8.76073 17.0333C8.90849 16.9499 9.14547 16.9521 9.28933 17.0389C9.4332 17.1251 9.42985 17.2629 9.28208 17.3463Z" fill="#9C8BAF"/>
<path d="M13.5398 23.4996L13.5409 23.1205C13.5409 23.237 13.6165 23.354 13.7694 23.4419L13.7683 23.8211C13.616 23.7331 13.5398 23.6161 13.5398 23.4996Z" fill="#F4807C"/>
<path d="M22.8238 24.6521L22.8227 25.0312C22.8227 25.1466 22.7465 25.2614 22.5964 25.3487L22.5976 24.9696C22.7476 24.8823 22.8232 24.7669 22.8238 24.6521Z" fill="#F4807C"/>
<path d="M22.5976 24.9696L22.5965 25.3493L20.0571 26.8316L20.0577 26.4519L22.5976 24.9696Z" fill="#F4807C"/>
<path d="M18.9636 26.4536L18.9625 26.8333L13.7673 23.8205L13.7684 23.4414L18.9636 26.4536Z" fill="#F4807C"/>
<path d="M20.0578 26.4519L20.0567 26.8311C19.7567 27.0063 19.2643 27.008 18.9626 26.8327L18.9638 26.4536C19.2654 26.6283 19.7578 26.6267 20.0578 26.4519Z" fill="#F4807C"/>
<path d="M22.5971 24.3334C22.8988 24.5087 22.8976 24.7949 22.5977 24.9702L20.0578 26.4525C19.7578 26.6272 19.2654 26.6295 18.9637 26.4542L13.7686 23.4419C13.4669 23.2672 13.4652 22.9788 13.7652 22.8035L16.3051 21.3212C16.6051 21.1459 17.1002 21.1459 17.4019 21.3212L22.5971 24.3334Z" fill="white"/>
<path d="M17.4324 21.5508L18.2549 22.0307C18.1874 21.9915 18.1038 21.9809 18.0235 21.9697C17.9315 21.9568 17.8417 21.9428 17.7497 21.9333L16.9272 21.4534C17.0193 21.4634 17.109 21.4774 17.201 21.4898C17.2819 21.5004 17.3655 21.5116 17.4324 21.5508Z" fill="#EC5742"/>
<path d="M17.5261 21.9607L16.7036 21.4808C16.7822 21.4349 16.8592 21.4427 16.9272 21.4534L17.7497 21.9333C17.6817 21.9232 17.6053 21.9154 17.5261 21.9607Z" fill="#EC5742"/>
<path d="M17.5034 21.9753L16.6809 21.4954C16.6887 21.4898 16.696 21.4853 16.7038 21.4808L17.5262 21.9607C17.5184 21.9652 17.5112 21.9697 17.5034 21.9753Z" fill="#EC5742"/>
<path d="M17.0549 22.5515L16.2324 22.0716C16.4086 21.935 16.5023 21.6163 16.6813 21.4954L17.5038 21.9753C17.3248 22.0962 17.2311 22.4149 17.0549 22.5515Z" fill="#EC5742"/>
<path d="M16.4239 24.0988L15.6014 23.6189C15.5428 23.5847 15.515 23.5002 15.5144 23.4039C15.5144 23.2835 15.5484 23.1603 15.573 23.0309C15.5997 22.892 15.612 22.7587 15.6638 22.6109L16.4863 23.0908C16.4345 23.2387 16.4222 23.3719 16.3954 23.5108C16.3709 23.6396 16.3363 23.7634 16.3369 23.8838C16.3369 23.9801 16.3653 24.0647 16.4239 24.0988Z" fill="#EC5742"/>
<path d="M16.4868 23.0908L15.6643 22.6109C15.7234 22.453 15.8249 22.2906 15.947 22.2116C15.9526 22.2077 15.9582 22.2043 15.9643 22.201C16.0011 22.1797 16.0396 22.1646 16.0764 22.1511C16.1132 22.1377 16.15 22.1248 16.1873 22.103C16.2024 22.094 16.218 22.0839 16.2331 22.0716L17.0555 22.5515C17.0405 22.5638 17.0249 22.5739 17.0098 22.5829C16.973 22.6042 16.9362 22.6176 16.8988 22.631C16.862 22.645 16.8236 22.6596 16.7868 22.6809C16.7812 22.6842 16.7751 22.6876 16.7695 22.6915C16.6479 22.7705 16.5464 22.9329 16.4868 23.0908Z" fill="#EC5742"/>
<path d="M17.5262 21.9607C17.6048 21.9148 17.6818 21.9226 17.7498 21.9333C17.8418 21.9428 17.9316 21.9574 18.0236 21.9697C18.1279 21.9837 18.2377 21.9977 18.3102 22.0733C18.4 22.1618 18.4256 22.3281 18.4485 22.4871C18.4585 22.5616 18.4686 22.6361 18.4591 22.7223C18.4496 22.8058 18.415 22.906 18.3554 22.9805C18.3057 23.0466 18.2411 23.0869 18.1814 23.1244C17.7046 23.4184 17.2279 23.7118 16.7506 24.0025C16.7277 24.017 16.7049 24.0316 16.6814 24.045C16.6011 24.0915 16.5203 24.1262 16.4551 24.1111C16.3753 24.0915 16.338 23.9952 16.3374 23.8838C16.3374 23.7634 16.3714 23.6402 16.396 23.5108C16.4227 23.3719 16.435 23.2381 16.4868 23.0908C16.5459 22.9329 16.6474 22.7705 16.7695 22.6915C16.7751 22.6876 16.7807 22.6843 16.7868 22.6809C16.8236 22.6596 16.8621 22.6445 16.8989 22.631C16.9357 22.6176 16.9725 22.6047 17.0099 22.5829C17.0249 22.5739 17.0405 22.5639 17.0556 22.5515C17.2318 22.4149 17.3255 22.0962 17.5045 21.9753C17.5123 21.9697 17.5195 21.9652 17.5273 21.9607H17.5262Z" fill="#F48166"/>
<path d="M19.1337 23.3501C19.2341 23.4083 19.2854 23.4794 19.3573 23.5489C19.4371 23.6267 19.5363 23.6956 19.5837 23.7863C19.6339 23.8815 19.6194 23.9935 19.5062 24.0686C19.4198 24.1274 19.2787 24.1548 19.2023 24.2198C19.0568 24.3396 19.1889 24.5278 19.0289 24.6386C18.9475 24.6946 18.8187 24.7148 18.6977 24.731C18.5516 24.7529 18.4033 24.773 18.255 24.7932C18.0866 24.8162 17.9109 24.8408 17.7375 24.8234C17.5295 24.8033 17.3483 24.7271 17.1771 24.6532C17.1214 24.6291 17.0645 24.6056 17.016 24.577C16.9953 24.5647 16.9758 24.5518 16.9585 24.5379C16.9011 24.493 16.8637 24.4342 16.8883 24.3794C16.9078 24.3306 16.9669 24.2931 17.026 24.2556C17.4849 23.9706 17.9438 23.685 18.405 23.4016C18.5014 23.3394 18.6096 23.2762 18.7507 23.2633C18.8867 23.2504 19.0256 23.2879 19.1226 23.3439C19.1259 23.3456 19.1293 23.3478 19.1326 23.3495L19.1337 23.3501Z" fill="#EC5742"/>
<path d="M19.6411 23.6441C19.7414 23.7023 19.7927 23.7735 19.8647 23.8429C19.9444 23.9207 20.0437 23.9896 20.0911 24.0803C20.1412 24.1755 20.1267 24.2875 20.0135 24.3626C19.9271 24.4214 19.786 24.4488 19.7097 24.5138C19.5641 24.6331 19.6963 24.8218 19.5362 24.9327C19.4548 24.9887 19.326 25.0088 19.205 25.0251C19.0589 25.0469 18.9106 25.0671 18.7623 25.0872C18.5939 25.1102 18.4182 25.1348 18.2448 25.1175C18.0368 25.0973 17.8556 25.0211 17.6844 24.9478C17.6287 24.9237 17.5718 24.9002 17.5233 24.8716C17.5027 24.8593 17.4831 24.8464 17.4659 24.8324C17.4084 24.7876 17.3711 24.7288 17.3956 24.6739C17.4151 24.6252 17.4742 24.5877 17.5333 24.5502C17.9922 24.2651 18.4511 23.9795 18.9123 23.6962C19.0087 23.634 19.1169 23.5707 19.258 23.5579C19.394 23.545 19.5329 23.5825 19.6299 23.6385C19.6333 23.6402 19.6366 23.6424 19.64 23.6441H19.6411Z" fill="#F48166"/>
<path d="M20.1491 23.9387C20.2495 23.9969 20.3008 24.068 20.3727 24.1375C20.4525 24.2153 20.5517 24.2842 20.5991 24.3749C20.6493 24.4701 20.6348 24.5821 20.5216 24.6571C20.4352 24.7159 20.2941 24.7434 20.2177 24.8083C20.0722 24.9276 20.2043 25.1163 20.0443 25.2272C19.9629 25.2832 19.8341 25.3034 19.7131 25.3196C19.567 25.3415 19.4187 25.3616 19.2703 25.3818C19.1019 25.4047 18.9263 25.4294 18.7529 25.412C18.5449 25.3919 18.3637 25.3157 18.1925 25.2418C18.1367 25.2177 18.0799 25.1942 18.0313 25.1656C18.0107 25.1533 17.9912 25.1404 17.9739 25.1264C17.9165 25.0816 17.8791 25.0228 17.9037 24.9679C17.9232 24.9192 17.9823 24.8817 18.0414 24.8442C18.5003 24.5591 18.9592 24.2735 19.4209 23.9902C19.5174 23.928 19.6255 23.8647 19.7666 23.8519C19.9027 23.839 20.0415 23.8765 20.1385 23.9325C20.1419 23.9342 20.1452 23.9364 20.1486 23.9381L20.1491 23.9387Z" fill="#EC5742"/>
<path d="M20.6564 24.2326C20.7568 24.2909 20.8081 24.362 20.88 24.4314C20.9598 24.5093 21.059 24.5782 21.1064 24.6689C21.1566 24.7641 21.1421 24.8761 21.0289 24.9511C20.9425 25.0099 20.8014 25.0374 20.725 25.1023C20.5795 25.2216 20.7117 25.4103 20.5516 25.5212C20.4702 25.5772 20.3414 25.5974 20.2204 25.6136C20.0743 25.6354 19.926 25.6556 19.7777 25.6758C19.6093 25.6987 19.4336 25.7234 19.2602 25.706C19.0522 25.6858 18.871 25.6097 18.6998 25.5358C18.6441 25.5117 18.5872 25.4882 18.5387 25.4596C18.518 25.4473 18.4985 25.4344 18.4812 25.4204C18.4238 25.3756 18.3864 25.3168 18.411 25.2619C18.4305 25.2132 18.4896 25.1757 18.5487 25.1382C19.0076 24.8531 19.4665 24.5681 19.9277 24.2842C20.0241 24.222 20.1323 24.1587 20.2734 24.1459C20.4094 24.133 20.5483 24.1705 20.6453 24.2265C20.6486 24.2282 20.652 24.2304 20.6553 24.2321L20.6564 24.2326Z" fill="#F48166"/>
<path d="M17.1036 23.0203C17.2023 22.8679 17.306 22.7823 17.3701 22.6613C17.4343 22.5409 17.4934 22.4143 17.5876 22.3152C17.6813 22.2161 17.8196 22.1467 17.9528 22.1752C18.1268 22.2122 18.2339 22.411 18.2116 22.5885C18.1893 22.766 18.066 22.9166 17.9216 23.0208C17.7772 23.125 17.6099 23.1916 17.4504 23.2723C17.1477 23.4246 16.8705 23.6278 16.6335 23.8714L17.1036 23.0203Z" fill="#EC5742"/>
<g style="mix-blend-mode:multiply">
<path fill-rule="evenodd" clip-rule="evenodd" d="M13.5225 53.6405C13.5225 54.5751 12.4246 54.887 11.0707 54.887C9.71683 54.887 8.63843 54.0678 8.63843 53.1331C8.63843 52.1985 9.71683 51.9386 11.0707 51.9386C12.4246 51.9386 13.5225 52.7064 13.5225 53.6405Z" fill="#1F2736"/>
</g>
<g style="mix-blend-mode:multiply">
<path fill-rule="evenodd" clip-rule="evenodd" d="M5.90793 48.1889C5.90793 49.1235 4.57191 49.3979 3.21749 49.3979C1.86307 49.3979 0.927968 48.7466 1.00436 47.7672C1.0696 46.9283 2.10228 46.4966 3.45614 46.4966C4.81 46.4966 5.90793 47.2542 5.90793 48.1883V48.1889Z" fill="#1F2736"/>
</g>
<path d="M8.81641 26.9688C8.81641 26.9688 7.44359 27.2281 7.25345 30.0359C7.06331 32.8438 7.21219 33.5611 7.21219 33.5611C7.21219 33.5611 8.84429 32.7811 8.89392 32.7805C8.94355 32.7799 9.28759 32.6416 9.73869 32.5783C10.1898 32.5151 10.4396 32.5291 10.5138 32.3767C10.5885 32.225 10.0119 29.3219 9.96898 29.29C9.92605 29.2581 9.83627 29.3018 9.62215 29.0095C9.40803 28.7171 9.38517 28.5995 9.16436 28.1863C8.94355 27.773 8.81641 26.9688 8.81641 26.9688Z" fill="#372D50"/>
<path d="M10.2627 30.1328C10.2627 30.1328 10.9262 29.9088 11.4192 30.3506C11.9121 30.793 12.1942 31.7568 12.1942 31.7568C12.1942 31.7568 13.3273 33.4519 13.7438 33.6524C13.7438 33.6524 14.0466 33.779 14.181 33.8882C14.3204 34.0013 15.0704 34.6072 15.0704 34.6072L14.7007 34.89L14.2724 35.0608C14.2724 35.0608 13.339 35.0014 13.2041 34.9191C13.0396 34.8189 12.8812 34.5921 12.8578 34.4767C12.8578 34.4767 11.1242 33.0162 11.0026 32.7553C10.7913 32.3011 10.6798 31.6818 10.6798 31.6818L10.2627 30.1317V30.1328Z" fill="#D9A4C1"/>
<path d="M14.7827 34.4426C14.7827 34.4426 14.6951 34.3709 14.5847 34.344C14.4749 34.3177 14.3734 34.1861 14.3957 34.0948C14.4174 34.0035 14.7598 34.0741 14.7598 34.0741C14.7598 34.0741 14.9516 34.1032 14.9812 34.1536C15.0107 34.2046 15.1925 34.4543 15.2148 34.5826C15.2365 34.7108 14.7085 34.6134 14.7085 34.6134L14.7832 34.442L14.7827 34.4426Z" fill="#FBC1A7"/>
<path d="M15.2149 34.5831C15.2149 34.5831 15.2807 34.8066 15.158 34.8519C15.158 34.8519 15.1134 35.1168 14.9656 35.1666C14.9656 35.1666 14.8792 35.375 14.7103 35.3929C14.7103 35.3929 14.659 35.5525 14.4365 35.5262C14.2145 35.4998 13.914 35.1986 13.8482 35.1302C13.7523 35.0306 13.7423 34.8329 13.885 34.8306C13.885 34.8306 13.7333 34.7226 13.7066 34.6822C13.6804 34.6425 13.6753 34.4902 13.837 34.5254C13.837 34.5254 13.7551 34.4493 13.7986 34.3815C13.8237 34.3429 13.9592 34.3132 14.0473 34.3815C14.1354 34.4498 14.5184 34.647 14.5647 34.6733C14.5647 34.6733 14.3316 34.4958 14.3183 34.428C14.2987 34.3289 14.4108 34.2852 14.5223 34.3238C14.6311 34.3619 14.8223 34.4918 15.2143 34.5826L15.2149 34.5831Z" fill="#FBC1A7"/>
<path d="M11.3607 37.7152C11.3607 37.7152 11.349 39.3308 11.1962 39.8141C11.0435 40.2974 9.74033 43.1058 8.73051 43.8298C7.72069 44.5545 6.12427 45.3206 6.12427 45.3206C6.12427 45.3206 4.88137 45.987 4.63436 46.5218L4.5273 47.4312C4.5273 47.4312 4.65778 47.6765 4.6996 48.0786C4.74142 48.4812 4.76261 48.703 4.72079 48.7517C4.67896 48.8004 4.56075 48.9074 4.3628 48.7635C4.16485 48.6195 3.86765 48.1945 3.81245 48.0797C3.75725 47.9649 3.7316 47.4351 3.72267 47.313C3.71375 47.1915 3.52919 46.7553 3.31785 46.5761C3.10652 46.3969 2.89129 46.1432 2.88906 45.9511C2.88683 45.759 2.88292 45.4802 3.23533 45.4029C3.38086 45.3699 3.58216 45.4337 3.69089 45.4337C3.97192 45.4337 4.15705 45.1962 4.18939 45.1593C4.32935 44.9997 4.71465 44.6614 5.01408 44.2969C5.10051 44.1916 5.17523 44.0751 5.23267 43.976C5.34753 43.7772 5.49195 43.6002 5.66481 43.4496C6.04175 43.122 6.6986 42.6359 7.25788 42.6566L7.54393 42.5508C7.54393 42.5508 8.10767 39.0827 8.83534 38.2808C9.56301 37.4789 10.9721 37.0191 11.3596 37.7146L11.3607 37.7152Z" fill="#F9B294"/>
<path d="M6.64453 42.5402C6.64453 42.5402 8.03185 39.0502 8.76008 38.2483C9.48775 37.4464 10.9732 37.0191 11.3607 37.7146C11.3607 37.7146 11.3351 39.2239 11.2654 39.9155C11.0702 41.8626 8.43611 44.1793 8.19969 44.5724C8.19969 44.5724 7.03653 44.5226 6.64453 42.5402Z" fill="#D9A4C1"/>
<path d="M3.19465 45.3525C3.34019 45.3194 3.58275 45.4342 3.69148 45.4342C3.73386 45.4342 3.77345 45.4275 3.81136 45.418C3.81136 45.418 3.81136 45.4191 3.81136 45.4197C3.61174 45.9041 3.682 46.2429 3.81304 46.491C3.96694 46.7827 4.28254 47.2162 4.46766 47.2072C4.50112 47.2055 4.53235 47.1798 4.56134 47.1462C4.56134 47.1462 4.72082 47.667 4.76264 48.0696C4.80446 48.4722 4.83958 48.7287 4.79776 48.7769C4.75594 48.8256 4.56413 48.9606 4.36618 48.8166C4.16823 48.6727 3.78962 48.2527 3.73441 48.1379C3.67921 48.0231 3.64185 47.439 3.63293 47.3175C3.62401 47.196 3.43275 46.8158 3.22142 46.6366C3.01009 46.4574 2.81214 46.1634 2.80991 45.9713C2.80768 45.7792 2.84281 45.4298 3.19521 45.3525H3.19465Z" fill="#FFDA92"/>
<path d="M6.74653 37.8798L7.79483 37.7348L7.40116 38.4505C7.40116 38.4505 6.814 39.1253 6.95508 40.275C7.05433 41.0836 7.40116 42.1711 7.59911 42.7468C7.42736 42.7126 7.25507 42.6572 7.085 42.5721C7.085 42.5721 6.44096 40.8534 6.30045 39.7038C6.15937 38.5541 6.74653 37.8787 6.74653 37.8787V37.8798Z" fill="#BF2629"/>
<path d="M6.74664 37.8798C6.74664 37.8798 6.22416 38.6465 6.36524 39.7962C6.50631 40.9458 8.4819 45.1906 8.4819 45.1906V46.1986C8.4819 46.1986 8.02076 47.4368 8.35532 48.1973C8.68989 48.9578 9.9049 51.8513 9.9049 51.8513V52.0058C9.9049 52.0058 9.69524 52.171 9.71588 52.4684C9.73651 52.7663 9.89765 52.9209 10.2004 53.1802C10.5027 53.4394 10.8367 53.9003 11.0324 54.0112C11.4171 54.2296 12.0115 54.2632 12.3589 53.9625C12.5262 53.818 12.6054 53.585 12.1537 53.2961C12.1537 53.2961 11.1885 52.2909 11.0709 52.0036C10.9532 51.7163 10.8774 51.471 10.5043 50.3191C10.1313 49.1666 10.0555 46.6315 10.0555 46.6315C10.0555 46.6315 10.3588 45.6622 10.2049 45.2517C10.2049 45.2517 10.375 44.3898 10.2696 43.8287C10.1636 43.2676 9.51625 40.0958 9.51625 40.0958C9.51625 40.0958 10.6198 39.0687 10.7151 38.409C10.8099 37.7494 9.96457 37.5606 9.96457 37.5606H9.04898L6.74775 37.8793L6.74664 37.8798Z" fill="#F9B294"/>
<path d="M7.86341 45.9483C7.86341 45.9483 6.44096 40.8546 6.30045 39.7049C6.15937 38.5552 6.74653 37.8798 6.74653 37.8798L9.04776 37.5612H9.96335C9.96335 37.5612 10.8087 37.7499 10.7139 38.4096C10.6191 39.0693 9.62265 40.1551 9.62265 40.1551C9.62265 40.1551 10.6531 44.8748 10.7585 45.4359C10.7585 45.4359 9.25854 46.6433 7.86285 45.9478L7.86341 45.9483Z" fill="#D9A4C1"/>
<path d="M11.3725 52.997C11.5002 52.9724 11.4907 52.6986 11.4188 52.4863C11.7378 52.8654 12.1532 53.2978 12.1532 53.2978C12.6054 53.5867 12.708 53.9311 12.5407 54.0762C12.1928 54.3769 11.3313 54.2766 10.9471 54.0582C10.7513 53.9474 10.4218 53.4865 10.1196 53.2272C9.81736 52.9679 9.68242 52.7613 9.66179 52.4639C9.64116 52.166 9.90547 52.007 9.90547 52.007C9.84692 52.6498 10.6571 53.1359 11.3731 52.9976L11.3725 52.997Z" fill="#FFDA92"/>
<path d="M8.00123 31.0204C7.83562 31.0854 7.6767 31.1666 7.52838 31.2651C7.33378 31.3945 7.07505 31.5782 6.97189 31.7086C6.52079 32.2776 6.25593 33.1445 6.6061 33.7414C7.09233 34.5702 7.80384 35.6163 7.69789 36.1466C7.59195 36.6775 6.94624 37.55 6.74662 37.8798C6.74662 37.8798 7.45087 38.8822 8.95417 38.8587C10.4569 38.8352 11.0864 38.2248 11.3613 37.7152C11.3613 37.7152 11.3234 37.1266 11.29 36.9049C11.247 36.6215 11.1428 36.2766 11.1428 36.2766C11.1428 36.2766 11.4093 35.543 11.4093 34.9337C11.4093 34.9337 11.9323 34.5635 11.9937 34.2029C12.0238 34.0276 12.0589 33.4374 11.6669 33.0039C11.4584 32.7732 11.1489 31.2444 11.0714 30.9935C10.8567 30.3036 10.264 30.1322 10.264 30.1322L8.00179 31.0198L8.00123 31.0204Z" fill="#F3C7DB"/>
<path d="M8.17341 30.9526L9.58638 30.3982C9.58638 30.3982 9.92206 30.4397 10.0631 31.0646C10.0715 31.1033 10.0849 31.1705 10.0971 31.2354C10.1228 31.3715 10.1418 31.5076 10.1501 31.6459C10.1908 32.3308 10.1356 33.4105 10.1356 33.4105C9.82336 32.7726 8.40147 31.7714 8.40147 31.7714C7.85893 31.4068 8.17341 30.9521 8.17341 30.9521V30.9526Z" fill="#FBC1A7"/>
<path d="M9.97517 30.9941L10.1653 31.535C10.1653 31.535 9.72369 32.2552 8.90959 31.7971C8.4886 31.5602 8.15906 31.1694 8.17356 30.9526L8.56611 30.0062L9.97517 30.9941Z" fill="#FBC1A7"/>
<path d="M9.18275 31.4242C8.86548 31.0764 8.81641 30.2364 8.81641 30.2364L9.97566 30.9941L10.0866 31.3099C10.1396 31.4611 10.0771 31.6381 9.9305 31.7008C9.59426 31.8447 9.32048 31.5742 9.18331 31.4242H9.18275Z" fill="#DC937C"/>
<path d="M11.257 29.3018C11.257 29.3018 11.2782 29.803 11.2258 30.1037C11.1728 30.4044 10.8444 31.0999 10.8383 31.1711C10.8321 31.2416 10.7267 31.5899 10.5857 31.5899C10.4446 31.5899 10.0983 31.5838 9.80502 31.3542C9.51172 31.124 8.93628 30.8384 8.77792 30.6083C8.61956 30.3781 8.348 29.9581 8.24931 29.6445C8.12608 29.2508 8.17459 28.4416 8.48127 28.0703C8.77792 27.7108 9.23571 27.5266 9.64945 27.5619C10.0632 27.5971 10.4596 27.7119 10.8031 28.0614C11.0245 28.2865 11.2559 28.8812 11.257 29.3023V29.3018Z" fill="#FBC1A7"/>
<path d="M11.2036 31.306C11.2036 31.306 11.2013 31.3099 11.2002 31.311C11.2013 31.3094 11.2024 31.3077 11.2036 31.306Z" fill="#C4CAE7"/>
<path d="M9.69573 26.9626C8.99259 26.7459 8.35413 27.078 8.00842 27.6223C7.76307 28.0093 7.66549 28.5032 7.79987 28.9848C7.84783 29.1567 8.04076 29.4059 8.14057 29.5918C8.12997 29.4446 8.34354 29.1993 8.69538 29.4899C8.89389 29.6546 8.97865 30.0359 8.97865 30.0359C8.97865 30.0359 9.59368 29.7498 9.51339 29.1987C9.49387 29.0638 9.54406 28.9478 9.6355 28.8493C9.8184 28.6533 10.0292 28.6253 10.3448 28.5872C10.8968 28.5206 11.1923 28.8179 11.276 29.4485C11.4505 28.072 10.4976 27.209 9.69573 26.9615V26.9626Z" fill="#372D50"/>
<path d="M10.4357 28.5799C10.4357 28.5799 10.202 30.0701 8.45728 30.7113L8.97808 28.4657L9.51282 28.0423L10.4357 28.5799Z" fill="#372D50"/>
<path d="M11.209 36.0705C11.209 36.0705 9.94656 37.2011 7.69774 36.1466C7.69774 36.1466 6.62045 37.6301 6.34109 38.236C6.02716 38.9175 6.22623 40.0476 6.55521 41.3194L5.64799 42.991C5.64799 42.991 5.51696 44.3299 6.81338 44.9717C6.81338 44.9717 8.16948 45.4365 11.1153 44.0774C11.1153 44.0774 11.2017 41.064 11.3606 40.2419C11.5201 39.4198 11.6997 37.3137 11.209 36.071V36.0705Z" fill="#F69382"/>
<path d="M10.453 35.7826C10.453 35.7826 10.7424 35.73 11.0564 35.567C11.3703 35.4046 11.4578 35.371 11.7673 35.3302C12.0768 35.2893 12.4454 35.1347 12.4994 35.1857C12.5535 35.2366 12.4526 35.3828 12.2156 35.4746C12.2156 35.4746 13.0119 35.4147 13.1998 35.4618C13.3877 35.5088 13.4814 35.5984 13.4435 35.6712C13.4056 35.7434 13.2628 35.7653 13.1385 35.7625C13.0141 35.7597 12.6188 35.7692 12.6188 35.7692C12.6188 35.7692 13.3782 35.8381 13.5115 35.8594C13.6448 35.8812 13.6526 36.0638 13.4546 36.0968C13.2567 36.1298 12.4208 36.1046 12.4208 36.1046C12.4208 36.1046 13.2394 36.1942 13.3319 36.276C13.4245 36.3572 13.3241 36.4866 13.1028 36.477C12.8814 36.4675 12.2418 36.4143 12.2418 36.4143C12.2418 36.4143 12.7732 36.5622 12.8429 36.6562C12.9132 36.7509 12.7336 36.8108 12.6372 36.8058C12.5413 36.8002 11.6736 36.6467 11.45 36.677C11.2264 36.7072 10.9002 36.6109 10.743 36.4765L10.5016 36.5403L10.2122 35.9915L10.453 35.7826Z" fill="#FBC1A7"/>
<path d="M6.65121 32.1684C6.65121 32.1684 6.40085 32.7402 6.28096 33.5622C6.08357 34.9191 5.94751 37.172 6.2475 37.5433C6.54749 37.914 6.95008 37.7107 7.51103 37.5909C8.07198 37.471 10.6726 36.5258 10.6726 36.5258C10.6726 36.5258 10.3866 36.1903 10.5126 35.7205C10.5126 35.7205 8.78516 36.0755 8.21808 36.1158C7.65099 36.1562 7.41345 36.1903 7.41345 36.1903C7.41345 36.1903 7.65824 34.3126 7.62702 33.4805C7.593 32.5699 7.18093 31.3654 6.65177 32.169L6.65121 32.1684Z" fill="#D9A4C1"/>
<path d="M10.0833 39.0032L11.2241 38.3418V36.8427L10.6085 37.5618L10.0833 37.5041V39.0032Z" fill="#BA615E"/>
<path d="M17.7911 34.7752V34.5086C17.7911 34.5747 17.7474 34.6408 17.6606 34.6906V34.9572C17.748 34.9074 17.7911 34.8413 17.7911 34.7752Z" fill="#2F2649"/>
<path d="M8.58398 35.9646V36.2312C8.5851 36.2962 8.62766 36.3611 8.71222 36.411V36.1444C8.62654 36.0951 8.58398 36.0302 8.58398 35.9646Z" fill="#2F2649"/>
<path d="M8.71118 36.1444L8.71174 36.4104L11.613 38.1038L11.6124 37.8373L8.71118 36.1444Z" fill="#2F2649"/>
<path d="M12.2341 37.8373L12.2347 38.1038L17.6613 34.9572L17.6607 34.6906L12.2341 37.8373Z" fill="#2F2649"/>
<path d="M11.6123 37.8373V38.1038C11.7835 38.2035 12.0628 38.2035 12.2346 38.1038V37.8373C12.0623 37.937 11.7829 37.937 11.6123 37.8373Z" fill="#2F2649"/>
<path d="M8.71328 35.7826C8.54154 35.8818 8.54098 36.0447 8.71105 36.1444L11.6123 37.8378C11.7829 37.9375 12.0622 37.9375 12.234 37.8378L17.6606 34.6912C17.8318 34.5915 17.8329 34.4291 17.6628 34.3294L14.7616 32.636C14.591 32.5363 14.3116 32.5363 14.1399 32.636L8.71328 35.7826Z" fill="white"/>
<path d="M16.0813 34.8424C15.507 35.1661 14.5892 35.1566 14.0304 34.8217C13.4723 34.4862 13.4851 33.9526 14.0594 33.6289C14.6338 33.3052 15.5521 33.3147 16.1103 33.6496C16.6685 33.985 16.6556 34.5187 16.0813 34.8424Z" fill="#F69382"/>
<path d="M17.0494 33.737C17.0611 33.7605 17.0734 33.7846 17.0851 33.8081C17.2987 34.2298 17.113 34.703 16.5348 35.0294L16.5085 34.9365C17.0767 34.6162 17.2585 34.1508 17.0494 33.737Z" fill="#F69382"/>
<path d="M13.0586 33.7963C13.0708 33.7728 13.0826 33.7493 13.0948 33.7258C12.8885 34.1284 13.0524 34.5831 13.5922 34.9068C14.3862 35.3834 15.6916 35.3968 16.5085 34.9365L16.5347 35.0295C15.7033 35.4982 14.3734 35.4847 13.5654 34.9992C13.0162 34.6694 12.8489 34.2062 13.0591 33.7963H13.0586Z" fill="#F69382"/>
<path d="M16.5087 34.9365L16.0816 34.8424C16.6559 34.5187 16.6688 33.9845 16.1106 33.6496C15.5524 33.3142 14.6341 33.3052 14.0597 33.6289C13.4854 33.9526 13.4726 34.4868 14.0307 34.8217C14.5889 35.1571 15.5073 35.1661 16.0816 34.8424L16.5087 34.9365C15.6918 35.3968 14.3865 35.3834 13.5925 34.9068C12.7984 34.4302 12.8168 33.6709 13.6337 33.2106C14.4506 32.7502 15.756 32.7637 16.55 33.2402C17.344 33.7168 17.3251 34.4762 16.5087 34.9365Z" fill="white"/>
<path d="M14.6433 33.6367C14.5101 33.5544 14.287 33.5006 14.0606 33.5953C13.9859 33.6266 13.7411 33.7498 13.7261 34.0209C13.7261 34.1066 13.7807 34.1928 13.8917 34.2595C14.117 34.395 14.4883 34.3983 14.7203 34.2678C14.8385 34.2012 14.8976 34.1127 14.8976 34.0242C14.892 33.8198 14.7359 33.6939 14.6433 33.6367Z" fill="#FFDA92"/>
<path d="M16.1616 33.5891C16.0284 33.5068 15.8053 33.453 15.5789 33.5477C15.5042 33.579 15.2594 33.7022 15.2444 33.9733C15.2444 34.059 15.299 34.1452 15.41 34.2118C15.6353 34.3474 16.0061 34.3507 16.2386 34.2202C16.3562 34.1536 16.4159 34.0657 16.4159 33.9766C16.4103 33.7722 16.2542 33.6462 16.1616 33.5891Z" fill="#FFDA92"/>
<path d="M15.4346 34.1833C15.3013 34.101 15.0783 34.0472 14.8519 34.1418C14.7772 34.1732 14.5324 34.2964 14.5173 34.5674C14.5173 34.6531 14.572 34.7394 14.6829 34.806C14.9082 34.9415 15.2796 34.9449 15.5115 34.8144C15.6292 34.7478 15.6889 34.6598 15.6889 34.5708C15.6833 34.3664 15.5272 34.2398 15.4346 34.1833Z" fill="#FFDA92"/>
<path d="M14.2185 33.7454C14.2185 33.8277 14.1522 33.8943 14.0702 33.8943C13.9882 33.8943 13.9219 33.8277 13.9219 33.7454C13.9219 33.6631 13.9882 33.5964 14.0702 33.5964C14.1522 33.5964 14.2185 33.6631 14.2185 33.7454Z" fill="#F69382"/>
<path d="M14.6655 33.8792C14.6655 33.9615 14.5992 34.0282 14.5172 34.0282C14.4353 34.0282 14.3689 33.9615 14.3689 33.8792C14.3689 33.7969 14.4353 33.7302 14.5172 33.7302C14.5992 33.7302 14.6655 33.7969 14.6655 33.8792Z" fill="#F69382"/>
<path d="M15.3933 34.4202C15.3933 34.5025 15.327 34.5691 15.245 34.5691C15.163 34.5691 15.0967 34.5025 15.0967 34.4202C15.0967 34.3378 15.163 34.2712 15.245 34.2712C15.327 34.2712 15.3933 34.3378 15.3933 34.4202Z" fill="#F69382"/>
<path d="M14.9461 34.5406C14.9461 34.6229 14.8797 34.6895 14.7977 34.6895C14.7158 34.6895 14.6494 34.6229 14.6494 34.5406C14.6494 34.4582 14.7158 34.3916 14.7977 34.3916C14.8797 34.3916 14.9461 34.4582 14.9461 34.5406Z" fill="#F69382"/>
<path d="M15.8372 33.7454C15.8372 33.8277 15.7708 33.8943 15.6889 33.8943C15.6069 33.8943 15.5405 33.8277 15.5405 33.7454C15.5405 33.6631 15.6069 33.5964 15.6889 33.5964C15.7708 33.5964 15.8372 33.6631 15.8372 33.7454Z" fill="#F69382"/>
<path d="M16.2793 33.9548C16.2793 34.0371 16.213 34.1038 16.131 34.1038C16.049 34.1038 15.9827 34.0371 15.9827 33.9548C15.9827 33.8725 16.049 33.8058 16.131 33.8058C16.213 33.8058 16.2793 33.8725 16.2793 33.9548Z" fill="#F69382"/>
<path d="M12.7927 36.4737C12.2184 36.7974 11.3 36.7878 10.7419 36.453C10.1837 36.1175 10.1965 35.5838 10.7709 35.2602C11.3452 34.9365 12.2636 34.946 12.8217 35.2809C13.3799 35.6163 13.3671 36.15 12.7927 36.4737Z" fill="#F69382"/>
<path d="M13.7601 35.3682C13.7718 35.3918 13.7841 35.4158 13.7958 35.4394C14.0094 35.861 13.8237 36.3342 13.2454 36.6607L13.2192 36.5678C13.7874 36.2474 13.9692 35.7821 13.7601 35.3682Z" fill="#F69382"/>
<path d="M9.77001 35.4276C9.78227 35.4041 9.79398 35.3806 9.80625 35.357C9.59994 35.7597 9.76387 36.2144 10.3036 36.5381C11.0977 37.0146 12.403 37.0281 13.2199 36.5678L13.2461 36.6607C12.4147 37.1294 11.0848 37.116 10.2769 36.6305C9.72763 36.3006 9.56035 35.8375 9.77056 35.4276H9.77001Z" fill="#F69382"/>
<path d="M13.2202 36.5678L12.793 36.4737C13.3674 36.15 13.3802 35.6158 12.822 35.2809C12.2639 34.9454 11.3455 34.9365 10.7712 35.2602C10.1968 35.5838 10.184 36.1181 10.7422 36.453C11.3003 36.7878 12.2187 36.7974 12.793 36.4737L13.2202 36.5678C12.4033 37.0281 11.0979 37.0147 10.3039 36.5381C9.50986 36.0615 9.52826 35.3022 10.3451 34.8418C11.162 34.3815 12.4674 34.395 13.2614 34.8715C14.0554 35.3481 14.037 36.1074 13.2202 36.5678Z" fill="white"/>
<path d="M12.1414 34.7321C12.2351 34.7864 12.2831 34.8525 12.3505 34.918C12.4247 34.9908 12.5178 35.0552 12.5624 35.1398C12.6093 35.2288 12.5959 35.3335 12.4899 35.4035C12.4091 35.459 12.2775 35.4842 12.2061 35.5446C12.0701 35.6566 12.1938 35.8325 12.0438 35.9361C11.968 35.9887 11.8476 36.0072 11.7344 36.0223C11.5978 36.0425 11.4595 36.0615 11.3206 36.08C11.1634 36.1013 10.9995 36.1243 10.8372 36.108C10.6426 36.089 10.4736 36.0179 10.3136 35.9495C10.2617 35.9271 10.2088 35.9047 10.163 35.8784C10.1435 35.8672 10.1257 35.8549 10.1095 35.842C10.056 35.8006 10.0209 35.7451 10.0437 35.6942C10.0621 35.6483 10.1173 35.6135 10.1725 35.5783C10.6013 35.3117 11.0301 35.0451 11.4611 34.7803C11.5509 34.7226 11.6524 34.6632 11.7846 34.6509C11.9117 34.6386 12.0416 34.6739 12.1319 34.7265C12.1353 34.7282 12.1381 34.7299 12.1414 34.7321Z" fill="#F48166"/>
<path d="M12.6153 35.007C12.709 35.0614 12.7569 35.1274 12.8244 35.193C12.8986 35.2658 12.9917 35.3302 13.0363 35.4147C13.0831 35.5038 13.0697 35.6085 12.9638 35.6785C12.883 35.7339 12.7514 35.7591 12.68 35.8196C12.5439 35.9316 12.6677 36.1074 12.5177 36.211C12.4419 36.2637 12.3214 36.2822 12.2083 36.2973C12.0716 36.3174 11.9334 36.3365 11.7945 36.355C11.6373 36.3762 11.4733 36.3992 11.3111 36.383C11.1165 36.3639 10.9475 36.2928 10.7875 36.2239C10.7356 36.2015 10.6826 36.1791 10.6369 36.1528C10.6174 36.1416 10.5996 36.1293 10.5834 36.1164C10.5299 36.0744 10.4947 36.0195 10.5176 35.9686C10.536 35.9226 10.5912 35.8879 10.6464 35.8526C11.0752 35.5861 11.504 35.3201 11.935 35.0546C12.0248 34.997 12.1263 34.9376 12.2584 34.9253C12.3856 34.913 12.5155 34.9482 12.6058 35.0009C12.6092 35.0026 12.612 35.0042 12.6153 35.0065V35.007Z" fill="#EC5742"/>
<path d="M13.0894 35.282C13.1831 35.3363 13.2311 35.4024 13.2985 35.4679C13.3727 35.5407 13.4658 35.6051 13.5104 35.6897C13.5573 35.7787 13.5439 35.8835 13.4379 35.9535C13.3571 36.0083 13.2255 36.0341 13.1541 36.0946C13.018 36.206 13.1418 36.3824 12.9918 36.486C12.916 36.5387 12.7956 36.5571 12.6824 36.5722C12.5458 36.5924 12.4075 36.6114 12.2686 36.6299C12.1114 36.6512 11.9474 36.6742 11.7852 36.6579C11.5906 36.6389 11.4216 36.5678 11.2616 36.4989C11.2097 36.4765 11.1568 36.4541 11.111 36.4278C11.0915 36.4166 11.0737 36.4043 11.0575 36.3914C11.004 36.3494 10.9689 36.2945 10.9917 36.2435C11.0101 36.1976 11.0653 36.1629 11.1205 36.1276C11.5493 35.861 11.9781 35.5945 12.4091 35.3296C12.4989 35.2719 12.6004 35.2126 12.7326 35.2002C12.8597 35.1879 12.9896 35.2232 13.0799 35.2758C13.0833 35.2775 13.0861 35.2792 13.0894 35.2815V35.282Z" fill="#F48166"/>
<path d="M12.2606 35.1711C12.4023 35.1711 12.5171 35.0558 12.5171 34.9135C12.5171 34.7713 12.4023 34.6559 12.2606 34.6559C12.119 34.6559 12.0042 34.7713 12.0042 34.9135C12.0042 35.0558 12.119 35.1711 12.2606 35.1711Z" fill="#ED1B2E"/>
<path d="M11.494 36.1002C11.494 36.2424 11.3791 36.3578 11.2375 36.3578C11.0958 36.3578 10.981 36.2424 10.981 36.1002C10.981 35.9579 11.0958 35.8426 11.2375 35.8426C11.3791 35.8426 11.494 35.9579 11.494 36.1002Z" fill="#ED1B2E"/>
<path d="M13.0955 35.5822C13.0955 35.7244 12.9806 35.8398 12.839 35.8398C12.6974 35.8398 12.5825 35.7244 12.5825 35.5822C12.5825 35.4399 12.6974 35.3246 12.839 35.3246C12.9806 35.3246 13.0955 35.4399 13.0955 35.5822Z" fill="#ED1B2E"/>
<path d="M12.7999 36.2245C12.7999 36.3667 12.685 36.4821 12.5434 36.4821C12.4017 36.4821 12.2869 36.3667 12.2869 36.2245C12.2869 36.0822 12.4017 35.9669 12.5434 35.9669C12.685 35.9669 12.7999 36.0822 12.7999 36.2245Z" fill="#ED1B2E"/>
<path d="M11.0787 35.2277C11.0787 35.3699 10.9638 35.4853 10.8222 35.4853C10.6805 35.4853 10.5657 35.3699 10.5657 35.2277C10.5657 35.0854 10.6805 34.9701 10.8222 34.9701C10.9638 34.9701 11.0787 35.0854 11.0787 35.2277Z" fill="#ED1B2E"/>
<path d="M54.9998 36.78L46.2382 41.8603L37.4766 36.78L46.2382 31.7002L54.9998 36.78Z" fill="#DACFE7"/>
<path d="M46.2383 41.8603V51.9767L54.9999 46.8964V36.78L46.2383 41.8603Z" fill="#9C8BAF"/>
<path d="M37.4766 36.78V46.8964L46.2382 51.9767V41.8603L37.4766 36.78Z" fill="#BCADD1"/>
<path d="M46.246 43.9385L37.4766 38.8542V39.2938L40.4107 40.9951V41.2897L43.3119 42.9714V42.6774L46.246 44.3786V43.9385Z" fill="#9C8BAF"/>
<path d="M46.246 46.701L37.4766 41.6162V42.0563L40.4107 43.7576V44.0516L43.3119 45.7338V45.4393L46.246 47.1406V46.701Z" fill="#9C8BAF"/>
<path d="M46.246 49.4629L37.4766 44.3786V44.8182L40.4107 46.5195V46.8141L43.3119 48.4958V48.2018L46.246 49.903V49.4629Z" fill="#9C8BAF"/>
<path d="M46.648 31.9355L54.5788 36.5364L54.5571 29.5644L46.6279 24.9489L46.648 31.9355Z" fill="#584967"/>
<path d="M50.1627 39.5845L49.3335 39.1006L52.5358 30.2459L53.365 30.7298L50.1627 39.5845Z" fill="#BCADD1"/>
<path d="M53.365 30.7298L52.5359 30.2459L54.1507 29.3096L54.9799 29.7934L53.365 30.7298Z" fill="#DACFE7"/>
<path d="M54.9797 29.7934L54.9998 36.78L50.1626 39.5845L53.3649 30.7298L54.9797 29.7934Z" fill="#9C8BAF"/>
<path d="M42.232 34.9841L41.4028 34.5002L44.6051 25.6455L45.4343 26.1294L42.232 34.9841Z" fill="#BCADD1"/>
<path d="M45.4341 26.1294L44.605 25.6455L46.2198 24.7086L47.049 25.193L45.4341 26.1294Z" fill="#DACFE7"/>
<path d="M47.0491 25.1931L47.0686 32.1796L42.2319 34.9841L45.4343 26.1294L47.0491 25.1931Z" fill="#9C8BAF"/>
<path d="M54.9799 29.1198L54.9783 29.8086L53.3523 30.7578L53.354 30.0684L54.9799 29.1198Z" fill="#9C8BAF"/>
<path d="M53.3538 30.0684L53.3521 30.7578L44.605 25.6455L44.6067 24.9562L53.3538 30.0684Z" fill="#BCADD1"/>
<path d="M54.9798 29.1198L53.3538 30.0684L44.6067 24.9562L46.2327 24.0075L54.9798 29.1198Z" fill="#DACFE7"/>
<path d="M47.6686 35.9624L49.5533 34.8626L49.5522 35.1325L47.6675 36.2323L47.6686 35.9624Z" fill="#362C4F"/>
<path d="M45.8625 34.9158L47.7472 33.8154L49.5533 34.8626L47.6686 35.9624L45.8625 34.9158Z" fill="#9C8BAF"/>
<path d="M47.6685 35.9624L47.6673 36.2323L45.8618 35.1851L45.8624 34.9158L47.6685 35.9624Z" fill="#584967"/>
<path d="M48.0572 31.6946L48.2286 31.595L48.2185 35.1426L48.0471 35.2423L48.0572 31.6946Z" fill="#362C4F"/>
<path d="M47.1973 31.1962L47.3679 31.0966L48.2277 31.595L48.0571 31.6946L47.1973 31.1962Z" fill="#4C3F59"/>
<path d="M48.0571 31.6946L48.0471 35.2423L47.1873 34.7438L47.1973 31.1963L48.0571 31.6946Z" fill="#584967"/>
<path d="M50.073 30.1087L50.3696 29.9357L50.354 35.5519L50.0574 35.725L50.073 30.1087Z" fill="#362C4F"/>
<path d="M44.3223 26.7745L44.6189 26.6014L50.3695 29.9357L50.0728 30.1087L44.3223 26.7745Z" fill="#9C8BAF"/>
<path d="M50.0728 30.1087L50.0572 35.725L44.3066 32.3907L44.3223 26.7745L50.0728 30.1087Z" fill="#584967"/>
<path d="M49.755 30.2347L49.7411 35.2316L44.6245 32.2647L44.6385 27.2679L49.755 30.2347Z" fill="white"/>
<path d="M46.1624 38.5843L48.0471 37.4845L48.0466 37.7538L46.1619 38.8543L46.1624 38.5843Z" fill="#362C4F"/>
<path d="M41.6714 35.926L43.5561 34.8262L48.047 37.4845L46.1623 38.5843L41.6714 35.926Z" fill="#9C8BAF"/>
<path d="M46.1624 38.5843L46.1618 38.8542L41.6709 36.1959L41.6715 35.926L46.1624 38.5843Z" fill="#584967"/>
<path d="M43.4647 35.3677L43.2456 35.2406L43.4647 35.1134L43.6844 35.2406L43.4647 35.3677Z" fill="#362C4F"/>
<path d="M44.0202 35.6897L43.8005 35.5626L44.0202 35.4355L44.2394 35.5626L44.0202 35.6897Z" fill="#362C4F"/>
<path d="M44.5749 36.0117L44.3557 35.8846L44.5749 35.7569L44.7945 35.8846L44.5749 36.0117Z" fill="#362C4F"/>
<path d="M45.1303 36.3337L44.9106 36.206L45.1303 36.0789L45.3495 36.206L45.1303 36.3337Z" fill="#362C4F"/>
<path d="M45.6852 36.6551L45.4661 36.528L45.6852 36.4009L45.9049 36.528L45.6852 36.6551Z" fill="#362C4F"/>
<path d="M46.2404 36.9771L46.0208 36.85L46.2404 36.7229L46.4596 36.85L46.2404 36.9771Z" fill="#362C4F"/>
<path d="M46.7953 37.2991L46.5762 37.172L46.7953 37.0443L47.015 37.172L46.7953 37.2991Z" fill="#362C4F"/>
<path d="M47.3508 37.6211L47.1311 37.4935L47.3508 37.3663L47.5699 37.4935L47.3508 37.6211Z" fill="#362C4F"/>
<path d="M43.0757 35.5934L42.856 35.4657L43.0757 35.3386L43.2948 35.4657L43.0757 35.5934Z" fill="#362C4F"/>
<path d="M43.6303 35.9148L43.4111 35.7877L43.6303 35.6606L43.85 35.7877L43.6303 35.9148Z" fill="#362C4F"/>
<path d="M44.1858 36.2368L43.9661 36.1097L44.1858 35.9826L44.4049 36.1097L44.1858 36.2368Z" fill="#362C4F"/>
<path d="M44.7406 36.5588L44.5215 36.4317L44.7406 36.3046L44.9603 36.4317L44.7406 36.5588Z" fill="#362C4F"/>
<path d="M45.2959 36.8808L45.0762 36.7531L45.2959 36.626L45.515 36.7531L45.2959 36.8808Z" fill="#362C4F"/>
<path d="M45.8507 37.2022L45.6316 37.0751L45.8507 36.948L46.0704 37.0751L45.8507 37.2022Z" fill="#362C4F"/>
<path d="M46.4061 37.5243L46.187 37.3971L46.4061 37.27L46.6253 37.3971L46.4061 37.5243Z" fill="#362C4F"/>
<path d="M46.9608 37.8462L46.7417 37.7191L46.9608 37.592L47.1805 37.7191L46.9608 37.8462Z" fill="#362C4F"/>
<path d="M42.6857 35.8185L42.4666 35.6914L42.6857 35.5643L42.9054 35.6914L42.6857 35.8185Z" fill="#362C4F"/>
<path d="M43.2412 36.1405L43.0215 36.0134L43.2412 35.8857L43.4603 36.0134L43.2412 36.1405Z" fill="#362C4F"/>
<path d="M43.796 36.4619L43.5769 36.3348L43.796 36.2077L44.0157 36.3348L43.796 36.4619Z" fill="#362C4F"/>
<path d="M44.3515 36.7839L44.1323 36.6568L44.3515 36.5297L44.5706 36.6568L44.3515 36.7839Z" fill="#362C4F"/>
<path d="M44.9061 37.1059L44.687 36.9788L44.9061 36.8517L45.1258 36.9788L44.9061 37.1059Z" fill="#362C4F"/>
<path d="M45.4616 37.4279L45.2424 37.3008L45.4616 37.1737L45.6807 37.3008L45.4616 37.4279Z" fill="#362C4F"/>
<path d="M46.0168 37.7499L45.7971 37.6222L46.0168 37.4951L46.236 37.6222L46.0168 37.7499Z" fill="#362C4F"/>
<path d="M46.5717 38.0714L46.3525 37.9442L46.5717 37.8171L46.7908 37.9442L46.5717 38.0714Z" fill="#362C4F"/>
<path d="M42.2966 36.0436L42.0769 35.9165L42.2966 35.7894L42.5157 35.9165L42.2966 36.0436Z" fill="#362C4F"/>
<path d="M42.8515 36.3656L42.6323 36.2385L42.8515 36.1114L43.0712 36.2385L42.8515 36.3656Z" fill="#362C4F"/>
<path d="M45.0722 37.6531L44.8525 37.5259L45.0722 37.3988L45.2914 37.5259L45.0722 37.6531Z" fill="#362C4F"/>
<path d="M45.6271 37.975L45.408 37.8479L45.6271 37.7208L45.8468 37.8479L45.6271 37.975Z" fill="#362C4F"/>
<path d="M46.1826 38.297L45.9629 38.1699L46.1826 38.0422L46.4017 38.1699L46.1826 38.297Z" fill="#362C4F"/>
<path d="M44.5171 37.331L43.1877 36.5605L43.4069 36.4334L44.7362 37.2039L44.5171 37.331Z" fill="#362C4F"/>
<g style="mix-blend-mode:multiply">
<path d="M32.0227 51.5663C31.5537 52.1403 31.3558 52.7882 31.5392 53.3745C31.9067 54.546 33.6643 55.0271 35.4625 54.448C35.5334 54.4251 35.6014 54.3993 35.6705 54.373C36.8091 53.9569 37.4102 54.0846 37.7197 54.8148C38.1758 55.8872 39.8631 56.3123 41.5945 55.7551C42.4939 55.4655 43.2333 54.966 43.7022 54.392C44.1712 53.8186 44.3691 53.1707 44.1851 52.5849C43.8171 51.4117 42.0612 50.9318 40.2618 51.5114C40.191 51.5343 40.123 51.5601 40.0544 51.5853C38.9158 52.0014 38.3147 51.8737 38.0041 51.1446C37.548 50.0722 35.8612 49.646 34.1299 50.2032C33.2305 50.4927 32.4911 50.9923 32.0221 51.5663H32.0227Z" fill="#1F2736"/>
</g>
<path d="M39.4215 34.9505L40.2896 34.7354C40.3432 34.722 40.4 34.7287 40.4491 34.7545L41.2699 35.1801C41.2928 35.1919 41.3134 35.207 41.3318 35.2254L41.7344 35.632C41.7344 35.632 42.2937 35.963 42.3238 36.0078C42.3539 36.0526 42.3182 36.2318 42.0835 36.192C41.8487 36.1523 41.3987 35.907 41.3987 35.907L40.6777 36.0302C40.6298 36.0386 40.6225 36.1041 40.6677 36.122C40.8801 36.206 41.2454 36.3589 41.4205 36.4866C41.4824 36.5319 41.4561 36.631 41.3803 36.6428C41.1422 36.6798 40.6671 36.6165 40.39 36.533C40.0348 36.4261 39.3618 35.9787 39.2793 35.828H38.9402L38.9241 35.0205L39.4226 34.951L39.4215 34.9505Z" fill="#FBC1A7"/>
<path d="M39.4215 34.9505L36.5325 33.5975L35.0906 34.923L38.9392 35.828C39.5826 35.6824 39.4215 34.9505 39.4215 34.9505Z" fill="white"/>
<path d="M34.4611 51.7085C34.4611 51.7085 34.3312 52.9394 34.4092 53.1936C34.4873 53.4478 34.8436 53.5582 35.2523 53.4669C35.4525 53.4221 35.8099 53.1443 36.3676 53.0306C36.9413 52.9136 37.524 52.6062 37.6729 52.5076C38.0716 52.2439 37.9774 51.531 37.6417 51.4212C37.3166 51.3142 37.0807 51.5528 36.0625 51.4744L35.4787 51.382L34.4605 51.7085H34.4611Z" fill="#F69382"/>
<path d="M38.3849 52.6258C38.3849 52.6258 38.255 53.8566 38.3331 54.1109C38.4111 54.3651 38.7674 54.4754 39.1762 54.3842C39.3764 54.3394 39.7338 54.0616 40.2914 53.9479C40.8652 53.8309 41.4478 53.5234 41.5967 53.4249C41.9954 53.1611 41.9012 52.4482 41.5655 52.3385C41.2404 52.2321 41.0046 52.4701 39.9864 52.3917L39.4026 52.2993L38.3844 52.6258H38.3849Z" fill="#F69382"/>
<path d="M37.6946 32.6909C37.6946 32.6909 39.0273 33.4721 39.426 33.9806C39.8246 34.4885 40.0388 34.7618 39.9997 35.8952C39.9607 37.0286 39.8152 38.5328 39.8152 38.5328C39.8152 38.5328 39.9027 40.135 40.1363 41.8346C40.1363 41.8346 39.0011 41.9169 36.9056 41.526C34.8101 41.1351 34.175 40.4228 34.175 40.4228C34.175 40.4228 34.3506 38.9825 34.5525 38.3374C34.7543 37.6922 33.7339 35.1666 33.6575 34.3518C33.5427 33.1254 34.1633 31.5972 34.9417 31.5776C35.7201 31.558 37.6946 32.6914 37.6946 32.6914V32.6909Z" fill="white"/>
<path d="M36.1869 31.577L35.9131 31.917C35.9131 31.917 35.6683 32.2412 35.9728 32.5738C36.2778 32.9059 36.9001 33.0297 37.1789 33.023C37.4577 33.0162 37.8681 32.9272 37.9841 32.8678L38.0153 32.2546L38.3331 31.675L38.5946 30.4671L37.6556 30.718L36.1869 31.5776V31.577Z" fill="#FBC1A7"/>
<path d="M36.1868 31.577L36.1545 30.555C36.1545 30.555 35.8366 29.8713 35.9532 29.3309C36.0697 28.7905 36.5303 28.2238 36.8024 28.1196C37.0745 28.0154 38.2354 27.7091 38.7607 28.3218C39.286 28.9338 39.4287 29.1293 39.4482 29.3309C39.4678 29.5325 39.364 29.943 39.3702 30.0471C39.3769 30.1513 39.3479 30.4867 39.2726 30.6917C39.1811 30.9431 39.117 31.315 38.8834 31.4494C38.6497 31.5838 38.3325 31.675 38.3325 31.675C38.3325 31.675 36.4974 31.7137 36.1863 31.577H36.1868Z" fill="#FBC1A7"/>
<path d="M39.4328 29.2463C39.319 29.4731 38.9895 29.831 38.9371 30.1636C38.8846 30.4963 38.6466 30.8916 38.6466 30.8916C38.6466 30.8916 38.5551 30.5758 38.4592 30.6267C38.3839 30.6665 38.2691 30.7763 38.2691 30.7763C38.2691 30.7763 38.1196 31.6163 37.8542 31.7988C37.5882 31.9814 37.1087 32.0592 36.8104 31.9422C36.512 31.8251 36.2979 31.6941 36.1881 31.5771C36.1881 31.5771 36.1167 31.0887 36.0715 30.9588C36.0264 30.8283 35.8379 30.5651 35.7927 30.3389C35.7476 30.1127 35.529 29.2603 35.9294 28.5883C36.2048 28.1258 36.449 28.1196 36.449 28.1196C36.449 28.1196 36.4011 27.9953 36.6554 27.7545C36.9096 27.5137 37.1745 27.4963 37.4611 27.4336C37.7594 27.3687 38.4542 27.428 38.6995 27.6162C38.9588 27.815 39.3647 27.9483 39.4428 28.4271C39.5036 28.8011 39.5415 29.033 39.4344 29.2469L39.4328 29.2463Z" fill="#1B1828"/>
<path d="M38.4585 30.6273C38.4585 30.6273 38.2394 30.6519 38.1473 30.8373C38.0548 31.0226 38.1524 31.3452 38.2594 31.3648C38.3665 31.3844 38.483 31.3111 38.517 31.1548C38.517 31.1548 38.415 30.7202 38.4585 30.6273Z" fill="#FBC1A7"/>
<path d="M34.175 40.4228C34.175 40.4228 34.175 39.6175 34.3947 37.8037C34.2648 37.1686 34.0953 36.0262 34.0953 36.0262C34.1064 35.7804 33.904 35.7183 34.0462 34.0528C34.1984 32.2703 35.3387 31.6336 35.3387 31.6336L35.9275 31.8285C34.185 33.2901 35.1324 36.8662 35.1324 36.8662C35.3633 37.2812 35.9354 37.1474 35.9354 37.1474C36.629 33.2201 38.3565 33.1098 38.3565 33.1098C38.5829 33.1954 39.0334 33.6037 39.0334 33.6037C37.8769 33.2906 35.8166 37.4878 38.1407 38.255C39.6507 38.754 39.8876 37.7107 39.8876 37.7107C39.8876 37.7107 40.1525 39.8057 40.1358 41.8351C40.1358 41.8351 40.1358 41.8351 40.1363 41.8351L40.1352 41.8553C40.1313 42.2826 40.1157 42.7071 40.0817 43.1075L39.8765 47.8915L39.8258 52.3267C39.8258 52.3267 39.3278 52.9741 38.2684 52.805C38.2684 52.805 37.6243 50.5952 37.5831 49.8689C37.5418 49.1426 37.8145 47.957 37.8145 47.957L36.8666 44.2498L36.4645 47.2554L36.0151 51.6676C36.0151 51.6676 35.4614 52.2668 34.4209 52.0025C34.4209 52.0025 33.9787 49.7434 34.0027 49.0166C34.0267 48.2891 34.4047 47.1338 34.4047 47.1338L34.1744 40.4245L34.175 40.4228Z" fill="#584967"/>
<path d="M38.6214 41.7142V43.7845L37.1321 43.407V40.8904C37.1321 40.8904 37.794 42.0513 38.6214 41.7147V41.7142Z" fill="#372D50"/>
<path d="M35.6627 40.5415V42.8991L34.4739 42.5217V40.8159C34.4739 40.8159 34.9964 41.2606 35.6627 40.5421V40.5415Z" fill="#372D50"/>
<path d="M44.5862 37.1983L45.2213 37.1597C45.2269 37.1597 45.2325 37.1586 45.238 37.1569L45.7243 37.0343C45.8375 37.0057 45.9568 37.0175 46.0627 37.0667C46.0627 37.0667 46.9432 37.377 47.0107 37.5119C47.0781 37.6463 46.8857 37.6749 46.8857 37.6749L46.5969 37.6329L46.6783 37.6911C46.956 37.8882 47.0279 38.2713 46.8406 38.5569C46.8133 38.5989 46.7575 38.6112 46.7151 38.5843L46.7112 38.5821C46.4938 38.4466 46.2361 38.395 45.9824 38.4303C45.5748 38.4869 44.9274 38.5143 44.5254 38.2192C44.5109 38.2086 44.4992 38.1929 44.4925 38.1761L44.2583 37.5881C44.2449 37.5545 44.2522 37.5164 44.2773 37.4901L44.5254 37.2275C44.5416 37.2107 44.5633 37.2 44.5867 37.1989L44.5862 37.1983Z" fill="#FBC1A7"/>
<path d="M39.847 34.3378L41.3625 37.2666L44.5492 37.2006C44.5492 37.2006 45.0154 37.7858 44.5018 38.2013L41.0174 39.0099C40.791 39.0626 40.5557 38.9836 40.4068 38.8044C39.76 38.0238 38.0476 35.8947 38.0097 35.1902C37.9756 34.5652 38.2031 34.0898 38.7407 33.8898C39.1639 33.7325 39.6379 33.9352 39.8458 34.3373L39.847 34.3378Z" fill="white"/>
</g>
<defs>
<clipPath id="clip0_2790_14165">
<rect width="54" height="56" fill="white" transform="translate(1)"/>
</clipPath>
</defs>
</svg>
