<svg width="19" height="18" viewBox="0 0 19 18" fill="none" xmlns="http://www.w3.org/2000/svg">
<g clip-path="url(#clip0_875_24468)">
<path d="M7.27734 10.3125C5.52234 10.3125 2.02734 11.19 2.02734 12.9375V14.25H12.5273V12.9375C12.5273 11.19 9.03234 10.3125 7.27734 10.3125ZM3.78234 12.75C4.41234 12.315 5.93484 11.8125 7.27734 11.8125C8.61984 11.8125 10.1423 12.315 10.7723 12.75H3.78234ZM7.27734 9C8.72484 9 9.90234 7.8225 9.90234 6.375C9.90234 4.9275 8.72484 3.75 7.27734 3.75C5.82984 3.75 4.65234 4.9275 4.65234 6.375C4.65234 7.8225 5.82984 9 7.27734 9ZM7.27734 5.25C7.89984 5.25 8.40234 5.7525 8.40234 6.375C8.40234 6.9975 7.89984 7.5 7.27734 7.5C6.65484 7.5 6.15234 6.9975 6.15234 6.375C6.15234 5.7525 6.65484 5.25 7.27734 5.25ZM12.5573 10.3575C13.4273 10.9875 14.0273 11.8275 14.0273 12.9375V14.25H17.0273V12.9375C17.0273 11.4225 14.4023 10.56 12.5573 10.3575ZM11.7773 9C13.2248 9 14.4023 7.8225 14.4023 6.375C14.4023 4.9275 13.2248 3.75 11.7773 3.75C11.3723 3.75 10.9973 3.8475 10.6523 4.0125C11.1248 4.68 11.4023 5.4975 11.4023 6.375C11.4023 7.2525 11.1248 8.07 10.6523 8.7375C10.9973 8.9025 11.3723 9 11.7773 9Z" fill="#EA7C69"/>
</g>
<defs>
<clipPath id="clip0_875_24468">
<rect width="18" height="18" fill="white" transform="translate(0.527344)"/>
</clipPath>
</defs>
</svg>
