<svg width="17" height="16" viewBox="0 0 17 16" fill="none" xmlns="http://www.w3.org/2000/svg">
<path d="M3.94354 1.77778C3.99688 2.56889 4.13021 3.34222 4.34354 4.08L3.27688 5.14667C2.91243 4.08 2.68132 2.95111 2.60132 1.77778H3.94354ZM12.708 12.4622C13.4635 12.6756 14.2369 12.8089 15.0191 12.8622V14.1867C13.8458 14.1067 12.7169 13.8756 11.6413 13.52L12.708 12.4622ZM4.79688 0H1.68576C1.19688 0 0.796875 0.4 0.796875 0.888889C0.796875 9.23556 7.56132 16 15.908 16C16.3969 16 16.7969 15.6 16.7969 15.1111V12.0089C16.7969 11.52 16.3969 11.12 15.908 11.12C14.8058 11.12 13.7302 10.9422 12.7347 10.6133C12.6458 10.5778 12.548 10.5689 12.4591 10.5689C12.228 10.5689 12.0058 10.6578 11.828 10.8267L9.87243 12.7822C7.35687 11.4933 5.29465 9.44 4.01465 6.92444L5.97021 4.96889C6.2191 4.72 6.29021 4.37333 6.19243 4.06222C5.86354 3.06667 5.68576 2 5.68576 0.888889C5.68576 0.4 5.28576 0 4.79688 0Z" fill="#F8F5FB"/>
</svg>
