<svg width="51" height="51" viewBox="0 0 51 51" fill="none" xmlns="http://www.w3.org/2000/svg">
<path d="M25.957 0.255859C39.757 0.255859 50.957 11.4559 50.957 25.2559C50.957 39.0559 39.757 50.2559 25.957 50.2559C12.157 50.2559 0.957031 39.0559 0.957031 25.2559C0.957031 11.4559 12.157 0.255859 25.957 0.255859ZM25.957 10.2559C21.132 10.2559 17.207 14.1809 17.207 19.0059C17.207 23.8309 21.132 27.7559 25.957 27.7559C30.782 27.7559 34.707 23.8309 34.707 19.0059C34.707 14.1809 30.782 10.2559 25.957 10.2559ZM25.957 45.2559C31.032 45.2559 37.032 43.2059 41.307 38.0559C37.082 34.7559 31.757 32.7559 25.957 32.7559C20.157 32.7559 14.832 34.7559 10.607 38.0559C14.882 43.2059 20.882 45.2559 25.957 45.2559Z" fill="#EA7C69"/>
<mask id="mask0_240_11384" style="mask-type:alpha" maskUnits="userSpaceOnUse" x="5" y="5" width="41" height="41">
<circle r="19.9973" transform="matrix(-1 0 0 1 25.9558 25.2625)" fill="#D9D9D9"/>
</mask>
<g mask="url(#mask0_240_11384)">
<path d="M25.9531 0.255859C39.7531 0.255859 50.9531 11.4559 50.9531 25.2559C50.9531 39.0559 39.7531 50.2559 25.9531 50.2559C12.1531 50.2559 0.953125 39.0559 0.953125 25.2559C0.953125 11.4559 12.1531 0.255859 25.9531 0.255859ZM25.9531 10.2559C21.1281 10.2559 17.2031 14.1809 17.2031 19.0059C17.2031 23.8309 21.1281 27.7559 25.9531 27.7559C30.7781 27.7559 34.7031 23.8309 34.7031 19.0059C34.7031 14.1809 30.7781 10.2559 25.9531 10.2559ZM25.9531 45.2559C31.0281 45.2559 37.0281 43.2059 41.3031 38.0559C37.0781 34.7559 31.7531 32.7559 25.9531 32.7559C20.1531 32.7559 14.8281 34.7559 10.6031 38.0559C14.8781 43.2059 20.8781 45.2559 25.9531 45.2559Z" fill="#77433B"/>
</g>
</svg>
