<svg width="60" height="56" viewBox="0 0 60 56" fill="none" xmlns="http://www.w3.org/2000/svg">
<g clip-path="url(#clip0_2790_10266)">
<path fill-rule="evenodd" clip-rule="evenodd" d="M22.2348 27.0693L5.4879 36.7147C5.10056 36.9382 4.86311 37.3509 4.86255 37.7972C4.86255 38.2435 5.10056 38.6557 5.4879 38.8786C10.9622 42.0314 29.7817 52.8707 34.6262 55.6612C35.4116 56.1137 36.3782 56.1126 37.1641 55.6601C40.0237 54.0131 47.6766 49.6054 53.6074 46.1894C53.7275 46.1199 53.7696 45.967 53.7 45.8472C53.6304 45.7274 53.4771 45.6865 53.357 45.7559C47.4263 49.1719 39.7733 53.5797 36.9137 55.2266C36.2833 55.5895 35.5081 55.5906 34.8755 55.2266L5.73883 38.4451C5.50699 38.3118 5.36384 38.0643 5.3644 37.7972C5.3644 37.5301 5.50642 37.282 5.73826 37.1487L22.4852 27.5033C22.6053 27.4338 22.6474 27.281 22.5778 27.1611C22.5082 27.0413 22.355 27.0004 22.2348 27.0698V27.0693Z" fill="white"/>
<path fill-rule="evenodd" clip-rule="evenodd" d="M49.8087 10.1097L45.2561 7.73136C45.0321 7.61208 44.7615 7.62216 44.5471 7.75768L41.8599 9.4556L44.4354 35.4575L47.3084 40.5821L50.182 38.7671V10.7302C50.182 10.4703 50.0383 10.2318 49.8087 10.1097Z" fill="#584967"/>
<path fill-rule="evenodd" clip-rule="evenodd" d="M42.6199 9.42256L46.9558 11.9202C47.1742 12.0456 47.3084 12.278 47.3084 12.5294V40.5821L41.5618 37.2725V10.0318C41.5618 9.49032 42.1495 9.15208 42.6194 9.42256H42.6199Z" fill="#9C8BAF"/>
<path fill-rule="evenodd" clip-rule="evenodd" d="M39.9642 2.4612L35.4116 0.0828773C35.1876 -0.0364027 34.917 -0.0263227 34.7026 0.109197L32.0154 1.80712L34.5909 27.809L37.4639 34.7682L40.3375 32.9532V3.08168C40.3375 2.82184 40.1938 2.58328 39.9642 2.4612Z" fill="#584967"/>
<path fill-rule="evenodd" clip-rule="evenodd" d="M32.7747 1.77408L37.1106 4.27168C37.329 4.39712 37.4632 4.62952 37.4632 4.88096V34.7682L31.7166 31.4586V2.38336C31.7166 1.84184 32.3043 1.5036 32.7741 1.77408H32.7747Z" fill="#9C8BAF"/>
<path fill-rule="evenodd" clip-rule="evenodd" d="M30.119 7.60928L25.5664 5.23096C25.3424 5.11168 25.0718 5.12176 24.8574 5.25728L22.1702 6.9552L24.7457 26.3334L27.6187 29.2415L30.4923 27.4266V8.23032C30.4923 7.97048 30.3486 7.73192 30.119 7.60984V7.60928Z" fill="#584967"/>
<path fill-rule="evenodd" clip-rule="evenodd" d="M22.9302 6.92272L27.2661 9.42032C27.4845 9.54576 27.6187 9.77816 27.6187 10.0296V29.2421L21.8721 25.9325V7.532C21.8721 6.99048 22.4598 6.65224 22.9297 6.92272H22.9302Z" fill="#9C8BAF"/>
<path fill-rule="evenodd" clip-rule="evenodd" d="M59.6268 28.1602L55.0742 25.7818C54.8502 25.6626 54.5796 25.6726 54.3652 25.8082L51.678 27.5061L54.2535 43.4577L57.1265 46.2633L60.0001 44.4483V28.7806C60.0001 28.5208 59.8564 28.2822 59.6268 28.1602Z" fill="#584967"/>
<path fill-rule="evenodd" clip-rule="evenodd" d="M52.4373 27.4736L56.7732 29.9712C56.9916 30.0966 57.1258 30.329 57.1258 30.5805V46.2638L51.3792 42.9542V28.0829C51.3792 27.5414 51.9669 27.2031 52.4367 27.4736H52.4373Z" fill="#9C8BAF"/>
<path fill-rule="evenodd" clip-rule="evenodd" d="M10.2449 38.6187L20.3004 32.8272L26.3917 36.3356L16.3362 42.1271L10.2449 38.6187Z" fill="#4CAB6D"/>
<path fill-rule="evenodd" clip-rule="evenodd" d="M20.598 33.5966C20.5463 33.567 20.4834 33.5675 20.4324 33.5966C20.1837 33.74 19.8772 33.74 19.6279 33.5966C19.5763 33.567 19.5129 33.5664 19.4612 33.5966L12.0378 37.8722C11.9868 37.9019 11.9553 37.9568 11.9559 38.0162C11.9559 38.075 11.9873 38.1298 12.0384 38.159C12.1473 38.2217 12.2147 38.3376 12.2147 38.463C12.2147 38.5885 12.1473 38.7044 12.0384 38.7671C11.9873 38.7968 11.9559 38.8517 11.9553 38.9105C11.9553 38.9698 11.9868 39.0242 12.039 39.0538C13.1145 39.6732 15.0316 40.7775 15.9724 41.3196C16.0229 41.3487 16.0869 41.3493 16.138 41.3196C16.4276 41.1527 16.7852 41.1527 17.0755 41.3196C17.126 41.3487 17.19 41.3493 17.2411 41.3196C18.7359 40.4589 22.8692 38.0783 24.5982 37.0821C24.6493 37.0524 24.6807 36.9975 24.6813 36.9387C24.6813 36.8794 24.6493 36.825 24.5976 36.7954C24.4887 36.7326 24.4214 36.6167 24.4219 36.4918C24.4219 36.3664 24.4882 36.2499 24.5971 36.1872C24.6481 36.1575 24.6807 36.1032 24.6801 36.0438C24.6801 35.9845 24.6487 35.9302 24.5976 35.901C23.4957 35.2666 21.5113 34.1236 20.5974 33.5972L20.598 33.5966ZM20.5104 33.9282L24.2339 36.0724C24.1424 36.19 24.0907 36.3367 24.0902 36.4907C24.0902 36.6447 24.1418 36.7909 24.2339 36.909L17.154 40.987C16.8082 40.8218 16.4046 40.8212 16.0588 40.987L12.4022 38.8808C12.4937 38.7632 12.5453 38.6165 12.5459 38.4625C12.5459 38.3085 12.4942 38.1623 12.4022 38.0442L19.5488 33.9282C19.8542 34.0704 20.2061 34.0704 20.5104 33.9282Z" fill="white"/>
<path d="M20.1859 38.2654L19.7722 38.5039C19.7598 38.5112 19.7469 38.5106 19.7346 38.5039L19.4578 38.3443C19.2501 38.4087 19.0256 38.4306 18.7847 38.4104C18.5439 38.3908 18.3351 38.3298 18.1599 38.229L17.9809 38.1259C17.968 38.1181 17.9663 38.1102 17.9786 38.1035L18.4131 37.8532C18.4227 37.8476 18.4345 37.8493 18.4479 37.8571L18.627 37.9602C18.7106 38.0083 18.8139 38.0335 18.9346 38.0358C19.0548 38.0369 19.1547 38.015 19.2338 37.9697C19.3158 37.9226 19.354 37.865 19.3483 37.7972C19.3422 37.7294 19.3001 37.6729 19.2248 37.6298C19.126 37.5726 18.979 37.5598 18.7853 37.5911C18.7179 37.6006 18.6169 37.6174 18.4794 37.6415C18.3424 37.665 18.2155 37.6874 18.0988 37.7076C17.8664 37.7451 17.6514 37.7462 17.4521 37.7098C17.2539 37.674 17.0748 37.6102 16.9126 37.5172C16.7347 37.4147 16.6314 37.296 16.6027 37.1605C16.5741 37.025 16.6134 36.8995 16.7223 36.7836L16.4456 36.624C16.4332 36.6167 16.4338 36.6089 16.4478 36.601L16.8615 36.3625C16.8772 36.3535 16.8913 36.353 16.9036 36.3597L17.1854 36.5221C17.3836 36.461 17.5997 36.4409 17.8327 36.4594C18.0662 36.479 18.2689 36.5378 18.4406 36.6369L18.7589 36.82C18.7685 36.8256 18.7685 36.8306 18.7589 36.8362L18.3216 37.0882C18.3121 37.0938 18.3031 37.0938 18.2936 37.0882L17.9708 36.9074C17.8793 36.8547 17.7765 36.8295 17.662 36.8312C17.5475 36.8329 17.4521 36.8558 17.3757 36.8995C17.2966 36.9449 17.2595 37.0014 17.264 37.0681C17.2685 37.1347 17.3123 37.1924 17.3943 37.2394C17.4734 37.2848 17.5587 37.3139 17.6491 37.3257C17.7395 37.3374 17.8585 37.3335 18.0033 37.3117L18.6169 37.2098C18.8167 37.175 19.007 37.1661 19.1867 37.1829C19.3663 37.1997 19.5358 37.254 19.693 37.3447C19.8749 37.4494 19.9821 37.5676 20.0152 37.7003C20.0489 37.833 20.0124 37.959 19.9069 38.0783L20.1887 38.2407C20.201 38.248 20.1999 38.2558 20.1842 38.2648L20.1859 38.2654Z" fill="white"/>
<path fill-rule="evenodd" clip-rule="evenodd" d="M10.2449 37.8386L20.3004 32.0471L26.3917 35.5555L16.3362 41.347L10.2449 37.8386Z" fill="#78C692"/>
<path fill-rule="evenodd" clip-rule="evenodd" d="M20.598 32.8166C20.5463 32.7869 20.4834 32.7874 20.4324 32.8166C20.1837 32.9599 19.8772 32.9599 19.6279 32.8166C19.5763 32.7869 19.5129 32.7863 19.4612 32.8166L12.0378 37.0922C11.9868 37.1218 11.9553 37.1767 11.9559 37.2361C11.9559 37.2949 11.9873 37.3498 12.0384 37.3789C12.1473 37.4416 12.2147 37.5575 12.2147 37.683C12.2147 37.8084 12.1473 37.9243 12.0384 37.987C11.9873 38.0167 11.9559 38.0716 11.9553 38.1304C11.9553 38.1898 11.9868 38.2441 12.039 38.2738C13.1145 38.8931 15.0316 39.9974 15.9724 40.5395C16.0229 40.5686 16.0869 40.5692 16.138 40.5395C16.4276 40.3726 16.7852 40.3726 17.0755 40.5395C17.126 40.5686 17.19 40.5692 17.2411 40.5395C18.7359 39.6788 22.8692 37.2982 24.5982 36.302C24.6493 36.2723 24.6807 36.2174 24.6813 36.1586C24.6813 36.0993 24.6493 36.045 24.5976 36.0153C24.4887 35.9526 24.4214 35.8366 24.4219 35.7118C24.4219 35.5863 24.4882 35.4698 24.5971 35.4071C24.6481 35.3774 24.6807 35.3231 24.6801 35.2638C24.6801 35.2044 24.6487 35.1501 24.5976 35.121C23.4957 34.4865 21.5113 33.3435 20.5974 32.8171L20.598 32.8166ZM20.5104 33.1481L24.2339 35.2923C24.1424 35.4099 24.0907 35.5566 24.0902 35.7106C24.0902 35.8646 24.1418 36.0108 24.2339 36.129L17.154 40.2069C16.8082 40.0417 16.4046 40.0411 16.0588 40.2069L12.4022 38.1007C12.4937 37.9831 12.5453 37.8364 12.5459 37.6824C12.5459 37.5284 12.4942 37.3822 12.4022 37.2641L19.5488 33.1481C19.8542 33.2903 20.2061 33.2903 20.5104 33.1481Z" fill="white"/>
<path d="M20.1859 37.4853L19.7722 37.7238C19.7598 37.7311 19.7469 37.7306 19.7346 37.7238L19.4578 37.5642C19.2501 37.6286 19.0256 37.6505 18.7847 37.6303C18.5439 37.6107 18.3351 37.5497 18.1599 37.4489L17.9809 37.3458C17.968 37.338 17.9663 37.3302 17.9786 37.3234L18.4131 37.0731C18.4227 37.0675 18.4345 37.0692 18.4479 37.077L18.627 37.1801C18.7106 37.2282 18.8139 37.2534 18.9346 37.2557C19.0548 37.2568 19.1547 37.235 19.2338 37.1896C19.3158 37.1426 19.354 37.0849 19.3483 37.0171C19.3422 36.9494 19.3001 36.8928 19.2248 36.8497C19.126 36.7926 18.979 36.7797 18.7853 36.811C18.7179 36.8206 18.6169 36.8374 18.4794 36.8614C18.3424 36.885 18.2155 36.9074 18.0988 36.9275C17.8664 36.965 17.6514 36.9662 17.4521 36.9298C17.2539 36.8939 17.0748 36.8301 16.9126 36.7371C16.7347 36.6346 16.6314 36.5159 16.6027 36.3804C16.5741 36.2449 16.6134 36.1194 16.7223 36.0035L16.4456 35.8439C16.4332 35.8366 16.4338 35.8288 16.4478 35.821L16.8615 35.5824C16.8772 35.5734 16.8913 35.5729 16.9036 35.5796L17.1854 35.742C17.3836 35.681 17.5997 35.6608 17.8327 35.6793C18.0662 35.6989 18.2689 35.7577 18.4406 35.8568L18.7589 36.0399C18.7685 36.0455 18.7685 36.0506 18.7589 36.0562L18.3216 36.3082C18.3121 36.3138 18.3031 36.3138 18.2936 36.3082L17.9708 36.1273C17.8793 36.0746 17.7765 36.0494 17.662 36.0511C17.5475 36.0528 17.4521 36.0758 17.3757 36.1194C17.2994 36.1631 17.2595 36.2214 17.264 36.288C17.2685 36.3546 17.3123 36.4123 17.3943 36.4594C17.4734 36.5047 17.5587 36.5338 17.6491 36.5456C17.7395 36.5574 17.8585 36.5534 18.0033 36.5316L18.6169 36.4297C18.8167 36.395 19.007 36.386 19.1867 36.4028C19.3663 36.4196 19.5358 36.4739 19.693 36.5646C19.8749 36.6694 19.9821 36.7875 20.0152 36.9202C20.0489 37.053 20.0124 37.179 19.9069 37.2982L20.1887 37.4606C20.201 37.4679 20.1999 37.4758 20.1842 37.4847L20.1859 37.4853Z" fill="white"/>
<path fill-rule="evenodd" clip-rule="evenodd" d="M10.3464 37.2764L20.402 31.4849L26.4938 34.9933L16.4383 40.7848L10.3464 37.2764Z" fill="#4CAB6D"/>
<path fill-rule="evenodd" clip-rule="evenodd" d="M20.7 32.2543C20.6484 32.2246 20.5855 32.2252 20.5344 32.2543C20.2857 32.3977 19.9792 32.3977 19.73 32.2543C19.6783 32.2246 19.6149 32.2241 19.5633 32.2543L12.1399 36.5299C12.0888 36.5596 12.0574 36.6145 12.0579 36.6738C12.0579 36.7326 12.0894 36.7875 12.1405 36.8166C12.2494 36.8794 12.3167 36.9953 12.3167 37.1207C12.3167 37.2462 12.2494 37.3621 12.1405 37.4248C12.0894 37.4545 12.0579 37.5094 12.0574 37.5682C12.0574 37.6275 12.0888 37.6818 12.141 37.7115C13.2166 38.3309 15.1336 39.4352 16.0744 39.9773C16.125 40.0064 16.189 40.007 16.24 39.9773C16.5297 39.8104 16.8873 39.8104 17.1775 39.9773C17.228 40.0064 17.292 40.007 17.3431 39.9773C18.838 39.1166 22.9713 36.736 24.7002 35.7398C24.7513 35.7101 24.7828 35.6552 24.7833 35.5964C24.7833 35.537 24.7513 35.4827 24.6997 35.453C24.5908 35.3903 24.5234 35.2744 24.524 35.1495C24.524 35.0241 24.5902 34.9076 24.6991 34.8449C24.7502 34.8152 24.7828 34.7609 24.7822 34.7015C24.7822 34.6422 24.7508 34.5878 24.6997 34.5587C23.5977 33.9242 21.6133 32.7813 20.6995 32.2549L20.7 32.2543ZM20.6124 32.5858L24.3359 34.7301C24.2444 34.8477 24.1928 34.9944 24.1922 35.1484C24.1922 35.3024 24.2439 35.4486 24.3359 35.5667L17.2561 39.6446C16.9103 39.4794 16.5067 39.4789 16.1609 39.6446L12.5042 37.5385C12.5957 37.4209 12.6474 37.2742 12.6479 37.1202C12.6479 36.9662 12.5963 36.82 12.5042 36.7018L19.6508 32.5858C19.9562 32.7281 20.3082 32.7281 20.6124 32.5858Z" fill="white"/>
<path d="M20.2874 36.923L19.8737 37.1616C19.8614 37.1689 19.8485 37.1683 19.8361 37.1616L19.5594 37.002C19.3517 37.0664 19.1271 37.0882 18.8863 37.0681C18.6455 37.0485 18.4367 36.9874 18.2615 36.8866L18.0824 36.7836C18.0695 36.7758 18.0678 36.7679 18.0802 36.7612L18.5147 36.5109C18.5242 36.5053 18.536 36.507 18.5495 36.5148L18.7286 36.6178C18.8122 36.666 18.9155 36.6912 19.0362 36.6934C19.1563 36.6946 19.2562 36.6727 19.3354 36.6274C19.4173 36.5803 19.4555 36.5226 19.4499 36.4549C19.4437 36.3871 19.4016 36.3306 19.3264 36.2874C19.2276 36.2303 19.0805 36.2174 18.8869 36.2488C18.8195 36.2583 18.7185 36.2751 18.5809 36.2992C18.444 36.3227 18.3171 36.3451 18.2003 36.3653C17.9679 36.4028 17.7529 36.4039 17.5536 36.3675C17.3555 36.3317 17.1764 36.2678 17.0142 36.1749C16.8362 36.0724 16.7329 35.9537 16.7043 35.8182C16.6757 35.6826 16.715 35.5572 16.8239 35.4413L16.5471 35.2817C16.5348 35.2744 16.5353 35.2666 16.5494 35.2587L16.9631 35.0202C16.9788 35.0112 16.9928 35.0106 17.0052 35.0174L17.287 35.1798C17.4852 35.1187 17.7013 35.0986 17.9342 35.117C18.1678 35.1366 18.3704 35.1954 18.5422 35.2946L18.8605 35.4777C18.87 35.4833 18.87 35.4883 18.8605 35.4939L18.4232 35.7459C18.4136 35.7515 18.4047 35.7515 18.3951 35.7459L18.0723 35.565C17.9808 35.5124 17.8781 35.4872 17.7636 35.4889C17.6491 35.4906 17.5536 35.5135 17.4773 35.5572C17.3981 35.6026 17.3611 35.6591 17.3656 35.7258C17.3701 35.7924 17.4139 35.8501 17.4958 35.8971C17.575 35.9425 17.6603 35.9716 17.7507 35.9834C17.8411 35.9951 17.9601 35.9912 18.1049 35.9694L18.7185 35.8674C18.9183 35.8327 19.1086 35.8238 19.2882 35.8406C19.4679 35.8574 19.6374 35.9117 19.7946 36.0024C19.9765 36.1071 20.0837 36.2253 20.1168 36.358C20.1505 36.4907 20.114 36.6167 20.0085 36.736L20.2903 36.8984C20.3026 36.9057 20.3015 36.9135 20.2858 36.9225L20.2874 36.923Z" fill="white"/>
<path fill-rule="evenodd" clip-rule="evenodd" d="M10.3464 36.4958L20.402 30.7042L26.4938 34.2132L16.4383 40.0047L10.3464 36.4958Z" fill="#78C692"/>
<path fill-rule="evenodd" clip-rule="evenodd" d="M20.7 31.4742C20.6484 31.4446 20.5855 31.4451 20.5344 31.4742C20.2857 31.6176 19.9792 31.6176 19.73 31.4742C19.6783 31.4446 19.6149 31.444 19.5633 31.4742L12.1399 35.7498C12.0888 35.7795 12.0574 35.8344 12.0579 35.8938C12.0579 35.9526 12.0894 36.0074 12.1405 36.0366C12.2494 36.0993 12.3167 36.2152 12.3167 36.3406C12.3167 36.4661 12.2494 36.582 12.1405 36.6447C12.0894 36.6744 12.0579 36.7293 12.0574 36.7881C12.0574 36.8474 12.0888 36.9018 12.141 36.9314C13.2166 37.5508 15.1336 38.6551 16.0744 39.1972C16.125 39.2263 16.189 39.2269 16.24 39.1972C16.5297 39.0303 16.8873 39.0303 17.1775 39.1972C17.228 39.2263 17.292 39.2269 17.3431 39.1972C18.838 38.3365 22.9713 35.9559 24.7002 34.9597C24.7513 34.93 24.7828 34.8751 24.7833 34.8163C24.7833 34.757 24.7513 34.7026 24.6997 34.673C24.5908 34.6102 24.5234 34.4943 24.524 34.3694C24.524 34.244 24.5902 34.1275 24.6991 34.0648C24.7502 34.0351 24.7828 33.9808 24.7822 33.9214C24.7822 33.8621 24.7508 33.8078 24.6997 33.7786C23.5977 33.1442 21.6133 32.0012 20.6995 31.4748L20.7 31.4742ZM20.6124 31.8058L24.3359 33.95C24.2444 34.0676 24.1928 34.2143 24.1922 34.3683C24.1922 34.5223 24.2439 34.6685 24.3359 34.7866L17.2561 38.8646C16.9103 38.6994 16.5067 38.6988 16.1609 38.8646L12.5042 36.7584C12.5957 36.6408 12.6474 36.4941 12.6479 36.3401C12.6479 36.1861 12.5963 36.0399 12.5042 35.9218L19.6508 31.8058C19.9562 31.948 20.3082 31.948 20.6124 31.8058Z" fill="white"/>
<path d="M20.2874 36.143L19.8737 36.3815C19.8614 36.3888 19.8485 36.3882 19.8361 36.3815L19.5594 36.2219C19.3517 36.2863 19.1271 36.3082 18.8863 36.288C18.6455 36.2684 18.4367 36.2074 18.2615 36.1066L18.0824 36.0035C18.0695 35.9957 18.0678 35.9878 18.0802 35.9811L18.5147 35.7308C18.5242 35.7252 18.536 35.7269 18.5495 35.7347L18.7286 35.8378C18.8122 35.8859 18.9155 35.9111 19.0362 35.9134C19.1563 35.9145 19.2562 35.8926 19.3354 35.8473C19.4173 35.8002 19.4555 35.7426 19.4499 35.6748C19.4437 35.607 19.4016 35.5505 19.3264 35.5074C19.2276 35.4502 19.0805 35.4374 18.8869 35.4687C18.8195 35.4782 18.7185 35.495 18.5809 35.5191C18.444 35.5426 18.3171 35.565 18.2003 35.5852C17.9679 35.6227 17.7529 35.6238 17.5536 35.5874C17.3555 35.5516 17.1764 35.4878 17.0142 35.3948C16.8362 35.2923 16.7329 35.1736 16.7043 35.0381C16.6757 34.9026 16.715 34.7771 16.8239 34.6612L16.5471 34.5016C16.5348 34.4943 16.5353 34.4865 16.5494 34.4786L16.9631 34.2401C16.9788 34.2311 16.9928 34.2306 17.0052 34.2373L17.287 34.3997C17.4852 34.3386 17.7013 34.3185 17.9342 34.337C18.1678 34.3566 18.3704 34.4154 18.5422 34.5145L18.8605 34.6976C18.87 34.7032 18.87 34.7082 18.8605 34.7138L18.4232 34.9658C18.4136 34.9714 18.4047 34.9714 18.3951 34.9658L18.0723 34.785C17.9808 34.7323 17.8781 34.7071 17.7636 34.7088C17.6491 34.7105 17.5536 34.7334 17.4773 34.7771C17.3981 34.8225 17.3611 34.879 17.3656 34.9457C17.3701 35.0123 17.4139 35.07 17.4958 35.117C17.575 35.1624 17.6603 35.1915 17.7507 35.2033C17.8411 35.215 17.9601 35.2111 18.1049 35.1893L18.7185 35.0874C18.9183 35.0526 19.1086 35.0437 19.2882 35.0605C19.4679 35.0773 19.6374 35.1316 19.7946 35.2223C19.9765 35.327 20.0837 35.4452 20.1168 35.5779C20.1505 35.7106 20.114 35.8366 20.0085 35.9559L20.2903 36.1183C20.3026 36.1256 20.3015 36.1334 20.2858 36.1424L20.2874 36.143Z" fill="white"/>
<path fill-rule="evenodd" clip-rule="evenodd" d="M10.4485 35.9335L20.5041 30.142L26.5953 33.6504L16.5398 39.4419L10.4485 35.9335Z" fill="#4CAB6D"/>
<path fill-rule="evenodd" clip-rule="evenodd" d="M20.8016 30.912C20.7499 30.8823 20.6871 30.8829 20.636 30.912C20.3873 31.0554 20.0808 31.0554 19.8316 30.912C19.7799 30.8823 19.7165 30.8818 19.6648 30.912L12.2415 35.1876C12.1904 35.2173 12.1589 35.2722 12.1595 35.3315C12.1595 35.3903 12.1909 35.4452 12.242 35.4743C12.3509 35.537 12.4183 35.653 12.4183 35.7784C12.4183 35.9038 12.3509 36.0198 12.242 36.0825C12.1909 36.1122 12.1595 36.167 12.1589 36.2258C12.1589 36.2852 12.1904 36.3395 12.2426 36.3692C13.3181 36.9886 15.2352 38.0929 16.176 38.635C16.2265 38.6641 16.2905 38.6646 16.3416 38.635C16.6313 38.4681 16.9888 38.4681 17.2791 38.635C17.3296 38.6641 17.3936 38.6646 17.4447 38.635C18.9396 37.7742 23.0728 35.3937 24.8018 34.3974C24.8529 34.3678 24.8843 34.3129 24.8849 34.2541C24.8849 34.1947 24.8529 34.1404 24.8012 34.1107C24.6923 34.048 24.625 33.9321 24.6255 33.8072C24.6255 33.6818 24.6918 33.5653 24.8007 33.5026C24.8518 33.4729 24.8843 33.4186 24.8838 33.3592C24.8838 33.2998 24.8523 33.2455 24.8012 33.2164C23.6993 32.5819 21.7149 31.439 20.801 30.9126L20.8016 30.912ZM20.714 31.2435L24.4375 33.3878C24.346 33.5054 24.2943 33.6521 24.2938 33.8061C24.2938 33.9601 24.3454 34.1062 24.4375 34.2244L17.3577 38.3023C17.0119 38.1371 16.6082 38.1366 16.2624 38.3023L12.6058 36.1962C12.6973 36.0786 12.7489 35.9318 12.7495 35.7778C12.7495 35.6238 12.6978 35.4777 12.6058 35.3595L19.7524 31.2435C20.0578 31.3858 20.4097 31.3858 20.714 31.2435Z" fill="white"/>
<path d="M20.3895 35.5807L19.9758 35.8193C19.9634 35.8266 19.9505 35.826 19.9382 35.8193L19.6614 35.6597C19.4537 35.7241 19.2292 35.7459 18.9884 35.7258C18.7475 35.7062 18.5387 35.6451 18.3636 35.5443L18.1845 35.4413C18.1716 35.4334 18.1699 35.4256 18.1822 35.4189L18.6167 35.1686C18.6263 35.163 18.6381 35.1646 18.6515 35.1725L18.8306 35.2755C18.9143 35.3237 19.0175 35.3489 19.1382 35.3511C19.2584 35.3522 19.3583 35.3304 19.4374 35.285C19.5194 35.238 19.5576 35.1803 19.552 35.1126C19.5458 35.0448 19.5037 34.9882 19.4285 34.9451C19.3297 34.888 19.1826 34.8751 18.9889 34.9065C18.9215 34.916 18.8205 34.9328 18.683 34.9569C18.546 34.9804 18.4191 35.0028 18.3024 35.023C18.07 35.0605 17.855 35.0616 17.6557 35.0252C17.4575 34.9894 17.2785 34.9255 17.1162 34.8326C16.9383 34.7301 16.835 34.6114 16.8064 34.4758C16.7777 34.3403 16.817 34.2149 16.9259 34.099L16.6492 33.9394C16.6368 33.9321 16.6374 33.9242 16.6514 33.9164L17.0651 33.6778C17.0809 33.6689 17.0949 33.6683 17.1072 33.675L17.389 33.8374C17.5872 33.7764 17.8033 33.7562 18.0363 33.7747C18.2698 33.7943 18.4725 33.8531 18.6442 33.9522L18.9625 34.1354C18.9721 34.141 18.9721 34.146 18.9625 34.1516L18.5252 34.4036C18.5157 34.4092 18.5067 34.4092 18.4972 34.4036L18.1744 34.2227C18.0829 34.1701 17.9802 34.1449 17.8656 34.1466C17.7511 34.1482 17.6557 34.1712 17.5793 34.2149C17.5002 34.2602 17.4631 34.3168 17.4676 34.3834C17.4721 34.4501 17.5159 34.5078 17.5979 34.5548C17.677 34.6002 17.7623 34.6293 17.8527 34.641C17.9431 34.6528 18.0621 34.6489 18.2069 34.627L18.8205 34.5251C19.0203 34.4904 19.2106 34.4814 19.3903 34.4982C19.5699 34.515 19.7394 34.5694 19.8966 34.6601C20.0785 34.7648 20.1857 34.883 20.2188 35.0157C20.252 35.1484 20.216 35.2744 20.1105 35.3937L20.3923 35.5561C20.4047 35.5634 20.4035 35.5712 20.3878 35.5802L20.3895 35.5807Z" fill="white"/>
<path fill-rule="evenodd" clip-rule="evenodd" d="M10.4485 35.1534L20.5041 29.3619L26.5953 32.8703L16.5398 38.6618L10.4485 35.1534Z" fill="#78C692"/>
<path fill-rule="evenodd" clip-rule="evenodd" d="M20.8016 30.1314C20.7499 30.1017 20.6871 30.1022 20.636 30.1314C20.3873 30.2747 20.0808 30.2747 19.8316 30.1314C19.7799 30.1017 19.7165 30.1011 19.6648 30.1314L12.2415 34.407C12.1904 34.4366 12.1589 34.4915 12.1595 34.5509C12.1595 34.6097 12.1909 34.6646 12.242 34.6937C12.3509 34.7564 12.4183 34.8723 12.4183 34.9978C12.4183 35.1232 12.3509 35.2391 12.242 35.3018C12.1909 35.3315 12.1595 35.3864 12.1589 35.4452C12.1589 35.5046 12.1904 35.5589 12.2426 35.5886C13.3181 36.2079 15.2352 37.3122 16.176 37.8543C16.2265 37.8834 16.2905 37.884 16.3416 37.8543C16.6313 37.6874 16.9888 37.6874 17.2791 37.8543C17.3296 37.8834 17.3936 37.884 17.4447 37.8543C18.9396 36.9936 23.0728 34.613 24.8018 33.6168C24.8529 33.5871 24.8843 33.5322 24.8849 33.4734C24.8849 33.4141 24.8529 33.3598 24.8012 33.3301C24.6923 33.2674 24.625 33.1514 24.6255 33.0266C24.6255 32.9011 24.6918 32.7846 24.8007 32.7219C24.8518 32.6922 24.8843 32.6379 24.8838 32.5786C24.8838 32.5192 24.8523 32.4649 24.8012 32.4358C23.6993 31.8013 21.7149 30.6583 20.801 30.1319L20.8016 30.1314ZM20.714 30.4629L24.4375 32.6071C24.346 32.7247 24.2943 32.8714 24.2938 33.0254C24.2938 33.1794 24.3454 33.3256 24.4375 33.4438L17.3577 37.5217C17.0119 37.3565 16.6082 37.3559 16.2624 37.5217L12.6058 35.4155C12.6973 35.2979 12.7489 35.1512 12.7495 34.9972C12.7495 34.8432 12.6978 34.697 12.6058 34.5789L19.7524 30.4629C20.0578 30.6051 20.4097 30.6051 20.714 30.4629Z" fill="white"/>
<path d="M20.3895 34.8001L19.9758 35.0386C19.9634 35.0459 19.9505 35.0454 19.9382 35.0386L19.6614 34.879C19.4537 34.9434 19.2292 34.9653 18.9884 34.9451C18.7475 34.9255 18.5387 34.8645 18.3636 34.7637L18.1845 34.6606C18.1716 34.6528 18.1699 34.645 18.1822 34.6382L18.6167 34.3879C18.6263 34.3823 18.6381 34.384 18.6515 34.3918L18.8306 34.4949C18.9143 34.543 19.0175 34.5682 19.1382 34.5705C19.2584 34.5716 19.3583 34.5498 19.4374 34.5044C19.5194 34.4574 19.5576 34.3997 19.552 34.3319C19.5458 34.2642 19.5037 34.2076 19.4285 34.1645C19.3297 34.1074 19.1826 34.0945 18.9889 34.1258C18.9215 34.1354 18.8205 34.1522 18.683 34.1762C18.546 34.1998 18.4191 34.2222 18.3024 34.2423C18.07 34.2798 17.855 34.281 17.6557 34.2446C17.4575 34.2087 17.2785 34.1449 17.1162 34.0519C16.9383 33.9494 16.835 33.8307 16.8064 33.6952C16.7777 33.5597 16.817 33.4342 16.9259 33.3183L16.6492 33.1587C16.6368 33.1514 16.6374 33.1436 16.6514 33.1358L17.0651 32.8972C17.0809 32.8882 17.0949 32.8877 17.1072 32.8944L17.389 33.0568C17.5872 32.9958 17.8033 32.9756 18.0363 32.9941C18.2698 33.0137 18.4725 33.0725 18.6442 33.1716L18.9625 33.3547C18.9721 33.3603 18.9721 33.3654 18.9625 33.371L18.5252 33.623C18.5157 33.6286 18.5067 33.6286 18.4972 33.623L18.1744 33.4421C18.0829 33.3894 17.9802 33.3642 17.8656 33.3659C17.7511 33.3676 17.6557 33.3906 17.5793 33.4342C17.5002 33.4796 17.4631 33.5362 17.4676 33.6028C17.4721 33.6694 17.5159 33.7271 17.5979 33.7742C17.677 33.8195 17.7623 33.8486 17.8527 33.8604C17.9431 33.8722 18.0621 33.8682 18.2069 33.8464L18.8205 33.7445C19.0203 33.7098 19.2106 33.7008 19.3903 33.7176C19.5699 33.7344 19.7394 33.7887 19.8966 33.8794C20.0785 33.9842 20.1857 34.1023 20.2188 34.235C20.2525 34.3678 20.216 34.4938 20.1105 34.613L20.3923 34.7754C20.4047 34.7827 20.4035 34.7906 20.3878 34.7995L20.3895 34.8001Z" fill="white"/>
<path fill-rule="evenodd" clip-rule="evenodd" d="M20.5815 44.4321L30.6371 38.6406L36.729 42.149L26.6734 47.9405L20.5815 44.4321Z" fill="#4CAB6D"/>
<path fill-rule="evenodd" clip-rule="evenodd" d="M30.9351 39.41C30.8835 39.3803 30.8206 39.3809 30.7695 39.41C30.5208 39.5534 30.2143 39.5534 29.9651 39.41C29.9135 39.3803 29.85 39.3798 29.7984 39.41L22.375 43.6856C22.3239 43.7153 22.2925 43.7702 22.293 43.8295C22.293 43.8883 22.3245 43.9432 22.3756 43.9723C22.4845 44.035 22.5518 44.151 22.5518 44.2764C22.5518 44.4018 22.4845 44.5178 22.3756 44.5805C22.3245 44.6102 22.293 44.665 22.2925 44.7238C22.2925 44.7832 22.3239 44.8375 22.3761 44.8672C23.4517 45.4866 25.3687 46.5909 26.3095 47.133C26.3601 47.1621 26.4241 47.1626 26.4751 47.133C26.7648 46.9661 27.1224 46.9661 27.4126 47.133C27.4631 47.1621 27.5271 47.1626 27.5782 47.133C29.0731 46.2722 33.2064 43.8917 34.9353 42.8954C34.9864 42.8658 35.0179 42.8109 35.0184 42.7521C35.0184 42.6927 34.9864 42.6384 34.9348 42.6087C34.8259 42.546 34.7585 42.4301 34.7591 42.3052C34.7591 42.1798 34.8253 42.0633 34.9342 42.0006C34.9853 41.9709 35.0179 41.9166 35.0173 41.8572C35.0173 41.7978 34.9859 41.7435 34.9348 41.7144C33.8328 41.0799 31.8484 39.937 30.9346 39.4106L30.9351 39.41ZM30.8476 39.7415L34.571 41.8858C34.4795 42.0034 34.4279 42.1501 34.4273 42.3041C34.4273 42.4581 34.479 42.6042 34.571 42.7224L27.4912 46.8003C27.1454 46.6351 26.7418 46.6346 26.396 46.8003L22.7393 44.6942C22.8308 44.5766 22.8825 44.4298 22.883 44.2758C22.883 44.1218 22.8314 43.9757 22.7393 43.8575L29.8859 39.7415C30.1913 39.8838 30.5433 39.8838 30.8476 39.7415Z" fill="white"/>
<path d="M30.5226 44.0787L30.1088 44.3173C30.0965 44.3246 30.0836 44.324 30.0712 44.3173L29.7945 44.1577C29.5868 44.2221 29.3622 44.2439 29.1214 44.2238C28.8806 44.2042 28.6718 44.1431 28.4966 44.0423L28.3175 43.9393C28.3046 43.9314 28.303 43.9236 28.3153 43.9169L28.7498 43.6666C28.7593 43.661 28.7711 43.6626 28.7846 43.6705L28.9637 43.7735C29.0473 43.8217 29.1506 43.8469 29.2713 43.8491C29.3914 43.8502 29.4913 43.8284 29.5705 43.783C29.6525 43.736 29.6906 43.6783 29.685 43.6106C29.6788 43.5428 29.6367 43.4862 29.5615 43.4431C29.4627 43.386 29.3156 43.3731 29.122 43.4045C29.0546 43.414 28.9536 43.4308 28.816 43.4549C28.6791 43.4784 28.5522 43.5008 28.4354 43.521C28.203 43.5585 27.988 43.5596 27.7887 43.5232C27.5906 43.4874 27.4115 43.4235 27.2493 43.3306C27.0713 43.2281 26.968 43.1094 26.9394 42.9738C26.9108 42.8383 26.9501 42.7129 27.059 42.597L26.7822 42.4374C26.7699 42.4301 26.7704 42.4222 26.7845 42.4144L27.1982 42.1758C27.2139 42.1669 27.228 42.1663 27.2403 42.173L27.5221 42.3354C27.7203 42.2744 27.9364 42.2542 28.1693 42.2727C28.4029 42.2923 28.6055 42.3511 28.7773 42.4502L29.0956 42.6334C29.1051 42.639 29.1051 42.644 29.0956 42.6496L28.6583 42.9016C28.6487 42.9072 28.6398 42.9072 28.6302 42.9016L28.3074 42.7207C28.2159 42.6681 28.1132 42.6429 27.9987 42.6446C27.8842 42.6462 27.7887 42.6692 27.7124 42.7129C27.6361 42.7566 27.5962 42.8148 27.6007 42.8814C27.6052 42.9481 27.649 43.0058 27.7309 43.0528C27.8101 43.0982 27.8954 43.1273 27.9858 43.139C28.0762 43.1508 28.1952 43.1469 28.34 43.125L28.9536 43.0231C29.1534 42.9884 29.3437 42.9794 29.5233 42.9962C29.703 43.013 29.8725 43.0674 30.0297 43.1581C30.2116 43.2628 30.3188 43.381 30.3519 43.5137C30.3856 43.6464 30.3491 43.7724 30.2436 43.8917L30.5254 44.0541C30.5377 44.0614 30.5366 44.0692 30.5209 44.0782L30.5226 44.0787Z" fill="white"/>
<path fill-rule="evenodd" clip-rule="evenodd" d="M20.5815 43.652L30.6371 37.8605L36.729 41.3689L26.6734 47.1604L20.5815 43.652Z" fill="#78C692"/>
<path fill-rule="evenodd" clip-rule="evenodd" d="M30.9351 38.6299C30.8835 38.6002 30.8206 38.6008 30.7695 38.6299C30.5208 38.7733 30.2143 38.7733 29.9651 38.6299C29.9135 38.6002 29.85 38.5997 29.7984 38.6299L22.375 42.9055C22.3239 42.9352 22.2925 42.9901 22.293 43.0494C22.293 43.1082 22.3245 43.1631 22.3756 43.1922C22.4845 43.255 22.5518 43.3709 22.5518 43.4963C22.5518 43.6218 22.4845 43.7377 22.3756 43.8004C22.3245 43.8301 22.293 43.885 22.2925 43.9438C22.2925 44.0031 22.3239 44.0574 22.3761 44.0871C23.4517 44.7065 25.3687 45.8108 26.3095 46.3529C26.3601 46.382 26.4241 46.3826 26.4751 46.3529C26.7648 46.186 27.1224 46.186 27.4126 46.3529C27.4631 46.382 27.5271 46.3826 27.5782 46.3529C29.0731 45.4922 33.2064 43.1116 34.9353 42.1154C34.9864 42.0857 35.0179 42.0308 35.0184 41.972C35.0184 41.9126 34.9864 41.8583 34.9348 41.8286C34.8259 41.7659 34.7585 41.65 34.7591 41.5251C34.7591 41.3997 34.8253 41.2832 34.9342 41.2205C34.9853 41.1908 35.0179 41.1365 35.0173 41.0771C35.0173 41.0178 34.9859 40.9634 34.9348 40.9343C33.8328 40.2998 31.8484 39.1569 30.9346 38.6305L30.9351 38.6299ZM30.8476 38.9614L34.571 41.1057C34.4795 41.2233 34.4279 41.37 34.4273 41.524C34.4273 41.678 34.479 41.8242 34.571 41.9423L27.4912 46.0202C27.1454 45.855 26.7418 45.8545 26.396 46.0202L22.7393 43.9141C22.8308 43.7965 22.8825 43.6498 22.883 43.4958C22.883 43.3418 22.8314 43.1956 22.7393 43.0774L29.8859 38.9614C30.1913 39.1037 30.5433 39.1037 30.8476 38.9614Z" fill="white"/>
<path d="M30.5226 43.2986L30.1088 43.5372C30.0965 43.5445 30.0836 43.5439 30.0712 43.5372L29.7945 43.3776C29.5868 43.442 29.3622 43.4638 29.1214 43.4437C28.8806 43.4241 28.6718 43.363 28.4966 43.2622L28.3175 43.1592C28.3046 43.1514 28.303 43.1435 28.3153 43.1368L28.7498 42.8865C28.7593 42.8809 28.7711 42.8826 28.7846 42.8904L28.9637 42.9934C29.0473 43.0416 29.1506 43.0668 29.2713 43.069C29.3914 43.0702 29.4913 43.0483 29.5705 43.003C29.6525 42.9559 29.6906 42.8982 29.685 42.8305C29.6788 42.7627 29.6367 42.7062 29.5615 42.663C29.4627 42.6059 29.3156 42.593 29.122 42.6244C29.0546 42.6339 28.9536 42.6507 28.816 42.6748C28.6791 42.6983 28.5522 42.7207 28.4354 42.7409C28.203 42.7784 27.988 42.7795 27.7887 42.7431C27.5906 42.7073 27.4115 42.6434 27.2493 42.5505C27.0713 42.448 26.968 42.3293 26.9394 42.1938C26.9108 42.0582 26.9501 41.9328 27.059 41.8169L26.7822 41.6573C26.7699 41.65 26.7704 41.6422 26.7845 41.6343L27.1982 41.3958C27.2139 41.3868 27.228 41.3862 27.2403 41.393L27.5221 41.5554C27.7203 41.4943 27.9364 41.4742 28.1693 41.4926C28.4029 41.5122 28.6055 41.571 28.7773 41.6702L29.0956 41.8533C29.1051 41.8589 29.1051 41.8639 29.0956 41.8695L28.6583 42.1215C28.6487 42.1271 28.6398 42.1271 28.6302 42.1215L28.3074 41.9406C28.2159 41.888 28.1132 41.8628 27.9987 41.8645C27.8842 41.8662 27.7887 41.8891 27.7124 41.9328C27.6361 41.9765 27.5962 42.0347 27.6007 42.1014C27.6052 42.168 27.649 42.2257 27.7309 42.2727C27.8101 42.3181 27.8954 42.3472 27.9858 42.359C28.0762 42.3707 28.1952 42.3668 28.34 42.345L28.9536 42.243C29.1534 42.2083 29.3437 42.1994 29.5233 42.2162C29.703 42.233 29.8725 42.2873 30.0297 42.378C30.2116 42.4827 30.3188 42.6009 30.3519 42.7336C30.385 42.8663 30.3491 42.9923 30.2436 43.1116L30.5254 43.274C30.5377 43.2813 30.5366 43.2891 30.5209 43.2981L30.5226 43.2986Z" fill="white"/>
<path fill-rule="evenodd" clip-rule="evenodd" d="M20.6838 43.0898L30.7394 37.2977L36.8313 40.8066L26.7757 46.5982L20.6838 43.0898Z" fill="#4CAB6D"/>
<path fill-rule="evenodd" clip-rule="evenodd" d="M31.0369 38.0677C30.9853 38.038 30.9224 38.0386 30.8713 38.0677C30.6226 38.211 30.3161 38.211 30.0669 38.0677C30.0153 38.038 29.9518 38.0374 29.9002 38.0677L22.4768 42.3433C22.4257 42.373 22.3943 42.4278 22.3948 42.4872C22.3948 42.546 22.4263 42.6009 22.4774 42.63C22.5863 42.6927 22.6536 42.8086 22.6536 42.9341C22.6536 43.0595 22.5863 43.1754 22.4774 43.2382C22.4263 43.2678 22.3948 43.3227 22.3943 43.3815C22.3943 43.4409 22.4257 43.4952 22.4779 43.5249C23.5535 44.1442 25.4705 45.2486 26.4114 45.7906C26.4619 45.8198 26.5259 45.8203 26.577 45.7906C26.8666 45.6238 27.2242 45.6238 27.5144 45.7906C27.5649 45.8198 27.6289 45.8203 27.68 45.7906C29.1749 44.9299 33.3082 42.5494 35.0372 41.5531C35.0882 41.5234 35.1197 41.4686 35.1202 41.4098C35.1202 41.3504 35.0882 41.2961 35.0366 41.2664C34.9277 41.2037 34.8603 41.0878 34.8609 40.9629C34.8609 40.8374 34.9271 40.721 35.036 40.6582C35.0871 40.6286 35.1197 40.5742 35.1191 40.5149C35.1191 40.4555 35.0877 40.4012 35.0366 40.3721C33.9347 39.7376 31.9503 38.5946 31.0364 38.0682L31.0369 38.0677ZM30.9494 38.3992L34.6728 40.5434C34.5813 40.661 34.5297 40.8078 34.5291 40.9618C34.5291 41.1158 34.5808 41.2619 34.6728 41.3801L27.593 45.458C27.2472 45.2928 26.8436 45.2922 26.4978 45.458L22.8411 43.3518C22.9326 43.2342 22.9843 43.0875 22.9848 42.9335C22.9848 42.7795 22.9332 42.6334 22.8411 42.5152L29.9878 38.3992C30.2931 38.5414 30.6451 38.5414 30.9494 38.3992Z" fill="white"/>
<path d="M30.6248 42.7364L30.2111 42.975C30.1988 42.9822 30.1859 42.9817 30.1735 42.975L29.8968 42.8154C29.6891 42.8798 29.4645 42.9016 29.2237 42.8814C28.9829 42.8618 28.7741 42.8008 28.5989 42.7L28.4198 42.597C28.4069 42.5891 28.4052 42.5813 28.4176 42.5746L28.8521 42.3242C28.8616 42.3186 28.8734 42.3203 28.8869 42.3282L29.066 42.4312C29.1496 42.4794 29.2529 42.5046 29.3736 42.5068C29.4937 42.5079 29.5936 42.4861 29.6728 42.4407C29.7519 42.3954 29.7929 42.336 29.7873 42.2682C29.7811 42.2005 29.739 42.1439 29.6638 42.1008C29.565 42.0437 29.4179 42.0308 29.2243 42.0622C29.1569 42.0717 29.0559 42.0885 28.9183 42.1126C28.7814 42.1361 28.6545 42.1585 28.5377 42.1786C28.3053 42.2162 28.0903 42.2173 27.891 42.1809C27.6929 42.145 27.5138 42.0812 27.3516 41.9882C27.1736 41.8858 27.0703 41.767 27.0417 41.6315C27.0131 41.496 27.0524 41.3706 27.1613 41.2546L26.8845 41.095C26.8722 41.0878 26.8727 41.0799 26.8868 41.0721L27.3005 40.8335C27.3162 40.8246 27.3302 40.824 27.3426 40.8307L27.6244 40.9931C27.8226 40.9321 28.0387 40.9119 28.2716 40.9304C28.5052 40.95 28.7078 41.0088 28.8796 41.1079L29.1979 41.291C29.2074 41.2966 29.2074 41.3017 29.1979 41.3073L28.7606 41.5593C28.751 41.5649 28.7421 41.5649 28.7325 41.5593L28.4097 41.3784C28.3182 41.3258 28.2155 41.3006 28.101 41.3022C27.9865 41.3039 27.891 41.3269 27.8147 41.3706C27.7384 41.4142 27.6985 41.4725 27.703 41.5391C27.7075 41.6058 27.7513 41.6634 27.8332 41.7105C27.9152 41.7575 27.9977 41.785 28.0881 41.7967C28.1785 41.8085 28.2975 41.8046 28.4423 41.7827L29.0559 41.6808C29.2557 41.6461 29.446 41.6371 29.6256 41.6539C29.8053 41.6707 29.9748 41.725 30.132 41.8158C30.3139 41.9205 30.4211 42.0386 30.4542 42.1714C30.4879 42.3041 30.4514 42.4301 30.3459 42.5494L30.6277 42.7118C30.64 42.719 30.6389 42.7269 30.6232 42.7358L30.6248 42.7364Z" fill="white"/>
<path fill-rule="evenodd" clip-rule="evenodd" d="M20.6838 42.3091L30.7394 36.5176L36.8313 40.026L26.7757 45.8181L20.6838 42.3091Z" fill="#78C692"/>
<path fill-rule="evenodd" clip-rule="evenodd" d="M31.0369 37.2876C30.9853 37.2579 30.9224 37.2585 30.8713 37.2876C30.6226 37.431 30.3161 37.431 30.0669 37.2876C30.0153 37.2579 29.9518 37.2574 29.9002 37.2876L22.4768 41.5632C22.4257 41.5929 22.3943 41.6478 22.3948 41.7071C22.3948 41.7659 22.4263 41.8208 22.4774 41.8499C22.5863 41.9126 22.6536 42.0286 22.6536 42.154C22.6536 42.2794 22.5863 42.3954 22.4774 42.4581C22.4263 42.4878 22.3948 42.5426 22.3943 42.6014C22.3943 42.6608 22.4257 42.7151 22.4779 42.7448C23.5535 43.3642 25.4705 44.4685 26.4114 45.0106C26.4619 45.0397 26.5259 45.0402 26.577 45.0106C26.8666 44.8437 27.2242 44.8437 27.5144 45.0106C27.5649 45.0397 27.6289 45.0402 27.68 45.0106C29.1749 44.1498 33.3082 41.7693 35.0372 40.773C35.0882 40.7434 35.1197 40.6885 35.1202 40.6297C35.1202 40.5703 35.0882 40.516 35.0366 40.4863C34.9277 40.4236 34.8603 40.3077 34.8609 40.1828C34.8609 40.0574 34.9271 39.9409 35.036 39.8782C35.0871 39.8485 35.1197 39.7942 35.1191 39.7348C35.1191 39.6754 35.0877 39.6211 35.0366 39.592C33.9347 38.9575 31.9503 37.8146 31.0364 37.2882L31.0369 37.2876ZM30.9494 37.6191L34.6728 39.7634C34.5813 39.881 34.5297 40.0277 34.5291 40.1817C34.5291 40.3357 34.5808 40.4818 34.6728 40.6L27.593 44.6779C27.2472 44.5127 26.8436 44.5122 26.4978 44.6779L22.8411 42.5718C22.9326 42.4542 22.9843 42.3074 22.9848 42.1534C22.9848 41.9994 22.9332 41.8533 22.8411 41.7351L29.9878 37.6191C30.2931 37.7614 30.6451 37.7614 30.9494 37.6191Z" fill="white"/>
<path d="M30.6248 41.9563L30.2111 42.1949C30.1988 42.2022 30.1859 42.2016 30.1735 42.1949L29.8968 42.0353C29.6891 42.0997 29.4645 42.1215 29.2237 42.1014C28.9829 42.0818 28.7741 42.0207 28.5989 41.9199L28.4198 41.8169C28.4069 41.809 28.4052 41.8012 28.4176 41.7945L28.8521 41.5442C28.8616 41.5386 28.8734 41.5402 28.8869 41.5481L29.066 41.6511C29.1496 41.6993 29.2529 41.7245 29.3736 41.7267C29.4937 41.7278 29.5936 41.706 29.6728 41.6606C29.7547 41.6136 29.7929 41.5559 29.7873 41.4882C29.7811 41.4204 29.739 41.3638 29.6638 41.3207C29.565 41.2636 29.4179 41.2507 29.2243 41.2821C29.1569 41.2916 29.0559 41.3084 28.9183 41.3325C28.7814 41.356 28.6545 41.3784 28.5377 41.3986C28.3053 41.4361 28.0903 41.4372 27.891 41.4008C27.6929 41.365 27.5138 41.3011 27.3516 41.2082C27.1736 41.1057 27.0703 40.987 27.0417 40.8514C27.0131 40.7159 27.0524 40.5905 27.1613 40.4746L26.8845 40.315C26.8722 40.3077 26.8727 40.2998 26.8868 40.292L27.3005 40.0534C27.3162 40.0445 27.3302 40.0439 27.3426 40.0506L27.6244 40.213C27.8226 40.152 28.0387 40.1318 28.2716 40.1503C28.5052 40.1699 28.7078 40.2287 28.8796 40.3278L29.1979 40.511C29.2074 40.5166 29.2074 40.5216 29.1979 40.5272L28.7606 40.7792C28.751 40.7848 28.7421 40.7848 28.7325 40.7792L28.4097 40.5983C28.3182 40.5457 28.2155 40.5205 28.101 40.5222C27.9865 40.5238 27.891 40.5468 27.8147 40.5905C27.7384 40.6342 27.6985 40.6924 27.703 40.759C27.7075 40.8257 27.7513 40.8834 27.8332 40.9304C27.9152 40.9774 27.9977 41.0049 28.0881 41.0166C28.1785 41.0284 28.2975 41.0245 28.4423 41.0026L29.0559 40.9007C29.2557 40.866 29.446 40.857 29.6256 40.8738C29.8053 40.8906 29.9748 40.945 30.132 41.0357C30.3139 41.1404 30.4211 41.2586 30.4542 41.3913C30.4879 41.524 30.4514 41.65 30.3459 41.7693L30.6277 41.9317C30.64 41.939 30.6389 41.9468 30.6232 41.9558L30.6248 41.9563Z" fill="white"/>
<path fill-rule="evenodd" clip-rule="evenodd" d="M20.7854 41.7469L30.841 35.9554L36.9328 39.4638L26.8772 45.2553L20.7854 41.7469Z" fill="#4CAB6D"/>
<path fill-rule="evenodd" clip-rule="evenodd" d="M31.139 36.7254C31.0873 36.6957 31.0245 36.6962 30.9734 36.7254C30.7247 36.8687 30.4182 36.8687 30.169 36.7254C30.1173 36.6957 30.0539 36.6951 30.0022 36.7254L22.5789 41.001C22.5278 41.0306 22.4963 41.0855 22.4969 41.1449C22.4969 41.2037 22.5283 41.2586 22.5794 41.2877C22.6883 41.3504 22.7557 41.4663 22.7557 41.5918C22.7557 41.7172 22.6883 41.8331 22.5794 41.8958C22.5283 41.9255 22.4969 41.9804 22.4963 42.0392C22.4963 42.0986 22.5278 42.1529 22.58 42.1826C23.6555 42.8019 25.5726 43.9062 26.5134 44.4483C26.5639 44.4774 26.6279 44.478 26.679 44.4483C26.9687 44.2814 27.3262 44.2814 27.6165 44.4483C27.667 44.4774 27.731 44.478 27.7821 44.4483C29.277 43.5876 33.4102 41.207 35.1392 40.2108C35.1903 40.1811 35.2217 40.1262 35.2223 40.0674C35.2223 40.0081 35.1903 39.9538 35.1386 39.9241C35.0297 39.8614 34.9624 39.7454 34.9629 39.6206C34.9629 39.4951 35.0292 39.3786 35.1381 39.3159C35.1892 39.2862 35.2217 39.2319 35.2212 39.1726C35.2212 39.1132 35.1897 39.0589 35.1386 39.0298C34.0367 38.3953 32.0523 37.2523 31.1384 36.7259L31.139 36.7254ZM31.0514 37.0569L34.7749 39.2011C34.6834 39.3187 34.6317 39.4654 34.6312 39.6194C34.6312 39.7734 34.6828 39.9196 34.7749 40.0378L27.6951 44.1157C27.3493 43.9505 26.9456 43.9499 26.5999 44.1157L22.9432 42.0095C23.0347 41.8919 23.0863 41.7452 23.0869 41.5912C23.0869 41.4372 23.0352 41.291 22.9432 41.1729L30.0898 37.0569C30.3952 37.1991 30.7472 37.1991 31.0514 37.0569Z" fill="white"/>
<path d="M30.7264 41.3941L30.3127 41.6326C30.3003 41.6399 30.2874 41.6394 30.2751 41.6326L29.9983 41.473C29.7906 41.5374 29.5661 41.5593 29.3253 41.5391C29.0844 41.5195 28.8756 41.4585 28.7005 41.3577L28.5214 41.2546C28.5085 41.2468 28.5068 41.239 28.5192 41.2322L28.9536 40.9819C28.9632 40.9763 28.975 40.978 28.9885 40.9858L29.1675 41.0889C29.2512 41.137 29.3545 41.1622 29.4751 41.1645C29.5953 41.1656 29.6952 41.1438 29.7744 41.0984C29.8563 41.0514 29.8945 40.9937 29.8889 40.9259C29.8827 40.8582 29.8406 40.8016 29.7654 40.7585C29.6666 40.7014 29.5195 40.6885 29.3258 40.7198C29.2585 40.7294 29.1574 40.7462 29.0199 40.7702C28.8829 40.7938 28.756 40.8162 28.6393 40.8363C28.4069 40.8738 28.1919 40.875 27.9926 40.8386C27.7944 40.8027 27.6154 40.7389 27.4531 40.6459C27.2752 40.5434 27.1719 40.4247 27.1433 40.2892C27.1146 40.1537 27.1539 40.0282 27.2628 39.9123L26.9861 39.7527C26.9737 39.7454 26.9743 39.7376 26.9883 39.7298L27.4021 39.4912C27.4178 39.4822 27.4318 39.4817 27.4442 39.4884L27.726 39.6508C27.9241 39.5898 28.1402 39.5696 28.3732 39.5881C28.6067 39.6077 28.8094 39.6665 28.9812 39.7656L29.2994 39.9487C29.309 39.9543 29.309 39.9594 29.2994 39.965L28.8621 40.217C28.8526 40.2226 28.8436 40.2226 28.8341 40.217L28.5113 40.0361C28.4198 39.9834 28.3171 39.9582 28.2026 39.9599C28.088 39.9616 27.9926 39.9846 27.9163 40.0282C27.8371 40.0736 27.8001 40.1302 27.8046 40.1968C27.809 40.2634 27.8528 40.3211 27.9348 40.3682C28.0139 40.4135 28.0993 40.4426 28.1896 40.4544C28.28 40.4662 28.399 40.4622 28.5439 40.4404L29.1574 40.3385C29.3573 40.3038 29.5476 40.2948 29.7272 40.3116C29.9068 40.3284 30.0764 40.3827 30.2335 40.4734C30.4154 40.5782 30.5226 40.6963 30.5558 40.829C30.5894 40.9618 30.553 41.0878 30.4474 41.207L30.7292 41.3694C30.7416 41.3767 30.7404 41.3846 30.7247 41.3935L30.7264 41.3941Z" fill="white"/>
<path fill-rule="evenodd" clip-rule="evenodd" d="M20.7854 40.9668L30.841 35.1753L36.9328 38.6837L26.8772 44.4752L20.7854 40.9668Z" fill="#78C692"/>
<path fill-rule="evenodd" clip-rule="evenodd" d="M31.139 35.9447C31.0873 35.915 31.0245 35.9156 30.9734 35.9447C30.7247 36.0881 30.4182 36.0881 30.169 35.9447C30.1173 35.915 30.0539 35.9145 30.0022 35.9447L22.5789 40.2203C22.5278 40.25 22.4963 40.3049 22.4969 40.3642C22.4969 40.423 22.5283 40.4779 22.5794 40.507C22.6883 40.5698 22.7557 40.6857 22.7557 40.8111C22.7557 40.9366 22.6883 41.0525 22.5794 41.1152C22.5283 41.1449 22.4969 41.1998 22.4963 41.2586C22.4963 41.3179 22.5278 41.3722 22.58 41.4019C23.6555 42.0213 25.5726 43.1256 26.5134 43.6677C26.5639 43.6968 26.6279 43.6974 26.679 43.6677C26.9687 43.5008 27.3262 43.5008 27.6165 43.6677C27.667 43.6968 27.731 43.6974 27.7821 43.6677C29.277 42.807 33.4102 40.4264 35.1392 39.4302C35.1903 39.4005 35.2217 39.3456 35.2223 39.2868C35.2223 39.2274 35.1903 39.1731 35.1386 39.1434C35.0297 39.0807 34.9624 38.9648 34.9629 38.8399C34.9629 38.7145 35.0292 38.598 35.1381 38.5353C35.1892 38.5056 35.2217 38.4513 35.2212 38.3919C35.2212 38.3326 35.1897 38.2782 35.1386 38.2491C34.0367 37.6146 32.0523 36.4717 31.1384 35.9453L31.139 35.9447ZM31.0514 36.2762L34.7749 38.4205C34.6834 38.5381 34.6317 38.6848 34.6312 38.8388C34.6312 38.9928 34.6828 39.139 34.7749 39.2571L27.6951 43.335C27.3493 43.1698 26.9456 43.1693 26.5999 43.335L22.9432 41.2289C23.0347 41.1113 23.0863 40.9646 23.0869 40.8106C23.0869 40.6566 23.0352 40.5104 22.9432 40.3922L30.0898 36.2762C30.3952 36.4185 30.7472 36.4185 31.0514 36.2762Z" fill="white"/>
<path d="M30.7264 40.6134L30.3127 40.852C30.3003 40.8593 30.2874 40.8587 30.2751 40.852L29.9983 40.6924C29.7906 40.7568 29.5661 40.7786 29.3253 40.7585C29.0844 40.7389 28.8756 40.6778 28.7005 40.577L28.5214 40.474C28.5085 40.4662 28.5068 40.4583 28.5192 40.4516L28.9536 40.2013C28.9632 40.1957 28.975 40.1974 28.9885 40.2052L29.1675 40.3082C29.2512 40.3564 29.3545 40.3816 29.4751 40.3838C29.5953 40.385 29.6952 40.3631 29.7744 40.3178C29.8563 40.2707 29.8945 40.213 29.8889 40.1453C29.8827 40.0775 29.8406 40.021 29.7654 39.9778C29.6666 39.9207 29.5195 39.9078 29.3258 39.9392C29.2585 39.9487 29.1574 39.9655 29.0199 39.9896C28.8829 40.0131 28.756 40.0355 28.6393 40.0557C28.4069 40.0932 28.1919 40.0943 27.9926 40.0579C27.7944 40.0221 27.6154 39.9582 27.4531 39.8653C27.2752 39.7628 27.1719 39.6441 27.1433 39.5086C27.1146 39.373 27.1539 39.2476 27.2628 39.1317L26.9861 38.9721C26.9737 38.9648 26.9743 38.957 26.9883 38.9491L27.4021 38.7106C27.4178 38.7016 27.4318 38.701 27.4442 38.7078L27.726 38.8702C27.9241 38.8091 28.1402 38.789 28.3732 38.8074C28.6067 38.827 28.8094 38.8858 28.9812 38.985L29.2994 39.1681C29.309 39.1737 29.309 39.1787 29.2994 39.1843L28.8621 39.4363C28.8526 39.4419 28.8436 39.4419 28.8341 39.4363L28.5113 39.2554C28.4198 39.2028 28.3171 39.1776 28.2026 39.1793C28.088 39.181 27.9926 39.2039 27.9163 39.2476C27.8371 39.293 27.8001 39.3495 27.8046 39.4162C27.809 39.4828 27.8528 39.5405 27.9348 39.5875C28.0167 39.6346 28.0993 39.662 28.1896 39.6738C28.28 39.6855 28.399 39.6816 28.5439 39.6598L29.1574 39.5578C29.3573 39.5231 29.5476 39.5142 29.7272 39.531C29.9068 39.5478 30.0764 39.6021 30.2335 39.6928C30.4154 39.7975 30.5226 39.9157 30.5558 40.0484C30.5894 40.1811 30.553 40.3071 30.4474 40.4264L30.7292 40.5888C30.7416 40.5961 30.7404 40.6039 30.7247 40.6129L30.7264 40.6134Z" fill="white"/>
<path fill-rule="evenodd" clip-rule="evenodd" d="M30.9189 50.2454L40.9745 44.4539L47.0664 47.9623L37.0108 53.7538L30.9189 50.2454Z" fill="#4CAB6D"/>
<path fill-rule="evenodd" clip-rule="evenodd" d="M41.2725 45.2234C41.2209 45.1937 41.158 45.1942 41.1069 45.2234C40.8582 45.3667 40.5517 45.3667 40.3025 45.2234C40.2509 45.1937 40.1874 45.1931 40.1358 45.2234L32.7124 49.499C32.6613 49.5286 32.6299 49.5835 32.6304 49.6429C32.6304 49.7017 32.6619 49.7566 32.713 49.7857C32.8219 49.8484 32.8892 49.9643 32.8892 50.0898C32.8892 50.2152 32.8219 50.3311 32.713 50.3938C32.6619 50.4235 32.6304 50.4784 32.6299 50.5372C32.6299 50.5966 32.6613 50.6509 32.7135 50.6806C33.7891 51.2999 35.7061 52.4042 36.6469 52.9463C36.6975 52.9754 36.7615 52.976 36.8125 52.9463C37.1022 52.7794 37.4598 52.7794 37.75 52.9463C37.8005 52.9754 37.8645 52.976 37.9156 52.9463C39.4105 52.0856 43.5438 49.705 45.2727 48.7088C45.3238 48.6791 45.3553 48.6242 45.3558 48.5654C45.3558 48.5061 45.3238 48.4518 45.2722 48.4221C45.1633 48.3594 45.0959 48.2434 45.0965 48.1186C45.0965 47.9931 45.1627 47.8766 45.2716 47.8139C45.3227 47.7842 45.3553 47.7299 45.3547 47.6706C45.3547 47.6112 45.3233 47.5569 45.2722 47.5278C44.1702 46.8933 42.1858 45.7503 41.272 45.2239L41.2725 45.2234ZM41.1849 45.5549L44.9084 47.6991C44.8169 47.8167 44.7653 47.9634 44.7647 48.1174C44.7647 48.2714 44.8164 48.4176 44.9084 48.5358L37.8286 52.6137C37.4828 52.4485 37.0792 52.4479 36.7334 52.6137L33.0767 50.5075C33.1682 50.3899 33.2199 50.2432 33.2204 50.0892C33.2204 49.9352 33.1688 49.789 33.0767 49.6709L40.2233 45.5549C40.5287 45.6971 40.8807 45.6971 41.1849 45.5549Z" fill="white"/>
<path d="M40.86 49.8921L40.4462 50.1306C40.4339 50.1379 40.421 50.1374 40.4086 50.1306L40.1319 49.971C39.9242 50.0354 39.6996 50.0573 39.4588 50.0371C39.218 50.0175 39.0092 49.9565 38.834 49.8557L38.6549 49.7526C38.642 49.7448 38.6404 49.737 38.6527 49.7302L39.0872 49.4799C39.0967 49.4743 39.1085 49.476 39.122 49.4838L39.3011 49.5869C39.3847 49.635 39.488 49.6602 39.6087 49.6625C39.7288 49.6636 39.8287 49.6418 39.9079 49.5964C39.9899 49.5494 40.028 49.4917 40.0224 49.4239C40.0162 49.3562 39.9741 49.2996 39.8989 49.2565C39.8001 49.1994 39.653 49.1865 39.4594 49.2178C39.392 49.2274 39.291 49.2442 39.1534 49.2682C39.0165 49.2918 38.8896 49.3142 38.7728 49.3343C38.5404 49.3718 38.3254 49.373 38.1262 49.3366C37.928 49.3007 37.7489 49.2369 37.5867 49.1439C37.4087 49.0414 37.3054 48.9227 37.2768 48.7872C37.2482 48.6517 37.2875 48.5262 37.3964 48.4103L37.1196 48.2507C37.1073 48.2434 37.1078 48.2356 37.1219 48.2278L37.5356 47.9892C37.5513 47.9802 37.5654 47.9797 37.5777 47.9864L37.8595 48.1488C38.0577 48.0878 38.2738 48.0676 38.5068 48.0861C38.7403 48.1057 38.9429 48.1645 39.1147 48.2636L39.433 48.4467C39.4425 48.4523 39.4425 48.4574 39.433 48.463L38.9957 48.715C38.9861 48.7206 38.9772 48.7206 38.9676 48.715L38.6448 48.5341C38.5533 48.4814 38.4506 48.4562 38.3361 48.4579C38.2216 48.4596 38.1262 48.4826 38.0498 48.5262C37.9735 48.5699 37.9336 48.6282 37.9381 48.6948C37.9426 48.7614 37.9864 48.8191 38.0683 48.8662C38.1475 48.9115 38.2328 48.9406 38.3232 48.9524C38.4136 48.9642 38.5326 48.9602 38.6774 48.9384L39.291 48.8365C39.4908 48.8018 39.6811 48.7928 39.8607 48.8096C40.0404 48.8264 40.2099 48.8807 40.3671 48.9714C40.549 49.0762 40.6562 49.1943 40.6893 49.327C40.723 49.4598 40.6865 49.5858 40.581 49.705L40.8628 49.8674C40.8751 49.8747 40.874 49.8826 40.8583 49.8915L40.86 49.8921Z" fill="white"/>
<path fill-rule="evenodd" clip-rule="evenodd" d="M30.9189 49.4654L40.9745 43.6733L47.0664 47.1822L37.0108 52.9738L30.9189 49.4654Z" fill="#78C692"/>
<path fill-rule="evenodd" clip-rule="evenodd" d="M41.2725 44.4433C41.2209 44.4136 41.158 44.4142 41.1069 44.4433C40.8582 44.5866 40.5517 44.5866 40.3025 44.4433C40.2509 44.4136 40.1874 44.413 40.1358 44.4433L32.7124 48.7189C32.6613 48.7486 32.6299 48.8034 32.6304 48.8628C32.6304 48.9216 32.6619 48.9765 32.713 49.0056C32.8219 49.0683 32.8892 49.1842 32.8892 49.3097C32.8892 49.4351 32.8219 49.551 32.713 49.6138C32.6619 49.6434 32.6304 49.6983 32.6299 49.7571C32.6299 49.8165 32.6613 49.8708 32.7135 49.9005C33.7891 50.5198 35.7061 51.6242 36.6469 52.1662C36.6975 52.1954 36.7615 52.1959 36.8125 52.1662C37.1022 51.9994 37.4598 51.9994 37.75 52.1662C37.8005 52.1954 37.8645 52.1959 37.9156 52.1662C39.4105 51.3055 43.5438 48.925 45.2727 47.9287C45.3238 47.899 45.3553 47.8442 45.3558 47.7854C45.3558 47.726 45.3238 47.6717 45.2722 47.642C45.1633 47.5793 45.0959 47.4634 45.0965 47.3385C45.0965 47.213 45.1627 47.0966 45.2716 47.0338C45.3227 47.0042 45.3553 46.9498 45.3547 46.8905C45.3547 46.8311 45.3233 46.7768 45.2722 46.7477C44.1702 46.1132 42.1858 44.9702 41.272 44.4438L41.2725 44.4433ZM41.1849 44.7748L44.9084 46.919C44.8169 47.0366 44.7653 47.1834 44.7647 47.3374C44.7647 47.4914 44.8164 47.6375 44.9084 47.7557L37.8286 51.8336C37.4828 51.6684 37.0792 51.6678 36.7334 51.8336L33.0767 49.7274C33.1682 49.6098 33.2199 49.4631 33.2204 49.3091C33.2204 49.1551 33.1688 49.009 33.0767 48.8908L40.2233 44.7748C40.5287 44.917 40.8807 44.917 41.1849 44.7748Z" fill="white"/>
<path d="M40.86 49.112L40.4462 49.3506C40.4339 49.3578 40.421 49.3573 40.4086 49.3506L40.1319 49.191C39.9242 49.2554 39.6996 49.2772 39.4588 49.257C39.218 49.2374 39.0092 49.1764 38.834 49.0756L38.6549 48.9726C38.642 48.9647 38.6404 48.9569 38.6527 48.9502L39.0872 48.6998C39.0967 48.6942 39.1085 48.6959 39.122 48.7038L39.3011 48.8068C39.3847 48.855 39.488 48.8802 39.6087 48.8824C39.7288 48.8835 39.8287 48.8617 39.9079 48.8163C39.987 48.771 40.028 48.7116 40.0224 48.6438C40.0162 48.5761 39.9741 48.5195 39.8989 48.4764C39.8001 48.4193 39.653 48.4064 39.4594 48.4378C39.392 48.4473 39.291 48.4641 39.1534 48.4882C39.0165 48.5117 38.8896 48.5341 38.7728 48.5542C38.5404 48.5918 38.3254 48.5929 38.1262 48.5565C37.928 48.5206 37.7489 48.4568 37.5867 48.3638C37.4087 48.2614 37.3054 48.1426 37.2768 48.0071C37.2482 47.8716 37.2875 47.7462 37.3964 47.6302L37.1196 47.4706C37.1073 47.4634 37.1078 47.4555 37.1219 47.4477L37.5356 47.2091C37.5513 47.2002 37.5654 47.1996 37.5777 47.2063L37.8595 47.3687C38.0577 47.3077 38.2738 47.2875 38.5068 47.306C38.7403 47.3256 38.9429 47.3844 39.1147 47.4835L39.433 47.6666C39.4425 47.6722 39.4425 47.6773 39.433 47.6829L38.9957 47.9349C38.9861 47.9405 38.9772 47.9405 38.9676 47.9349L38.6448 47.754C38.5533 47.7014 38.4506 47.6762 38.3361 47.6778C38.2216 47.6795 38.1262 47.7025 38.0498 47.7462C37.9735 47.7898 37.9336 47.8481 37.9381 47.9147C37.9426 47.9814 37.9864 48.039 38.0683 48.0861C38.1475 48.1314 38.2328 48.1606 38.3232 48.1723C38.4136 48.1841 38.5326 48.1802 38.6774 48.1583L39.291 48.0564C39.4908 48.0217 39.6811 48.0127 39.8607 48.0295C40.0404 48.0463 40.2099 48.1006 40.3671 48.1914C40.549 48.2961 40.6562 48.4142 40.6893 48.547C40.723 48.6797 40.6865 48.8057 40.581 48.925L40.8628 49.0874C40.8751 49.0946 40.874 49.1025 40.8583 49.1114L40.86 49.112Z" fill="white"/>
<path fill-rule="evenodd" clip-rule="evenodd" d="M31.021 48.9026L41.0766 43.111L47.1678 46.62L37.1123 52.4115L31.021 48.9026Z" fill="#4CAB6D"/>
<path fill-rule="evenodd" clip-rule="evenodd" d="M41.3741 43.881C41.3224 43.8514 41.2596 43.8519 41.2085 43.881C40.9598 44.0244 40.6533 44.0244 40.4041 43.881C40.3524 43.8514 40.289 43.8508 40.2373 43.881L32.814 48.1566C32.7629 48.1863 32.7314 48.2412 32.732 48.3006C32.732 48.3594 32.7634 48.4142 32.8145 48.4434C32.9234 48.5061 32.9908 48.622 32.9908 48.7474C32.9908 48.8729 32.9234 48.9888 32.8145 49.0515C32.7634 49.0812 32.732 49.1361 32.7314 49.1949C32.7314 49.2542 32.7629 49.3086 32.8151 49.3382C33.8906 49.9576 35.8077 51.0619 36.7485 51.604C36.799 51.6331 36.863 51.6337 36.9141 51.604C37.2038 51.4371 37.5614 51.4371 37.8516 51.604C37.9021 51.6331 37.9661 51.6337 38.0172 51.604C39.5121 50.7433 43.6453 48.3627 45.3743 47.3665C45.4254 47.3368 45.4568 47.2819 45.4574 47.2231C45.4574 47.1638 45.4254 47.1094 45.3737 47.0798C45.2648 47.017 45.1975 46.9011 45.198 46.7762C45.198 46.6508 45.2643 46.5343 45.3732 46.4716C45.4243 46.4419 45.4568 46.3876 45.4563 46.3282C45.4563 46.2689 45.4248 46.2146 45.3737 46.1854C44.2718 45.551 42.2874 44.408 41.3735 43.8816L41.3741 43.881ZM41.2865 44.2126L45.01 46.3568C44.9185 46.4744 44.8668 46.6211 44.8663 46.7751C44.8663 46.9291 44.9179 47.0753 45.01 47.1934L37.9302 51.2714C37.5844 51.1062 37.1808 51.1056 36.835 51.2714L33.1783 49.1652C33.2698 49.0476 33.3214 48.9009 33.322 48.7469C33.322 48.5929 33.2703 48.4467 33.1783 48.3286L40.3249 44.2126C40.6303 44.3548 40.9823 44.3548 41.2865 44.2126Z" fill="white"/>
<path d="M40.9623 48.5498L40.5485 48.7883C40.5362 48.7956 40.5233 48.795 40.5109 48.7883L40.2342 48.6287C40.0265 48.6931 39.8019 48.715 39.5611 48.6948C39.3203 48.6752 39.1115 48.6142 38.9363 48.5134L38.7572 48.4103C38.7443 48.4025 38.7426 48.3946 38.755 48.3879L39.1895 48.1376C39.199 48.132 39.2108 48.1337 39.2243 48.1415L39.4034 48.2446C39.487 48.2927 39.5903 48.3179 39.711 48.3202C39.8311 48.3213 39.931 48.2994 40.0102 48.2541C40.0921 48.207 40.1303 48.1494 40.1247 48.0816C40.1185 48.0138 40.0764 47.9573 40.0012 47.9142C39.9024 47.857 39.7553 47.8442 39.5617 47.8755C39.4943 47.885 39.3933 47.9018 39.2557 47.9259C39.1188 47.9494 38.9919 47.9718 38.8751 47.992C38.6427 48.0295 38.4277 48.0306 38.2284 47.9942C38.0303 47.9584 37.8512 47.8946 37.689 47.8016C37.511 47.6991 37.4077 47.5804 37.3791 47.4449C37.3505 47.3094 37.3898 47.1839 37.4987 47.068L37.2219 46.9084C37.2096 46.9011 37.2101 46.8933 37.2242 46.8854L37.6379 46.6469C37.6536 46.6379 37.6676 46.6374 37.68 46.6441L37.9618 46.8065C38.16 46.7454 38.3761 46.7253 38.609 46.7438C38.8426 46.7634 39.0452 46.8222 39.217 46.9213L39.5353 47.1044C39.5448 47.11 39.5448 47.115 39.5353 47.1206L39.098 47.3726C39.0884 47.3782 39.0795 47.3782 39.0699 47.3726L38.7471 47.1918C38.6556 47.1391 38.5529 47.1139 38.4384 47.1156C38.3239 47.1173 38.2284 47.1402 38.1521 47.1839C38.0758 47.2276 38.0359 47.2858 38.0404 47.3525C38.0449 47.4191 38.0887 47.4768 38.1706 47.5238C38.2498 47.5692 38.3351 47.5983 38.4255 47.6101C38.5159 47.6218 38.6349 47.6179 38.7797 47.5961L39.3933 47.4942C39.5931 47.4594 39.7834 47.4505 39.963 47.4673C40.1427 47.4841 40.3122 47.5384 40.4694 47.6291C40.6513 47.7338 40.7585 47.852 40.7916 47.9847C40.8253 48.1174 40.7888 48.2434 40.6833 48.3627L40.9651 48.5251C40.9774 48.5324 40.9763 48.5402 40.9606 48.5492L40.9623 48.5498Z" fill="white"/>
<path fill-rule="evenodd" clip-rule="evenodd" d="M31.021 48.1225L41.0766 42.331L47.1678 45.8394L37.1123 51.6309L31.021 48.1225Z" fill="#78C692"/>
<path fill-rule="evenodd" clip-rule="evenodd" d="M41.3741 43.101C41.3224 43.0713 41.2596 43.0718 41.2085 43.101C40.9598 43.2443 40.6533 43.2443 40.4041 43.101C40.3524 43.0713 40.289 43.0707 40.2373 43.101L32.814 47.3766C32.7629 47.4062 32.7314 47.4611 32.732 47.5205C32.732 47.5793 32.7634 47.6342 32.8145 47.6633C32.9234 47.726 32.9908 47.8419 32.9908 47.9674C32.9908 48.0928 32.9234 48.2087 32.8145 48.2714C32.7634 48.3011 32.732 48.356 32.7314 48.4148C32.7314 48.4742 32.7629 48.5285 32.8151 48.5582C33.8906 49.1775 35.8077 50.2818 36.7485 50.8239C36.799 50.853 36.863 50.8536 36.9141 50.8239C37.2038 50.657 37.5614 50.657 37.8516 50.8239C37.9021 50.853 37.9661 50.8536 38.0172 50.8239C39.5121 49.9632 43.6453 47.5826 45.3743 46.5864C45.4254 46.5567 45.4568 46.5018 45.4574 46.443C45.4574 46.3837 45.4254 46.3294 45.3737 46.2997C45.2648 46.237 45.1975 46.121 45.198 45.9962C45.198 45.8707 45.2643 45.7542 45.3732 45.6915C45.4243 45.6618 45.4568 45.6075 45.4563 45.5482C45.4563 45.4888 45.4248 45.4345 45.3737 45.4054C44.2718 44.7709 42.2874 43.6279 41.3735 43.1015L41.3741 43.101ZM41.2865 43.4325L45.01 45.5767C44.9185 45.6943 44.8668 45.841 44.8663 45.995C44.8663 46.149 44.9179 46.2952 45.01 46.4134L37.9302 50.4913C37.5844 50.3261 37.1808 50.3255 36.835 50.4913L33.1783 48.3851C33.2698 48.2675 33.3214 48.1208 33.322 47.9668C33.322 47.8128 33.2703 47.6666 33.1783 47.5485L40.3249 43.4325C40.6303 43.5747 40.9823 43.5747 41.2865 43.4325Z" fill="white"/>
<path d="M40.9623 47.7697L40.5485 48.0082C40.5362 48.0155 40.5233 48.015 40.5109 48.0082L40.2342 47.8486C40.0265 47.913 39.8019 47.9349 39.5611 47.9147C39.3203 47.8951 39.1115 47.8341 38.9363 47.7333L38.7572 47.6302C38.7443 47.6224 38.7426 47.6146 38.755 47.6078L39.1895 47.3575C39.199 47.3519 39.2108 47.3536 39.2243 47.3614L39.4034 47.4645C39.487 47.5126 39.5903 47.5378 39.711 47.5401C39.8311 47.5412 39.931 47.5194 40.0102 47.474C40.0893 47.4286 40.1303 47.3693 40.1247 47.3015C40.1185 47.2338 40.0764 47.1772 40.0012 47.1341C39.9024 47.077 39.7553 47.0641 39.5617 47.0954C39.4943 47.105 39.3933 47.1218 39.2557 47.1458C39.1188 47.1694 38.9919 47.1918 38.8751 47.2119C38.6427 47.2494 38.4277 47.2506 38.2284 47.2142C38.0303 47.1783 37.8512 47.1145 37.689 47.0215C37.511 46.919 37.4077 46.8003 37.3791 46.6648C37.3505 46.5293 37.3898 46.4038 37.4987 46.2879L37.2219 46.1283C37.2096 46.121 37.2101 46.1132 37.2242 46.1054L37.6379 45.8668C37.6536 45.8578 37.6676 45.8573 37.68 45.864L37.9618 46.0264C38.16 45.9654 38.3761 45.9452 38.609 45.9637C38.8426 45.9833 39.0452 46.0421 39.217 46.1412L39.5353 46.3243C39.5448 46.3299 39.5448 46.335 39.5353 46.3406L39.098 46.5926C39.0884 46.5982 39.0795 46.5982 39.0699 46.5926L38.7471 46.4117C38.6556 46.359 38.5529 46.3338 38.4384 46.3355C38.3239 46.3372 38.2284 46.3602 38.1521 46.4038C38.073 46.4492 38.0359 46.5058 38.0404 46.5724C38.0449 46.639 38.0887 46.6967 38.1706 46.7438C38.2498 46.7891 38.3351 46.8182 38.4255 46.83C38.5159 46.8418 38.6349 46.8378 38.7797 46.816L39.3933 46.7141C39.5931 46.6794 39.7834 46.6704 39.963 46.6872C40.1427 46.704 40.3122 46.7583 40.4694 46.849C40.6513 46.9538 40.7585 47.0719 40.7916 47.2046C40.8253 47.3374 40.7888 47.4634 40.6833 47.5826L40.9651 47.745C40.9774 47.7523 40.9763 47.7602 40.9606 47.7691L40.9623 47.7697Z" fill="white"/>
<path fill-rule="evenodd" clip-rule="evenodd" d="M31.1228 47.5602L41.1784 41.7687L47.2702 45.2771L37.2146 51.0686L31.1228 47.5602Z" fill="#4CAB6D"/>
<path fill-rule="evenodd" clip-rule="evenodd" d="M41.4759 42.5382C41.4242 42.5085 41.3614 42.509 41.3103 42.5382C41.0616 42.6815 40.7551 42.6815 40.5059 42.5382C40.4542 42.5085 40.3908 42.5079 40.3391 42.5382L32.9158 46.8138C32.8647 46.8434 32.8333 46.8983 32.8338 46.9577C32.8338 47.0165 32.8652 47.0714 32.9163 47.1005C33.0252 47.1632 33.0926 47.2791 33.0926 47.4046C33.0926 47.53 33.0252 47.6459 32.9163 47.7086C32.8652 47.7383 32.8338 47.7932 32.8333 47.852C32.8333 47.9114 32.8647 47.9657 32.9169 47.9954C33.9925 48.6147 35.9095 49.719 36.8503 50.2611C36.9008 50.2902 36.9648 50.2908 37.0159 50.2611C37.3056 50.0942 37.6632 50.0942 37.9534 50.2611C38.0039 50.2902 38.0679 50.2908 38.119 50.2611C39.6139 49.4004 43.7471 47.0198 45.4761 46.0236C45.5272 45.9939 45.5586 45.939 45.5592 45.8802C45.5592 45.8209 45.5272 45.7666 45.4756 45.7369C45.3667 45.6742 45.2993 45.5582 45.2998 45.4334C45.2998 45.3079 45.3661 45.1914 45.475 45.1287C45.5261 45.099 45.5586 45.0447 45.5581 44.9854C45.5581 44.926 45.5266 44.8717 45.4756 44.8426C44.3736 44.2081 42.3892 43.0651 41.4753 42.5387L41.4759 42.5382ZM41.3883 42.8697L45.1118 45.0139C45.0203 45.1315 44.9686 45.2782 44.9681 45.4322C44.9681 45.5862 45.0197 45.7324 45.1118 45.8506L38.032 49.9285C37.6862 49.7633 37.2826 49.7627 36.9368 49.9285L33.2801 47.8223C33.3716 47.7047 33.4232 47.558 33.4238 47.404C33.4238 47.25 33.3722 47.1038 33.2801 46.9857L40.4267 42.8697C40.7321 43.0119 41.0841 43.0119 41.3883 42.8697Z" fill="white"/>
<path d="M41.0638 47.2069L40.6501 47.4454C40.6377 47.4527 40.6248 47.4522 40.6125 47.4454L40.3357 47.2858C40.128 47.3502 39.9035 47.3721 39.6627 47.3519C39.4218 47.3323 39.213 47.2713 39.0379 47.1705L38.8588 47.0674C38.8459 47.0596 38.8442 47.0518 38.8566 47.045L39.291 46.7947C39.3006 46.7891 39.3124 46.7908 39.3259 46.7986L39.5049 46.9017C39.5886 46.9498 39.6919 46.975 39.8125 46.9773C39.9327 46.9784 40.0326 46.9566 40.1118 46.9112C40.1909 46.8658 40.2319 46.8065 40.2263 46.7387C40.2201 46.671 40.178 46.6144 40.1028 46.5713C40.004 46.5142 39.8569 46.5013 39.6632 46.5326C39.5959 46.5422 39.4948 46.559 39.3573 46.583C39.2203 46.6066 39.0935 46.629 38.9767 46.6491C38.7443 46.6866 38.5293 46.6878 38.33 46.6514C38.1318 46.6155 37.9528 46.5517 37.7905 46.4587C37.6126 46.3562 37.5093 46.2375 37.4807 46.102C37.452 45.9665 37.4913 45.841 37.6002 45.7251L37.3235 45.5655C37.3111 45.5582 37.3117 45.5504 37.3257 45.5426L37.7395 45.304C37.7552 45.295 37.7692 45.2945 37.7816 45.3012L38.0634 45.4636C38.2615 45.4026 38.4776 45.3824 38.7106 45.4009C38.9441 45.4205 39.1468 45.4793 39.3186 45.5784L39.6368 45.7615C39.6464 45.7671 39.6464 45.7722 39.6368 45.7778L39.1995 46.0298C39.19 46.0354 39.181 46.0354 39.1715 46.0298L38.8487 45.8489C38.7572 45.7962 38.6545 45.771 38.54 45.7727C38.4254 45.7744 38.33 45.7974 38.2537 45.841C38.1745 45.8864 38.1375 45.943 38.142 46.0096C38.1464 46.0762 38.1902 46.1339 38.2722 46.181C38.3513 46.2263 38.4367 46.2554 38.527 46.2672C38.6174 46.279 38.7364 46.275 38.8813 46.2532L39.4948 46.1513C39.6947 46.1166 39.885 46.1076 40.0646 46.1244C40.2442 46.1412 40.4138 46.1955 40.5709 46.2862C40.7528 46.391 40.86 46.5091 40.8932 46.6418C40.9268 46.7746 40.8904 46.9006 40.7848 47.0198L41.0666 47.1822C41.079 47.1895 41.0778 47.1974 41.0621 47.2063L41.0638 47.2069Z" fill="white"/>
<path fill-rule="evenodd" clip-rule="evenodd" d="M31.1228 46.7802L41.1784 40.9886L47.2702 44.497L37.2146 50.2886L31.1228 46.7802Z" fill="#78C692"/>
<path fill-rule="evenodd" clip-rule="evenodd" d="M41.4759 41.7581C41.4242 41.7284 41.3614 41.729 41.3103 41.7581C41.0616 41.9014 40.7551 41.9014 40.5059 41.7581C40.4542 41.7284 40.3908 41.7278 40.3391 41.7581L32.9158 46.0337C32.8647 46.0634 32.8333 46.1182 32.8338 46.1776C32.8338 46.2364 32.8652 46.2913 32.9163 46.3204C33.0252 46.3831 33.0926 46.499 33.0926 46.6245C33.0926 46.7499 33.0252 46.8658 32.9163 46.9286C32.8652 46.9582 32.8338 47.0131 32.8333 47.0719C32.8333 47.1313 32.8647 47.1856 32.9169 47.2153C33.9925 47.8346 35.9095 48.939 36.8503 49.481C36.9008 49.5102 36.9648 49.5107 37.0159 49.481C37.3056 49.3142 37.6632 49.3142 37.9534 49.481C38.0039 49.5102 38.0679 49.5107 38.119 49.481C39.6139 48.6203 43.7471 46.2398 45.4761 45.2435C45.5272 45.2138 45.5586 45.159 45.5592 45.1002C45.5592 45.0408 45.5272 44.9865 45.4756 44.9568C45.3667 44.8941 45.2993 44.7782 45.2998 44.6533C45.2998 44.5278 45.3661 44.4114 45.475 44.3486C45.5261 44.319 45.5586 44.2646 45.5581 44.2053C45.5581 44.1459 45.5266 44.0916 45.4756 44.0625C44.3736 43.428 42.3892 42.285 41.4753 41.7586L41.4759 41.7581ZM41.3883 42.0896L45.1118 44.2338C45.0203 44.3514 44.9686 44.4982 44.9681 44.6522C44.9681 44.8062 45.0197 44.9523 45.1118 45.0705L38.032 49.1484C37.6862 48.9832 37.2826 48.9826 36.9368 49.1484L33.2801 47.0422C33.3716 46.9246 33.4232 46.7779 33.4238 46.6239C33.4238 46.4699 33.3722 46.3238 33.2801 46.2056L40.4267 42.0896C40.7321 42.2318 41.0841 42.2318 41.3883 42.0896Z" fill="white"/>
<path d="M41.0638 46.4268L40.6501 46.6654C40.6377 46.6726 40.6248 46.6721 40.6125 46.6654L40.3357 46.5058C40.128 46.5702 39.9035 46.592 39.6627 46.5718C39.4218 46.5522 39.213 46.4912 39.0379 46.3904L38.8588 46.2874C38.8459 46.2795 38.8442 46.2717 38.8566 46.265L39.291 46.0146C39.3006 46.009 39.3124 46.0107 39.3259 46.0186L39.5049 46.1216C39.5886 46.1698 39.6919 46.195 39.8125 46.1972C39.9327 46.1983 40.0326 46.1765 40.1118 46.1311C40.1937 46.0841 40.2319 46.0264 40.2263 45.9586C40.2201 45.8909 40.178 45.8343 40.1028 45.7912C40.004 45.7341 39.8569 45.7212 39.6632 45.7526C39.5959 45.7621 39.4948 45.7789 39.3573 45.803C39.2203 45.8265 39.0935 45.8489 38.9767 45.869C38.7443 45.9066 38.5293 45.9077 38.33 45.8713C38.1318 45.8354 37.9528 45.7716 37.7905 45.6786C37.6126 45.5762 37.5093 45.4574 37.4807 45.3219C37.452 45.1864 37.4913 45.061 37.6002 44.945L37.3235 44.7854C37.3111 44.7782 37.3117 44.7703 37.3257 44.7625L37.7395 44.5239C37.7552 44.515 37.7692 44.5144 37.7816 44.5211L38.0634 44.6835C38.2615 44.6225 38.4776 44.6023 38.7106 44.6208C38.9441 44.6404 39.1468 44.6992 39.3186 44.7983L39.6368 44.9814C39.6464 44.987 39.6464 44.9921 39.6368 44.9977L39.1995 45.2497C39.19 45.2553 39.181 45.2553 39.1715 45.2497L38.8487 45.0688C38.7572 45.0162 38.6545 44.991 38.54 44.9926C38.4254 44.9943 38.33 45.0173 38.2537 45.061C38.1745 45.1063 38.1375 45.1629 38.142 45.2295C38.1464 45.2962 38.1902 45.3538 38.2722 45.4009C38.3513 45.4462 38.4367 45.4754 38.527 45.4871C38.6174 45.4989 38.7364 45.495 38.8813 45.4731L39.4948 45.3712C39.6947 45.3365 39.885 45.3275 40.0646 45.3443C40.2442 45.3611 40.4138 45.4154 40.5709 45.5062C40.7528 45.6109 40.86 45.729 40.8932 45.8618C40.9268 45.9945 40.8904 46.1205 40.7848 46.2398L41.0666 46.4022C41.079 46.4094 41.0778 46.4173 41.0621 46.4262L41.0638 46.4268Z" fill="white"/>
<path d="M3.06669 19.8761C2.50702 20.1986 1.99899 20.3448 1.54261 20.3258C1.07219 20.3095 0.696643 20.1466 0.41821 19.8302C0.139216 19.5138 0 19.0848 0 18.5371V16.8465C0 16.2719 0.139216 15.6716 0.41821 15.0394C0.696643 14.4021 1.07051 13.8074 1.53812 13.2675C2.00853 12.7204 2.51656 12.292 3.06725 11.975C3.63647 11.6474 4.15853 11.4817 4.62445 11.4957C5.08084 11.5091 5.44291 11.6743 5.70675 11.9997C5.97508 12.3222 6.10643 12.7613 6.10643 13.3302V15.0209C6.10643 15.5842 5.97451 16.175 5.7017 16.8039C5.42439 17.43 5.05221 18.018 4.59133 18.5707C4.13046 19.1178 3.62243 19.5569 3.06725 19.8766L3.06669 19.8761ZM2.67599 29.9964L1.35848 29.7091C1.35848 29.7091 1.25968 29.7282 1.28775 29.6307L10.7775 7.87024C10.8246 7.7784 10.8667 7.72688 10.9139 7.69944L13.6803 6.10624L15.1342 6.35824L4.28539 27.9048C4.25227 28.005 2.67655 29.9964 2.67655 29.9964H2.67599ZM3.01954 17.9794C3.33446 17.7979 3.59829 17.5325 3.80543 17.1853C4.00752 16.8409 4.11137 16.4998 4.11137 16.1689V14.5214C4.11137 14.2122 4.00808 14.0011 3.80543 13.8902C3.59829 13.7766 3.33502 13.809 3.01954 13.9905C2.69956 14.1747 2.43629 14.4458 2.22465 14.8008C2.01302 15.1502 1.90468 15.4834 1.90468 15.7926V17.4401C1.90468 17.7542 2.01302 17.9687 2.2342 18.0796C2.45537 18.1854 2.71865 18.153 3.0201 17.9794H3.01954ZM12.2263 23.683C11.6616 24.0083 11.1536 24.1545 10.6927 24.1326C10.2223 24.127 9.84619 23.9702 9.56832 23.6533C9.29101 23.3363 9.14955 22.9029 9.14955 22.3502V20.6702C9.14955 20.0906 9.29045 19.4835 9.56832 18.8518C9.84563 18.2095 10.2223 17.6193 10.6882 17.08C11.1586 16.5329 11.6717 16.1017 12.2263 15.7819C12.7911 15.4566 13.3081 15.2942 13.774 15.3076C14.2304 15.321 14.5925 15.4862 14.8653 15.806C15.1336 16.1286 15.27 16.5704 15.27 17.1444V18.8244C15.27 19.3934 15.1291 19.9948 14.8512 20.6153C14.5739 21.2464 14.2018 21.8344 13.7409 22.3821C13.28 22.9348 12.7765 23.3654 12.2258 23.683H12.2263ZM12.2028 21.7834C12.5227 21.5992 12.7815 21.331 12.9887 20.9843C13.1958 20.6321 13.2946 20.2933 13.2946 19.9629V18.3266C13.2946 18.0124 13.1958 17.7979 12.9887 17.6898C12.7815 17.5762 12.5227 17.6114 12.2028 17.7957C11.8828 17.9799 11.6195 18.2454 11.4028 18.6032C11.1861 18.9554 11.0784 19.2886 11.0784 19.6028V21.2391C11.0784 21.5533 11.1912 21.765 11.4169 21.8786C11.638 21.9895 11.9013 21.957 12.2028 21.784V21.7834Z" fill="#EC5742"/>
<path d="M4.43803 20.1527C3.87835 20.4753 3.37033 20.6214 2.91394 20.6024C2.44353 20.5862 2.06798 20.4232 1.78955 20.1068C1.51055 19.7904 1.37134 19.3614 1.37134 18.8138V17.1231C1.37134 16.5486 1.51055 15.9482 1.78955 15.316C2.06798 14.6787 2.44184 14.084 2.90945 13.5442C3.37987 12.997 3.8879 12.5686 4.43859 12.2517C5.0078 11.9241 5.52986 11.7583 5.99579 11.7723C6.45217 11.7858 6.81425 11.951 7.07809 12.2763C7.34641 12.5989 7.47777 13.0379 7.47777 13.6069V15.2975C7.47777 15.8609 7.34585 16.4517 7.07303 17.0806C6.79572 17.7066 6.42354 18.2946 5.96267 18.8474C5.5018 19.3945 4.99377 19.8335 4.43859 20.1533L4.43803 20.1527ZM5.50573 28.387L2.72982 29.9858C2.65011 30.0317 2.63102 30.0048 2.65909 29.9074L12.1488 8.14632C12.196 8.05448 12.2381 8.00296 12.2852 7.97552L15.0516 6.38232C15.1364 6.3336 15.1599 6.34704 15.1223 6.43384L5.65673 28.1809C5.62361 28.2811 5.57702 28.3461 5.50629 28.387H5.50573ZM4.39087 18.256C4.70579 18.0746 4.96963 17.8091 5.17677 17.4619C5.37886 17.1175 5.48271 16.7765 5.48271 16.4455V14.798C5.48271 14.4889 5.37942 14.2778 5.17677 14.1669C4.96963 14.0532 4.70636 14.0857 4.39087 14.2671C4.0709 14.4514 3.80762 14.7224 3.59599 15.0774C3.38436 15.4269 3.27602 15.7601 3.27602 16.0692V17.7167C3.27602 18.0309 3.38436 18.2454 3.60554 18.3562C3.82671 18.4621 4.08999 18.4296 4.39143 18.256H4.39087ZM13.5977 23.9596C13.033 24.285 12.5249 24.4311 12.0641 24.4093C11.5936 24.4037 11.2175 24.2469 10.9397 23.9299C10.6623 23.613 10.5209 23.1795 10.5209 22.6268V20.9468C10.5209 20.3672 10.6618 19.7602 10.9397 19.1285C11.217 18.4862 11.5936 17.8959 12.0596 17.3566C12.53 16.8095 13.0431 16.3783 13.5977 16.0586C14.1624 15.7332 14.6794 15.5708 15.1453 15.5842C15.6017 15.5977 15.9638 15.7629 16.2366 16.0826C16.5049 16.4052 16.6414 16.847 16.6414 17.421V19.101C16.6414 19.67 16.5005 20.2714 16.2226 20.8919C15.9453 21.523 15.5731 22.111 15.1122 22.6587C14.6513 23.2114 14.1478 23.6421 13.5971 23.9596H13.5977ZM13.5741 22.0601C13.8941 21.8758 14.1529 21.6076 14.36 21.261C14.5671 20.9087 14.6659 20.5699 14.6659 20.2395V18.6032C14.6659 18.289 14.5671 18.0746 14.36 17.9665C14.1529 17.8528 13.8941 17.8881 13.5741 18.0723C13.2586 18.2538 12.9909 18.522 12.7742 18.8798C12.5575 19.2321 12.4497 19.5653 12.4497 19.8794V21.5158C12.4497 21.8299 12.5625 22.0416 12.7882 22.1553C13.0094 22.2662 13.2727 22.2337 13.5741 22.0606V22.0601Z" fill="#F48166"/>
</g>
<defs>
<clipPath id="clip0_2790_10266">
<rect width="60" height="56" fill="white"/>
</clipPath>
</defs>
</svg>
