<svg width="42" height="56" viewBox="0 0 42 56" fill="none" xmlns="http://www.w3.org/2000/svg">
<path d="M33.3914 0.521484L33.303 32.0369L32.417 32.5588L32.5049 1.04341L33.3914 0.521484Z" fill="#9C8BAF"/>
<path d="M32.5045 1.04341L32.4166 32.5588L31.5239 32.0369L31.6124 0.521484L32.5045 1.04341Z" fill="#BCADD1"/>
<path d="M33.391 0.521921L32.5044 1.04384L31.6123 0.521921L32.4989 0L33.391 0.521921Z" fill="#DACFE7"/>
<path d="M2.38272 18.6523L2.29429 50.1677L1.40771 50.6896L1.49615 19.1743L2.38272 18.6523Z" fill="#9C8BAF"/>
<path d="M1.49713 19.1743L1.4087 50.6896L0.516602 50.1677L0.604485 18.6523L1.49713 19.1743Z" fill="#BCADD1"/>
<path d="M2.38322 18.6508L1.49665 19.1727L0.604004 18.6508L1.49057 18.1289L2.38322 18.6508Z" fill="#DACFE7"/>
<path d="M40.5382 32.1172L40.5349 33.2988L7.7749 52.5333L7.77822 51.3511L40.5382 32.1172Z" fill="#9C8BAF"/>
<path d="M7.77883 51.3513L7.77551 52.5334L0.5 48.2774L0.503316 47.0958L7.77883 51.3513Z" fill="#BCADD1"/>
<path d="M40.5384 32.1174L7.77844 51.3513L0.50293 47.0958L33.2629 27.8613L40.5384 32.1174Z" fill="#DACFE7"/>
<path d="M22.8786 35.6465L22.8609 42.0703L17.4707 45.2438L17.4889 38.82L22.8786 35.6465Z" fill="#E1A736"/>
<path d="M17.4891 38.82L17.4709 45.2438L12.0459 42.0703L12.0636 35.6465L17.4891 38.82Z" fill="#FFC548"/>
<path d="M22.8781 35.6462L17.4885 38.8197L12.063 35.6462L17.4532 32.4727L22.8781 35.6462Z" fill="#FFDA92"/>
<path d="M40.8292 24.6621L40.8116 31.0859L35.4214 34.2595L35.4396 27.8357L40.8292 24.6621Z" fill="#E1A736"/>
<path d="M35.4398 27.8357L35.4216 34.2595L29.9966 31.0859L30.0143 24.6621L35.4398 27.8357Z" fill="#FFC548"/>
<path d="M40.8298 24.6618L35.4402 27.8353L30.0146 24.6618L35.4048 21.4883L40.8298 24.6618Z" fill="#FFDA92"/>
<path d="M40.5382 25.4199L40.5349 26.6021L7.7749 45.836L7.77822 44.6538L40.5382 25.4199Z" fill="#9C8BAF"/>
<path d="M7.77883 44.6539L7.77551 45.836L0.5 41.58L0.503316 40.3984L7.77883 44.6539Z" fill="#BCADD1"/>
<path d="M40.5384 25.4215L7.77844 44.6554L0.50293 40.3999L33.2629 21.166L40.5384 25.4215Z" fill="#DACFE7"/>
<path d="M29.4415 25.2812L29.4239 31.7051L24.0337 34.8786L24.0514 28.4548L29.4415 25.2812Z" fill="#E1A736"/>
<path d="M24.0521 28.4548L24.0344 34.8786L18.6089 31.7051L18.6271 25.2812L24.0521 28.4548Z" fill="#FFC548"/>
<path d="M29.4421 25.2809L24.0519 28.4545L18.627 25.2809L24.0171 22.1074L29.4421 25.2809Z" fill="#FFDA92"/>
<path d="M40.5382 18.7246L40.5349 19.9068L7.7749 39.1407L7.77822 37.9591L40.5382 18.7246Z" fill="#9C8BAF"/>
<path d="M7.77883 37.9591L7.77551 39.1407L0.5 34.8847L0.503316 33.7031L7.77883 37.9591Z" fill="#BCADD1"/>
<path d="M40.5384 18.7242L7.77844 37.9587L0.50293 33.7027L33.2629 14.4688L40.5384 18.7242Z" fill="#DACFE7"/>
<path d="M18.1279 26.2852L18.1152 30.7517L14.3672 32.9587L14.3799 28.4921L18.1279 26.2852Z" fill="#E1A736"/>
<path d="M14.3798 28.4921L14.3671 32.9587L10.5947 30.7517L10.6074 26.2852L14.3798 28.4921Z" fill="#FFC548"/>
<path d="M18.1283 26.2865L14.3803 28.4934L10.6079 26.2865L14.3559 24.0801L18.1283 26.2865Z" fill="#FFDA92"/>
<path d="M38.3251 14.6797L38.313 19.1463L34.5649 21.3527L34.5777 16.8861L38.3251 14.6797Z" fill="#E1A736"/>
<path d="M34.5775 16.8861L34.5648 21.3527L30.7925 19.1463L30.8052 14.6797L34.5775 16.8861Z" fill="#FFC548"/>
<path d="M38.3245 14.6796L34.577 16.886L30.8047 14.6796L34.5522 12.4727L38.3245 14.6796Z" fill="#FFDA92"/>
<path d="M40.5382 12.0273L40.5349 13.2095L7.7749 32.4434L7.77822 31.2618L40.5382 12.0273Z" fill="#9C8BAF"/>
<path d="M7.77883 31.2619L7.77551 32.4435L0.5 28.1875L0.503316 27.0059L7.77883 31.2619Z" fill="#BCADD1"/>
<path d="M40.5384 12.027L7.77844 31.2614L0.50293 27.0054L33.2629 7.77148L40.5384 12.027Z" fill="#DACFE7"/>
<path d="M18.6081 18.1914L18.5904 24.6152L13.2002 27.7888L13.2184 21.365L18.6081 18.1914Z" fill="#E1A736"/>
<path d="M13.2181 21.365L13.1999 27.7888L7.7749 24.6152L7.79259 18.1914L13.2181 21.365Z" fill="#FFC548"/>
<path d="M18.6086 18.1911L13.219 21.3646L7.79346 18.1911L13.1836 15.0176L18.6086 18.1911Z" fill="#FFDA92"/>
<path d="M31.0529 10.7441L31.0352 17.168L25.645 20.3415L25.6627 13.9177L31.0529 10.7441Z" fill="#E1A736"/>
<path d="M25.6624 13.9177L25.6447 20.3415L20.2197 17.168L20.2374 10.7441L25.6624 13.9177Z" fill="#FFC548"/>
<path d="M31.0525 10.7438L25.6623 13.9174L20.2373 10.7438L25.6275 7.57031L31.0525 10.7438Z" fill="#FFDA92"/>
<path d="M40.5382 5.33203L40.5349 6.51364L7.7749 25.7476L7.77822 24.5659L40.5382 5.33203Z" fill="#9C8BAF"/>
<path d="M7.77883 24.5666L7.77551 25.7482L0.5 21.4927L0.503316 20.3105L7.77883 24.5666Z" fill="#BCADD1"/>
<path d="M40.5384 5.33221L7.77844 24.5661L0.50293 20.3101L33.2629 1.07617L40.5384 5.33221Z" fill="#DACFE7"/>
<path d="M41.4994 5.26562L41.411 36.781L40.5244 37.3029L40.6128 5.78755L41.4994 5.26562Z" fill="#9C8BAF"/>
<path d="M40.6138 5.78755L40.5254 37.3029L39.6333 36.781L39.7212 5.26562L40.6138 5.78755Z" fill="#BCADD1"/>
<path d="M41.4999 5.26606L40.6134 5.78798L39.7207 5.26606L40.6073 4.74414L41.4999 5.26606Z" fill="#DACFE7"/>
<path d="M10.4915 23.3945L10.4037 54.9099L9.51709 55.4318L9.60497 23.9165L10.4915 23.3945Z" fill="#9C8BAF"/>
<path d="M9.60456 23.9165L9.51667 55.4318L8.62402 54.9099L8.71246 23.3945L9.60456 23.9165Z" fill="#BCADD1"/>
<path d="M10.4916 23.395L9.60499 23.9169L8.71289 23.395L9.59946 22.873L10.4916 23.395Z" fill="#DACFE7"/>
<path d="M18.8908 11.0195L18.8726 17.4433L13.4824 20.6169L13.5007 14.1931L18.8908 11.0195Z" fill="#E1A736"/>
<path d="M13.5008 14.1931L13.4826 20.6169L8.05762 17.4433L8.07586 11.0195L13.5008 14.1931Z" fill="#FFC548"/>
<path d="M18.8908 11.0192L13.5007 14.1927L8.07568 11.0192L13.4653 7.8457L18.8908 11.0192Z" fill="#FFDA92"/>
<g style="mix-blend-mode:multiply">
<path d="M30.9817 50.4531C31.5632 51.171 31.8091 51.9813 31.5814 52.7149C31.1254 54.1805 28.9466 54.7819 26.7169 54.0573C26.629 54.0287 26.5444 53.9962 26.4588 53.9637C25.0466 53.4429 24.3015 53.6031 23.9179 54.5165C23.3525 55.8582 21.2598 56.3897 19.1131 55.6925C17.9982 55.3301 17.0812 54.7052 16.4998 53.9878C15.9183 53.2699 15.6729 52.4601 15.9006 51.7271C16.3572 50.2599 18.5344 49.659 20.7652 50.3848C20.853 50.4133 20.9376 50.4458 21.0222 50.4772C22.4344 50.998 23.1795 50.8378 23.5642 49.9256C24.1296 48.5838 26.2211 48.0507 28.3679 48.7485C29.4827 49.1108 30.3997 49.7357 30.9812 50.4537L30.9817 50.4531Z" fill="#1F2736"/>
</g>
<path d="M21.8259 23.5814L21.1814 22.2486C21.1488 22.1887 21.0957 22.1433 21.0321 22.1198L19.7189 21.5531C19.6896 21.5424 19.6586 21.5363 19.6271 21.5352L19.0921 21.5816C19.0921 21.5816 18.5493 21.7905 18.4747 21.8392C18.42 21.8751 18.2801 22.0319 18.5101 22.2116C18.7405 22.3914 19.332 22.593 19.332 22.593L19.8217 23.349C19.8543 23.3988 19.8018 23.461 19.7487 23.4352C19.4978 23.3132 19.0578 23.1104 18.7991 23.0595C18.7074 23.0416 18.6411 23.1485 18.6936 23.2264C18.8583 23.4728 19.3093 23.8502 19.6138 24.0316C20.0041 24.2635 20.9608 24.4981 21.1642 24.4466L21.4461 24.754L22.1779 24.0921L21.8259 23.5825V23.5814Z" fill="white"/>
<path d="M21.8262 23.582L26.8919 25.6115L25.4471 27.4802L21.446 24.7536C21.0414 24.0491 21.8262 23.582 21.8262 23.582Z" fill="#1B1828"/>
<path d="M27.4452 50.3884C27.4452 50.3884 27.6033 51.9032 27.5083 52.2157C27.4132 52.5282 26.9782 52.6643 26.4796 52.5523C26.2353 52.4974 25.7992 52.1552 25.1188 52.0152C24.4185 51.8707 23.7077 51.4927 23.5264 51.3718C23.04 51.047 23.155 50.17 23.564 50.0345C23.9603 49.9035 24.2483 50.1963 25.4903 50.1L26.2022 49.9863L27.4441 50.3884H27.4452Z" fill="#8FB7E1"/>
<path d="M22.6576 51.5173C22.6576 51.5173 22.8157 53.0321 22.7211 53.3446C22.6261 53.6571 22.1911 53.7932 21.6925 53.6812C21.4482 53.6263 21.0121 53.2841 20.3317 53.1441C19.6314 52.9996 18.9206 52.6216 18.7393 52.5007C18.2529 52.1759 18.3679 51.2989 18.7769 51.1634C19.1732 51.0324 19.4612 51.3252 20.7032 51.2289L21.4151 51.1152L22.657 51.5173H22.6576Z" fill="#8FB7E1"/>
<path d="M23.5001 26.9814C23.5001 26.9814 21.8746 27.9435 21.3876 28.5685C20.9012 29.1934 20.6398 29.5305 20.6873 30.925C20.7348 32.3194 20.9128 34.1713 20.9128 34.1713C20.9128 34.1713 20.8061 36.1431 20.5215 38.2353C20.5215 38.2353 21.9061 38.3361 24.463 37.8556C27.0193 37.3745 27.7937 36.4981 27.7937 36.4981C27.7937 36.4981 27.5792 34.7252 27.3333 33.9316C27.0867 33.1381 28.332 30.029 28.4249 29.026C28.5647 27.5162 27.8081 25.6357 26.8585 25.6116C25.9089 25.5876 23.5001 26.982 23.5001 26.982V26.9814Z" fill="#362C4F"/>
<path d="M25.3395 25.6105L25.6734 26.0289C25.6734 26.0289 25.9724 26.4281 25.6004 26.8369C25.2284 27.2457 24.469 27.3981 24.1291 27.3902C23.7886 27.3824 23.2884 27.2726 23.1469 27.1993L23.1087 26.4444L22.7213 25.7309L22.4023 24.2441L23.5481 24.5527L25.3401 25.6105H25.3395Z" fill="#FBC1A7"/>
<path d="M22.4671 22.0254C22.4671 22.0254 22.2096 22.2864 22.1195 22.6084C22.0294 22.9304 22.1195 23.3252 22.0714 23.5133C22.0233 23.7015 21.8973 24.2788 21.9813 24.6126C22.0653 24.9464 22.497 25.694 22.9165 25.7365C23.336 25.7791 25.3623 24.6372 25.3623 24.6372L25.3441 22.8021L24.4542 22.2813L22.4671 22.0254Z" fill="#FBC1A7"/>
<path d="M22.5267 23.4171C22.5267 23.4171 22.1585 22.3816 22.2807 21.9415C22.5504 20.9715 23.6238 20.7447 24.4811 21.0365C25.3384 21.3283 25.9309 21.6351 26.2973 22.4214C26.6644 23.2076 26.8429 24.0191 26.645 24.7359C26.4471 25.4521 25.8596 25.9337 25.6379 26.0547C25.4163 26.1756 25.434 26.4971 25.2903 26.6124C25.1466 26.7278 24.3612 27.0072 23.7736 26.7037C23.1861 26.4002 23.285 25.5831 23.3441 25.3491C23.4027 25.1155 22.9407 24.9481 22.8445 25.0091C22.7483 25.0696 22.5311 24.9447 22.509 24.7963C22.509 24.7963 22.6289 23.7693 22.5272 23.4171H22.5267Z" fill="#372D50"/>
<path d="M23.0924 24.7404C23.0924 24.7404 23.4202 25.0322 23.3842 25.2954C23.3483 25.5586 23.0974 25.7165 22.9056 25.4191C22.7138 25.1218 22.8735 24.6055 23.0924 24.741V24.7404Z" fill="#FBC1A7"/>
<path d="M27.7944 36.4979C27.7944 36.4979 27.7944 35.5066 27.5264 33.2739C27.685 32.4921 27.8917 31.0865 27.8917 31.0865C27.8779 30.7836 28.125 30.7074 27.952 28.6572C27.7668 26.4637 26.375 25.6797 26.375 25.6797L25.657 25.9199C27.7828 27.7187 26.6271 32.1203 26.6271 32.1203C26.3452 32.631 25.6477 32.4658 25.6477 32.4658C24.8014 27.6319 22.6939 27.4963 22.6939 27.4963C22.4181 27.6022 21.8681 28.1039 21.8681 28.1039C23.2787 27.7187 25.7925 32.8841 22.9575 33.8289C21.1153 34.4426 20.8262 33.1591 20.8262 33.1591C20.8262 33.1591 20.5034 35.7379 20.5233 38.2355C20.5233 38.2355 20.5233 38.2355 20.5228 38.2355L20.5239 38.2607C20.5283 38.7866 20.5477 39.3091 20.5891 39.8019L20.8389 45.6898L20.9009 51.1481C20.9009 51.1481 21.5083 51.945 22.8011 51.7361C22.8011 51.7361 23.5865 49.0168 23.6368 48.1224C23.6871 47.2281 23.355 45.7693 23.355 45.7693L24.5113 41.2064L25.0015 44.9058L25.5498 50.3361C25.5498 50.3361 26.2258 51.0736 27.4949 50.7483C27.4949 50.7483 28.0343 47.9684 28.005 47.073C27.9757 46.1775 27.5142 44.7551 27.5142 44.7551L27.795 36.4973L27.7944 36.4979Z" fill="#584967"/>
<path d="M22.3696 38.0884V40.6364L24.187 40.1716V37.0742C24.187 37.0742 23.3795 38.5028 22.3696 38.0889V38.0884Z" fill="#372D50"/>
<path d="M25.979 36.6445V39.5459L27.4294 39.0811V36.9817C27.4294 36.9817 26.7921 37.5288 25.979 36.6445Z" fill="#372D50"/>
<path d="M15.0996 25.7986L14.6613 25.1495C14.6575 25.1439 14.6541 25.1378 14.6514 25.1311L14.4049 24.5638C14.3474 24.4316 14.2468 24.3241 14.1202 24.258C14.1202 24.258 13.1634 23.6336 12.9838 23.6695C12.8042 23.7053 12.9208 23.9147 12.9208 23.9147L13.1778 24.1651L13.0612 24.1292C12.6638 24.0071 12.2432 24.2267 12.1094 24.6248C12.0901 24.6831 12.1199 24.7469 12.1768 24.7682L12.1818 24.7699C12.4748 24.8796 12.7168 25.0924 12.8733 25.3663C13.1242 25.8064 13.583 26.4594 14.1672 26.6285C14.1888 26.6347 14.2114 26.6341 14.233 26.6285L14.9725 26.4129C15.0145 26.4006 15.046 26.3647 15.0527 26.3205L15.1184 25.8798C15.1229 25.8512 15.1162 25.8221 15.1002 25.7986H15.0996Z" fill="white"/>
<path d="M21.3922 28.2588L17.4486 28.993L15.1249 25.834C15.1249 25.834 14.2146 25.8211 14.2002 26.6365L16.0347 30.6472C16.1541 30.9076 16.4061 31.0778 16.6891 31.0874C17.9217 31.1282 21.2463 31.1898 21.9505 30.6954C22.5751 30.2563 22.8608 29.6745 22.6497 28.9997C22.4833 28.4682 21.9339 28.1586 21.3928 28.2594L21.3922 28.2588Z" fill="#362C4F"/>
<path fill-rule="evenodd" clip-rule="evenodd" d="M26.1326 7.39062L25.7115 7.72383L24.9979 8.28831L24.5762 8.62151L25.4804 9.43631L26.246 8.83095L27.0109 8.22559L27.7764 7.62022L26.1326 7.39062Z" fill="#DEA4C8"/>
<path fill-rule="evenodd" clip-rule="evenodd" d="M31.1058 6.11328V7.00312L30.7134 6.61616L31.1058 6.11328Z" fill="#A1C6E9"/>
<path fill-rule="evenodd" clip-rule="evenodd" d="M29.2013 9.45758C28.7033 9.85182 27.751 9.94646 27.0744 9.66926C26.3979 9.39206 26.2536 8.84774 26.7516 8.45406C27.2496 8.06038 28.202 7.96518 28.8785 8.24294C29.555 8.52014 29.6993 9.0639 29.2013 9.45814V9.45758ZM30.1321 7.2187C28.4955 6.54782 26.1912 6.77686 24.9862 7.73054C23.7807 8.68366 24.1306 10.0002 25.7678 10.6711C27.4044 11.342 29.7087 11.1129 30.9136 10.1598C32.1186 9.2067 31.7693 7.89014 30.1321 7.21926V7.2187Z" fill="#A1C6E9"/>
<path fill-rule="evenodd" clip-rule="evenodd" d="M24.9682 7.17188L24.7201 7.36788L24.2994 7.70052L24.0513 7.89708L24.5835 8.377L25.0351 8.02028L25.4861 7.66356L25.9372 7.30684L24.9682 7.17188Z" fill="#E03554"/>
<path fill-rule="evenodd" clip-rule="evenodd" d="M31.8488 9.99164L31.6006 10.1882L31.1794 10.5208L30.9318 10.7168L29.9629 10.5819L30.4139 10.2252L30.8649 9.86844L31.316 9.51172L31.8488 9.99164Z" fill="#A1C6E9"/>
<path fill-rule="evenodd" clip-rule="evenodd" d="M31.1065 7.19571L30.7694 7.05739L30.1984 6.82331L29.8613 6.68555L29.0117 7.00083L29.6247 7.25227L30.2371 7.50315L30.8501 7.75403L31.1065 7.19571Z" fill="#E03554"/>
<path fill-rule="evenodd" clip-rule="evenodd" d="M26.0392 11.2038L25.7021 11.0655L25.1311 10.8314L24.7939 10.6931L25.0504 10.1348L25.6628 10.3856L26.2752 10.6371L26.8882 10.888L26.0392 11.2038Z" fill="#A1C6E9"/>
<path fill-rule="evenodd" clip-rule="evenodd" d="M28.073 6.45312L27.659 6.49456L26.9576 6.56401L26.5436 6.60489L26.3203 7.16825L27.072 7.09321L27.8243 7.01873L28.576 6.94369L28.073 6.45312Z" fill="#A1C6E9"/>
<path fill-rule="evenodd" clip-rule="evenodd" d="M29.3552 11.2816L28.9412 11.3224L28.2403 11.3924L27.8264 11.4333L27.3223 10.9428L28.0751 10.8683L28.8268 10.7932L29.579 10.7188L29.3552 11.2816Z" fill="#A1C6E9"/>
<path fill-rule="evenodd" clip-rule="evenodd" d="M32.2899 8.96027V7.87891L31.0806 7.97075L31.195 8.40027L31.3094 8.83035L31.4233 9.25987L32.2899 8.96027Z" fill="#A1C6E9"/>
<path fill-rule="evenodd" clip-rule="evenodd" d="M23.8415 9.80066L23.779 9.56434L23.6723 9.16338L23.6099 8.92706L23.779 8.48242L24.476 8.62746L24.5904 9.05754L24.7043 9.48706L24.8187 9.91714L23.8415 9.80066Z" fill="#A1C6E9"/>
<path fill-rule="evenodd" clip-rule="evenodd" d="M24.0513 6.81445V7.84485L24.4636 7.75861L24.6681 7.09389L24.0513 6.81445Z" fill="#A1C6E9"/>
<path fill-rule="evenodd" clip-rule="evenodd" d="M31.5933 8.11971V9.20107L32.2902 8.96027V7.87891L31.5933 8.11971Z" fill="#A1C6E9"/>
<path fill-rule="evenodd" clip-rule="evenodd" d="M29.2013 8.37558C28.7033 8.76926 27.751 8.86446 27.0744 8.58726C26.3979 8.31006 26.2536 7.76574 26.7516 7.37206C27.2496 6.97838 28.202 6.88374 28.8785 7.16094C29.555 7.43814 29.6993 7.9819 29.2013 8.37614V8.37558ZM30.1321 6.1367C28.4955 5.46582 26.1912 5.69486 24.9862 6.64798C23.7807 7.6011 24.1306 8.91766 25.7678 9.58854C27.4044 10.2594 29.7087 10.0304 30.9136 9.07726C32.1186 8.12414 31.7693 6.80758 30.1321 6.1367Z" fill="#C9E3F6"/>
<path fill-rule="evenodd" clip-rule="evenodd" d="M24.9682 6.08984L24.7201 6.2864L24.2994 6.61904L24.0513 6.81504L24.5835 7.29553L25.0351 6.9388L25.4861 6.58208L25.9372 6.2248L24.9682 6.08984Z" fill="#C9E3F6"/>
<path fill-rule="evenodd" clip-rule="evenodd" d="M31.8488 8.91017L31.6006 9.10617L31.1794 9.43881L30.9318 9.63537L29.9629 9.49985L30.4139 9.14313L30.8649 8.78641L31.316 8.42969L31.8488 8.91017Z" fill="#C9E3F6"/>
<path fill-rule="evenodd" clip-rule="evenodd" d="M31.1065 6.11368L30.7694 5.97536L30.1984 5.74128L29.8613 5.60352L29.0117 5.91936L29.6247 6.17024L30.2371 6.42112L30.8501 6.67256L31.1065 6.11368Z" fill="#C9E3F6"/>
<path fill-rule="evenodd" clip-rule="evenodd" d="M26.0392 10.1218L25.7021 9.98346L25.1311 9.74938L24.7939 9.61161L25.0504 9.05273L25.6628 9.30361L26.2752 9.55505L26.8882 9.80593L26.0392 10.1218Z" fill="#C9E3F6"/>
<path fill-rule="evenodd" clip-rule="evenodd" d="M28.073 5.37305L27.659 5.41449L26.9576 5.48393L26.5436 5.52537L26.3203 6.08817L27.072 6.01313L27.8243 5.93865L28.576 5.86361L28.073 5.37305Z" fill="#C9E3F6"/>
<path fill-rule="evenodd" clip-rule="evenodd" d="M29.3552 10.1995L28.9412 10.2404L28.2403 10.3104L27.8264 10.3513L27.3223 9.86072L28.0751 9.78624L28.8268 9.7112L29.579 9.63672L29.3552 10.1995Z" fill="#C9E3F6"/>
<path fill-rule="evenodd" clip-rule="evenodd" d="M32.2899 7.87875L32.2269 7.64187L32.1202 7.24147L32.0578 7.00515L31.0806 6.88867L31.195 7.31819L31.3094 7.74827L31.4233 8.17779L32.2899 7.87875Z" fill="#C9E3F6"/>
<path fill-rule="evenodd" clip-rule="evenodd" d="M23.8415 8.71812L23.779 8.4818L23.6723 8.08084L23.6099 7.84452L24.476 7.54492L24.5904 7.975L24.7043 8.40452L24.8187 8.8346L23.8415 8.71812Z" fill="#C9E3F6"/>
<path fill-rule="evenodd" clip-rule="evenodd" d="M27.8262 10.351V11.4329L29.355 11.2811V10.1992L27.8262 10.351Z" fill="#A1C6E9"/>
<path fill-rule="evenodd" clip-rule="evenodd" d="M30.9321 9.63536V10.7167L31.8491 9.99152V8.91016L30.9321 9.63536Z" fill="#A1C6E9"/>
<path fill-rule="evenodd" clip-rule="evenodd" d="M26.0392 10.1215V11.2034L24.7939 10.6927V9.61133L26.0392 10.1215Z" fill="#A1C6E9"/>
<path fill-rule="evenodd" clip-rule="evenodd" d="M23.8415 8.7193V9.80122L23.6099 8.92762V7.8457L23.8415 8.7193Z" fill="#A1C6E9"/>
<path fill-rule="evenodd" clip-rule="evenodd" d="M26.7217 10.9485V9.86719L26.0391 10.1209V11.2028L26.7217 10.9485Z" fill="#A1C6E9"/>
<path fill-rule="evenodd" clip-rule="evenodd" d="M24.6278 8.81227V9.89419L23.8418 9.80067V8.71875L24.6278 8.81227Z" fill="#A1C6E9"/>
<path fill-rule="evenodd" clip-rule="evenodd" d="M27.4219 9.95703V11.0384L27.827 11.4332V10.3513L27.4219 9.95703Z" fill="#A1C6E9"/>
<path fill-rule="evenodd" clip-rule="evenodd" d="M29.3555 10.1991L29.5356 9.74609V10.828L29.3555 11.2811V10.1991Z" fill="#A1C6E9"/>
<path fill-rule="evenodd" clip-rule="evenodd" d="M30.1523 9.52539V10.6068L30.9317 10.7154V9.63403L30.1523 9.52539Z" fill="#A1C6E9"/>
</svg>
