<svg width="19" height="19" viewBox="0 0 19 19" fill="none" xmlns="http://www.w3.org/2000/svg">
<path d="M16.295 10.8039C16.331 10.5159 16.358 10.2279 16.358 9.92187C16.358 9.61587 16.331 9.32788 16.295 9.03988L18.194 7.55487C18.365 7.41987 18.41 7.17687 18.302 6.97887L16.502 3.86487C16.421 3.72087 16.268 3.63987 16.106 3.63987C16.052 3.63987 15.998 3.64888 15.953 3.66688L13.712 4.56688C13.244 4.20688 12.74 3.90988 12.191 3.68488L11.849 1.29988C11.822 1.08388 11.633 0.921875 11.408 0.921875H7.80796C7.58296 0.921875 7.39396 1.08388 7.36696 1.29988L7.02496 3.68488C6.47596 3.90988 5.97196 4.21588 5.50396 4.56688L3.26296 3.66688C3.20896 3.64888 3.15496 3.63987 3.10096 3.63987C2.94796 3.63987 2.79496 3.72087 2.71396 3.86487L0.913961 6.97887C0.796961 7.17687 0.850961 7.41987 1.02196 7.55487L2.92096 9.03988C2.88496 9.32788 2.85796 9.62487 2.85796 9.92187C2.85796 10.2189 2.88496 10.5159 2.92096 10.8039L1.02196 12.2889C0.850961 12.4239 0.805961 12.6669 0.913961 12.8649L2.71396 15.9789C2.79496 16.1229 2.94796 16.2039 3.10996 16.2039C3.16396 16.2039 3.21796 16.1949 3.26296 16.1769L5.50396 15.2769C5.97196 15.6369 6.47596 15.9339 7.02496 16.1589L7.36696 18.5439C7.39396 18.7599 7.58296 18.9219 7.80796 18.9219H11.408C11.633 18.9219 11.822 18.7599 11.849 18.5439L12.191 16.1589C12.74 15.9339 13.244 15.6279 13.712 15.2769L15.953 16.1769C16.007 16.1949 16.061 16.2039 16.115 16.2039C16.268 16.2039 16.421 16.1229 16.502 15.9789L18.302 12.8649C18.41 12.6669 18.365 12.4239 18.194 12.2889L16.295 10.8039V10.8039ZM14.513 9.26488C14.549 9.54388 14.558 9.73287 14.558 9.92187C14.558 10.1109 14.54 10.3089 14.513 10.5789L14.387 11.5959L15.188 12.2259L16.16 12.9819L15.53 14.0709L14.387 13.6119L13.451 13.2339L12.641 13.8459C12.254 14.1339 11.885 14.3499 11.516 14.5029L10.562 14.8899L10.418 15.9069L10.238 17.1219H8.97796L8.80696 15.9069L8.66296 14.8899L7.70896 14.5029C7.32196 14.3409 6.96196 14.1339 6.60196 13.8639L5.78296 13.2339L4.82896 13.6209L3.68596 14.0799L3.05596 12.9909L4.02796 12.2349L4.82896 11.6049L4.70296 10.5879C4.67596 10.3089 4.65796 10.1019 4.65796 9.92187C4.65796 9.74187 4.67596 9.53488 4.70296 9.26488L4.82896 8.24788L4.02796 7.61787L3.05596 6.86188L3.68596 5.77287L4.82896 6.23187L5.76496 6.60987L6.57496 5.99787C6.96196 5.70987 7.33096 5.49387 7.69996 5.34087L8.65396 4.95387L8.79796 3.93687L8.97796 2.72187H10.229L10.4 3.93687L10.544 4.95387L11.498 5.34087C11.885 5.50287 12.245 5.70987 12.605 5.97987L13.424 6.60987L14.378 6.22287L15.521 5.76387L16.151 6.85287L15.188 7.61787L14.387 8.24788L14.513 9.26488ZM9.60796 6.32187C7.61896 6.32187 6.00796 7.93287 6.00796 9.92187C6.00796 11.9109 7.61896 13.5219 9.60796 13.5219C11.597 13.5219 13.208 11.9109 13.208 9.92187C13.208 7.93287 11.597 6.32187 9.60796 6.32187ZM9.60796 11.7219C8.61796 11.7219 7.80796 10.9119 7.80796 9.92187C7.80796 8.93187 8.61796 8.12187 9.60796 8.12187C10.598 8.12187 11.408 8.93187 11.408 9.92187C11.408 10.9119 10.598 11.7219 9.60796 11.7219Z" fill="#EA7C69"/>
</svg>
