<svg width="56" height="56" viewBox="0 0 56 56" fill="none" xmlns="http://www.w3.org/2000/svg">
<g clip-path="url(#clip0_2790_8655)">
<path d="M38.319 13.5154L39.2913 14.128V14.2132L38.3195 13.6005C38.3114 13.5955 38.3076 13.5887 38.3076 13.582V13.4969C38.3076 13.5036 38.3114 13.5103 38.3195 13.5154H38.319Z" fill="#9E9E9E"/>
<path d="M38.1144 13.6366L39.0868 14.2493V14.3344L38.115 13.7218C38.1069 13.7167 38.1025 13.71 38.1025 13.7033V13.6182C38.1025 13.6249 38.1063 13.6316 38.1144 13.6366Z" fill="#9E9E9E"/>
<path d="M37.9084 13.7593L38.8807 14.372V14.4571L37.9089 13.8445C37.9008 13.8394 37.8965 13.8327 37.8965 13.8265V13.7414C37.8965 13.7481 37.9003 13.7543 37.9084 13.7593Z" fill="#9E9E9E"/>
<path d="M39.7822 14.42V14.5052C39.7822 14.4962 39.7833 14.4873 39.785 14.4783C39.7861 14.4705 39.7872 14.4626 39.7872 14.4548V14.3696C39.7872 14.3775 39.7861 14.3853 39.785 14.3932C39.7833 14.4021 39.7828 14.4111 39.7828 14.42H39.7822Z" fill="white"/>
<path d="M39.7822 14.4205V14.5057C39.7822 14.4967 39.7833 14.4878 39.785 14.4788C39.7861 14.4709 39.7872 14.4631 39.7872 14.4553V14.3701C39.7872 14.378 39.7861 14.3858 39.785 14.3936C39.7833 14.4026 39.7828 14.4116 39.7828 14.4205H39.7822Z" fill="#858585"/>
<path d="M37.7047 13.8438C37.6788 13.8595 37.6782 13.8757 37.695 13.8864L38.9238 14.6536C39.0055 14.7023 39.1192 14.727 39.2344 14.7203C39.3578 14.713 39.4795 14.7365 39.5645 14.7903L41.8544 16.2396C41.9789 16.3186 42.1872 16.3202 42.316 16.2429C42.3209 16.2401 42.3252 16.2373 42.3301 16.234C42.4469 16.155 42.4307 16.0341 42.3041 15.9613L39.9016 14.5886C39.8123 14.5377 39.7734 14.4643 39.7858 14.3904C39.7972 14.3215 39.7571 14.2532 39.6754 14.2039L38.3995 13.4647C38.3822 13.4546 38.3546 13.4546 38.3373 13.4647L38.3216 13.4742C38.3048 13.4843 38.3043 13.5011 38.3205 13.5112L39.2929 14.1238L39.1971 14.1809L38.1782 13.5963C38.1609 13.5862 38.1333 13.5868 38.116 13.5963C38.0986 13.6064 38.0987 13.6232 38.1149 13.6332L39.0872 14.2459L38.9909 14.3036L37.972 13.7189C37.9547 13.7089 37.9271 13.7089 37.9103 13.7189C37.893 13.729 37.893 13.7458 37.9093 13.7559L38.8816 14.3686L38.7853 14.4262L37.7664 13.8416C37.7491 13.8315 37.7215 13.8315 37.7042 13.8416L37.7047 13.8438Z" fill="#DCDCDC"/>
<path d="M37.6944 13.8874L38.9233 14.6547C39.005 14.7034 39.1186 14.728 39.2339 14.7213C39.3572 14.714 39.479 14.7375 39.5639 14.7913L41.8539 16.2406C41.9783 16.3196 42.1866 16.3213 42.3154 16.244C42.3203 16.2412 42.3246 16.2384 42.3295 16.235C42.3831 16.1992 42.4085 16.1538 42.4085 16.109V16.1942C42.4085 16.2395 42.3831 16.2843 42.33 16.3202C42.3257 16.323 42.3208 16.3263 42.316 16.3291C42.1872 16.4059 41.9789 16.4042 41.8544 16.3258L39.5645 14.8764C39.4801 14.8227 39.3578 14.7992 39.2344 14.8064C39.1191 14.8132 39.0055 14.7885 38.9238 14.7398L37.695 13.9726C37.6874 13.9681 37.6836 13.9619 37.6836 13.9558V13.8706C37.6836 13.8768 37.6874 13.883 37.695 13.8874H37.6944Z" fill="#9E9E9E"/>
<g style="mix-blend-mode:multiply">
<path d="M1.05031 39.5955C0.457803 39.9494 0.945336 40.5627 1.53514 40.9177C3.05564 41.8322 2.9182 42.077 4.43869 42.9915C5.95919 43.906 6.09122 43.6708 7.61172 44.5853C9.13221 45.4998 9.11003 45.5401 10.6305 46.4546C12.1516 47.3692 12.1775 47.3227 13.698 48.2372C15.2185 49.1517 14.9171 49.6888 16.4382 50.6038C17.9592 51.5183 18.2076 51.0759 19.7281 51.9904C21.2491 52.9055 21.0262 53.3026 22.5472 54.2177C24.0683 55.1327 24.1992 54.8998 25.7202 55.8143C26.31 56.1688 26.9767 55.9627 27.5697 55.6087C29.1005 54.6942 50.8783 42.5104 52.409 41.5953C53.0015 41.2414 52.8895 40.3594 52.2997 40.0043C50.7792 39.0898 50.5206 39.5507 49.0001 38.6362C47.4796 37.7217 47.9525 36.8794 46.432 35.9649C44.9115 35.0504 44.5079 35.7683 42.9874 34.8538C41.4663 33.9393 41.6638 33.5881 40.1428 32.6736C38.6223 31.7591 38.4432 32.0778 36.9221 31.1633C35.4011 30.2487 35.6533 29.7996 34.1328 28.8851C32.6117 27.97 32.267 28.5844 30.746 27.6693C29.225 26.7542 29.5821 26.1186 28.0611 25.2041C27.4713 24.8496 26.573 25.3917 25.9805 25.7456C24.4503 26.6601 24.2679 26.3342 22.7377 27.2487C21.2069 28.1632 21.2567 28.2523 19.7265 29.1668C18.1957 30.0813 18.0756 29.8657 16.5448 30.7808C15.014 31.6953 15.0053 31.6796 13.4746 32.5947C11.9438 33.5092 11.9898 33.5915 10.459 34.5066C8.92822 35.4211 8.77671 35.15 7.24593 36.0646C5.71515 36.9796 5.83149 37.1348 4.22225 37.893C2.59191 38.6614 2.58163 38.6815 1.05085 39.5966L1.05031 39.5955Z" fill="#1F2736"/>
</g>
<path d="M26.5693 53.113L27.4979 52.5317L28.2083 31.4766L26.6997 32.3659L26.5693 53.113Z" fill="#796147"/>
<path d="M25.0107 31.3396L25.613 52.5163L26.568 53.1127L26.6984 32.3656L25.0107 31.3396Z" fill="#B69169"/>
<path d="M43.9326 21.1554L52.1141 16.2664C52.4122 16.0883 52.5616 15.8536 52.561 15.6201C52.561 15.6201 52.9441 25.6047 52.7915 25.7599C51.8349 26.7326 50.5081 25.6227 49.9719 24.6197C49.5931 23.9112 46.814 22.5577 43.9326 24.0512V21.1554Z" fill="#E6E6E5"/>
<path d="M5.36816 41.5689L6.2967 40.9876L7.00716 18.3656L5.49857 19.2549L5.36816 41.5689Z" fill="#796147"/>
<path d="M3.81055 18.2285L4.41279 40.9726L5.36784 41.569L5.49825 19.255L3.81055 18.2285Z" fill="#B69169"/>
<path d="M47.8086 41.5735L48.7371 40.9922L49.4476 18.3696L47.939 19.2589L47.8086 41.5735Z" fill="#796147"/>
<path d="M46.251 18.2324L46.8532 40.9766L47.8083 41.573L47.9387 19.2584L46.251 18.2324Z" fill="#B69169"/>
<path d="M52.5645 16.8975L52.5612 15.6201C52.5617 15.8542 52.4124 16.0883 52.1143 16.2664L52.1175 17.5438C52.4157 17.3657 52.565 17.1311 52.5645 16.8975Z" fill="white"/>
<path d="M1.1549 14.9822C0.562394 15.3361 0.558065 15.9113 1.14787 16.2658L25.4802 30.9008C26.07 31.2553 27.0288 31.2547 27.6213 30.9008L52.1138 16.2658C52.7063 15.9118 52.7106 15.3367 52.1208 14.9822L27.7885 0.347173C27.1987 -0.00732087 26.2399 -0.00676087 25.6474 0.347173L1.1549 14.9822Z" fill="#F5F6F6"/>
<path d="M27.6216 30.9014L52.114 16.2664C52.4122 16.0883 52.5615 15.8536 52.561 15.6201L52.5642 16.8975C52.5648 17.1316 52.4159 17.3657 52.1173 17.5438L27.6248 32.1788C27.3321 32.3541 26.9495 32.442 26.5664 32.4443V31.1669C26.9484 31.1641 27.3294 31.0761 27.6216 30.9014Z" fill="#66533C"/>
<path d="M1.14792 16.2674L25.4802 30.9024C25.7794 31.0822 26.1734 31.1707 26.5662 31.1679V32.4453C26.1744 32.4475 25.7816 32.359 25.4835 32.1798L1.15117 17.5448C0.858434 17.3684 0.711796 17.1382 0.711254 16.9075L0.708008 15.6301C0.708549 15.8608 0.855188 16.091 1.14792 16.2674Z" fill="#D4D4D4"/>
<path d="M1.1549 14.9007C0.562394 15.2546 0.558065 15.8298 1.14787 16.1843L25.4802 30.8193C26.07 31.1738 27.0288 31.1732 27.6213 30.8193L52.1138 16.1843C52.7063 15.8303 52.7106 15.2552 52.1208 14.9007L27.7885 0.26566C27.1987 -0.0888333 26.2399 -0.0882733 25.6474 0.26566L1.1549 14.9007Z" fill="#F5F6F6"/>
<path d="M0.707623 15.6301C0.708164 15.8608 0.854802 16.091 1.14754 16.2674L25.4798 30.9024C25.7791 31.0822 26.6102 31.2726 27.2849 31.0486C26.9711 33.7311 27.8233 40.9654 27.1654 41.213C26.1573 41.1609 24.8646 38.7752 24.4149 38.3092C23.9988 37.8786 20.7766 37.7851 18.3286 35.326C16.8097 33.8005 14.5793 33.4841 12.7553 32.4061C10.6304 31.1499 8.93833 29.4262 7.11373 28.7211C4.07382 27.5468 3.60847 26.4984 3.35415 26.6502C2.21784 27.3283 1.80822 30.031 0.0361145 28.4882C-0.188443 28.2927 0.707623 15.6301 0.707623 15.6301Z" fill="#E6E6E5"/>
<g style="mix-blend-mode:multiply">
<path d="M36.7988 50.3949L45.5495 55.4575C45.9148 55.6686 46.3601 55.6653 46.7221 55.4485L53.9978 51.0916C54.2651 50.9314 54.2645 50.5321 53.9967 50.3731L45.6599 45.4141L36.7988 50.3949Z" fill="#58595B"/>
</g>
<path d="M44.8395 34.7285L45.7507 34.1808C45.7356 35.0808 45.7388 41.9858 45.7421 45.9133L44.8309 46.461C44.8276 42.5335 44.8244 35.6285 44.8395 34.7285Z" fill="white"/>
<path d="M44.8393 34.7314L45.7505 34.1837C45.7489 34.2806 45.7473 34.4665 45.7462 34.7275L44.835 35.2752C44.836 35.0148 44.8377 34.8283 44.8393 34.7314Z" fill="#B4B4B4"/>
<path d="M44.8345 35.2741L45.7457 34.7264C45.7354 36.8932 45.7381 42.4094 45.7408 45.9157L44.8296 46.4634C44.8269 42.9576 44.8242 37.4414 44.8345 35.2741Z" fill="#B69169"/>
<path d="M44.0342 34.2472L44.9454 33.6995L45.7495 34.18L44.8388 34.7282L44.0342 34.2472Z" fill="#DCDCDC"/>
<path d="M44.8391 34.7289C44.8239 35.6289 44.8272 42.5339 44.8304 46.4614L44.0242 45.9797C44.0231 44.9123 44.022 42.1716 44.0215 39.4252C44.0215 37.6679 44.022 37.6931 44.0242 36.3709C44.0258 35.0761 44.0269 34.5116 44.0345 34.2484L44.8391 34.7289Z" fill="#796147"/>
<path d="M38.352 38.6637L39.2633 38.116C39.2481 39.016 39.2514 45.921 39.2546 49.8484L38.3434 50.3961C38.3401 46.4687 38.3374 39.5637 38.352 38.6637Z" fill="white"/>
<path d="M38.353 38.6634L39.2642 38.1157C39.2626 38.212 39.2609 38.3985 39.2598 38.6589L38.3486 39.2066C38.3497 38.9462 38.3513 38.7597 38.353 38.6634Z" fill="#B4B4B4"/>
<path d="M38.3482 39.2061L39.2594 38.6584C39.2491 40.8252 39.2518 46.3419 39.2545 49.8477L38.3433 50.3954C38.3406 46.8891 38.3379 41.3729 38.3482 39.2061Z" fill="#B69169"/>
<path d="M37.5479 38.1831L38.4585 37.6349L39.2631 38.1154L38.3519 38.6636L37.5479 38.1831Z" fill="#DCDCDC"/>
<path d="M38.3522 38.6627C38.3371 39.5626 38.3403 46.4677 38.3436 50.3951L37.5373 49.9135C37.5362 48.8461 37.5352 46.1053 37.5352 43.3596C37.5352 41.6017 37.5357 41.6269 37.5379 40.3041C37.5395 39.0093 37.5406 38.4448 37.5481 38.1816L38.3528 38.6621L38.3522 38.6627Z" fill="#796147"/>
<path d="M52.9208 37.5238C52.2228 37.1066 50.7017 36.178 49.0925 35.1963C47.8848 34.4588 48.4702 34.7925 47.5211 34.2174C47.486 34.1961 47.4513 34.1754 47.4172 34.1547C45.7582 33.1634 44.7707 32.9624 43.9163 33.4328C43.9136 33.4345 43.9104 33.4362 43.9077 33.4379L35.8301 38.296C35.8328 38.2944 35.8355 38.2927 35.8387 38.291C36.6937 37.8206 37.6812 38.0216 39.3397 39.0129C39.3743 39.0336 39.4089 39.0543 39.4436 39.0756C40.3927 39.6507 39.8072 39.317 41.0149 40.0545C42.6247 41.0368 44.1452 41.9647 44.8432 42.382C45.1305 42.5533 45.3621 42.9694 45.3616 43.311C45.3616 43.4802 45.3032 43.5994 45.2101 43.6554L53.2877 38.7973C53.3807 38.7413 53.4386 38.622 53.4392 38.4528C53.4403 38.1112 53.2081 37.6957 52.9208 37.5238Z" fill="#BCADD1"/>
<path d="M39.3388 39.0115C39.3735 39.0322 39.4081 39.0529 39.4427 39.0742C40.3918 39.6494 39.8063 39.3156 41.0141 40.0531C42.6239 41.0354 44.1444 41.9634 44.8424 42.3806C45.1297 42.5519 45.3613 42.968 45.3608 43.3097C45.3597 43.6507 45.1265 43.7885 44.8391 43.6165C44.1357 43.196 42.612 42.2663 40.9995 41.2818C39.7923 40.5454 40.3788 40.8797 39.4314 40.3051C39.3978 40.2844 39.3643 40.2643 39.3313 40.2447C37.7642 39.3083 37.1046 39.3089 36.5565 39.6096C36.4553 39.665 36.3254 39.6454 36.195 39.5676C36.0592 39.4864 35.9234 39.3425 35.8222 39.156C35.7259 38.9796 35.6783 38.7976 35.6777 38.6436C35.6777 38.48 35.7308 38.3484 35.8374 38.2896C36.6923 37.8192 37.6798 38.0203 39.3383 39.0115H39.3388Z" fill="#584967"/>
<path d="M46.1729 28.3942L54.2504 23.536C54.3083 23.5013 54.3873 23.5092 54.4685 23.5579L46.3909 28.4161C46.3092 28.3673 46.2307 28.3595 46.1729 28.3942Z" fill="#3DA7A5"/>
<path d="M53.7758 33.8636L45.6982 38.7218C45.748 38.6921 45.7805 38.6316 45.7864 38.5454C45.8638 37.3772 45.8746 35.8517 45.8676 33.769C45.8622 32.2995 46.1365 30.2207 46.669 29.09C46.7372 28.9466 46.6668 28.6901 46.5121 28.5171C46.4726 28.4729 46.4314 28.4387 46.3909 28.4146L54.4684 23.5564C54.509 23.5805 54.5501 23.6152 54.5896 23.6589C54.7444 23.832 54.8147 24.0884 54.7466 24.2318C54.2141 25.3625 53.9398 27.4413 53.9452 28.9108C53.9522 30.9929 53.9414 32.519 53.864 33.6872C53.8581 33.7735 53.8251 33.8339 53.7758 33.8636Z" fill="#584967"/>
<path d="M46.3914 28.4152C46.432 28.4393 46.4731 28.474 46.5126 28.5177C46.6674 28.6907 46.7377 28.9472 46.6695 29.0906C46.1371 30.2212 45.8627 32.3 45.8682 33.7695C45.8752 35.8517 45.8644 37.3778 45.787 38.546C45.7745 38.7296 45.6398 38.7957 45.4813 38.7005C45.4737 38.696 45.4667 38.6916 45.4585 38.6865C45.2903 38.5712 45.1642 38.3214 45.1766 38.1282C45.2529 36.9835 45.2637 35.4742 45.2567 33.41C45.2518 31.8638 45.5424 29.6691 46.1095 28.4656C46.1604 28.3586 46.2729 28.3446 46.3909 28.4146L46.3914 28.4152Z" fill="#362C4F"/>
<path d="M49.2613 27.278L48.35 27.8257C47.6352 28.2558 47.0952 30.9602 47.1023 33.0759C47.1201 38.0915 47.0335 39.6136 46.2062 41.5429C46.1916 42.4417 46.1948 51.1305 46.1981 55.0585L47.1093 54.5108C47.1061 50.5833 47.1033 41.8946 47.1174 40.9952C47.9448 39.0659 48.0313 37.5444 48.0135 32.5282C48.0064 30.4125 48.5465 27.7081 49.2613 27.278Z" fill="#B69169"/>
<path d="M49.3432 26.5981C49.2637 26.4441 49.1533 26.3237 49.0424 26.2576C48.9471 26.2005 48.8514 26.1837 48.7745 26.2189C48.7491 26.2307 48.7242 26.2436 48.6993 26.2587L47.7881 26.8064C47.813 26.7913 47.8379 26.7784 47.8633 26.7666C47.9401 26.7314 48.0359 26.7482 48.1311 26.8053C48.2421 26.8714 48.3525 26.9918 48.432 27.1458C48.5738 27.4207 48.5646 27.703 48.4158 27.7926L49.327 27.2449C49.4758 27.1553 49.485 26.873 49.3432 26.5981Z" fill="#D5A97C"/>
<path d="M48.1308 26.8043C48.2417 26.8704 48.3521 26.9908 48.4316 27.1448C48.5793 27.431 48.5636 27.725 48.397 27.8017C47.66 28.1411 47.0962 30.9154 47.1038 33.076C47.1216 38.0915 47.035 39.6137 46.2077 41.5429C46.1931 42.4418 46.1963 51.1305 46.1996 55.0585L45.3933 54.5769C45.3922 53.5095 45.3912 50.7687 45.3906 48.0229C45.3906 46.265 45.3917 44.5066 45.3933 43.1838C45.3959 41.6512 45.4097 40.8558 45.435 40.7976C46.2375 38.9528 46.3148 37.5982 46.2975 32.6016C46.2899 30.4601 46.83 27.2406 47.8629 26.7657C47.9398 26.7304 48.0355 26.7472 48.1308 26.8043Z" fill="#796147"/>
<path d="M55.8189 23.3457L54.9077 23.8934C54.1929 24.3235 53.6528 27.0278 53.6599 29.1436C53.6777 34.1591 53.5912 35.6813 52.7638 37.6106C52.7492 38.5094 52.7525 47.1981 52.7557 51.1261L53.6669 50.5784C53.6637 46.651 53.6604 37.9623 53.675 37.0629C54.5024 35.1336 54.589 33.612 54.5711 28.5959C54.5641 26.4801 55.1041 23.7758 55.8189 23.3457Z" fill="#B69169"/>
<path d="M55.8989 22.6657C55.8193 22.5117 55.709 22.3913 55.598 22.3252C55.5028 22.2681 55.407 22.2513 55.3302 22.2866C55.3047 22.2983 55.2799 22.3112 55.255 22.3263L54.3438 22.874C54.3686 22.8589 54.3935 22.846 54.419 22.8343C54.4958 22.799 54.5916 22.8158 54.6868 22.8729C54.7977 22.939 54.9081 23.0594 54.9877 23.2134C55.1294 23.4884 55.1202 23.7706 54.9714 23.8602L55.8826 23.3125C56.0314 23.2229 56.0406 22.9407 55.8989 22.6657Z" fill="#D5A97C"/>
<path d="M54.6874 22.8719C54.7983 22.938 54.9087 23.0584 54.9883 23.2124C55.1354 23.4986 55.1203 23.7926 54.9536 23.8693C54.2166 24.2087 53.6528 26.983 53.6604 29.1436C53.6783 34.1592 53.5917 35.6813 52.7643 37.6106C52.7497 38.5094 52.753 47.1981 52.7562 51.1261L51.95 50.6445C51.9489 49.5771 51.9478 46.8364 51.9473 44.0906C51.9473 42.3327 51.9478 40.5742 51.95 39.2514C51.9525 37.7188 51.9664 36.9234 51.9916 36.8652C52.7941 35.0205 52.8715 33.6658 52.8542 28.6693C52.8466 26.5278 53.3866 23.3082 54.4196 22.8333C54.4964 22.798 54.5922 22.8148 54.6874 22.8719Z" fill="#796147"/>
<path fill-rule="evenodd" clip-rule="evenodd" d="M20.8457 11.0297L19.4486 12.1582L17.0813 14.0712L15.6836 15.2002L18.6818 17.9617L21.2218 15.9097L23.7601 13.8584L26.2995 11.807L20.8457 11.0297Z" fill="#DEA4C8"/>
<path fill-rule="evenodd" clip-rule="evenodd" d="M37.3453 6.69775V9.71347L36.0439 8.40246L37.3453 6.69775Z" fill="#A1C6E9"/>
<path fill-rule="evenodd" clip-rule="evenodd" d="M31.0267 18.0283C29.3748 19.3634 26.2153 19.6848 23.9713 18.7457C21.7274 17.806 21.2479 15.9618 22.8999 14.6273C24.5525 13.2922 27.7114 12.9713 29.9554 13.911C32.1993 14.8502 32.6787 16.6938 31.0262 18.0283H31.0267ZM34.1148 10.4406C28.6849 8.16745 21.0418 8.94364 17.043 12.1744C13.0443 15.4046 14.205 19.8669 19.6349 22.1394C25.0654 24.4131 32.7085 23.6369 36.7072 20.4062C40.7054 17.1754 39.5453 12.7143 34.1148 10.4406Z" fill="#A1C6E9"/>
<path fill-rule="evenodd" clip-rule="evenodd" d="M16.9829 10.2842L16.1605 10.9489L14.7644 12.0762L13.9414 12.7416L15.7081 14.3684L17.2048 13.1599L18.7015 11.9508L20.1976 10.7412L16.9829 10.2842Z" fill="#E03554"/>
<path fill-rule="evenodd" clip-rule="evenodd" d="M39.8099 19.8374L38.9864 20.5033L37.5909 21.6306L36.7679 22.2959L33.5537 21.8372L35.0499 20.6293L36.5465 19.4196L38.0427 18.2105L39.8099 19.8374Z" fill="#A1C6E9"/>
<path fill-rule="evenodd" clip-rule="evenodd" d="M37.3442 10.3634L36.2263 9.89526L34.3319 9.10171L33.2135 8.63409L30.3965 9.70373L32.4294 10.555L34.4612 11.4051L36.4936 12.2563L37.3442 10.3634Z" fill="#E03554"/>
<path fill-rule="evenodd" clip-rule="evenodd" d="M20.5366 23.9466L19.4176 23.4779L17.5232 22.6849L16.4053 22.2167L17.2559 20.3239L19.2888 21.174L21.3206 22.0252L23.353 22.8759L20.5366 23.9466Z" fill="#A1C6E9"/>
<path fill-rule="evenodd" clip-rule="evenodd" d="M27.2834 7.85281L25.9101 7.99282L23.5845 8.22859L22.2111 8.36803L21.4688 10.2755L23.9638 10.0223L26.4588 9.76865L28.9538 9.51552L27.2834 7.85281Z" fill="#A1C6E9"/>
<path fill-rule="evenodd" clip-rule="evenodd" d="M31.5387 24.2134L30.1654 24.3528L27.8392 24.5891L26.4664 24.7286L24.7949 23.0659L27.2905 22.8133L29.7855 22.5591L32.2805 22.3059L31.5387 24.2134Z" fill="#A1C6E9"/>
<path fill-rule="evenodd" clip-rule="evenodd" d="M41.2739 16.3477V12.6818L37.2627 12.9926L37.642 14.4498L38.0202 15.9058L38.399 17.3625L41.2739 16.3477Z" fill="#A1C6E9"/>
<path fill-rule="evenodd" clip-rule="evenodd" d="M13.2466 19.1948L13.0382 18.3934L12.6849 17.0348L12.4766 16.2339L13.0382 14.7275L15.3514 15.2186L15.7297 16.6758L16.109 18.1318L16.4878 19.589L13.2466 19.1948Z" fill="#A1C6E9"/>
<path fill-rule="evenodd" clip-rule="evenodd" d="M13.9414 9.07544V12.5672L15.3088 12.2748L15.9879 10.0224L13.9414 9.07544Z" fill="#A1C6E9"/>
<path fill-rule="evenodd" clip-rule="evenodd" d="M38.9619 13.4977V17.1636L41.274 16.3477V12.6818L38.9619 13.4977Z" fill="#A1C6E9"/>
<path fill-rule="evenodd" clip-rule="evenodd" d="M31.0267 14.3627C29.3748 15.6978 26.2153 16.0187 23.9713 15.0796C21.7274 14.1399 21.2479 12.2963 22.8999 10.9606C24.5525 9.62609 27.7114 9.3052 29.9554 10.2444C32.1993 11.1841 32.6787 13.0271 31.0262 14.3627H31.0267ZM34.1148 6.77502C28.6849 4.50134 21.0418 5.27753 17.043 8.50885C13.0443 11.739 14.205 16.2013 19.6349 18.4739C25.0654 20.747 32.7085 19.9708 36.7072 16.74C40.7054 13.5098 39.5453 9.04815 34.1148 6.77502Z" fill="#C9E3F6"/>
<path fill-rule="evenodd" clip-rule="evenodd" d="M16.9829 6.61823L16.1605 7.28409L14.7644 8.41085L13.9414 9.07616L15.7081 10.7041L17.2048 9.49505L18.7015 8.28597L20.1976 7.07632L16.9829 6.61823Z" fill="#C9E3F6"/>
<path fill-rule="evenodd" clip-rule="evenodd" d="M39.8099 16.1726L38.9864 16.8373L37.5909 17.9652L36.7679 18.6305L33.5537 18.1718L35.0499 16.9628L36.5465 15.7537L38.0427 14.5446L39.8099 16.1726Z" fill="#C9E3F6"/>
<path fill-rule="evenodd" clip-rule="evenodd" d="M37.3442 6.69693L36.2263 6.22931L34.3319 5.43632L33.2135 4.96814L30.3965 6.03834L32.4294 6.88901L34.4612 7.73968L36.4936 8.59036L37.3442 6.69693Z" fill="#C9E3F6"/>
<path fill-rule="evenodd" clip-rule="evenodd" d="M20.5366 20.2787L19.4176 19.8105L17.5232 19.0175L16.4053 18.5488L17.2559 16.6559L19.2888 17.5066L21.3206 18.3578L23.353 19.2085L20.5366 20.2787Z" fill="#C9E3F6"/>
<path fill-rule="evenodd" clip-rule="evenodd" d="M27.2834 4.18683L25.9101 4.32571L23.5845 4.56204L22.2111 4.70149L21.4688 6.60948L23.9638 6.35579L26.4588 6.1021L28.9538 5.84841L27.2834 4.18683Z" fill="#C9E3F6"/>
<path fill-rule="evenodd" clip-rule="evenodd" d="M31.5387 20.548L30.1654 20.6874L27.8392 20.9232L26.4664 21.0626L24.7949 19.3999L27.2905 19.1474L29.7855 18.8931L32.2805 18.64L31.5387 20.548Z" fill="#C9E3F6"/>
<path fill-rule="evenodd" clip-rule="evenodd" d="M41.2739 12.681L41.0656 11.8797L40.7122 10.521L40.5039 9.72021L37.2627 9.32596L37.642 10.782L38.0202 12.2392L38.399 13.6952L41.2739 12.681Z" fill="#C9E3F6"/>
<path fill-rule="evenodd" clip-rule="evenodd" d="M13.2466 15.5276L13.0382 14.7268L12.6849 13.3681L12.4766 12.5667L15.3514 11.5526L15.7297 13.008L16.109 14.4652L16.4878 15.9213L13.2466 15.5276Z" fill="#C9E3F6"/>
<path fill-rule="evenodd" clip-rule="evenodd" d="M26.4668 21.0632V24.7296L31.5391 24.2144V20.5485L26.4668 21.0632Z" fill="#A1C6E9"/>
<path fill-rule="evenodd" clip-rule="evenodd" d="M36.7676 18.6327V22.2986L39.8097 19.8401V16.1748L36.7676 18.6327Z" fill="#A1C6E9"/>
<path fill-rule="evenodd" clip-rule="evenodd" d="M20.5366 20.2784V23.9449L16.4053 22.215V18.5485L20.5366 20.2784Z" fill="#A1C6E9"/>
<path fill-rule="evenodd" clip-rule="evenodd" d="M13.2466 15.5273V19.1938L12.4766 16.2329V12.5665L13.2466 15.5273Z" fill="#A1C6E9"/>
<path fill-rule="evenodd" clip-rule="evenodd" d="M22.8006 23.0857V19.4193L20.5361 20.28V23.9465L22.8006 23.0857Z" fill="#A1C6E9"/>
<path fill-rule="evenodd" clip-rule="evenodd" d="M15.8546 15.8456V19.5121L13.2471 19.1951V15.5287L15.8546 15.8456Z" fill="#A1C6E9"/>
<path fill-rule="evenodd" clip-rule="evenodd" d="M25.123 19.7234V23.3893L26.4671 24.7272V21.0608L25.123 19.7234Z" fill="#A1C6E9"/>
<path fill-rule="evenodd" clip-rule="evenodd" d="M31.54 20.5468L32.1369 19.0117V22.6788L31.54 24.2127V20.5468Z" fill="#A1C6E9"/>
<path fill-rule="evenodd" clip-rule="evenodd" d="M34.1826 18.2622V21.9281L36.7675 22.2966V18.6307L34.1826 18.2622Z" fill="#A1C6E9"/>
</g>
<defs>
<clipPath id="clip0_2790_8655">
<rect width="56" height="56" fill="white"/>
</clipPath>
</defs>
</svg>
