<svg width="60" height="56" viewBox="0 0 60 56" fill="none" xmlns="http://www.w3.org/2000/svg">
<g clip-path="url(#clip0_2844_45647)">
<path d="M55.9259 0H4.07414C1.82428 0 0 1.69201 0 3.77874V37.3445C0 39.4318 1.82428 41.1238 4.07414 41.1238H55.9259C58.1757 41.1238 60 39.4312 60 37.3445V3.77874C60 1.69201 58.1763 0 55.9259 0Z" fill="#362C4F"/>
<path d="M55.5453 3.09619H5.07593V38.0286H55.5453V3.09619Z" fill="white"/>
<g opacity="0.3">
<path d="M18.7631 11.8845C18.7723 9.16307 16.4014 6.94995 13.4675 6.9414C10.5336 6.93285 8.14774 9.13211 8.13852 11.8536C8.1293 14.5751 10.5002 16.7882 13.4341 16.7967C16.368 16.8053 18.7539 14.606 18.7631 11.8845Z" fill="#93D5D6"/>
<path d="M11.9258 10.5386C11.9381 10.8212 12.0163 11.0481 12.1003 11.0448C12.185 11.0421 12.2428 10.8104 12.2305 10.5278C12.2177 10.2451 12.1395 10.0183 12.0554 10.0215C11.9713 10.0242 11.913 10.256 11.9252 10.5386H11.9258Z" fill="#FFDBA7"/>
<path d="M14.9569 10.5386C14.944 10.8212 14.8664 11.0481 14.7818 11.0448C14.6977 11.0421 14.6393 10.8104 14.6522 10.5278C14.6644 10.2451 14.7426 10.0183 14.8267 10.0215C14.9108 10.0242 14.9691 10.256 14.9569 10.5386Z" fill="#FFDBA7"/>
<path d="M14.2883 11.7432H12.5942V12.9993H14.2883V11.7432Z" fill="#F0DFB1"/>
<path d="M12.5942 11.823C12.8342 12.1078 13.1261 12.2757 13.4413 12.2757C13.7565 12.2757 14.0484 12.1078 14.2883 11.823V11.7456H12.5942V11.823Z" fill="#F2BB78"/>
<path d="M14.805 10.4558C14.805 11.3632 14.1944 12.0991 13.4413 12.0991C12.6883 12.0991 12.0776 11.3632 12.0776 10.4558C12.0776 9.54832 12.6883 8.8125 13.4413 8.8125C13.7898 8.8125 14.1611 8.8125 14.4022 9.07077C14.6824 9.37127 14.805 9.96794 14.805 10.4558Z" fill="#FFDBA7"/>
<path d="M16.2889 13.4854L14.3163 12.5817C14.0997 12.7571 13.7891 12.8676 13.443 12.8676C13.0968 12.8676 12.7845 12.756 12.5679 12.5801L10.5095 13.4686L10.1021 15.0117H16.8014L16.2889 13.4848V13.4854Z" fill="#3D5971"/>
<path d="M14.3165 12.5815L14.6866 13.4766L14.0193 13.9671L14.1402 14.626L13.4519 14.907L14.3165 12.5815Z" fill="#607990"/>
<path d="M12.568 12.5801L12.2178 13.4767L12.885 13.9673L12.7636 14.6262L13.4519 14.9072L12.568 12.5801Z" fill="#607990"/>
<path d="M12.5679 12.5801C12.5679 12.5801 13.3583 13.2125 14.3163 12.5817L13.4517 14.9077L12.5679 12.5801Z" fill="white"/>
<path d="M14.6865 9.05667C14.4776 8.72097 13.9814 8.44971 13.5651 8.44971C13.1489 8.44971 12.4414 8.80652 12.2324 9.14167C12.0234 9.47683 11.9154 10.1439 12.0829 10.3226L12.345 10.1379C12.345 10.1379 12.2668 9.68203 12.5599 9.31494L13.0508 9.09782L14.3509 9.11406L14.5359 9.45138C14.7613 9.85313 14.5768 10.1428 14.5768 10.1428L14.8062 10.322C14.9732 10.1433 14.8961 9.39128 14.6877 9.05612L14.6865 9.05667Z" fill="#88351C"/>
<path d="M13.4518 14.975L13.1733 14.2413L13.4693 13.0117L13.7484 14.2413L13.4518 14.975Z" fill="#64BCD0"/>
<path d="M13.4693 13.2231L13.1733 12.8365L13.4693 12.8592L13.7548 12.8262L13.4693 13.2231Z" fill="#64BCD0"/>
<path d="M13.7537 10.9771H13.1792L12.5149 11.6457C12.5149 11.6457 12.6001 12.0989 13.4472 12.0989C14.2942 12.0989 14.3672 11.6836 14.3672 11.6836L13.7537 10.9771ZM13.6474 11.8769L13.582 11.7394H13.3561L13.2837 11.8818C12.8984 11.8315 12.8552 11.6062 12.8552 11.6062L13.2755 11.1833H13.6387L14.0274 11.63C14.0274 11.63 13.993 11.8212 13.648 11.8769H13.6474Z" fill="#88351C"/>
<path d="M14.3077 12.5903L13.9562 13.0479L13.7537 12.8286L14.3077 12.5903Z" fill="#DDDDDD"/>
<path d="M12.6194 12.5972L12.9708 13.0552L13.1728 12.8359L12.6194 12.5972Z" fill="#DDDDDD"/>
</g>
<path d="M50.2482 32.6785H44.386V32.908H50.2482V32.6785Z" fill="#657B8D"/>
<path d="M50.2482 33.1948H44.386V33.4244H50.2482V33.1948Z" fill="#657B8D"/>
<path d="M50.2482 33.7119H44.386V33.9415H50.2482V33.7119Z" fill="#657B8D"/>
<path d="M50.2482 34.229H44.386V34.4586H50.2482V34.229Z" fill="#657B8D"/>
<path d="M51.2505 32.6785V34.4587H53.1699V32.6785H51.2505ZM53.0001 34.3012H51.421V32.8366H53.0001V34.3012Z" fill="#657B8D"/>
<path d="M33.4085 32.6785H27.5469V32.908H33.4085V32.6785Z" fill="#657B8D"/>
<path d="M33.4085 33.1948H27.5469V33.4244H33.4085V33.1948Z" fill="#657B8D"/>
<path d="M33.4085 33.7119H27.5469V33.9415H33.4085V33.7119Z" fill="#657B8D"/>
<path d="M33.4085 34.229H27.5469V34.4586H33.4085V34.229Z" fill="#657B8D"/>
<path d="M34.5388 32.6785V34.4587H36.4583V32.6785H34.5388ZM36.2884 34.3012H34.7093V32.8366H36.2884V34.3012Z" fill="#657B8D"/>
<path d="M16.5702 32.6785H10.708V32.908H16.5702V32.6785Z" fill="#657B8D"/>
<path d="M16.5702 33.1948H10.708V33.4244H16.5702V33.1948Z" fill="#657B8D"/>
<path d="M16.5702 33.7119H10.708V33.9415H16.5702V33.7119Z" fill="#657B8D"/>
<path d="M16.5702 34.229H10.708V34.4586H16.5702V34.229Z" fill="#657B8D"/>
<path d="M17.5125 32.6785V34.4587H19.4319V32.6785H17.5125ZM19.262 34.3012H17.6829V32.8366H19.262V34.3012Z" fill="#657B8D"/>
<g opacity="0.3">
<path d="M52.4997 26.8503C52.4997 29.5781 50.1156 31.7894 47.1745 31.7894C44.2335 31.7894 41.8494 29.5781 41.8494 26.8503C41.8494 24.1225 44.2335 21.9102 47.1745 21.9102C50.1156 21.9102 52.4997 24.122 52.4997 26.8503Z" fill="#7CABC6"/>
<path d="M45.6445 25.6782C45.6568 25.9613 45.7356 26.1887 45.8202 26.186C45.9043 26.1828 45.9632 25.951 45.9504 25.6673C45.9381 25.3841 45.8593 25.1567 45.7753 25.1594C45.6906 25.1627 45.6322 25.3944 45.6451 25.6782H45.6445Z" fill="#FFDBA7"/>
<path d="M48.6829 25.6782C48.6707 25.9613 48.5918 26.1887 48.5078 26.186C48.4237 26.1828 48.3653 25.951 48.3776 25.6673C48.3899 25.3841 48.4687 25.1567 48.5527 25.1594C48.6368 25.1627 48.6958 25.3944 48.6829 25.6782Z" fill="#FFDBA7"/>
<path d="M48.0129 26.8855H46.3147V28.1444H48.0129V26.8855Z" fill="#F0DFB1"/>
<path d="M46.3147 26.9651C46.5552 27.251 46.8477 27.4193 47.1641 27.4193C47.4805 27.4193 47.773 27.251 48.0135 26.9656V26.8882H46.3153V26.9656L46.3147 26.9651Z" fill="#F2BB78"/>
<path d="M48.5301 25.5953C48.5301 26.5049 47.9183 27.2424 47.1635 27.2424C46.4087 27.2424 45.7969 26.5049 45.7969 25.5953C45.7969 24.6857 46.4087 23.9482 47.1635 23.9482C47.5126 23.9482 47.885 23.9482 48.1267 24.2071C48.4075 24.5086 48.5301 25.1064 48.5301 25.5953Z" fill="#FFDBA7"/>
<path d="M50.018 28.6311L48.0407 27.7253C47.8241 27.9007 47.513 28.0117 47.1656 28.0117C46.8183 28.0117 46.5054 27.9001 46.2888 27.7236L44.2252 28.6143L43.8171 30.1612H50.5323L50.0185 28.6306L50.018 28.6311Z" fill="#3D5971"/>
<path d="M48.0409 27.7258L48.4116 28.623L47.7426 29.1146L47.864 29.7752L47.1746 30.0573L48.0409 27.7258Z" fill="#607990"/>
<path d="M46.2883 27.7241L45.9375 28.6229L46.6059 29.1146L46.4845 29.7751L47.1745 30.0572L46.2883 27.7241Z" fill="#607990"/>
<path d="M46.2883 27.7241C46.2883 27.7241 47.0805 28.3582 48.0402 27.7257L47.1739 30.0572L46.2883 27.7241Z" fill="white"/>
<path d="M48.4272 23.9266C48.2176 23.5904 47.6694 23.3315 47.2526 23.3315C46.8358 23.3315 46.1651 23.5346 45.9555 23.8708C45.7459 24.2071 45.6338 25.2829 45.802 25.4621L46.0647 25.277C46.0647 25.277 45.9858 24.82 46.2795 24.4523L46.7716 24.2347L48.0746 24.2509L48.2596 24.5893C48.4856 24.9922 48.3005 25.2824 48.3005 25.2824L48.5293 25.4621C48.6975 25.2829 48.6362 24.2634 48.4266 23.9271L48.4272 23.9266Z" fill="#424143"/>
<path d="M47.1746 30.1254L46.895 29.3896L47.1916 28.1567L47.4712 29.3896L47.1746 30.1254Z" fill="#64BCD0"/>
<path d="M47.1916 28.3692L46.895 27.982L47.1916 28.0042L47.4782 27.9712L47.1916 28.3692Z" fill="#64BCD0"/>
<path d="M47.7735 24.9402C47.5137 24.9402 47.303 25.0864 47.303 25.2667C47.303 25.447 47.5137 25.5937 47.7735 25.5937C48.0333 25.5937 48.244 25.4475 48.244 25.2667C48.244 25.0858 48.0333 24.9402 47.7735 24.9402ZM47.7735 25.5542C47.5452 25.5542 47.3602 25.4259 47.3602 25.2672C47.3602 25.1086 47.5452 24.9803 47.7735 24.9803C48.0018 24.9803 48.1868 25.1086 48.1868 25.2672C48.1868 25.4259 48.0018 25.5542 47.7735 25.5542Z" fill="#424143"/>
<path d="M46.5897 24.9402C46.3299 24.9402 46.1191 25.0864 46.1191 25.2667C46.1191 25.447 46.3299 25.5937 46.5897 25.5937C46.8494 25.5937 47.0602 25.4475 47.0602 25.2667C47.0602 25.0858 46.8494 24.9402 46.5897 24.9402ZM46.5897 25.5542C46.3614 25.5542 46.1763 25.4259 46.1763 25.2672C46.1763 25.1086 46.3614 24.9803 46.5897 24.9803C46.8179 24.9803 47.003 25.1086 47.003 25.2672C47.003 25.4259 46.8179 25.5542 46.5897 25.5542Z" fill="#424143"/>
<path d="M47.3146 25.2261H47.0479V25.3073H47.3146V25.2261Z" fill="#424143"/>
<path d="M48.2435 25.3077L48.4414 25.1593L48.4116 25.1079L48.24 25.2259L48.2435 25.3077Z" fill="#374550"/>
<path d="M46.1408 25.3077L45.9429 25.1593L45.9732 25.1079L46.1449 25.2259L46.1408 25.3077Z" fill="#424143"/>
</g>
<path d="M52.2389 34.1907C52.142 34.1907 52.0486 34.1528 51.982 34.0856L50.9143 32.999C50.7853 32.8674 50.7952 32.6638 50.9371 32.5441C51.0789 32.4245 51.2984 32.4337 51.4274 32.5653L52.1898 33.3411L53.5343 31.3892C53.6376 31.2393 53.8524 31.1954 54.0141 31.2912C54.1758 31.3871 54.2231 31.5858 54.1198 31.7358L52.5313 34.0423C52.473 34.1268 52.3761 34.1815 52.2686 34.1896C52.2587 34.1901 52.2488 34.1907 52.2389 34.1907Z" fill="#A54147"/>
<path d="M52.2389 34.1165C52.142 34.1165 52.0486 34.0786 51.982 34.0114L50.9143 32.9247C50.7853 32.7932 50.7952 32.5896 50.9371 32.4699C51.0789 32.3503 51.2984 32.3595 51.4274 32.491L52.1898 33.2669L53.5343 31.315C53.6376 31.165 53.8524 31.1212 54.0141 31.217C54.1758 31.3129 54.2231 31.5121 54.1198 31.6615L52.5313 33.9681C52.473 34.0526 52.3761 34.1072 52.2686 34.1154C52.2587 34.1165 52.2488 34.1165 52.2389 34.1165Z" fill="#E06062"/>
<g opacity="0.3">
<path d="M35.4986 11.9693C35.4986 14.6966 33.1144 16.9084 30.174 16.9084C27.2335 16.9084 24.8506 14.6971 24.8506 11.9693C24.8506 9.24153 27.2335 7.03027 30.174 7.03027C33.1144 7.03027 35.4986 9.24153 35.4986 11.9693Z" fill="#7CABC6"/>
<path d="M28.8657 10.3297C28.8762 10.5684 28.9533 10.7596 29.0379 10.7563C29.122 10.7531 29.1821 10.5571 29.1716 10.3183C29.1605 10.0795 29.084 9.88839 28.9994 9.89164C28.9153 9.89489 28.8552 10.0904 28.8657 10.3291V10.3297Z" fill="#FFDBA7"/>
<path d="M31.9048 10.3297C31.8942 10.5684 31.8172 10.7596 31.7325 10.7563C31.6479 10.7531 31.5884 10.5571 31.5989 10.3183C31.6094 10.0795 31.6864 9.88839 31.7705 9.89164C31.8551 9.89489 31.9147 10.0904 31.9042 10.3291L31.9048 10.3297Z" fill="#FFDBA7"/>
<path d="M31.1296 12.796H29.6404L29.742 11.6351L31.0835 11.5918L31.1296 12.796Z" fill="#F0DFB1"/>
<path d="M29.742 11.6353C29.9399 11.9212 30.1249 12.0712 30.3847 12.0712C30.6445 12.0712 30.8856 11.8774 31.0835 11.592V11.54H29.6865L29.742 11.6359V11.6353Z" fill="#F2BB78"/>
<path d="M31.7513 10.2466C31.7513 11.1563 30.9317 11.8937 30.3847 11.8937C29.8377 11.8937 29.0181 11.1568 29.0181 10.2466C29.0181 9.33646 29.6299 8.6001 30.3847 8.6001C30.7332 8.6001 31.1062 8.6001 31.3479 8.85891C31.6293 9.16103 31.7513 9.75771 31.7513 10.2466Z" fill="#FFDBA7"/>
<path d="M32.9392 13.283L31.1704 12.3771C30.9766 12.5531 30.6981 12.6635 30.3876 12.6635C30.077 12.6635 29.7968 12.552 29.6036 12.3755L27.7583 13.2662L27.3928 14.8131H33.3987L32.9392 13.283Z" fill="#3D5971"/>
<path d="M31.1704 12.3774L31.5026 13.2746L30.9042 13.7657L31.0128 14.4268L30.3958 14.7089L31.1704 12.3774Z" fill="#607990"/>
<path d="M29.6036 12.376L29.2896 13.2748L29.8879 13.7659L29.7787 14.427L30.3958 14.7091L29.6036 12.376Z" fill="#607990"/>
<path d="M29.6038 12.376C29.6038 12.376 30.3119 13.01 31.1706 12.3776L30.3959 14.7091L29.6038 12.376Z" fill="white"/>
<path d="M32.4121 9.7257C31.8727 7.96005 30.3986 8.11165 30.3986 8.11165C30.3986 8.11165 28.9246 7.96059 28.3852 9.7257C27.8972 11.0566 29.2387 12.5407 29.2387 12.5407L29.6742 12.5369L29.753 11.6354H29.7612C29.3677 11.3446 29.0209 10.8259 29.0209 10.2341C29.0209 9.32449 29.8201 8.72295 30.5743 8.72295C30.9234 8.72295 31.1067 9.0516 31.3484 9.31041C31.6298 9.61254 31.7541 9.74465 31.7541 10.2336C31.7541 10.7978 31.4389 11.2953 31.0688 11.5915H31.0945L31.1301 12.5244L31.4798 12.5212C31.4798 12.5212 32.9007 11.0555 32.4121 9.72462V9.7257Z" fill="#424143"/>
</g>
<g opacity="0.3">
<path d="M52.4594 11.9767C52.4594 14.7045 50.0753 16.9157 47.1342 16.9157C44.1932 16.9157 41.8091 14.7045 41.8091 11.9767C41.8091 9.24886 44.1932 7.0376 47.1342 7.0376C50.0753 7.0376 52.4594 9.24886 52.4594 11.9767Z" fill="#90D4D4"/>
<path d="M45.6042 10.8043C45.6164 11.0875 45.6952 11.3149 45.7799 11.3122C45.8639 11.309 45.9223 11.0772 45.9101 10.7935C45.8978 10.5103 45.819 10.2829 45.7349 10.2862C45.6503 10.2889 45.5919 10.5212 45.6042 10.8049V10.8043Z" fill="#FFDBA7"/>
<path d="M48.6427 10.8043C48.6305 11.0875 48.5516 11.3149 48.4676 11.3122C48.3835 11.309 48.3246 11.0772 48.3368 10.7935C48.3497 10.5103 48.4285 10.2829 48.5125 10.2862C48.5972 10.2889 48.6556 10.5212 48.6427 10.8049V10.8043Z" fill="#FFDBA7"/>
<path d="M47.9726 12.0117H46.2744V13.2706H47.9726V12.0117Z" fill="#F0DFB1"/>
<path d="M46.2744 12.0916C46.5149 12.3775 46.8074 12.5459 47.1232 12.5459C47.439 12.5459 47.7321 12.3775 47.9726 12.0916V12.0137H46.2744V12.0916Z" fill="#F2BB78"/>
<path d="M48.4897 10.7218C48.4897 11.6314 47.8779 12.3689 47.1231 12.3689C46.3683 12.3689 45.7571 11.6314 45.7571 10.7218C45.7571 9.81215 46.3689 9.07471 47.1231 9.07471C47.4722 9.07471 47.8452 9.07471 48.0863 9.33352C48.3671 9.6351 48.4897 10.2323 48.4897 10.7218Z" fill="#FFDBA7"/>
<path d="M49.9783 13.7576L48.0004 12.8517C47.7839 13.0277 47.4727 13.1381 47.1254 13.1381C46.778 13.1381 46.4651 13.0266 46.248 12.8501L44.1849 13.7413L43.7769 15.2882H50.4914L49.9783 13.7576Z" fill="#3D5971"/>
<path d="M48.0006 12.8521L48.3713 13.7492L47.7029 14.2409L47.8243 14.9014L47.1343 15.1835L48.0006 12.8521Z" fill="#607990"/>
<path d="M46.2481 12.8506L45.8972 13.7494L46.5662 14.241L46.4442 14.9016L47.1342 15.1837L46.2481 12.8506Z" fill="#607990"/>
<path d="M46.248 12.8506C46.248 12.8506 47.0402 13.4846 48.0005 12.8522L47.1342 15.1837L46.248 12.8506Z" fill="white"/>
<path d="M48.3871 9.05305C48.1775 8.71682 47.6299 8.45801 47.2119 8.45801C46.794 8.45801 46.1244 8.66105 45.9154 8.99675C45.7058 9.33298 45.5937 10.4083 45.7613 10.5875L46.024 10.4023C46.024 10.4023 45.9451 9.94536 46.2394 9.57771L46.7315 9.36005L48.0345 9.3763L48.2195 9.7147C48.4454 10.1175 48.2604 10.4077 48.2604 10.4077L48.4898 10.5875C48.6579 10.4083 48.5961 9.38875 48.3871 9.05251V9.05305Z" fill="#88351C"/>
<path d="M47.1343 15.2518L46.8552 14.516L47.1512 13.2837L47.4308 14.516L47.1343 15.2518Z" fill="#64BCD0"/>
<path d="M47.1512 13.4956L46.8552 13.1085L47.1512 13.1307L47.4378 13.0977L47.1512 13.4956Z" fill="#64BCD0"/>
<path d="M47.9883 12.8608L47.6357 13.32L47.4331 13.0996L47.9883 12.8608Z" fill="#DDDDDD"/>
<path d="M46.3047 12.8677L46.6573 13.3268L46.8599 13.1065L46.3047 12.8677Z" fill="#DDDDDD"/>
</g>
<path d="M1.88796 19.3523C1.4262 19.3523 1.052 19.6988 1.052 20.1271C1.052 20.5554 1.4262 20.9024 1.88796 20.9024C2.34973 20.9024 2.72392 20.5554 2.72392 20.1271C2.72392 19.6988 2.34973 19.3523 1.88796 19.3523Z" fill="white"/>
<path d="M9.42446 33.5767H7.95044V36.6472H9.42446V33.5767Z" fill="#B5E3EF"/>
<path d="M7.4541 34.4704L9.72731 36.4532C9.72731 36.4532 11.9089 34.6275 10.6292 33.5105C9.34961 32.3945 7.4541 34.4704 7.4541 34.4704Z" fill="white"/>
<g opacity="0.3">
<path d="M18.571 26.9233C18.571 29.6511 16.1869 31.8624 13.2458 31.8624C10.3048 31.8624 7.92065 29.6511 7.92065 26.9233C7.92065 24.1955 10.3048 21.9832 13.2458 21.9832C16.1869 21.9832 18.571 24.195 18.571 26.9233Z" fill="#7CABC6"/>
<path d="M11.7158 25.7512C11.728 26.0349 11.8068 26.2617 11.8909 26.259C11.9755 26.2558 12.0339 26.0235 12.0211 25.7403C12.0088 25.4571 11.93 25.2297 11.8459 25.2324C11.7613 25.2357 11.7035 25.4674 11.7158 25.7512Z" fill="#FFDBA7"/>
<path d="M14.7542 25.7512C14.7419 26.0349 14.6631 26.2617 14.5791 26.259C14.495 26.2558 14.4366 26.0235 14.4489 25.7403C14.4617 25.4571 14.54 25.2297 14.6246 25.2324C14.7093 25.2357 14.7676 25.4674 14.7548 25.7512H14.7542Z" fill="#FFDBA7"/>
<path d="M14.0842 26.9585H12.386V28.2174H14.0842V26.9585Z" fill="#F0DFB1"/>
<path d="M12.386 27.0381C12.6265 27.324 12.919 27.4924 13.2354 27.4924C13.5518 27.4924 13.8442 27.324 14.0842 27.0381V26.9607H12.386V27.0381Z" fill="#F2BB78"/>
<path d="M13.2137 23.856C12.2989 23.856 11.8687 24.7585 11.8687 25.6682C11.8687 26.5778 12.4804 27.3152 13.2353 27.3152C13.9901 27.3152 14.6019 26.5778 14.6019 25.6682C14.6019 25.6682 14.7566 23.856 13.2142 23.856H13.2137Z" fill="#FFDBA7"/>
<path d="M16.0892 28.7041L14.112 27.7983C13.8954 27.9737 13.5843 28.0847 13.2369 28.0847C12.8896 28.0847 12.5767 27.9731 12.3601 27.7966L10.2965 28.6873L9.88843 30.2342H16.6035L16.0898 28.7036L16.0892 28.7041Z" fill="#3D5971"/>
<path d="M14.1122 27.7988L14.4829 28.696L13.8139 29.1876L13.9359 29.8482L13.2458 30.1303L14.1122 27.7988Z" fill="#607990"/>
<path d="M12.3602 27.7971L12.0088 28.6959L12.6772 29.1875L12.5558 29.8481L13.2458 30.1302L12.3602 27.7971Z" fill="#607990"/>
<path d="M12.3604 27.7971C12.3604 27.7971 13.1531 28.4311 14.1122 27.7987L13.2459 30.1302L12.3604 27.7971Z" fill="white"/>
<path d="M13.2459 30.1984L12.9663 29.4626L13.2634 28.2302L13.5425 29.4626L13.2459 30.1984Z" fill="#64BCD0"/>
<path d="M13.2634 28.4421L12.9663 28.055L13.2634 28.0778L13.5495 28.0442L13.2634 28.4421Z" fill="#64BCD0"/>
<path d="M12.6316 26.5626L13.1307 26.405H13.3514L13.8044 26.5696L13.7431 26.6379L13.3403 26.5166H13.1301L12.7063 26.62L12.6316 26.5626Z" fill="#88351C"/>
<path d="M12.6848 27.1762C12.6848 27.1762 12.9487 27.3154 13.1968 27.3154C13.4449 27.3154 13.7519 27.1935 13.7519 27.1935L13.4081 26.886C13.4081 26.886 13.1874 27.0311 13.0041 26.886L12.6848 27.1767V27.1762Z" fill="#88351C"/>
<path d="M13.8366 25.0808C13.5722 25.0808 13.3579 25.2297 13.3579 25.4133C13.3579 25.5968 13.5722 25.7457 13.8366 25.7457C14.1011 25.7457 14.3153 25.5968 14.3153 25.4133C14.3153 25.2297 14.1011 25.0808 13.8366 25.0808ZM13.8366 25.7051C13.6043 25.7051 13.4163 25.5746 13.4163 25.4133C13.4163 25.2519 13.6043 25.1214 13.8366 25.1214C14.0689 25.1214 14.2569 25.2519 14.2569 25.4133C14.2569 25.5746 14.0689 25.7051 13.8366 25.7051Z" fill="#424143"/>
<path d="M12.6327 25.0808C12.3683 25.0808 12.1541 25.2297 12.1541 25.4133C12.1541 25.5968 12.3683 25.7457 12.6327 25.7457C12.8972 25.7457 13.1114 25.5968 13.1114 25.4133C13.1114 25.2297 12.8972 25.0808 12.6327 25.0808ZM12.6327 25.7051C12.4004 25.7051 12.2124 25.5746 12.2124 25.4133C12.2124 25.2519 12.4004 25.1214 12.6327 25.1214C12.8651 25.1214 13.0531 25.2519 13.0531 25.4133C13.0531 25.5746 12.8651 25.7051 12.6327 25.7051Z" fill="#424143"/>
<path d="M13.3708 25.3721H13.0994V25.4549H13.3708V25.3721Z" fill="#424143"/>
<path d="M14.3105 25.4608L14.5896 25.2437L14.5843 25.1982L14.3111 25.372L14.3105 25.4608Z" fill="#424143"/>
<path d="M12.1763 25.4549L11.8984 25.26L11.9066 25.208L12.1804 25.3721L12.1763 25.4549Z" fill="#424143"/>
</g>
<g opacity="0.3">
<path d="M35.4986 26.8881C35.4986 29.6159 33.1144 31.8272 30.1734 31.8272C27.2324 31.8272 24.8506 29.6159 24.8506 26.8881C24.8506 24.1603 27.2335 21.948 30.1734 21.948C33.1133 21.948 35.4986 24.1598 35.4986 26.8881Z" fill="#90D4D4"/>
<path d="M28.6439 25.716C28.6561 25.9997 28.7349 26.2266 28.819 26.2239C28.9031 26.2206 28.9614 25.9889 28.9492 25.7052C28.9369 25.422 28.8581 25.1946 28.774 25.1973C28.6894 25.2005 28.631 25.4323 28.6439 25.716Z" fill="#FFDBA7"/>
<path d="M31.6819 25.716C31.6697 25.9997 31.5909 26.2266 31.5062 26.2239C31.4221 26.2206 31.3632 25.9889 31.376 25.7052C31.3889 25.422 31.4671 25.1946 31.5517 25.1973C31.6364 25.2005 31.6948 25.4323 31.6819 25.716Z" fill="#FFDBA7"/>
<path d="M31.0124 26.9238H29.3142V28.1827H31.0124V26.9238Z" fill="#F0DFB1"/>
<path d="M29.3142 27.0034C29.5547 27.2893 29.8472 27.4577 30.163 27.4577C30.4788 27.4577 30.7719 27.2893 31.0124 27.0039V26.9265H29.3142V27.0039V27.0034Z" fill="#F2BB78"/>
<path d="M31.529 25.6332C31.529 26.5428 30.9172 27.2802 30.1624 27.2802C29.4076 27.2802 28.7964 26.5428 28.7964 25.6332C28.7964 24.7235 29.4082 23.9861 30.1624 23.9861C30.5115 23.9861 30.884 23.9861 31.1256 24.2449C31.4064 24.547 31.529 25.1442 31.529 25.6332Z" fill="#FFDBA7"/>
<path d="M33.0176 28.6694L31.0398 27.7636C30.8232 27.939 30.5121 28.05 30.1647 28.05C29.8174 28.05 29.5045 27.9385 29.2879 27.762L27.2254 28.6532L26.8174 30.1995H33.5308L33.017 28.6689L33.0176 28.6694Z" fill="#3D5971"/>
<path d="M31.0397 27.7637L31.4104 28.6614L30.7419 29.1525L30.8634 29.813L30.1733 30.0951L31.0397 27.7637Z" fill="#607990"/>
<path d="M29.2879 27.762L28.937 28.6613L29.6054 29.1524L29.484 29.813L30.1734 30.095L29.2879 27.762Z" fill="#607990"/>
<path d="M29.2878 27.762C29.2878 27.762 30.08 28.396 31.0397 27.7636L30.1734 30.095L29.2878 27.762Z" fill="white"/>
<path d="M30.1733 30.1632L29.8943 29.4274L30.1908 28.1951L30.4699 29.4274L30.1733 30.1632Z" fill="#64BCD0"/>
<path d="M30.1908 28.407L29.8943 28.0199L30.1908 28.0426L30.4769 28.009L30.1908 28.407Z" fill="#64BCD0"/>
<path d="M31.2901 24.4863L31.0881 24.9076L31.2796 25.1859C31.3573 25.2541 31.3835 25.6634 31.3835 25.6634L31.5295 25.6802C31.6976 25.501 31.5843 24.9812 31.3748 24.6455C31.3421 24.593 31.338 24.5345 31.2907 24.4863H31.2901Z" fill="#424143"/>
<path d="M29.1733 24.4863L29.3572 24.8691L29.1547 25.1972C29.077 25.2655 29.0805 25.6634 29.0805 25.6634L28.9346 25.6802C28.739 25.4566 28.8523 24.9947 29.0613 24.659C29.094 24.6065 29.1255 24.5351 29.1733 24.4869V24.4863Z" fill="#424143"/>
</g>
<path d="M50.2482 18.0635H44.386V18.293H50.2482V18.0635Z" fill="#657B8D"/>
<path d="M50.2482 18.5806H44.386V18.8101H50.2482V18.5806Z" fill="#657B8D"/>
<path d="M50.2482 19.0974H44.386V19.327H50.2482V19.0974Z" fill="#657B8D"/>
<path d="M50.2482 19.6143H44.386V19.8438H50.2482V19.6143Z" fill="#657B8D"/>
<path d="M51.2505 18.0635V19.8437H53.1699V18.0635H51.2505ZM53.0001 19.6862H51.421V18.2216H53.0001V19.6862Z" fill="#657B8D"/>
<path d="M33.4085 18.0635H27.5469V18.293H33.4085V18.0635Z" fill="#657B8D"/>
<path d="M33.4085 18.5806H27.5469V18.8101H33.4085V18.5806Z" fill="#657B8D"/>
<path d="M33.4085 19.0974H27.5469V19.327H33.4085V19.0974Z" fill="#657B8D"/>
<path d="M33.4085 19.6143H27.5469V19.8438H33.4085V19.6143Z" fill="#657B8D"/>
<path d="M34.5388 18.0635V19.8437H36.4583V18.0635H34.5388ZM36.2884 19.6862H34.7093V18.2216H36.2884V19.6862Z" fill="#657B8D"/>
<path d="M16.5702 18.0635H10.708V18.293H16.5702V18.0635Z" fill="#657B8D"/>
<path d="M16.5702 18.5806H10.708V18.8101H16.5702V18.5806Z" fill="#657B8D"/>
<path d="M16.5702 19.0974H10.708V19.327H16.5702V19.0974Z" fill="#657B8D"/>
<path d="M16.5702 19.6143H10.708V19.8438H16.5702V19.6143Z" fill="#657B8D"/>
<path d="M17.5125 18.0635V19.8437H19.4319V18.0635H17.5125ZM19.262 19.6862H17.6829V18.2216H19.262V19.6862Z" fill="#657B8D"/>
<g style="mix-blend-mode:multiply">
<path fill-rule="evenodd" clip-rule="evenodd" d="M38.4682 52.3318C38.6929 54.5203 34.4372 55.5442 30.0572 55.9313C25.6772 56.3179 22.4956 55.0607 22.5061 52.7455C22.5155 50.7616 25.7513 49.4562 30.1308 49.0696C34.5108 48.683 38.2428 50.1433 38.4676 52.3318H38.4682Z" fill="#1F2736"/>
</g>
<path fill-rule="evenodd" clip-rule="evenodd" d="M37.9246 27.686C37.9246 27.686 35.9398 24.8857 35.1476 23.5716C34.4774 22.4605 33.631 20.4707 32.4739 19.3126C31.8347 18.6726 31.6275 18.9915 30.8586 19.4025C28.6975 20.5579 32.4739 23.3994 32.4739 23.3994C32.4739 23.3994 34.6508 26.0119 35.1476 26.8159C35.4138 27.2464 36.8277 28.6758 36.8277 28.6758L37.9252 27.6866L37.9246 27.686Z" fill="#F3AE93"/>
<path fill-rule="evenodd" clip-rule="evenodd" d="M29.7059 38.9667C29.4876 38.4269 33.0392 36.7993 33.0392 36.7993C33.0392 36.7993 32.7106 38.7214 32.6971 39.5818C32.6837 40.4416 32.6685 40.8222 32.466 41.8808C32.2751 42.8787 31.9902 46.8832 31.9826 48.2076C31.9756 49.5319 32.8507 50.7626 33.1764 51.2413C33.5027 51.7194 32.4671 52.4671 31.6814 51.7692C30.895 51.0713 30.8127 50.9354 30.3691 50.7166C29.9254 50.4979 29.5961 49.5558 29.947 48.5124C30.2978 47.4685 30.1274 45.4083 29.7543 43.6037C29.3813 41.7985 29.9236 39.5055 29.7053 38.9662L29.7059 38.9667Z" fill="#F3AE93"/>
<path fill-rule="evenodd" clip-rule="evenodd" d="M29.8424 48.9275C29.8424 48.9275 30.0788 50.357 31.1647 50.9558C32.2009 51.5276 32.6282 51.6153 33.1769 51.2406C33.1769 51.2406 34.1448 51.9878 34.4682 52.3522C34.7916 52.7166 33.7899 53.2537 32.8372 52.9461C31.8845 52.6386 31.1016 51.8048 30.3456 51.1783C29.6048 50.5638 29.4017 50.344 29.439 49.6395C29.4571 49.2925 29.8424 48.927 29.8424 48.927V48.9275Z" fill="#F69382"/>
<path fill-rule="evenodd" clip-rule="evenodd" d="M26.5399 36.5063C27.4185 36.0174 30.0128 38.351 30.0128 38.351C30.0128 38.351 29.8966 40.2829 29.8832 41.1432C29.8698 42.0041 29.7232 42.2781 29.4483 43.2592C29.1739 44.2403 28.9632 48.436 28.9562 49.7598C28.9486 51.0836 29.8242 52.3149 30.15 52.7935C30.4763 53.2721 29.4413 54.0188 28.6544 53.322C27.868 52.624 27.7863 52.4876 27.3426 52.2694C26.899 52.0506 26.5703 51.1085 26.9211 50.0657C27.272 49.0218 27.1004 46.9611 26.7279 45.1564C26.3549 43.3513 26.9754 41.0474 26.8394 40.4854C26.5055 39.1025 25.7011 36.973 26.5399 36.5069V36.5063Z" fill="#F3AE93"/>
<path fill-rule="evenodd" clip-rule="evenodd" d="M26.8161 50.48C26.8161 50.48 27.0525 51.9099 28.1389 52.5088C29.1745 53.0805 29.6024 53.1683 30.1506 52.7936C30.1506 52.7936 31.1179 53.5408 31.4419 53.9052C31.7659 54.2706 30.7641 54.8072 29.8108 54.4991C28.8575 54.191 28.0747 53.3578 27.3193 52.7318C26.5779 52.1173 26.3753 51.8975 26.4127 51.1925C26.4308 50.846 26.8161 50.48 26.8161 50.48Z" fill="#F69382"/>
<path fill-rule="evenodd" clip-rule="evenodd" d="M33.6463 29.4827C33.6463 29.4827 33.6924 31.6111 33.7298 33.3811C33.777 35.555 33.4139 38.148 33.4139 38.148C33.4139 38.148 29.93 40.6484 28.6924 40.2401C26.6906 39.5806 25.6959 38.1231 25.6959 38.1231C25.6959 38.1231 25.6498 33.164 26.634 29.9256C27.6194 26.6872 33.5686 27.7918 33.6463 29.4822V29.4827Z" fill="#584967"/>
<path fill-rule="evenodd" clip-rule="evenodd" d="M27.8009 20.0951C27.8009 20.0951 29.0496 21.0183 29.4898 21.3377C29.9113 21.6442 30.6141 22.4298 30.6737 22.4964C30.6772 22.4959 30.6813 22.4953 30.6842 22.4948C30.6754 22.3659 30.5908 21.3301 30.1547 20.2256C30.0169 19.8775 30.2259 18.8606 30.2259 18.8606C30.2259 18.8606 30.401 18.82 30.6538 18.7783C31.0338 19.1687 31.7811 20.205 32.1862 20.6349C32.5773 21.0491 33.7274 22.4861 33.3759 23.8425C33.0765 25.0001 32.9188 26.5226 32.9515 27.0938C32.9883 27.7506 33.6474 29.4816 33.6474 29.4816C33.6474 29.4816 32.0222 31.2272 30.2802 31.1557C28.2463 31.0724 26.8044 29.7404 26.8044 29.7404C26.8044 29.7404 27.2919 26.8875 27.2259 25.7088C27.2259 25.7088 24.777 24.4305 25.3824 22.1932C25.5657 21.5159 27.8015 20.0951 27.8015 20.0951H27.8009Z" fill="#362C4F"/>
<path fill-rule="evenodd" clip-rule="evenodd" d="M28.1676 19.8937C28.1676 19.8937 28.6837 20.6604 29.2003 21.139C29.717 21.6177 30.8261 22.6648 30.8261 22.6648L28.808 22.9778C28.808 22.9778 27.3638 20.9977 27.3007 20.5575C27.1349 19.4021 28.1682 19.8937 28.1682 19.8937H28.1676Z" fill="#584967"/>
<path fill-rule="evenodd" clip-rule="evenodd" d="M30.8586 19.4026L32.2258 21.1969L30.8254 22.6648L30.2124 19.7134L30.8586 19.4026Z" fill="#584967"/>
<path fill-rule="evenodd" clip-rule="evenodd" d="M33.076 17.8487C32.9802 18.3198 32.3544 19.5548 32.3544 19.5548L30.0952 18.0128L32.9563 15.978C32.9563 15.978 33.2657 16.9061 33.076 17.8493V17.8487Z" fill="#101F3B"/>
<path fill-rule="evenodd" clip-rule="evenodd" d="M30.5621 20.8073C30.7483 21.0759 30.9369 21.9254 30.8254 22.665C30.4132 22.4485 29.6269 21.7538 29.1792 21.254C28.2708 20.2388 28.0075 19.7136 28.0075 19.7136L27.8645 16.7622L30.3566 19.0184C30.3566 19.0184 30.3397 20.1847 30.5621 20.8068V20.8073Z" fill="#F09272"/>
<path fill-rule="evenodd" clip-rule="evenodd" d="M29.0741 14.8567C29.9264 14.3131 31.882 14.2145 32.4956 16.1123C33.1383 18.1027 31.1015 20.4596 30.1062 19.9988C29.5481 19.7411 28.394 18.8607 28.1109 17.8157C27.7921 16.6391 28.4121 15.279 29.0741 14.8567Z" fill="#F3AE93"/>
<path fill-rule="evenodd" clip-rule="evenodd" d="M29.1616 13.782C30.3636 13.3851 31.154 13.8085 32.2147 14.8059C32.8522 15.4058 33.1243 16.0918 33.0682 17.1579C33.0682 17.1579 31.2936 18.2164 30.2509 18.368C29.7676 18.4384 29.1196 18.1444 28.7419 17.95C28.6701 18.4373 28.5948 18.9901 28.5814 19.2533C28.5545 19.7807 28.6975 20.5576 28.6975 20.5576C28.6975 20.5576 27.1657 20.2154 26.7436 19.5754C26.3222 18.9355 26.6771 16.3338 27.349 15.3072C27.7203 14.7403 28.5615 13.9802 29.1616 13.7814V13.782Z" fill="#101F3B"/>
<path fill-rule="evenodd" clip-rule="evenodd" d="M39.3538 25.1107L36.1652 30.2317C35.9749 30.5376 35.5494 30.8966 35.219 31.0292L32.2651 32.6151C31.9352 32.7478 31.8214 32.6054 32.0123 32.2995L35.1997 27.1785C35.3906 26.8731 35.8161 26.5141 36.1466 26.3815L39.1004 24.795C39.4309 24.6624 39.5447 24.8048 39.3544 25.1107H39.3538Z" fill="#A1C6E9"/>
<path fill-rule="evenodd" clip-rule="evenodd" d="M31.9702 32.6443L32.2849 32.8122L32.474 32.4451H32.0765L31.9702 32.6443Z" fill="#A1C6E9"/>
<path fill-rule="evenodd" clip-rule="evenodd" d="M39.696 24.9286L39.3965 24.7656L39.2144 24.9286L39.4461 25.1387L39.696 24.9286Z" fill="#A1C6E9"/>
<path fill-rule="evenodd" clip-rule="evenodd" d="M39.6602 25.2736L36.4734 30.3946C36.2825 30.7005 35.8563 31.0589 35.5265 31.1921L32.5726 32.778C32.2428 32.9107 32.129 32.7683 32.3193 32.4623L35.5067 27.3419C35.697 27.0354 36.1231 26.677 36.4529 26.5443L39.4068 24.9585C39.7372 24.8258 39.8511 24.9677 39.6602 25.2736Z" fill="#80A8D7"/>
<path fill-rule="evenodd" clip-rule="evenodd" d="M36.7548 28.4908C36.61 28.774 36.2947 29.0972 36.0507 29.212C35.8067 29.3268 35.7267 29.1904 35.8721 28.9067C36.0169 28.6235 36.3321 28.3002 36.5761 28.1855C36.8201 28.0707 36.9001 28.2071 36.7548 28.4903V28.4908Z" fill="white"/>
<path fill-rule="evenodd" clip-rule="evenodd" d="M27.4185 26.245C27.5925 26.9305 28.5061 28.1422 28.8546 28.3853C29.1325 28.5781 31.4372 29.7958 32.1617 29.9241C32.6211 30.0053 33.0321 29.8602 33.4903 29.9241C33.4331 30.0476 33.2195 30.5002 33.4506 30.6437C33.8879 30.9133 34.3963 30.4623 34.7513 30.6437C35.0887 30.8148 34.6952 31.4613 34.192 31.6881C33.2924 32.0942 32.5942 31.5885 31.6935 31.1868C30.8126 30.7937 28.9013 30.8148 27.4956 29.7898C26.3707 28.9701 25.9626 28.1011 25.6544 27.48C25.3456 26.8585 24.8225 25.6494 24.7402 24.9986C24.2924 21.437 25.6964 21.437 26.4086 22.1982C27.1424 22.9828 27.2451 25.5595 27.4191 26.245H27.4185Z" fill="#F3AE93"/>
<path fill-rule="evenodd" clip-rule="evenodd" d="M38.0099 28.114C37.6112 28.0355 37.0134 28.7383 37.1033 29.1232C37.1938 29.5087 37.7974 29.2061 38.0338 28.859C38.2703 28.513 38.3503 28.1806 38.0093 28.114H38.0099Z" fill="#F7CCBA"/>
</g>
<defs>
<clipPath id="clip0_2844_45647">
<rect width="60" height="56" fill="white"/>
</clipPath>
</defs>
</svg>
