<svg width="24" height="24" viewBox="0 0 24 24" fill="none" xmlns="http://www.w3.org/2000/svg">
<path d="M11.9998 17.4042L8.12202 19.8502C7.95071 19.9643 7.77161 20.0132 7.58473 19.9969C7.39785 19.9806 7.23432 19.9154 7.09416 19.8013C6.954 19.6871 6.84499 19.5446 6.76712 19.3737C6.68925 19.2022 6.67368 19.0104 6.7204 18.7984L7.74825 14.1754L4.31429 11.069C4.15855 10.9222 4.06137 10.7549 4.02275 10.5671C3.98351 10.3799 3.99503 10.1966 4.05733 10.0172C4.11962 9.83782 4.21306 9.69106 4.33765 9.57692C4.46224 9.46277 4.63355 9.38939 4.85158 9.35677L9.38347 8.94095L11.1355 4.58704C11.2134 4.39136 11.3342 4.2446 11.498 4.14676C11.6613 4.04892 11.8285 4 11.9998 4C12.1711 4 12.3387 4.04892 12.5025 4.14676C12.6657 4.2446 12.7863 4.39136 12.8642 4.58704L14.6162 8.94095L19.1481 9.35677C19.3661 9.38939 19.5374 9.46277 19.662 9.57692C19.7866 9.69106 19.88 9.83782 19.9423 10.0172C20.0046 10.1966 20.0165 10.3799 19.9778 10.5671C19.9386 10.7549 19.8411 10.9222 19.6854 11.069L16.2514 14.1754L17.2792 18.7984C17.326 19.0104 17.3104 19.2022 17.2325 19.3737C17.1547 19.5446 17.0456 19.6871 16.9055 19.8013C16.7653 19.9154 16.6018 19.9806 16.4149 19.9969C16.228 20.0132 16.0489 19.9643 15.8776 19.8502L11.9998 17.4042Z" fill="#77C692"/>
</svg>
