<svg width="24" height="24" viewBox="0 0 24 24" fill="none" xmlns="http://www.w3.org/2000/svg">
<path d="M19.1495 9.35506L14.6253 8.94445L12.8586 4.59392C12.5408 3.80203 11.4565 3.80203 11.1387 4.59392L9.37198 8.95423L4.85713 9.35506C4.03455 9.4235 3.69804 10.4989 4.32432 11.0659L7.75486 14.1749L6.72663 18.7894C6.53968 19.6301 7.409 20.2949 8.11941 19.8452L11.9986 17.4011L15.8779 19.855C16.5883 20.3047 17.4576 19.6399 17.2706 18.7991L16.2424 14.1749L19.6729 11.0659C20.2992 10.4989 19.9721 9.4235 19.1495 9.35506ZM11.9986 15.5729L8.48396 17.7922L9.41872 13.6078L6.31534 10.7922L10.4096 10.4207L11.9986 6.48078L13.5971 10.4305L17.6913 10.802L14.5879 13.6176L15.5226 17.8019L11.9986 15.5729Z" fill="#535667"/>
</svg>
