<svg width="166" height="121" viewBox="0 0 166 121" fill="none" xmlns="http://www.w3.org/2000/svg">
<path d="M6.04297 97.1182H33.6654C34.6655 97.1182 35.4761 97.8922 35.4761 98.8476C35.4761 99.8023 34.6655 100.576 33.6654 100.576H6.04297V97.1182Z" fill="#FFF2E4"/>
<path d="M6.01172 97.1182H33.6341C34.6342 97.1182 35.4449 97.8922 35.4449 98.8476C35.4449 99.8023 34.6342 100.576 33.6341 100.576H6.01172V97.1182Z" fill="#FFF2E4"/>
<path d="M6.47558 98.1997L33.9322 98.2516C33.9877 98.2516 34.0328 98.2069 34.0328 98.151C34.0328 98.0951 33.9881 98.0504 33.9322 98.0504L6.47558 97.9985C6.42006 97.9985 6.375 98.0432 6.375 98.0991C6.375 98.155 6.42006 98.1997 6.47558 98.1997Z" fill="#FFCBC1"/>
<path d="M6.47558 98.8662L33.9322 98.9173C33.9877 98.9173 34.0328 98.8726 34.0328 98.8167C34.0328 98.7616 33.9881 98.7161 33.9322 98.7161L6.47558 98.665C6.42006 98.665 6.375 98.7097 6.375 98.7656C6.375 98.8203 6.42006 98.8662 6.47558 98.8662Z" fill="#FFCBC1"/>
<path d="M6.47558 99.5317L33.9322 99.5836C33.9877 99.5836 34.0328 99.539 34.0328 99.483C34.0328 99.4271 33.9881 99.3825 33.9322 99.3825L6.47558 99.3306C6.42006 99.3306 6.375 99.3752 6.375 99.4311C6.375 99.4871 6.42006 99.5317 6.47558 99.5317Z" fill="#FFCBC1"/>
<path d="M35.4459 98.8476C35.4459 97.8922 34.6352 97.1182 33.6351 97.1182H32.6752C31.9157 98.8147 30.4256 99.9097 28.5625 100.576H30.3604C30.3656 100.566 30.3712 100.556 30.3765 100.546C30.3716 100.556 30.3656 100.566 30.3604 100.576H33.6351C34.6352 100.576 35.4459 99.8023 35.4459 98.8476Z" fill="#FFCBC1"/>
<path d="M33.7478 100.865H6.04293C5.82086 100.865 5.64062 100.685 5.64062 100.463C5.64062 100.24 5.82086 100.061 6.04293 100.061H33.7478C34.4482 100.061 35.0179 99.4909 35.0179 98.7909C35.0179 98.0901 34.4482 97.5204 33.7478 97.5204H6.04293C5.82086 97.5204 5.64062 97.3406 5.64062 97.1181C5.64062 96.8956 5.82086 96.7158 6.04293 96.7158H33.7478C34.8915 96.7158 35.8225 97.6467 35.8225 98.7909C35.8225 99.9342 34.8919 100.865 33.7478 100.865Z" fill="#4F99A6"/>
<path d="M2.28906 101.172H30.4139C31.4322 101.172 32.2577 102.029 32.2577 103.087C32.2577 104.144 31.4322 105.001 30.4139 105.001H2.28906V101.172Z" fill="#FFF2E4"/>
<path d="M2.48459 101.838L30.6867 101.89C30.743 101.89 30.7885 101.845 30.7885 101.788C30.7885 101.732 30.743 101.687 30.6867 101.687L2.48459 101.635C2.42827 101.635 2.38281 101.68 2.38281 101.737C2.38281 101.793 2.42827 101.838 2.48459 101.838Z" fill="#FFCBC1"/>
<path d="M2.48459 102.341L30.6867 102.392C30.743 102.392 30.7885 102.348 30.7885 102.291C30.7885 102.234 30.743 102.189 30.6867 102.189L2.48459 102.138C2.42827 102.138 2.38281 102.182 2.38281 102.239C2.38281 102.296 2.42827 102.341 2.48459 102.341Z" fill="#FFCBC1"/>
<path d="M2.48459 102.843L30.6867 102.895C30.743 102.895 30.7885 102.85 30.7885 102.793C30.7885 102.737 30.743 102.692 30.6867 102.692L2.48459 102.64C2.42827 102.64 2.38281 102.685 2.38281 102.742C2.38281 102.798 2.42827 102.843 2.48459 102.843Z" fill="#FFCBC1"/>
<path d="M2.48459 103.346L30.6867 103.397C30.743 103.397 30.7885 103.353 30.7885 103.296C30.7885 103.239 30.743 103.194 30.6867 103.194L2.48459 103.143C2.42827 103.143 2.38281 103.187 2.38281 103.244C2.38281 103.301 2.42827 103.346 2.48459 103.346Z" fill="#FFCBC1"/>
<path d="M2.48459 103.848L30.6867 103.9C30.743 103.9 30.7885 103.855 30.7885 103.798C30.7885 103.742 30.743 103.696 30.6867 103.696L2.48459 103.645C2.42827 103.645 2.38281 103.69 2.38281 103.747C2.38281 103.803 2.42827 103.848 2.48459 103.848Z" fill="#FFCBC1"/>
<path d="M30.6867 104.402C30.743 104.402 30.7885 104.357 30.7885 104.301C30.7885 104.244 30.743 104.199 30.6867 104.199L2.4846 104.147C2.42827 104.147 2.38281 104.192 2.38281 104.249C2.38281 104.306 2.42827 104.351 2.4846 104.351L30.6867 104.402Z" fill="#FFCBC1"/>
<path d="M32.258 103.087C32.258 102.029 31.4325 101.172 30.4143 101.172H30.195C29.4411 102.557 28.3158 104.1 26.9219 105.001H30.4143C31.4325 105.001 32.258 104.144 32.258 103.087Z" fill="#FFCBC1"/>
<path d="M30.1351 100.762H2.20699C1.98532 100.762 1.80469 100.942 1.80469 101.164C1.80469 101.386 1.98532 101.566 2.20699 101.566H30.1351C30.9735 101.566 31.6558 102.248 31.6558 103.087C31.6558 103.925 30.9735 104.608 30.1351 104.608H2.20699C1.98532 104.608 1.80469 104.788 1.80469 105.01C1.80469 105.232 1.98532 105.412 2.20699 105.412H30.1351C31.4173 105.412 32.4604 104.369 32.4604 103.087C32.4604 101.804 31.4173 100.762 30.1351 100.762Z" fill="#761604"/>
<path d="M2.00781 106.03H36.3865C37.4047 106.03 38.2302 106.887 38.2302 107.944C38.2302 109.002 37.4047 109.859 36.3865 109.859H2.00781V106.03Z" fill="#FFF2E4"/>
<path d="M2.70519 107.033C2.64364 107.033 2.59415 107.082 2.59375 107.143C2.59375 107.204 2.64364 107.255 2.70479 107.255L36.3714 107.306C36.4329 107.306 36.4824 107.256 36.4828 107.195C36.4828 107.134 36.4329 107.084 36.3718 107.084L2.70519 107.033Z" fill="#FFCBC1"/>
<path d="M2.70519 107.808C2.64364 107.808 2.59375 107.858 2.59375 107.92C2.59375 107.981 2.64364 108.03 2.70479 108.03L36.3714 108.082C36.4329 108.082 36.4824 108.033 36.4828 107.971C36.4828 107.909 36.4329 107.86 36.3718 107.86L2.70519 107.808Z" fill="#FFCBC1"/>
<path d="M36.3714 108.858C36.4329 108.858 36.4824 108.809 36.4828 108.747C36.4828 108.686 36.4329 108.636 36.3718 108.636L2.70519 108.585C2.64364 108.585 2.59415 108.634 2.59375 108.696C2.59375 108.757 2.64364 108.807 2.70479 108.807L36.3714 108.858Z" fill="#FFCBC1"/>
<path d="M33.0867 108.455C32.5142 108.95 31.7193 109.561 30.9062 109.859H36.3832C37.4014 109.859 38.2269 109.002 38.2269 107.944C38.2269 106.887 37.4014 106.03 36.3832 106.03H35.1264C34.5563 106.927 33.8684 107.758 33.0867 108.455Z" fill="#FFCBC1"/>
<path d="M36.2396 110.499H1.45501C1.12151 110.499 0.851562 110.229 0.851562 109.895C0.851562 109.562 1.12151 109.292 1.45501 109.292H36.2396C36.9826 109.292 37.5873 108.688 37.5873 107.944C37.5873 107.202 36.983 106.597 36.2396 106.597H1.45501C1.12151 106.597 0.851562 106.326 0.851562 105.993C0.851562 105.66 1.12151 105.39 1.45501 105.39H36.2396C37.648 105.39 38.7942 106.536 38.7942 107.944C38.7938 109.353 37.648 110.499 36.2396 110.499Z" fill="#8E8D6E"/>
<path d="M6.14062 111.472H39.213C40.1926 111.472 40.9867 113.308 40.9867 115.574C40.9867 117.84 40.1926 119.675 39.213 119.675H6.14062V111.472Z" fill="#FFF2E4"/>
<path d="M6.86833 112.642C6.80959 112.642 6.76172 112.689 6.76172 112.748C6.76172 112.807 6.80919 112.855 6.86793 112.855L37.6846 112.906C37.7433 112.906 37.7912 112.859 37.7912 112.8C37.7912 112.741 37.7437 112.693 37.685 112.693L6.86833 112.642Z" fill="#FFCBC1"/>
<path d="M37.685 113.775L6.86833 113.724C6.80959 113.724 6.76172 113.771 6.76172 113.83C6.76172 113.889 6.80919 113.937 6.86793 113.937L37.6846 113.988C37.7433 113.988 37.7912 113.941 37.7912 113.882C37.7912 113.823 37.7437 113.775 37.685 113.775Z" fill="#FFCBC1"/>
<path d="M37.685 114.858L6.86833 114.807C6.80959 114.807 6.76172 114.854 6.76172 114.913C6.76172 114.972 6.80919 115.02 6.86793 115.02L37.6846 115.071C37.7433 115.071 37.7912 115.024 37.7912 114.965C37.7912 114.906 37.7437 114.858 37.685 114.858Z" fill="#FFCBC1"/>
<path d="M37.685 115.942L6.86833 115.89C6.80959 115.89 6.76172 115.938 6.76172 115.997C6.76172 116.055 6.80919 116.103 6.86793 116.103L37.6846 116.155C37.7433 116.155 37.7912 116.107 37.7912 116.048C37.7912 115.989 37.7437 115.942 37.685 115.942Z" fill="#FFCBC1"/>
<path d="M37.685 117.025L6.86833 116.973C6.80959 116.973 6.76172 117.021 6.76172 117.08C6.76172 117.138 6.80919 117.186 6.86793 117.186L37.6846 117.238C37.7433 117.238 37.7912 117.19 37.7912 117.131C37.7912 117.073 37.7437 117.025 37.685 117.025Z" fill="#FFCBC1"/>
<path d="M37.685 118.107L6.86833 118.055C6.80959 118.055 6.76172 118.103 6.76172 118.162C6.76172 118.221 6.80919 118.268 6.86793 118.268L37.6846 118.32C37.7433 118.32 37.7912 118.272 37.7912 118.213C37.7912 118.155 37.7437 118.107 37.685 118.107Z" fill="#FFCBC1"/>
<path d="M39.2092 111.472L38.228 110.902C38.1274 111.088 38.0163 111.28 37.9033 111.472H37.9657C37.011 113.231 35.716 114.812 34.2275 116.132C32.4481 117.711 29.9188 119.009 27.4531 119.675H39.2096C40.1892 119.675 40.9833 117.84 40.9833 115.574C40.9833 113.308 40.1888 111.472 39.2092 111.472Z" fill="#FFCBC1"/>
<path d="M37.1833 120.525H6.54288C6.09874 120.525 5.73828 120.165 5.73828 119.721C5.73828 119.276 6.09874 118.916 6.54288 118.916H37.1833C38.9579 118.916 40.4018 117.472 40.4018 115.698V115.326C40.4018 113.552 38.9579 112.108 37.1833 112.108H6.54288C6.09874 112.108 5.73828 111.748 5.73828 111.303C5.73828 110.859 6.09874 110.499 6.54288 110.499H37.1833C39.8454 110.499 42.011 112.664 42.011 115.326V115.698C42.011 118.36 39.8454 120.525 37.1833 120.525Z" fill="#19467D"/>
<path d="M57.1674 114.101C57.1674 117.614 54.3191 120.463 50.8054 120.463C47.2917 120.463 44.2857 117.611 44.4434 114.101C44.7295 107.739 50.8054 109.955 50.8054 109.955C50.8054 109.955 57.1674 107.453 57.1674 114.101Z" fill="#EA7C69"/>
<path d="M53.3347 108.751C52.2774 109.75 50.6602 109.756 50.6602 109.756C50.6602 109.756 50.7567 108.141 51.814 107.142C52.8712 106.142 54.4889 106.137 54.4889 106.137C54.4889 106.137 54.3923 107.751 53.3347 108.751Z" fill="#8E8D6E"/>
<path d="M48.13 107.592C49.3257 107.95 49.8824 108.828 50.3294 109.932C50.4734 110.288 51.0572 110.132 50.9111 109.772C50.3813 108.461 49.705 107.434 48.2901 107.01C47.9164 106.898 47.7579 107.48 48.13 107.592Z" fill="#CC6B52"/>
<path d="M54.4889 106.137L50.6602 109.756C50.6602 109.756 52.2778 109.75 53.3347 108.751C54.3927 107.751 54.4889 106.137 54.4889 106.137Z" fill="#3F4659"/>
<path d="M49.0248 115.624C48.1559 114.363 47.6514 112.906 47.7077 111.365C47.7419 110.779 47.8425 110.193 47.9583 109.613C46.3351 109.789 44.5935 110.764 44.4434 114.101C44.2857 117.611 47.2917 120.463 50.8054 120.463C51.8764 120.463 52.8837 120.195 53.7688 119.728C51.9017 118.775 50.1794 117.37 49.0248 115.624Z" fill="#761604"/>
<path d="M54.6901 110.966C54.9005 111.412 55.0751 111.902 55.1363 112.393C55.2019 112.919 55.3101 113.385 55.6376 113.801C55.8391 114.057 56.2744 113.898 56.3468 113.614C56.6256 112.523 55.8862 111.167 54.8659 110.738C54.7255 110.679 54.6403 110.86 54.6901 110.966Z" fill="#EA7C69"/>
<path d="M55.884 114.364C55.8893 114.359 55.7625 114.462 55.8225 114.416C55.7131 114.5 55.627 114.569 55.5662 114.695C55.3796 115.085 55.6 115.574 56.0699 115.574C56.5366 115.574 56.7647 115.084 56.5736 114.695C56.4887 114.522 56.3346 114.422 56.1749 114.326C56.0776 114.267 55.9669 114.294 55.884 114.364Z" fill="#EA7C69"/>
<path d="M26.144 84.7703C27.2532 84.7703 28.1555 85.6723 28.1555 86.7818V91.5631C28.1555 92.6719 27.2532 93.5746 26.144 93.5746H25.4879C24.3787 93.5746 23.4763 92.6719 23.4763 91.5631V86.7818C23.4763 85.6723 24.3787 84.7703 25.4879 84.7703H26.144ZM26.144 82.7588H25.4879C23.2659 82.7588 21.4648 84.5599 21.4648 86.7818V91.5631C21.4648 93.7842 23.2659 95.5862 25.4879 95.5862H26.144C28.3659 95.5862 30.167 93.7842 30.167 91.5631V86.7818C30.167 84.5595 28.3659 82.7588 26.144 82.7588Z" fill="#4C9B9F"/>
<path opacity="0.3" d="M23.4763 91.5631V86.7818C23.4763 85.6723 24.3787 84.7703 25.4879 84.7703H25.5337V82.7588H25.4879C23.2659 82.7588 21.4648 84.5599 21.4648 86.7818V91.5631C21.4648 93.4821 22.8097 95.0841 24.6076 95.4864C25.0534 94.9489 25.3579 94.2928 25.4762 93.573C24.3723 93.567 23.4763 92.6679 23.4763 91.5631Z" fill="#1F447B"/>
<path d="M24.5156 80.0576V92.9196C24.5156 95.1407 22.7145 96.9426 20.4925 96.9426H13.5074C11.2855 96.9426 9.48438 95.1407 9.48438 92.9196V80.0576H24.5156Z" fill="#4C9B9F"/>
<path opacity="0.3" d="M14.5135 89.8786C12.6054 87.017 11.1334 83.5556 10.4736 80.0576H9.48438V92.9196C9.48438 95.1407 11.2855 96.9426 13.5074 96.9426H20.4925C21.1197 96.9426 21.7107 96.795 22.2397 96.5387C19.1384 95.0691 16.4313 92.7559 14.5135 89.8786Z" fill="#1F447B"/>
<path d="M22.7289 82.0157C22.7285 81.7526 22.5769 81.5523 22.4127 81.3652C22.1428 81.0562 21.5828 80.9504 21.4025 81.3974C21.4862 81.1898 21.349 81.5302 21.3635 81.4767C21.3426 81.5523 21.3462 81.6219 21.3474 81.6935C21.3446 81.7124 21.3398 81.7563 21.3338 81.7784C21.2851 81.9498 21.2967 82.0857 21.3273 82.2583C21.4235 82.7966 22.0663 83.1164 22.4859 82.6936C22.6738 82.5053 22.7297 82.2744 22.7289 82.0157Z" fill="#457F92"/>
<path d="M22.9844 83.7428C22.704 83.4041 22.029 83.6672 22.0833 84.1162C22.0869 84.1475 22.0857 84.1773 22.0853 84.2083C22.0801 84.2175 22.0684 84.294 22.064 84.3097C21.9903 84.5635 21.9895 84.7671 22.1412 84.9948C22.3033 85.2382 22.6815 85.4088 22.9498 85.2068C23.0134 85.1589 23.0766 85.1111 23.1373 85.06C23.3228 84.9059 23.3542 84.6323 23.3083 84.4135C23.2556 84.1616 23.1478 83.9408 22.9844 83.7428Z" fill="#457F92"/>
<path d="M29.4253 86.6445C29.5319 85.8327 29.0805 84.1185 28.1564 83.8803C28.0723 83.8582 28.0007 83.9495 28.0446 84.0255C28.3189 84.5011 28.537 84.8418 28.6058 85.4054C28.6617 85.8621 28.6705 86.3822 28.9244 86.7797C29.0797 87.0231 29.3915 86.9 29.4253 86.6445Z" fill="#457F92"/>
<path d="M29.4786 87.7059C29.3949 87.6117 29.2224 87.6117 29.1383 87.7059C28.9335 87.9352 28.921 88.3226 29.0643 88.5829C29.1652 88.7675 29.4517 88.7675 29.5527 88.5829C29.6959 88.323 29.6838 87.9356 29.4786 87.7059Z" fill="#457F92"/>
<path d="M133.051 6.63522C132.829 6.63522 132.648 6.45499 132.648 6.23292V0.92818C132.648 0.70611 132.829 0.525879 133.051 0.525879C133.273 0.525879 133.453 0.70611 133.453 0.92818V6.23332C133.453 6.45539 133.273 6.63522 133.051 6.63522Z" fill="#4DAB6D"/>
<path d="M153.387 21.6664H148.082C147.86 21.6664 147.68 21.4862 147.68 21.2641C147.68 21.042 147.86 20.8618 148.082 20.8618H153.387C153.609 20.8618 153.789 21.042 153.789 21.2641C153.789 21.4862 153.609 21.6664 153.387 21.6664Z" fill="#4DAB6D"/>
<path d="M133.051 42.0028C132.829 42.0028 132.648 41.8226 132.648 41.6005V36.2954C132.648 36.0733 132.829 35.8931 133.051 35.8931C133.273 35.8931 133.453 36.0733 133.453 36.2954V41.6005C133.453 41.8226 133.273 42.0028 133.051 42.0028Z" fill="#4DAB6D"/>
<path d="M118.02 21.6664H112.715C112.492 21.6664 112.312 21.4862 112.312 21.2641C112.312 21.042 112.492 20.8618 112.715 20.8618H118.02C118.242 20.8618 118.422 21.042 118.422 21.2641C118.422 21.4862 118.242 21.6664 118.02 21.6664Z" fill="#4DAB6D"/>
<path d="M140.623 8.48083C140.588 8.48083 140.554 8.47198 140.521 8.45347C140.426 8.39755 140.394 8.27445 140.449 8.1783L143.122 3.59569C143.178 3.49994 143.301 3.46775 143.397 3.52327C143.493 3.57919 143.525 3.7023 143.47 3.79845L140.797 8.38106C140.76 8.44503 140.692 8.48083 140.623 8.48083Z" fill="#4DAB6D"/>
<path d="M150.616 31.7099C150.581 31.7099 150.546 31.701 150.515 31.6825L145.932 29.01C145.836 28.9541 145.804 28.831 145.859 28.7348C145.916 28.6391 146.039 28.6069 146.134 28.6624L150.717 31.3349C150.813 31.3908 150.846 31.5139 150.79 31.6101C150.752 31.6741 150.685 31.7099 150.616 31.7099Z" fill="#4DAB6D"/>
<path d="M122.806 39.0321C122.772 39.0321 122.737 39.0232 122.705 39.0047C122.609 38.9488 122.577 38.8257 122.633 38.7296L125.305 34.147C125.361 34.0512 125.485 34.019 125.58 34.0745C125.676 34.1305 125.709 34.2536 125.653 34.3497L122.98 38.9323C122.943 38.9963 122.876 39.0321 122.806 39.0321Z" fill="#4DAB6D"/>
<path d="M120.065 13.8933C120.03 13.8933 119.996 13.8844 119.963 13.8659L115.381 11.1934C115.285 11.1375 115.253 11.0144 115.308 10.9183C115.365 10.8225 115.487 10.7907 115.584 10.8458L120.166 13.5183C120.262 13.5743 120.295 13.6974 120.239 13.7935C120.202 13.8575 120.134 13.8933 120.065 13.8933Z" fill="#4DAB6D"/>
<path d="M146.131 14.0637C146.061 14.0637 145.993 14.0271 145.956 13.9615C145.901 13.865 145.935 13.7423 146.032 13.6875L150.649 11.075C150.746 11.0203 150.869 11.0541 150.923 11.151C150.978 11.2476 150.944 11.3703 150.847 11.425L146.23 14.0375C146.199 14.0552 146.165 14.0637 146.131 14.0637Z" fill="#4DAB6D"/>
<path d="M143.064 39.1645C142.994 39.1645 142.926 39.1279 142.889 39.0623L140.276 34.4451C140.221 34.3485 140.255 34.2258 140.352 34.1711C140.448 34.1164 140.572 34.1506 140.626 34.2471L143.239 38.8644C143.294 38.9609 143.26 39.0836 143.163 39.1383C143.132 39.156 143.098 39.1645 143.064 39.1645Z" fill="#4DAB6D"/>
<path d="M115.35 31.4797C115.28 31.4797 115.212 31.4431 115.175 31.3775C115.12 31.281 115.154 31.1583 115.251 31.1036L119.868 28.4914C119.964 28.4367 120.087 28.4709 120.142 28.5674C120.197 28.664 120.163 28.7867 120.066 28.8414L115.449 31.4536C115.418 31.4713 115.384 31.4797 115.35 31.4797Z" fill="#4DAB6D"/>
<path d="M125.65 8.3829C125.58 8.3829 125.512 8.34629 125.475 8.28072L122.862 3.66391C122.807 3.56735 122.841 3.44465 122.938 3.38994C123.034 3.33523 123.158 3.36902 123.212 3.46598L125.825 8.08278C125.88 8.17934 125.845 8.30204 125.749 8.35675C125.718 8.37445 125.683 8.3829 125.65 8.3829Z" fill="#4DAB6D"/>
<path d="M140.503 17.2352C140.402 17.0372 140.16 16.9588 139.962 17.0598L132.656 20.7895L123.096 10.742C122.943 10.5811 122.688 10.5751 122.527 10.7279C122.366 10.8812 122.36 11.1359 122.513 11.2968L131.908 21.1713L130.696 21.79C130.498 21.891 130.42 22.1336 130.521 22.3311C130.592 22.4703 130.733 22.5504 130.88 22.5504C130.941 22.5504 131.003 22.5363 131.062 22.5065L132.486 21.7792L134.688 24.0936C134.767 24.1769 134.874 24.2187 134.98 24.2187C135.08 24.2187 135.179 24.1821 135.257 24.1081C135.418 23.9548 135.424 23.7001 135.271 23.5392L133.234 21.3978L140.328 17.7767C140.526 17.6753 140.604 17.4327 140.503 17.2352Z" fill="#4DAB6D"/>
<path d="M72.3508 65.5192C72.3508 65.5192 51.6717 89.0522 50.9254 89.7233C50.1981 90.3778 35.0277 70.4993 33.8743 68.8595C33.8747 68.8555 34.5783 63.6296 34.0191 62.9807C33.4595 62.331 28.9646 63.387 29.2088 63.6312C29.453 63.875 31.8865 64.4229 31.9955 64.7721C32.1046 65.1213 31.6166 67.0745 31.44 67.3123C29.2297 66.1657 26.2869 64.82 26.2869 64.82L24.2891 69.7184C24.2891 69.7184 30.3562 72.0325 31.4738 72.4316C32.5914 72.8298 46.1183 99.8838 50.0263 99.8838C53.781 99.8838 82.0788 73.1299 82.0788 73.1299L72.3508 65.5192Z" fill="#FFB894"/>
<path d="M33.8743 68.8595C33.8747 68.8555 34.5783 63.6296 34.0191 62.9807C33.4595 62.331 28.9646 63.387 29.2088 63.6312C29.453 63.875 31.8865 64.4229 31.9955 64.7721C32.1046 65.1213 31.6166 67.0745 31.44 67.3123C29.2297 66.1657 26.2869 64.82 26.2869 64.82L24.2891 69.7184C24.2891 69.7184 30.3562 72.0325 31.4738 72.4316C31.8551 72.5675 33.6836 75.8109 36.0817 80.0242C37.8184 79.5205 39.5701 79.0466 41.3313 78.5916C37.7372 74.0102 34.3925 69.5961 33.8743 68.8595Z" fill="#F9A88C"/>
<path d="M72.3519 65.519C72.3519 65.519 70.3319 67.8178 67.5323 70.9988C64.3392 78.4916 61.6237 86.1462 58.9492 93.8221C68.5401 85.9302 82.0795 73.1294 82.0795 73.1294L72.3519 65.519Z" fill="#F9A88C"/>
<path d="M48.2017 74.7401C48.5259 76.6675 47.4365 78.2296 45.7681 78.2296H30.8649C29.1969 78.2296 27.5813 76.6675 27.257 74.7401L22.983 49.3392C22.6583 47.4121 23.7482 45.8496 25.4165 45.8496H40.3194C41.9877 45.8496 43.6033 47.4121 43.9276 49.3392L48.2017 74.7401Z" fill="#CBEEFA"/>
<path d="M49.1079 74.7401C49.4322 76.6675 48.3427 78.2296 46.6744 78.2296H31.7711C30.1028 78.2296 28.4872 76.6675 28.1633 74.7401L23.8893 49.3392C23.5646 47.4121 24.6544 45.8496 26.3228 45.8496H41.2256C42.894 45.8496 44.5096 47.4121 44.8339 49.3392L49.1079 74.7401Z" fill="#FFF2E4"/>
<path d="M47.3099 71.2467C47.6341 73.1734 46.5443 74.7363 44.8764 74.7363H32.3901C30.7214 74.7363 29.1057 73.1734 28.7819 71.2467L25.3305 50.7366C25.0063 48.8092 26.0957 47.2471 27.7645 47.2471H40.2511C41.919 47.2471 43.5347 48.8096 43.8589 50.7366L47.3099 71.2467Z" fill="#FFCBC1"/>
<path d="M39.8182 76.369C39.9156 76.9476 39.5885 77.4158 39.088 77.4158C38.5876 77.4158 38.1028 76.9476 38.0054 76.369C37.9081 75.7905 38.2351 75.3223 38.7356 75.3223C39.2361 75.3223 39.7208 75.7905 39.8182 76.369Z" fill="#CBEEFA"/>
<path d="M42.6425 52.3603C41.8548 51.5722 39.6876 51.2769 39.3919 49.9964C39.1585 49.1805 39.8573 48.1591 40.6293 47.276C40.5046 47.2587 40.3795 47.2471 40.2536 47.2471H38.2039C37.4516 48.1937 36.9479 49.2312 37.2247 50.2917C37.6185 52.0646 39.6872 52.9513 39.9825 54.8228C40.4749 58.172 36.8308 62.1117 35.0575 64.5742C33.1534 67.3086 31.2734 70.0917 29.4297 72.9111C30.1245 73.9977 31.2457 74.7363 32.3926 74.7363H33.8807C37.0006 70.2571 40.0766 65.6548 42.2478 60.7326C43.332 58.3687 44.9078 54.6253 42.6425 52.3603Z" fill="#FCFEFB"/>
<path opacity="0.2" d="M28.6544 60.3272C28.5655 60.1771 28.3427 60.0991 28.1898 60.2053C27.5457 60.6518 26.9676 61.1829 26.3038 61.6037C25.9425 61.8326 25.5374 61.9867 25.1367 62.146L25.4851 64.217C27.2404 63.6643 29.6236 61.9577 28.6544 60.3272Z" fill="#CBEEFA"/>
<path opacity="0.2" d="M29.5787 65.2102C29.5292 65.0879 29.3912 64.9101 29.2347 64.7934C29.6193 64.2547 29.9154 63.6553 30.1013 62.9605C30.1323 62.8463 29.9955 62.7783 29.9122 62.8507C28.9314 63.7032 27.8436 64.4872 26.7598 65.2041C26.4597 65.4021 26.1076 65.5908 25.75 65.7879L26.3349 69.265C27.2373 68.5694 28.1312 67.8601 28.9052 67.0209C29.2766 66.6182 29.812 65.7871 29.5787 65.2102Z" fill="#CBEEFA"/>
<path d="M23.3774 67.0842C23.3774 67.0842 22.156 63.4224 22.6967 62.514C23.2374 61.6052 27.0753 60.1924 27.9463 60.0568C28.8173 59.9216 28.9678 60.6727 27.6575 61.6378C26.3472 62.603 24.7553 63.2064 24.7553 63.416C24.7553 63.6248 25.7123 66.2301 25.7123 66.2301L23.3774 67.0842Z" fill="#FFB894"/>
<path d="M23.3796 67.0842L25.7141 66.2301C25.7141 66.2301 25.2905 65.0763 25.0069 64.2432C24.3069 64.6708 23.6334 65.1475 22.9531 65.6142C23.1631 66.4329 23.3796 67.0842 23.3796 67.0842Z" fill="#F9A88C"/>
<path d="M23.3597 68.737C23.3597 68.737 22.2847 66.9833 22.6818 66.5392C23.0784 66.0947 29.4702 62.5452 30.0942 62.8187C30.719 63.0919 25.4681 66.8236 25.4681 66.8236L23.3597 68.737Z" fill="#FFB894"/>
<path d="M23.3613 68.7373L25.4697 66.8239C25.4697 66.8239 26.8259 65.86 28.0775 64.876C26.9325 65.1902 24.2121 66.9008 22.9727 68.0184C23.1662 68.4182 23.3613 68.7373 23.3613 68.7373Z" fill="#F9A88C"/>
<path d="M25.5236 70.1885C25.5236 70.1885 23.1701 69.6047 22.9328 68.881C22.6954 68.158 28.5714 64.345 29.1463 64.8745C29.7212 65.4039 26.195 68.4284 26.195 68.4284L26.4252 69.7958L25.5236 70.1885Z" fill="#FFB894"/>
<path d="M68.1406 52.8489C68.1406 52.8489 89.3902 49.0045 105.056 55.9526C105.056 55.9526 112.309 24.9618 99.644 16.9491C88.6966 10.0231 81.1068 18.6102 81.1068 18.6102C81.1068 18.6102 68.4065 10.5007 68.1406 52.8489Z" fill="#761604"/>
<path d="M78.7632 26.3901C78.7632 26.3901 74.2381 31.2652 74.2031 51.2077C74.2031 51.2077 90.3261 49.9493 99.0686 52.7183C99.0686 52.7183 100.502 45.2987 99.921 38.8188C96.5787 36.113 92.7295 30.5306 90.37 26.576L78.7632 26.3901Z" fill="#A53521"/>
<path d="M99.6455 16.949C95.8771 14.5649 92.507 14.019 89.707 14.3284C94.8163 16.1186 98.4301 19.0888 100.652 24.7661C103.485 32.2903 104.169 40.8895 103.583 48.9021C103.432 50.968 103.15 53.0076 102.792 55.0348C103.558 55.3176 104.314 55.6226 105.057 55.9525C105.057 55.9525 112.31 24.9616 99.6455 16.949Z" fill="#761604"/>
<path d="M78.7103 23.4003C77.1767 23.8074 76.4152 25.3221 75.8604 26.6826C74.921 28.985 74.3457 31.4028 73.9837 33.8573C73.1561 39.467 72.4919 45.1801 72.6018 50.8569C72.6066 51.116 73.0093 51.1164 73.0041 50.8569C72.9035 45.6564 73.5616 40.5282 74.1848 35.3776C74.4894 32.8592 74.9922 30.4631 75.7936 28.0585C76.3178 26.4851 77.0126 24.2672 78.8173 23.7881C79.0679 23.7217 78.9613 23.3335 78.7103 23.4003Z" fill="#A53521"/>
<path d="M103.14 31.0222C98.5511 30.6987 95.072 26.8736 92.0881 23.7578C89.8433 21.4136 86.7649 18.1019 83.1522 18.9125C82.8992 18.9692 83.0066 19.357 83.2592 19.3003C87.2344 18.4084 90.4874 22.7448 92.933 25.2093C95.7282 28.0266 98.9619 31.13 103.14 31.4245C103.399 31.4426 103.398 31.0403 103.14 31.0222Z" fill="#A53521"/>
<path d="M89.8958 17.0559C89.6403 17.1005 89.749 17.4883 90.0028 17.4437C97.1308 16.1921 102.868 22.4491 103.037 29.2689C103.044 29.528 103.446 29.5284 103.44 29.2689C103.264 22.1671 97.2825 15.7589 89.8958 17.0559Z" fill="#A53521"/>
<path d="M101.33 35.0266C101.318 40.786 100.736 46.5111 100.06 52.225C100.03 52.4825 100.432 52.4793 100.463 52.225C101.139 46.5115 101.72 40.786 101.733 35.0266C101.733 34.7672 101.331 34.7672 101.33 35.0266Z" fill="#A53521"/>
<path d="M102.895 33.9515C103.287 40.2914 103.496 46.8288 101.534 52.953C101.455 53.2008 101.843 53.3058 101.922 53.06C103.894 46.9028 103.691 40.3264 103.297 33.9515C103.281 33.694 102.879 33.6924 102.895 33.9515Z" fill="#A53521"/>
<path d="M105.546 32.4862C105.525 32.2296 105.123 32.2275 105.144 32.4862C105.72 39.6488 105.978 46.8745 104.369 53.9305C104.312 54.1831 104.699 54.2905 104.757 54.0375C106.374 46.9469 106.124 39.6854 105.546 32.4862Z" fill="#A53521"/>
<path d="M78.4737 22.399C78.7074 22.2868 78.5031 21.9396 78.2705 22.0518C74.0725 24.0722 73.3431 28.8089 72.3157 32.9015C70.8654 38.6761 70.3504 44.4282 70.6469 50.3682C70.6598 50.6265 71.0621 50.6277 71.0492 50.3682C70.7672 44.7167 71.2242 39.2627 72.5233 33.7487C73.5 29.6018 74.2194 24.4467 78.4737 22.399Z" fill="#A53521"/>
<path d="M70.7716 33.2357C71.8485 28.6273 73.2465 23.6448 77.694 21.227C77.9217 21.1031 77.7189 20.7559 77.4908 20.8798C73.1584 23.2349 71.6888 27.8915 70.5624 32.3905C69.0473 38.4419 68.3887 44.7218 68.6941 50.9551C68.7065 51.2133 69.1092 51.2145 69.0964 50.9551C68.8047 44.9974 69.4158 39.0381 70.7716 33.2357Z" fill="#A53521"/>
<path d="M86.237 18.3304C89.6352 18.5264 92.5169 21.0271 94.6559 23.4747C96.8356 25.9685 98.8797 28.573 101.673 30.42C101.89 30.5636 102.091 30.2148 101.876 30.0728C98.8238 28.0549 96.7374 25.112 94.2906 22.4617C92.2192 20.218 89.385 18.11 86.237 17.9281C85.9775 17.9133 85.9791 18.3156 86.237 18.3304Z" fill="#A53521"/>
<path d="M102.185 28.7842C102.34 28.9873 102.69 28.7874 102.532 28.581C100.828 26.3482 99.2262 24.0217 97.2606 22.0038C95.3154 20.0072 92.9604 18.5549 90.2947 17.7398C90.0461 17.6638 89.9403 18.052 90.1877 18.1276C95.7551 19.8302 98.8247 24.3818 102.185 28.7842Z" fill="#A53521"/>
<path d="M84.8086 45.7002V59.298C84.8086 59.298 88.3991 60.9732 91.1577 59.298V45.7002H84.8086Z" fill="#FFB894"/>
<path d="M80.5254 42.2584C79.615 44.2494 76.2328 44.8629 74.2418 43.9521C72.2509 43.0417 71.3755 40.6898 72.2859 38.6988C73.1963 36.7082 75.5481 35.8324 77.5391 36.7428C79.5301 37.6532 81.4362 40.2678 80.5254 42.2584Z" fill="#FFB894"/>
<path d="M78.7515 41.9474C78.1879 40.6403 77.8266 39.4161 76.4318 38.7894C75.2668 38.266 73.6427 38.3714 72.7793 39.3522C72.7335 39.4049 72.7842 39.4829 72.8506 39.4644C73.9565 39.1583 74.9864 38.9805 76.0838 39.4399C76.4182 39.5795 76.676 39.7738 76.8917 39.9995C76.5984 40.0554 76.326 40.2417 76.1076 40.506C75.6988 41.0008 75.6719 41.6936 76.003 42.2306C76.2741 42.6708 76.9166 42.9568 77.4151 42.9797C77.8005 42.997 78.4007 42.8059 78.5331 42.3956C78.7149 42.3401 78.8485 42.1723 78.7515 41.9474ZM77.475 42.3606C77.1568 42.3232 76.8804 42.1393 76.6644 41.9136C76.0987 41.3227 76.5843 40.6412 77.2026 40.3933C77.5474 40.9139 77.7586 41.5375 78.0169 42.1425C77.8681 42.2733 77.7502 42.3932 77.475 42.3606Z" fill="#CC6B52"/>
<path d="M96.0014 43.2507C96.5172 45.1061 99.2218 45.8616 100.96 45.1547C102.699 44.4483 103.691 42.372 103.174 40.5162C102.658 38.6612 100.83 37.7295 99.0907 38.4359C97.3515 39.1424 95.4853 41.3952 96.0014 43.2507Z" fill="#FFB894"/>
<path d="M97.6188 43.4931C97.6799 43.872 98.1502 44.0804 98.468 44.0877C98.8792 44.0965 99.4396 43.8757 99.7136 43.4935C100.047 43.0272 100.106 42.3984 99.8274 41.9269C99.679 41.6747 99.477 41.49 99.2429 41.4216C99.446 41.2301 99.6802 41.0696 99.9702 40.963C100.924 40.6122 101.749 40.8339 102.621 41.1762C102.673 41.1967 102.724 41.1291 102.693 41.0789C102.098 40.1403 100.777 39.9484 99.761 40.3535C98.5433 40.8383 98.106 41.9245 97.4912 43.0743C97.3858 43.2718 97.476 43.4315 97.6188 43.4931ZM98.0714 43.2939C98.3538 42.7617 98.5992 42.2101 98.9419 41.7591C99.4211 42.0194 99.7397 42.6655 99.2079 43.1664C99.0047 43.3579 98.7557 43.508 98.4906 43.5228C98.2621 43.5369 98.1792 43.4211 98.0714 43.2939Z" fill="#CC6B52"/>
<path d="M100.686 34.6205C100.343 42.3205 94.5761 48.318 87.8057 48.0163C81.0358 47.7146 75.8252 41.2279 76.1684 33.5282C76.3756 28.8812 78.558 24.8538 81.7447 22.4573C84.3878 20.8622 87.3596 23.9768 93.6898 30.0109C98.3448 34.4483 100.686 34.6205 100.686 34.6205Z" fill="#FFB894"/>
<path opacity="0.2" d="M98.9791 34.002C98.4709 41.5234 92.7852 47.3262 86.1235 47.0293C84.6225 46.9625 83.1988 46.5904 81.8945 45.9696C83.616 47.1805 85.6299 47.9196 87.8072 48.0165C94.5775 48.3182 100.344 42.3207 100.688 34.6207C100.688 34.6207 100.116 34.5776 98.9791 34.002Z" fill="#FFCEB6"/>
<g opacity="0.3">
<path d="M81.7476 39.9592C81.7476 37.3337 79.619 35.2056 76.9944 35.2056C76.72 35.2056 76.4529 35.2337 76.1914 35.2784C76.4091 38.6239 77.6735 41.6496 79.6311 43.9134C80.9068 43.0613 81.7476 41.609 81.7476 39.9592Z" fill="#D65470"/>
<path d="M100.296 37.4841C100.243 37.4821 100.191 37.4761 100.138 37.4761C97.6912 37.4761 95.707 39.4598 95.707 41.9066C95.707 42.8565 96.0088 43.7343 96.5181 44.4556C98.3208 42.6352 99.6625 40.2274 100.296 37.4841Z" fill="#D65470"/>
</g>
<path d="M99.3808 36.5619C98.3835 36.784 97.4253 37.1654 96.3974 37.2141C95.1563 37.2728 94.1541 36.7808 93.0068 36.4513C92.9834 36.4445 92.9645 36.4706 92.9762 36.4911C93.739 37.8187 95.493 38.3832 97.0744 38.1905C97.0865 38.2106 97.099 38.2311 97.1123 38.2488C97.2776 38.4664 97.4635 38.4805 97.7181 38.5006C97.7845 38.5059 97.8473 38.4262 97.8231 38.363C97.7938 38.2866 97.764 38.211 97.7399 38.1329C97.7326 38.1096 97.7181 38.0935 97.7073 38.0742C97.9314 38.015 98.1438 37.9338 98.3493 37.8413C98.5207 38.0472 98.8743 38.0859 99.1322 37.9563C99.1773 37.9338 99.1757 37.8622 99.1322 37.8388C99.0095 37.7741 98.9355 37.6683 98.8647 37.5584C99.1531 37.3661 99.4094 37.1368 99.6113 36.8616C99.7256 36.706 99.5381 36.5269 99.3808 36.5619Z" fill="#761604"/>
<path d="M91.7126 40.2836C90.933 40.5165 90.1002 40.3821 89.3229 40.5869C89.0924 40.6477 89.0096 41.0214 89.2518 41.13C90.07 41.4961 91.2898 41.2579 91.9323 40.6609C92.098 40.506 91.9266 40.2196 91.7126 40.2836Z" fill="#CC6B52"/>
<path d="M86.5181 35.8559C86.5334 35.839 86.5241 35.8056 86.498 35.8076C85.2211 35.9126 84.0773 36.158 82.7815 35.9512C81.6808 35.7754 80.6727 35.1696 79.6392 34.7737C79.4553 34.7033 79.3169 34.9358 79.3994 35.0851C79.5627 35.3804 79.7804 35.6427 80.0342 35.8748C79.9393 35.9657 79.8395 36.0494 79.7112 36.0908C79.65 36.1105 79.6444 36.1846 79.6943 36.22C79.8439 36.3266 80.0378 36.4054 80.2241 36.3757C80.3476 36.3559 80.4414 36.3085 80.5166 36.2441C80.7173 36.3761 80.9305 36.4939 81.157 36.5945C81.1128 36.6766 81.0617 36.7538 81.0114 36.8319C80.9603 36.9119 81.0303 36.992 81.1092 37.002C81.3582 37.0338 81.5465 37.0551 81.7529 36.883C81.771 36.8677 81.7883 36.8496 81.806 36.8319C83.4566 37.3118 85.4379 37.0386 86.5181 35.8559Z" fill="#761604"/>
<path d="M79.5427 30.6831C81.596 29.798 83.5943 30.1774 85.7176 30.4207C85.9003 30.4417 85.928 30.1894 85.8033 30.1045C83.7805 28.7275 81.3156 29.1278 79.4284 30.4879C79.3086 30.574 79.4095 30.7406 79.5427 30.6831Z" fill="#A53521"/>
<path d="M90.2899 44.5473C87.6958 44.6426 85.2861 43.6236 84.4992 40.9736C84.4815 40.9137 84.3817 40.9229 84.3869 40.9889C84.638 44.1015 87.5047 45.3458 90.3253 44.8092C90.4741 44.7806 90.4383 44.542 90.2899 44.5473Z" fill="#D65470"/>
<path d="M93.531 31.6017C94.2201 31.6467 94.9012 31.6556 95.5719 31.6882C95.2754 31.4436 94.9656 31.1784 94.643 30.8916C94.2407 30.9725 93.8391 31.1012 93.4449 31.2854C93.2803 31.3627 93.3777 31.5916 93.531 31.6017Z" fill="#A53521"/>
<path d="M101.922 67.6162C101.922 67.6162 119.462 77.4155 126.287 77.9155C127.138 77.9775 148.479 68.7845 149.073 67.7075C149.668 66.6302 148.749 63.1744 149.073 62.6349C149.398 62.0946 152.205 59.7191 153.123 59.9347C154.041 60.1507 156.363 61.6087 156.254 61.8786C156.146 62.1486 155.067 62.5806 153.339 61.7704C153.339 61.7704 152.205 62.8506 152.367 63.3905C152.529 63.9303 154.527 66.2516 155.067 65.8739C155.607 65.4961 158.253 63.2283 158.253 63.2283C158.253 63.2283 157.389 68.628 155.877 69.4918C154.365 70.3555 153.015 70.4637 153.015 70.4637C153.015 70.4637 130.499 84.9884 126.125 85.9608C121.751 86.9327 99.5469 78.3078 99.5469 78.3078L101.922 67.6162Z" fill="#FFB894"/>
<path d="M110.024 71.8392C105.486 69.6068 101.922 67.6162 101.922 67.6162L99.5469 78.3074C99.5469 78.3074 121.496 86.8325 126.046 85.9748C119.293 83.3715 114.452 77.8628 110.024 71.8392Z" fill="#F9A88C"/>
<path d="M153.522 67.7108C155.591 68.2632 156.072 65.7403 157.299 64.041C156.484 64.7318 155.394 65.6458 155.068 65.8739C155.008 65.9161 154.926 65.9202 154.834 65.9013C154.689 66.075 154.517 66.2275 154.304 66.2927C154.217 66.3192 154.166 66.3422 154.131 66.3611C154.149 66.3313 154.164 66.2855 154.159 66.2195C154.142 65.9986 154.17 65.7769 154.218 65.5593C154.079 65.4511 153.935 65.3252 153.79 65.1868C152.909 66.174 151.728 67.2317 153.522 67.7108Z" fill="#F9A88C"/>
<path d="M155.282 67.3361C154.996 67.7074 154.405 67.7311 153.962 67.39C153.518 67.0488 153.39 66.4719 153.676 66.101L163.974 52.7116C164.259 52.3407 164.849 52.317 165.293 52.6577C165.737 52.9989 165.865 53.5758 165.579 53.9467L155.282 67.3361Z" fill="#A1C9B4"/>
<path d="M165.368 52.7271L154.062 67.4561C154.491 67.722 155.016 67.6798 155.279 67.3362L165.577 53.9468C165.845 53.5992 165.745 53.073 165.368 52.7271Z" fill="#8FB4A2"/>
<path d="M156.965 67.97C156.965 67.97 163.299 59.475 163.723 58.6728C164.147 57.8703 162.722 57.9105 161.878 58.7533C161.033 59.5957 156.84 65.7763 156.84 65.7763L156.965 67.97Z" fill="#FFB894"/>
<path d="M160.749 60.1855C159.214 62.2767 156.84 65.7759 156.84 65.7759L156.965 67.9697C156.965 67.9697 158.896 65.3797 160.697 62.9252C160.744 62.0164 160.753 61.1052 160.749 60.1855Z" fill="#F9A88C"/>
<path d="M156.965 67.9698C156.965 67.9698 159.388 64.0414 159.73 63.0328C160.071 62.0238 160.131 58.842 160.111 58.0954C160.091 57.3483 158.929 58.3074 158.738 59.5135C158.546 60.7196 158.23 62.6228 158.004 63.1273C157.778 63.6318 156.34 65.9535 156.34 65.9535L156.965 67.9698Z" fill="#FFB894"/>
<path d="M156.34 65.9535L156.965 67.9698C156.965 67.9698 157.558 67.0087 158.198 65.9157C158.154 65.0314 158.061 64.1508 157.924 63.2866C157.552 63.9951 156.34 65.9535 156.34 65.9535Z" fill="#F9A88C"/>
<path d="M155.496 67.6304C155.496 67.6304 156.118 66.0771 156.118 65.2745C156.118 64.4719 156.157 63.3105 156.841 63.0329C157.101 62.9267 157.483 64.5122 157.382 65.4954C157.282 66.4786 157.179 68.1192 156.528 68.8059C155.876 69.4915 155.496 67.6304 155.496 67.6304Z" fill="#FFB894"/>
<path d="M152.022 101.436L151.021 114.444C151.021 114.444 149.689 115.377 147.034 115.377C144.38 115.377 143.047 114.444 143.047 114.444L142.047 101.436H152.022Z" fill="#EA7C69"/>
<path d="M151.942 102.472L152.022 101.437H142.047L143.047 114.445C143.047 114.445 143.255 114.588 143.664 114.762C144.2 112.628 145.003 110.572 146.186 108.694C147.687 106.313 149.736 104.248 151.942 102.472Z" fill="#761604"/>
<path d="M153.469 101.15C153.469 101.82 152.925 102.364 152.254 102.364H141.886C141.215 102.364 140.672 101.82 140.672 101.15C140.672 100.479 141.215 99.9351 141.886 99.9351H152.254C152.925 99.9355 153.469 100.479 153.469 101.15Z" fill="#FFF2E4"/>
<path d="M146.22 101.112C145.254 100.784 144.166 100.432 143.175 99.9355H141.886C141.215 99.9355 140.672 100.479 140.672 101.151C140.672 101.821 141.215 102.365 141.886 102.365H151.09C149.444 102.062 147.819 101.663 146.22 101.112Z" fill="#F0FAFB"/>
<path d="M146.051 106.905C146.062 107.645 146.502 107.934 147.15 108.228C147.834 108.538 149.013 108.76 149.701 108.407C149.941 108.283 149.941 107.895 149.701 107.772C149.196 107.513 148.618 107.634 148.06 107.596C147.398 107.55 146.545 107.424 146.085 106.891C146.073 106.877 146.05 106.888 146.051 106.905Z" fill="#761604"/>
<path d="M145.89 108.559C144.939 110.168 149.545 110.908 150.371 110.653C150.695 110.552 150.795 110.076 150.468 109.903C149.143 109.203 147.169 109.658 146.001 108.545C145.969 108.513 145.914 108.52 145.89 108.559Z" fill="#761604"/>
<path d="M146.429 110.643C146.326 111.551 146.986 111.97 147.736 112.313C148.564 112.691 150.443 113.079 151.127 112.977C151.127 112.977 151.157 112.416 151.127 112.404C150.298 112.198 149.509 111.964 148.698 111.694C147.956 111.447 146.999 111.323 146.534 110.613C146.501 110.565 146.435 110.588 146.429 110.643Z" fill="#761604"/>
<path d="M102.218 60.0428C104.694 60.2331 108.197 74.7783 111.712 80.9942C115.225 87.211 129.54 102.568 139.17 106.862C139.17 106.862 140.855 103.149 143.205 103.414C147.608 103.912 148.97 105.051 147.493 105.441C146.016 105.832 142.687 105.417 142.662 106.587C142.639 107.66 142.966 113.388 142.966 113.388C142.966 113.388 139.04 111.418 137.869 110.506C137.869 110.506 111.985 100.355 102.218 81.7458C102.218 81.7453 99.2316 59.8131 102.218 60.0428Z" fill="#FFB894"/>
<path d="M115.912 86.789C115.386 86.6273 114.872 86.437 114.381 86.2004C110.852 84.475 108.577 80.7891 106.93 77.4158C104.236 72.0978 103.336 66.0753 102.551 60.1587C102.438 60.0967 102.326 60.0513 102.218 60.0428C99.2316 59.8131 102.218 81.7453 102.218 81.7453C106.003 88.9562 112.208 94.8962 118.389 99.4695C119.101 96.9262 119.764 94.3716 120.384 91.8266C118.741 90.0891 117.228 88.3793 115.912 86.789Z" fill="#F9A88C"/>
<path d="M142.118 107.628C141.638 109.163 141.234 110.723 140.871 112.296C141.993 112.899 142.965 113.388 142.965 113.388C142.965 113.388 142.639 107.667 142.662 106.589C142.444 106.831 142.277 107.167 142.118 107.628Z" fill="#F9A88C"/>
<path d="M145.973 107.016C145.973 107.837 151.306 108.73 151.8 108.515C152.294 108.302 152.459 106.373 151.8 106.301C151.141 106.23 145.973 105.937 145.973 107.016Z" fill="#FFB894"/>
<path d="M149.37 107.843C148.77 107.843 148.143 107.833 147.52 107.86C149.136 108.329 151.481 108.654 151.801 108.515C151.93 108.459 152.036 108.285 152.111 108.059C151.203 107.93 150.289 107.843 149.37 107.843Z" fill="#F9A88C"/>
<path d="M145.832 108.679C145.793 109.498 151.213 110.832 151.728 110.66C152.245 110.486 152.506 108.575 151.835 108.449C151.163 108.323 145.885 107.601 145.832 108.679Z" fill="#FFB894"/>
<path d="M149.735 110.136C149.484 110.132 149.233 110.143 148.984 110.158C150.263 110.508 151.496 110.737 151.728 110.66C151.83 110.626 151.921 110.524 151.997 110.383C151.25 110.252 150.496 110.156 149.735 110.136Z" fill="#F9A88C"/>
<path d="M146.403 110.671C146.328 111.487 150.857 113.086 151.304 112.939C151.749 112.792 152.067 110.899 151.504 110.74C150.941 110.581 146.501 109.599 146.403 110.671Z" fill="#FFB894"/>
<path d="M92.2438 60.431C92.2438 61.3197 91.5233 62.0402 90.6346 62.0402H85.601C84.7127 62.0402 83.9922 61.3197 83.9922 60.431V51.2469C83.9922 50.3582 84.7127 49.6377 85.601 49.6377H90.6346C91.5233 49.6377 92.2438 50.3582 92.2438 51.2469V60.431Z" fill="#FFF2E4"/>
<path d="M85.1055 50.6654C85.1055 54.1634 85.1055 57.6614 85.1055 61.1594C85.1055 61.4282 85.5227 61.4282 85.5227 61.1594C85.5227 57.6614 85.5227 54.1634 85.5227 50.6654C85.5227 50.3967 85.1055 50.3967 85.1055 50.6654Z" fill="#457F92"/>
<path d="M86.3125 50.6654C86.3125 54.1634 86.3125 57.6614 86.3125 61.1594C86.3125 61.4282 86.7297 61.4282 86.7297 61.1594C86.7297 57.6614 86.7297 54.1634 86.7297 50.6654C86.7297 50.3967 86.3125 50.3967 86.3125 50.6654Z" fill="#457F92"/>
<path d="M87.5234 50.6654C87.5234 54.1634 87.5234 57.6614 87.5234 61.1594C87.5234 61.4282 87.9406 61.4282 87.9406 61.1594C87.9406 57.6614 87.9406 54.1634 87.9406 50.6654C87.9406 50.3967 87.5234 50.3967 87.5234 50.6654Z" fill="#457F92"/>
<path d="M88.7305 50.6654C88.7305 54.1634 88.7305 57.6614 88.7305 61.1594C88.7305 61.4282 89.1476 61.4282 89.1476 61.1594C89.1476 57.6614 89.1476 54.1634 89.1476 50.6654C89.1476 50.3967 88.7305 50.3967 88.7305 50.6654Z" fill="#457F92"/>
<path d="M89.9414 50.6654C89.9414 54.1634 89.9414 57.6614 89.9414 61.1594C89.9414 61.4282 90.3586 61.4282 90.3586 61.1594C90.3586 57.6614 90.3586 54.1634 90.3586 50.6654C90.359 50.3967 89.9414 50.3967 89.9414 50.6654Z" fill="#457F92"/>
<path d="M91.1484 50.6654C91.1484 54.1634 91.1484 57.6614 91.1484 61.1594C91.1484 61.4282 91.5656 61.4282 91.5656 61.1594C91.5656 57.6614 91.5656 54.1634 91.5656 50.6654C91.5656 50.3967 91.1484 50.3967 91.1484 50.6654Z" fill="#457F92"/>
<path d="M69.8633 118.783C69.8633 118.783 89.1838 120.951 106.885 117.062C106.885 117.062 103.052 95.0122 103.321 89.1112C103.59 83.2111 105.601 80.7973 105.467 75.2986C105.467 75.2986 101.86 66.2428 102.39 60.043C102.39 60.043 89.7366 53.5744 74.2013 61.7548C74.2013 61.7548 75.199 77.7189 77.5436 90.7204C78.269 94.7435 69.8633 118.783 69.8633 118.783Z" fill="#FFF2E4"/>
<path d="M102.516 79.5904C99.0297 76.9086 92.9952 77.9812 88.9722 76.5063C82.1198 73.87 79.5406 66.8322 77.163 60.3535C76.1891 60.7643 75.2014 61.2281 74.2009 61.7547C74.2009 61.7547 75.1986 77.7188 77.5432 90.7204C78.2686 94.7434 69.8633 118.783 69.8633 118.783C69.8633 118.783 89.1838 120.951 106.885 117.062C106.885 117.062 103.052 95.0122 103.321 89.1112C103.398 87.4171 103.621 86.0147 103.894 84.7402C104 82.8345 104.126 80.7973 102.516 79.5904Z" fill="#F0FAFB"/>
<path opacity="0.2" d="M78.8128 89.6477C78.1088 87.0328 77.9076 84.4178 77.8071 81.7023C77.6135 74.6315 78.071 67.8402 74.6908 61.5088C74.5267 61.5925 74.3642 61.6681 74.1992 61.7546C74.1992 61.7546 75.1969 77.7187 77.5415 90.7203C77.7769 92.0269 77.0495 95.4449 75.9597 99.4639C76.8444 97.8619 77.6795 96.237 78.4105 94.5759C79.2151 92.7656 79.3157 91.5587 78.8128 89.6477Z" fill="#CBEEFA"/>
<path d="M74.2 61.7543C71.7524 62.5324 59.2798 95.6961 60.4079 98.9752C62.0171 103.653 81.0693 117.061 81.0693 117.061L87.978 114.728C87.978 114.728 68.6321 97.6605 69.1097 95.5862C69.4544 94.0877 73.8045 84.2574 75.7694 80.0574C77.7342 75.8566 79.2497 60.1491 74.2 61.7543Z" fill="#FFB894"/>
<path d="M87.9788 114.727C87.9788 114.727 81.1199 108.676 75.6708 103.342C74.8303 104.628 73.7968 105.875 73.1479 106.812C72.538 107.794 71.9189 108.768 71.2812 109.723C76.2674 113.681 81.07 117.061 81.07 117.061L87.9788 114.727Z" fill="#F9A88C"/>
<path d="M57.1641 118.783C57.1641 117.855 57.9164 117.103 58.8441 117.103H97.3455C98.2736 117.103 99.0255 117.855 99.0255 118.783C99.0255 119.711 98.2736 120.463 97.3455 120.463H58.8441C57.9164 120.463 57.1641 119.711 57.1641 118.783Z" fill="#66787C"/>
<path d="M74.4835 116.44C74.0892 118.661 75.4144 120.463 77.4428 120.463H112.924C114.952 120.463 116.917 118.661 117.311 116.44L121.85 90.8653C122.244 88.6442 120.919 86.8423 118.891 86.8423H83.4105C81.3821 86.8423 79.4173 88.6442 79.0226 90.8653L74.4835 116.44Z" fill="#738D8A"/>
<path d="M76.6124 116.44C76.2181 118.661 77.5433 120.463 79.5717 120.463H115.052C117.081 120.463 119.046 118.661 119.439 116.44L123.979 90.8653C124.373 88.6442 123.048 86.8423 121.019 86.8423H85.5394C83.5106 86.8423 81.5462 88.6442 81.1515 90.8653L76.6124 116.44Z" fill="#8FB4A2"/>
<path d="M101.236 106.136C100.954 107.585 101.761 108.759 103.038 108.759C104.314 108.759 105.578 107.585 105.86 106.136C106.142 104.687 105.335 103.513 104.058 103.513C102.781 103.513 101.518 104.687 101.236 106.136Z" fill="#597372"/>
<path d="M123.976 90.8653C124.371 88.6442 123.046 86.8423 121.017 86.8423H85.5369C85.0859 86.8423 84.6394 86.9356 84.2109 87.0985C92.9324 89.3575 101.18 92.8422 107.878 99.1684C113.634 104.514 117.005 110.84 119.037 117.681C119.222 117.289 119.36 116.873 119.437 116.44L123.976 90.8653Z" fill="#A1C9B4"/>
<path d="M117.274 88.4194C118.5 88.9114 119.392 89.702 119.866 90.9487C120.25 91.9585 120.075 93.0764 120.59 94.0444C120.759 94.361 121.28 94.3727 121.445 94.0444C122.094 92.7582 121.571 91.1527 120.901 89.9727C120.19 88.7228 118.754 88.1475 117.402 87.9556C117.095 87.9117 116.984 88.3023 117.274 88.4194Z" fill="#BAE5CE"/>
<path d="M120.564 95.9707C120.536 96.1577 120.494 96.3408 120.444 96.523C120.375 96.7753 120.249 97.0179 120.283 97.2854C120.335 97.6829 120.579 98.0216 121.02 98.0216C121.459 98.0216 121.707 97.6829 121.756 97.2854C121.79 97.0158 121.667 96.7676 121.568 96.523C121.479 96.3022 121.38 96.0869 121.262 95.8786C121.112 95.615 120.615 95.6315 120.564 95.9707Z" fill="#BAE5CE"/>
<path d="M121.02 99.9697C121.02 99.9697 121.021 99.9697 121.021 99.9697C121.642 99.9697 121.642 99.0078 121.021 99.0078C121.021 99.0078 121.02 99.0078 121.02 99.0078C120.4 99.0078 120.4 99.9697 121.02 99.9697Z" fill="#BAE5CE"/>
</svg>
